<?xml version="1.0" standalone="no"?>
<!DOCTYPE svg PUBLIC "-//W3C//DTD SVG 1.1//EN" "http://www.w3.org/Graphics/SVG/1.1/DTD/svg11.dtd" >
<svg xmlns="http://www.w3.org/2000/svg" xmlns:xlink="http://www.w3.org/1999/xlink" version="1.1">
<metadata>
Created by FontForge 20170731 at Wed Oct  7 08:03:19 2020
 By Aleksey,,,
Copyright 2020 KOTRA. All right reserved.
</metadata>
<defs>
<font id="KOTRA_BOLD-Bold" horiz-adv-x="1010" >
  <font-face 
    font-family="KOTRA_BOLD"
    font-weight="700"
    font-stretch="expanded"
    units-per-em="1024"
    panose-1="2 2 6 3 2 1 1 2 1 1"
    ascent="819"
    descent="-205"
    x-height="502"
    cap-height="739"
    bbox="-36 -313 1171 957"
    underline-thickness="10"
    underline-position="-215"
    unicode-range="U+0020-FF5E"
  />
<missing-glyph horiz-adv-x="7" 
 />
    <glyph glyph-name=".notdef" horiz-adv-x="7" 
 />
    <glyph glyph-name=".null" horiz-adv-x="0" 
 />
    <glyph glyph-name="nonmarkingreturn" horiz-adv-x="341" 
 />
    <glyph glyph-name="space" unicode=" " horiz-adv-x="290" 
 />
    <glyph glyph-name="space" unicode="&#xa0;" horiz-adv-x="290" 
 />
    <glyph glyph-name="exclam" unicode="!" horiz-adv-x="303" 
d="M251 183h-200v590h200v-590zM151 -73q-42 0 -71.5 29.5t-29.5 71.5t29.5 71.5t71.5 29.5t72 -29.5t30 -71.5t-30 -71.5t-72 -29.5z" />
    <glyph glyph-name="quotedbl" unicode="&#x22;" horiz-adv-x="439" 
d="M127 558q-32 0 -54.5 22.5t-22.5 54.5v13q0 86 54 151q41 44 97 44v-88q-35 0 -57 -44q27 -7 44 -27.5t17 -48.5q0 -32 -22.5 -54.5t-55.5 -22.5zM311 558q-32 0 -54.5 22.5t-22.5 54.5v13q0 86 54 151q41 44 97 44v-88q-35 0 -57 -44q27 -7 44 -27.5t17 -48.5
q0 -32 -22.5 -54.5t-55.5 -22.5z" />
    <glyph glyph-name="numbersign" unicode="#" horiz-adv-x="719" 
d="M406 326l12 88h-98l-11 -88h97zM525 -54l-165 23l26 197h-98l-29 -220l-164 23l25 197h-70v160h91l12 88h-71v160h91l24 181l164 -23l-20 -158h97l24 181l164 -23l-20 -158h63v-160h-84l-11 -88h63v-160h-84z" />
    <glyph glyph-name="dollar" unicode="$" horiz-adv-x="671" 
d="M258 507v97q-39 -11 -47 -26q-6 -10 -6 -25l1 -8q2 -14 52 -38zM419 97q34 11 44 28q5 9 5 33q0 21 -3 26q-7 13 -46 30v-117zM421 -132h-168v75q-85 6 -199 38l45 161q91 -24 154 -31v195q-86 34 -148 89q-55 48 -55 140q0 108 90 169q49 32 113 43v85h168v-81
q78 -9 148 -30l-48 -161q-51 15 -100 22v-168q95 -41 151 -97q49 -49 49 -141q0 -114 -91 -179q-38 -29 -109 -46v-83z" />
    <glyph glyph-name="percent" unicode="%" horiz-adv-x="1080" 
d="M372 -130l-154 86l492 875l153 -86zM815 51q30 0 36 86q0 86 -36 87q-31 0 -37 -87q0 -85 37 -86zM815 -71q-89 0 -152 53t-63 155q0 103 63 155.5t152 52.5t151.5 -52.5t62.5 -155.5q0 -102 -62.5 -155t-151.5 -53zM265 493q30 0 36 86q0 86 -36 87q-31 0 -37 -87
q0 -85 37 -86zM265 371q-89 0 -152 53t-63 155q0 103 63 155.5t152 52.5t151.5 -52.5t62.5 -155.5q0 -102 -62.5 -155t-151.5 -53z" />
    <glyph glyph-name="ampersand" unicode="&#x26;" horiz-adv-x="824" 
d="M343 76q62 0 105 35q-50 54 -141 156q-81 -62 -81 -119q0 -9 6.5 -26t31.5 -31.5t79 -14.5zM340 489q67 46 67 86q0 47 -52 49q-59 0 -59 -57q0 -32 44 -78zM646 -101l-78 83q-99 -82 -225 -82q-151 0 -222 79t-71 169q0 136 138 249q-68 71 -68 170q0 100 67.5 166.5
t167.5 66.5q98 0 163 -64.5t65 -160.5q0 -119 -123 -216l90 -98q21 69 21 111h176q0 -90 -68 -251l95 -101z" />
    <glyph glyph-name="quotesingle" unicode="'" horiz-adv-x="255" 
d="M128 558q-32 0 -55 22.5t-23 54.5v13q0 86 54 151q41 44 97 44v-88q-35 0 -57 -44q27 -7 44 -27.5t17 -48.5q0 -32 -22.5 -54.5t-54.5 -22.5z" />
    <glyph glyph-name="parenleft" unicode="(" horiz-adv-x="422" 
d="M255 -210q-97 126 -151 263.5t-54 295.5q0 314 201 562l117 -89q-142 -193 -142 -473q0 -282 145 -477z" />
    <glyph glyph-name="parenright" unicode=")" horiz-adv-x="421" 
d="M166 -210l-116 82q145 195 145 477q0 280 -141 473l117 89q200 -248 200 -562q0 -158 -53.5 -295.5t-151.5 -263.5z" />
    <glyph glyph-name="asterisk" unicode="*" horiz-adv-x="602" 
d="M383 107l-82 109l-81 -109l-128 96l77 104l-119 37l47 152l125 -38v134h160v-133l123 37l47 -152l-119 -37l78 -104z" />
    <glyph glyph-name="plus" unicode="+" horiz-adv-x="741" 
d="M455 32h-168v238h-237v160h237v237h168v-237h236v-160h-236v-238z" />
    <glyph glyph-name="comma" unicode="," horiz-adv-x="352" 
d="M220 -199l-170 49l66 249l186 -49z" />
    <glyph glyph-name="hyphen" unicode="-" horiz-adv-x="448" 
d="M399 266h-349v168h349v-168z" />
    <glyph glyph-name="hyphen" unicode="&#xad;" horiz-adv-x="448" 
d="M399 266h-349v168h349v-168z" />
    <glyph glyph-name="period" unicode="." horiz-adv-x="255" 
d="M127 -127q-32 0 -54.5 22.5t-22.5 54.5t22.5 54.5t54.5 22.5t55 -22.5t23 -54.5t-23 -54.5t-55 -22.5z" />
    <glyph glyph-name="slash" unicode="/" horiz-adv-x="545" 
d="M218 -114l-168 53l277 875l168 -53z" />
    <glyph glyph-name="zero" unicode="0" horiz-adv-x="692" 
d="M343 65q45 0 64 59q27 81 27 208v36q0 267 -91 267t-91 -267v-36q0 -267 91 -267zM350 -71q-300 0 -300 421t300 421q167 0 229.5 -118.5t62.5 -302.5t-62.5 -302.5t-229.5 -118.5z" />
    <glyph glyph-name="one" unicode="1" horiz-adv-x="470" 
d="M380 -47h-190v589l-73 -56l-107 119l180 152h190v-804z" />
    <glyph glyph-name="two" unicode="2" horiz-adv-x="656" 
d="M606 -47h-556v165q125 81 248.5 202t123.5 204t-89 83q-73 0 -158 -55l-97 143q133 86 252 86q72 0 139 -32q126 -75 126 -225q0 -170 -234 -381l-27 -25h272v-165z" />
    <glyph glyph-name="three" unicode="3" horiz-adv-x="640" 
d="M290 -60q-125 0 -240 42l59 160q85 -31 181 -31q68 0 111 37q19 19 19 55q0 44 -61 66q-96 21 -209 21v171q112 0 207 18q26 10 38 19q17 13 17 34q0 23 -5 33q-19 36 -93 36q-76 0 -163 -44l-78 152q123 63 241 63q128 0 205 -75q63 -64 63 -163q-1 -96 -69 -159
q77 -68 77 -175q0 -101 -67 -171q-96 -89 -233 -89z" />
    <glyph glyph-name="four" unicode="4" horiz-adv-x="742" 
d="M425 241v238l-167 -238h167zM581 -64h-156v155h-375v150l375 506h156v-506h111v-150h-111v-155z" />
    <glyph glyph-name="five" unicode="5" horiz-adv-x="624" 
d="M286 -55q-123 0 -236 41l57 158q84 -31 179 -31q14 0 43 5.5t53 24t24 59.5q0 39 -9 55q-30 50 -127 54l-54 1q-44 0 -84 -3t-72 -3v453h485v-160h-309v-119l24 1q133 0 237 -82q77 -73 77 -197q0 -113 -80.5 -185t-207.5 -72z" />
    <glyph glyph-name="six" unicode="6" horiz-adv-x="675" 
d="M340 109q48 0 82.5 32.5t34.5 79.5q0 46 -34.5 79t-82.5 33q-49 0 -83 -33t-34 -79q0 -16 5 -32q33 -80 112 -80zM340 -59q-194 0 -273 201q-17 63 -17 135l1 54q0 257 158 357q104 68 227 68q97 0 171 -28l-58 -158q-48 18 -109 18q-138 0 -190 -102q43 15 90 15
q118 0 201.5 -82.5t83.5 -197.5q0 -116 -83.5 -198t-201.5 -82z" />
    <glyph glyph-name="seven" unicode="7" horiz-adv-x="585" 
d="M269 -62l-156 62l241 601h-304v160h485v-160z" />
    <glyph glyph-name="eight" unicode="8" horiz-adv-x="718" 
d="M359 98q54 0 100 22.5t46 64.5q0 34 -28 58.5t-62 40t-56 22.5q-23 -7 -57 -22.5t-61.5 -39.5t-27.5 -59q0 -42 45.5 -64.5t100.5 -22.5zM358 473q34 8 74.5 28.5t40.5 50.5q0 26 -34 45.5t-80 19.5q-47 0 -80.5 -19.5t-33.5 -45.5q0 -30 40 -50.5t73 -28.5zM359 -64
q-135 0 -222 70.5t-87 178.5q0 124 113 205q-81 56 -81 162q0 97 79 162t198 65q118 0 197 -65t79 -162q0 -106 -80 -162q112 -81 112 -205q0 -108 -87 -178.5t-221 -70.5z" />
    <glyph glyph-name="nine" unicode="9" horiz-adv-x="697" 
d="M346 382q50 0 86 34.5t36 82.5q0 16 -6 32q-34 84 -116 84q-50 0 -85.5 -34t-35.5 -82t35.5 -82.5t85.5 -34.5zM242 -58q-97 0 -173 30l60 164q51 -19 113 -19q142 0 197 105q-44 -14 -93 -14q-122 0 -209 85t-87 205q0 121 87 206t209 85q201 0 284 -209q17 -65 17 -139
l-1 -57q0 -265 -164 -371q-120 -71 -240 -71z" />
    <glyph glyph-name="colon" unicode=":" horiz-adv-x="254" 
d="M127 516q-32 0 -54.5 22.5t-22.5 54.5t22.5 54.5t54.5 22.5t55 -22.5t23 -54.5t-23 -54.5t-55 -22.5zM127 29q-32 0 -54.5 22.5t-22.5 54.5t22.5 55t54.5 23t55 -23t23 -55t-23 -54.5t-55 -22.5z" />
    <glyph glyph-name="semicolon" unicode=";" horiz-adv-x="344" 
d="M190 589q-32 0 -55 22.5t-23 54.5t23 54.5t55 22.5t54.5 -22.5t22.5 -54.5t-22.5 -54.5t-54.5 -22.5zM212 -44l-162 48l66 249l178 -48z" />
    <glyph glyph-name="semicolon" unicode="&#x37e;" horiz-adv-x="344" 
d="M190 589q-32 0 -55 22.5t-23 54.5t23 54.5t55 22.5t54.5 -22.5t22.5 -54.5t-22.5 -54.5t-54.5 -22.5zM212 -44l-162 48l66 249l178 -48z" />
    <glyph glyph-name="less" unicode="&#x3c;" horiz-adv-x="652" 
d="M473 -155l-423 505l423 504l129 -108l-333 -396l333 -397z" />
    <glyph glyph-name="equal" unicode="=" horiz-adv-x="743" 
d="M693 389h-643v150h643v-150zM693 161h-643v150h643v-150z" />
    <glyph glyph-name="greater" unicode="&#x3e;" horiz-adv-x="652" 
d="M179 -155l-129 108l333 397l-333 396l129 108l423 -504z" />
    <glyph glyph-name="question" unicode="?" horiz-adv-x="560" 
d="M246 -74q-32 0 -54.5 22.5t-22.5 54.5t22.5 54.5t54.5 22.5t55 -22.5t23 -54.5t-23 -54.5t-55 -22.5zM336 152h-168l-1 35q0 70 21 121q24 48 95 131q1 0 1 1q21 24 36 43q21 29 21 63q0 47 -75 47q-21 0 -46 -5q-66 -15 -115 -34l-55 159q71 29 177 45q23 4 45 4
q81 0 155 -49q83 -61 83 -167q0 -43 -14 -81q-18 -53 -44 -85l-39 -49q-56 -62 -71 -92q-6 -15 -6 -52v-35z" />
    <glyph glyph-name="at" unicode="@" horiz-adv-x="857" 
d="M561 241q50 15 86 60q29 42 29 79q0 62 -44 108q-5 -41 -50 -174q-20 -57 -21 -73zM366 234q21 0 46 26q39 40 39 101q0 38 -23 38q-22 0 -46 -26q-39 -41 -39 -102q0 -37 23 -37zM456 -75q-168 0 -287 112.5t-119 270.5t119 270.5t287 112.5q202 0 316 -177
q30 -46 35 -136q0 -71 -55 -153q-51 -66 -118 -95q-50 -22 -91 -22q-50 0 -81 34q-46 -30 -96 -30q-66 0 -110 51q-36 46 -36 110q0 27 6 56q20 85 76.5 138.5t125.5 53.5q42 0 75 -19h115q-67 59 -162 59q-114 0 -195 -74t-81 -179q0 -104 81 -178.5t195 -74.5
q120 0 213 78l89 -95q-132 -113 -302 -113z" />
    <glyph glyph-name="A" unicode="A" horiz-adv-x="893" 
d="M536 289l-90 229l-90 -229h180zM671 -61l-78 200h-294l-77 -200l-172 66l301 757h190l301 -757z" />
    <glyph glyph-name="B" unicode="B" horiz-adv-x="647" 
d="M303 113q68 0 92 14.5t29 34t5 34.5q0 75 -126 79q-24 1 -89 1v-163h89zM291 454q42 0 78 11.5t36 58.5q0 11 -4.5 25.5t-26 25.5t-83.5 11h-77v-132h77zM303 -55h-253v809h241q262 0 282 -230q0 -80 -47 -156q71 -67 71 -172q0 -232 -294 -251z" />
    <glyph glyph-name="C" unicode="C" horiz-adv-x="754" 
d="M496 -67q-182 1 -314 117q-132 125 -132 292t132 292q135 117 315 117q110 0 207 -46l-72 -152q-62 30 -132 30q-118 0 -205 -74q-77 -63 -77 -167t77 -167q86 -73 203 -73q74 0 134 29l72 -152q-96 -46 -208 -46z" />
    <glyph glyph-name="D" unicode="D" horiz-adv-x="756" 
d="M364 113q63 0 118.5 58t55.5 169q0 110 -55.5 168t-118.5 58h-130v-453h130zM364 -55h-314v789h314q124 0 233 -101t109 -293t-109 -293.5t-233 -101.5z" />
    <glyph glyph-name="E" unicode="E" horiz-adv-x="589" 
d="M538 -61h-488v789h477v-160h-293v-147h279v-160h-279v-162h305z" />
    <glyph glyph-name="F" unicode="F" horiz-adv-x="568" 
d="M234 -55h-184v789h468v-160h-284v-145h270v-160h-270v-324z" />
    <glyph glyph-name="G" unicode="G" horiz-adv-x="826" 
d="M498 -76q-178 0 -316 118q-132 124 -132 291q0 165 130 289q137 120 324 120q109 0 219 -44l-62 -156q-78 31 -160 31q-121 0 -208 -75q-75 -64 -75 -165t76 -166q87 -74 204 -74q43 0 94 10v127h-185v160h369v-405h-1q-98 -45 -226 -59q-26 -2 -51 -2z" />
    <glyph glyph-name="H" unicode="H" horiz-adv-x="725" 
d="M675 -55h-184v325h-257v-325h-184v789h184v-304h257v304h184v-789z" />
    <glyph glyph-name="I" unicode="I" horiz-adv-x="341" 
d="M274 -59h-184v798h184v-798z" />
    <glyph glyph-name="J" unicode="J" horiz-adv-x="411" 
d="M50 -75v184q64 0 90.5 11.5t31.5 28.5t5 33v544h184v-544q0 -38 -19 -99.5t-85.5 -109.5t-206.5 -48z" />
    <glyph glyph-name="K" unicode="K" horiz-adv-x="721" 
d="M672 -55h-201l-200 313l-37 -48v-264h-184v798h184v-274l216 276h204l-273 -349z" />
    <glyph glyph-name="L" unicode="L" horiz-adv-x="563" 
d="M513 -57l-463 1v798h184v-639h279v-160z" />
    <glyph glyph-name="M" unicode="M" horiz-adv-x="918" 
d="M868 -54h-184v356l-134 -355h-182l-134 355v-356h-184v798h184l225 -580l225 580h184v-798z" />
    <glyph glyph-name="N" unicode="N" horiz-adv-x="747" 
d="M698 -54h-186l-278 485v-485h-184v798h184l280 -492v492h184v-798z" />
    <glyph glyph-name="O" unicode="O" horiz-adv-x="798" 
d="M399 70q170 0 181 280q0 126 -50 203t-131 77q-162 0 -181 -280q0 -263 181 -280zM399 -60q-130 0 -239.5 98.5t-109.5 311.5q0 178 98.5 294t250.5 116t250.5 -116t98.5 -294q0 -213 -109.5 -311.5t-239.5 -98.5z" />
    <glyph glyph-name="P" unicode="P" horiz-adv-x="633" 
d="M234 406q44 0 67 1q114 4 114 83q0 16 -5 36t-28.5 35t-80.5 15h-67v-170zM234 -54h-184v798h251q261 0 282 -254q0 -252 -349 -252v-292z" />
    <glyph glyph-name="Q" unicode="Q" horiz-adv-x="781" 
d="M390 94q151 0 161 250q0 112 -44.5 181t-116.5 69q-145 0 -162 -250q0 -235 162 -250zM607 -183l-132 152q-42 -11 -86 -11q-126 0 -232.5 96t-106.5 302q0 174 96 286.5t243 112.5q148 0 243.5 -112.5t95.5 -286.5q0 -209 -108 -304l110 -128z" />
    <glyph glyph-name="R" unicode="R" horiz-adv-x="698" 
d="M234 412q45 0 69 1q116 4 116 79q0 16 -5 35.5t-29 34t-82 14.5h-69v-164zM234 -55h-184v799h253q263 0 284 -252q0 -129 -106 -199l167 -347h-205l-143 298h-66v-299z" />
    <glyph glyph-name="S" unicode="S" horiz-adv-x="622" 
d="M289 -79q-94 0 -231 42l51 160q105 -33 184 -33q32 0 52 5q56 15 58 48l1 17q0 13 -3 22q-4 14 -29 30q-30 19 -130 72q-79 36 -138 90q-54 49 -54 141q0 117 93 178q75 45 172 45q104 0 206 -35l-54 -159q-92 26 -153 26q-97 0 -97 -56q0 -9 3 -16q7 -18 99 -65
q149 -72 206 -134q47 -49 47 -142q0 -120 -95 -186q-52 -50 -188 -50z" />
    <glyph glyph-name="T" unicode="T" horiz-adv-x="710" 
d="M447 -54h-184v638h-213v160h610v-160h-213v-638z" />
    <glyph glyph-name="U" unicode="U" horiz-adv-x="744" 
d="M369 -52q-152 0 -235.5 95t-83.5 205v505h184v-505q0 -132 135 -132q69 0 98.5 24t36 54t6.5 49v510h184v-510q0 -109 -81 -202t-244 -93z" />
    <glyph glyph-name="V" unicode="V" horiz-adv-x="847" 
d="M514 -53h-177l-287 797h181l193 -556l194 556h179z" />
    <glyph glyph-name="W" unicode="W" horiz-adv-x="1221" 
d="M929 -53h-177l-141 491l-142 -491h-177l-242 797h178l152 -507l139 507h183l139 -507l152 507h178z" />
    <glyph glyph-name="X" unicode="X" horiz-adv-x="833" 
d="M784 -53h-211l-156 251l-157 -251h-210l262 413l-249 384h210l144 -222l143 222h211l-249 -384z" />
    <glyph glyph-name="Y" unicode="Y" horiz-adv-x="864" 
d="M524 -53h-184v335l-290 462h210l174 -288l169 288h211l-290 -462v-335z" />
    <glyph glyph-name="Z" unicode="Z" horiz-adv-x="680" 
d="M630 -54h-580v160l336 478h-323v160h550v-160l-336 -478h353v-160z" />
    <glyph glyph-name="bracketleft" unicode="[" horiz-adv-x="353" 
d="M303 -164l-253 1v1027h249v-144h-81v-748h85v-136z" />
    <glyph glyph-name="backslash" unicode="\" horiz-adv-x="1085" 
d="M721 262l35 132h-71zM364 262l36 132h-72zM816 -25h-174l-100 397l-99 -397h-174l-93 419h-126v160h90l-38 172h176l36 -172h101l37 172h180l38 -172h100l37 172h176l-39 -172h91v-160h-126z" />
    <glyph glyph-name="bracketright" unicode="]" horiz-adv-x="353" 
d="M50 -164v136h85v748h-82v144h250v-1027z" />
    <glyph glyph-name="asciicircum" unicode="^" horiz-adv-x="760" 
d="M711 443h-187l-145 300l-143 -300h-186l253 514h152z" />
    <glyph glyph-name="underscore" unicode="_" horiz-adv-x="724" 
d="M674 -130h-624v160h624v-160z" />
    <glyph glyph-name="grave" unicode="`" horiz-adv-x="391" 
d="M232 552l-182 185l125 112l166 -185z" />
    <glyph glyph-name="a" unicode="a" horiz-adv-x="616" 
d="M250 -64q70 0 146 37v-31h167v323q-13 265 -248 265q-29 0 -60 -5q-122 -21 -186 -68l92 -113q21 15 61 26q53 13 90 13q46 0 73 -52q-183 -8 -278 -91q-57 -54 -57 -125q0 -121 132 -169q32 -10 68 -10zM284 58q-17 0 -36 6q-53 20 -53 67q0 28 22 48q40 35 113 35
q56 0 62 -25v-86q-55 -45 -108 -45z" />
    <glyph glyph-name="b" unicode="b" horiz-adv-x="657" 
d="M341 84q59 0 82.5 50.5t23.5 114.5q0 63 -23.5 113.5t-82.5 50.5t-82.5 -50.5t-23.5 -113.5q0 -64 23.5 -114.5t82.5 -50.5zM341 -68q-62 0 -115 31v-21h-176v846h176v-254q53 31 115 31q110 0 188 -93t78 -223q0 -131 -78 -224t-188 -93z" />
    <glyph glyph-name="c" unicode="c" horiz-adv-x="573" 
d="M382 -78q-161 0 -246.5 85t-85.5 219q0 135 85.5 219.5t246.5 84.5q76 0 142 -29l-20 -151q-67 19 -122 19q-150 0 -159 -143q0 -126 159 -143q74 0 124 20l16 -152q-65 -29 -140 -29z" />
    <glyph glyph-name="d" unicode="d" horiz-adv-x="649" 
d="M316 74q59 0 82.5 50.5t23.5 113.5q0 64 -23.5 114.5t-82.5 50.5t-82.5 -50.5t-23.5 -114.5q0 -63 23.5 -113.5t82.5 -50.5zM316 -78q-110 0 -188 92.5t-78 223.5t78 224t188 93q57 0 107 -27v250h176v-846h-176v17q-50 -27 -107 -27z" />
    <glyph glyph-name="e" unicode="e" horiz-adv-x="643" 
d="M425 306q-14 97 -104 97t-103 -97h207zM321 -77q-112 0 -191.5 73t-79.5 232q0 305 271 305q272 0 272 -305q0 -31 -6 -61h-371q3 -47 25.5 -80.5t79.5 -33.5q30 0 59 19.5t41 44.5h153q-58 -194 -253 -194z" />
    <glyph glyph-name="f" unicode="f" horiz-adv-x="492" 
d="M324 -81h-176v436h-98v168h98v18q0 120 58 170t128.5 60t107.5 10v-176q-59 0 -83.5 -7t-29.5 -21t-5 -54h111v-168h-111v-436z" />
    <glyph glyph-name="g" unicode="g" horiz-adv-x="657" 
d="M311 99q59 0 82 43.5t23 97.5q0 55 -23 98t-82 43q-58 0 -81 -43t-23 -98q0 -54 23 -97.5t81 -43.5zM303 -251q-127 0 -223 46l52 159q88 -36 160 -36q97 0 131 51q14 21 16 34q-58 -34 -128 -34q-108 0 -184.5 79.5t-76.5 191.5t76.5 192t184.5 80q70 0 128 -35v31h168
v-501q0 -57 -39.5 -122.5t-117.5 -104.5q-75 -31 -147 -31z" />
    <glyph glyph-name="h" unicode="h" horiz-adv-x="614" 
d="M565 -61h-176v374q0 50 -18.5 61.5t-44.5 11.5q-10 0 -29 -5q-71 -18 -71 -83v-359h-176v842h176v-238q55 19 100 19q217 0 239 -249v-374z" />
    <glyph glyph-name="i" unicode="i" horiz-adv-x="341" 
d="M171 618q-33 0 -56.5 23.5t-23.5 57.5q0 33 23.5 57t56.5 24q34 0 57.5 -24t23.5 -57q0 -34 -23.5 -57.5t-57.5 -23.5zM266 -61h-176v557h176v-557z" />
    <glyph glyph-name="j" unicode="j" horiz-adv-x="359" 
d="M222 621q-32 0 -55 22.5t-23 54.5t23 55t55 23t54.5 -23t22.5 -55t-22.5 -54.5t-54.5 -22.5zM50 -238v176q76 0 84 44v524h176v-524q0 -82 -66 -151t-194 -69z" />
    <glyph glyph-name="k" unicode="k" horiz-adv-x="615" 
d="M564 -72h-192l-124 196l-22 -27v-168h-176v842h176v-419l117 141h203l-191 -237z" />
    <glyph glyph-name="l" unicode="l" horiz-adv-x="350" 
d="M266 -66h-176v842h176v-842z" />
    <glyph glyph-name="m" unicode="m" horiz-adv-x="951" 
d="M901 -55h-176q0 359 -2 369q-5 25 -40 25q-48 -7 -80 -32q-44 -35 -44 -98v-264h-176q0 357 -1 368q-4 26 -37 26q-1 0 -13 -2t-29.5 -9t-35 -21.5t-29.5 -38t-12 -59.5v-264h-176v565h176v-23q62 28 118 28q91 0 157 -64q91 64 182 64q93 0 155 -60q63 -55 63 -160v-350
z" />
    <glyph glyph-name="n" unicode="n" horiz-adv-x="609" 
d="M559 -55h-176q0 357 -1 368q-4 26 -37 26q-1 0 -13 -2t-29.5 -9t-35 -21.5t-29.5 -38t-12 -59.5v-264h-176v565h176v-23q62 28 118 28q91 0 152 -59q63 -58 63 -161v-350z" />
    <glyph glyph-name="o" unicode="o" horiz-adv-x="695" 
d="M348 72q66 0 92 48t26 110q0 61 -26 109.5t-92 48.5q-67 0 -93 -48.5t-26 -109.5q0 -62 26 -110t93 -48zM348 -74q-124 0 -211 89t-87 215q0 125 87 214.5t211 89.5q123 0 210 -89.5t87 -214.5q0 -126 -87 -215t-210 -89z" />
    <glyph glyph-name="p" unicode="p" horiz-adv-x="648" 
d="M333 79q59 0 82.5 47t23.5 107q0 59 -23.5 106t-82.5 47t-82.5 -47t-23.5 -106q0 -60 23.5 -107t82.5 -47zM226 -207h-176v732h176v-22q50 25 107 25q110 0 188 -86.5t78 -208.5q0 -123 -78 -209.5t-188 -86.5q-57 0 -107 25v-169z" />
    <glyph glyph-name="q" unicode="q" horiz-adv-x="649" 
d="M316 79q59 0 82.5 47t23.5 106q0 60 -23.5 107t-82.5 47t-82.5 -47t-23.5 -107q0 -59 23.5 -106t82.5 -47zM598 -208h-176v170q-49 -25 -106 -25q-110 0 -188 86.5t-78 208.5t78 208.5t188 86.5q57 0 106 -24v22h176v-733z" />
    <glyph glyph-name="r" unicode="r" horiz-adv-x="466" 
d="M233 -68h-183v592h183v-31q93 38 183 38v-149q-148 0 -183 -99v-351z" />
    <glyph glyph-name="s" unicode="s" horiz-adv-x="537" 
d="M226 -67q-75 0 -176 18l24 148q91 -15 153 -15q35 0 59 4.5t34 10t13 11.5t3.5 10t0.5 9q0 39 -74 52q-26 2 -81.5 24t-98.5 78q-30 44 -30 96q0 19 4 38q6 41 47.5 86t148.5 54q113 -1 196 -22l6 -1l-28 -148q-31 9 -104 17q-30 3 -52 3q-67 0 -67 -26q0 -8 4 -12
q22 -29 79 -38q113 -20 167 -94q33 -48 33 -106q0 -18 -3 -36q-3 -38 -38.5 -85t-129.5 -68q-40 -8 -90 -8z" />
    <glyph glyph-name="t" unicode="t" horiz-adv-x="496" 
d="M446 -76q-36 0 -106.5 9t-129 54t-58.5 154v246h-102v168h102v125h176v-125h114v-168h-114v-246q0 -20 5 -24q17 -17 113 -17v-176z" />
    <glyph glyph-name="u" unicode="u" horiz-adv-x="616" 
d="M259 -69q-91 0 -150 51t-59 130v397h176v-395q9 -7 36 -7q20 0 45 8.5t54 40t29 102.5v251h176v-565h-176v16q-63 -29 -131 -29z" />
    <glyph glyph-name="v" unicode="v" horiz-adv-x="669" 
d="M422 -53h-175l-197 576h185l100 -326l99 326h185z" />
    <glyph glyph-name="w" unicode="w" horiz-adv-x="1040" 
d="M798 -63h-176l-102 303l-103 -303h-175l-192 576h185l95 -316l94 316h191l95 -316l95 316h184z" />
    <glyph glyph-name="x" unicode="x" horiz-adv-x="661" 
d="M611 -72h-189l-91 153l-92 -153h-189l186 295l-170 279h189l76 -145l75 145h189l-170 -279z" />
    <glyph glyph-name="y" unicode="y" horiz-adv-x="629" 
d="M84 -229h-11v151q66 0 93.5 5t41.5 19.5t25 48.5l-183 514h179l84 -273q44 133 88 273h177q-183 -544 -201 -587q-50 -108 -127.5 -129.5t-165.5 -21.5z" />
    <glyph glyph-name="z" unicode="z" horiz-adv-x="597" 
d="M547 -62h-497v152l268 261h-254v152h483v-152h-1l1 -1l-268 -260h268v-152z" />
    <glyph glyph-name="braceleft" unicode="{" horiz-adv-x="418" 
d="M368 -166l-38 1q-153 0 -182 45t-29 126v212q0 29 -4 35.5t-19.5 15.5t-45.5 9v144q30 0 46 9q22 12 23 32v231q0 81 29 126t182 45q24 0 30.5 0.5t7.5 0.5v-127h-17q-70 0 -72 -53v-204q0 -19 -4.5 -55t-31.5 -76l-1 -1l1 -1q36 -53 36 -131v-204q0 -54 54 -54l35 1
v-127z" />
    <glyph glyph-name="bar" unicode="|" horiz-adv-x="268" 
d="M218 -130h-168v960h168v-960z" />
    <glyph glyph-name="braceright" unicode="}" horiz-adv-x="418" 
d="M72 -166h-22v127h17q70 0 72 53v204q0 19 4.5 55t31.5 76l1 1q-1 0 -1 1q-36 53 -36 131v204q0 54 -55 54l-34 -1v127q1 0 7.5 -0.5t30.5 -0.5q153 0 182 -45t29 -126q0 -221 1 -231q0 -20 23 -32q15 -9 45 -9v-144q-50 0 -64 -24q-5 -8 -5 -248q0 -81 -29 -126t-173 -45
q-16 0 -25 -1z" />
    <glyph glyph-name="asciitilde" unicode="~" horiz-adv-x="732" 
d="M466 227q-69 0 -153 46q-32 19 -58 19q-35 0 -91 -44q-13 -10 -26 -18l-88 133l19 14q43 38 126 67q27 9 57 9q64 0 143 -42q40 -23 72 -23q44 0 102 47l25 17l88 -134q-8 -5 -18 -13q-31 -24 -81 -51t-117 -27z" />
    <glyph glyph-name="section" unicode="&#xa7;" horiz-adv-x="100" 
 />
    <glyph glyph-name="ordfeminine" unicode="&#xaa;" horiz-adv-x="100" 
 />
    <glyph glyph-name="registered" unicode="&#xae;" horiz-adv-x="100" 
 />
    <glyph glyph-name="uni00B2" unicode="&#xb2;" horiz-adv-x="100" 
 />
    <glyph glyph-name="uni00B3" unicode="&#xb3;" horiz-adv-x="100" 
 />
    <glyph glyph-name="paragraph" unicode="&#xb6;" horiz-adv-x="100" 
 />
    <glyph glyph-name="periodcentered" unicode="&#xb7;" horiz-adv-x="500" 
d="M247 273q-32 0 -54.5 22.5t-22.5 54.5t22.5 54.5t54.5 22.5t55 -22.5t23 -54.5t-23 -54.5t-55 -22.5z" />
    <glyph glyph-name="uni00B9" unicode="&#xb9;" horiz-adv-x="100" 
 />
    <glyph glyph-name="ordmasculine" unicode="&#xba;" horiz-adv-x="100" 
 />
    <glyph glyph-name="onequarter" unicode="&#xbc;" horiz-adv-x="100" 
 />
    <glyph glyph-name="onehalf" unicode="&#xbd;" horiz-adv-x="100" 
 />
    <glyph glyph-name="threequarters" unicode="&#xbe;" horiz-adv-x="100" 
 />
    <glyph glyph-name="Adieresis" unicode="&#xc4;" horiz-adv-x="100" 
 />
    <glyph glyph-name="Odieresis" unicode="&#xd6;" horiz-adv-x="100" 
 />
    <glyph glyph-name="Udieresis" unicode="&#xdc;" horiz-adv-x="100" 
 />
    <glyph glyph-name="adieresis" unicode="&#xe4;" horiz-adv-x="100" 
 />
    <glyph glyph-name="odieresis" unicode="&#xf6;" horiz-adv-x="100" 
 />
    <glyph glyph-name="udieresis" unicode="&#xfc;" horiz-adv-x="100" 
 />
    <glyph glyph-name="uni02BC" unicode="&#x2bc;" horiz-adv-x="259" 
d="M58 558v88q35 0 57 44q-27 7 -44 27.5t-17 48.5q0 32 22.5 54.5t54.5 22.5t55 -22.5t23 -54.5v-13q0 -86 -54 -151q-41 -44 -97 -44z" />
    <glyph glyph-name="hungarumlaut" unicode="&#x2dd;" horiz-adv-x="443" 
d="M242 558v88q35 0 57 44q-27 7 -44 27.5t-17 48.5q0 32 22.5 54.5t55.5 22.5q32 0 54.5 -22.5t22.5 -54.5v-13q0 -86 -54 -151q-41 -44 -97 -44zM58 558v88q35 0 57 44q-27 7 -44 27.5t-17 48.5q0 32 22.5 54.5t55.5 22.5q32 0 54.5 -22.5t22.5 -54.5v-13q0 -86 -54 -151
q-41 -44 -97 -44z" />
    <glyph glyph-name="uni0401" unicode="&#x401;" horiz-adv-x="100" 
 />
    <glyph glyph-name="uni0402" unicode="&#x402;" horiz-adv-x="100" 
 />
    <glyph glyph-name="uni0403" unicode="&#x403;" horiz-adv-x="100" 
 />
    <glyph glyph-name="uni0404" unicode="&#x404;" horiz-adv-x="100" 
 />
    <glyph glyph-name="uni0405" unicode="&#x405;" horiz-adv-x="100" 
 />
    <glyph glyph-name="uni0406" unicode="&#x406;" horiz-adv-x="100" 
 />
    <glyph glyph-name="uni0407" unicode="&#x407;" horiz-adv-x="100" 
 />
    <glyph glyph-name="uni0408" unicode="&#x408;" horiz-adv-x="100" 
 />
    <glyph glyph-name="uni0409" unicode="&#x409;" horiz-adv-x="100" 
 />
    <glyph glyph-name="uni040A" unicode="&#x40a;" horiz-adv-x="100" 
 />
    <glyph glyph-name="uni040B" unicode="&#x40b;" horiz-adv-x="100" 
 />
    <glyph glyph-name="uni040C" unicode="&#x40c;" horiz-adv-x="100" 
 />
    <glyph glyph-name="uni040E" unicode="&#x40e;" horiz-adv-x="100" 
 />
    <glyph glyph-name="uni040F" unicode="&#x40f;" horiz-adv-x="100" 
 />
    <glyph glyph-name="uni0410" unicode="&#x410;" horiz-adv-x="100" 
 />
    <glyph glyph-name="uni0411" unicode="&#x411;" horiz-adv-x="100" 
 />
    <glyph glyph-name="uni0412" unicode="&#x412;" horiz-adv-x="100" 
 />
    <glyph glyph-name="uni0413" unicode="&#x413;" horiz-adv-x="100" 
 />
    <glyph glyph-name="uni0414" unicode="&#x414;" horiz-adv-x="100" 
 />
    <glyph glyph-name="uni0415" unicode="&#x415;" horiz-adv-x="100" 
 />
    <glyph glyph-name="uni0416" unicode="&#x416;" horiz-adv-x="100" 
 />
    <glyph glyph-name="uni0417" unicode="&#x417;" horiz-adv-x="100" 
 />
    <glyph glyph-name="uni0418" unicode="&#x418;" horiz-adv-x="100" 
 />
    <glyph glyph-name="uni0419" unicode="&#x419;" horiz-adv-x="100" 
 />
    <glyph glyph-name="uni041A" unicode="&#x41a;" horiz-adv-x="100" 
 />
    <glyph glyph-name="uni041B" unicode="&#x41b;" horiz-adv-x="100" 
 />
    <glyph glyph-name="uni041C" unicode="&#x41c;" horiz-adv-x="100" 
 />
    <glyph glyph-name="uni041D" unicode="&#x41d;" horiz-adv-x="100" 
 />
    <glyph glyph-name="uni041E" unicode="&#x41e;" horiz-adv-x="100" 
 />
    <glyph glyph-name="uni041F" unicode="&#x41f;" horiz-adv-x="100" 
 />
    <glyph glyph-name="uni0420" unicode="&#x420;" horiz-adv-x="100" 
 />
    <glyph glyph-name="uni0421" unicode="&#x421;" horiz-adv-x="100" 
 />
    <glyph glyph-name="uni0422" unicode="&#x422;" horiz-adv-x="100" 
 />
    <glyph glyph-name="uni0423" unicode="&#x423;" horiz-adv-x="100" 
 />
    <glyph glyph-name="uni0424" unicode="&#x424;" horiz-adv-x="100" 
 />
    <glyph glyph-name="uni0425" unicode="&#x425;" horiz-adv-x="100" 
 />
    <glyph glyph-name="uni0426" unicode="&#x426;" horiz-adv-x="100" 
 />
    <glyph glyph-name="uni0427" unicode="&#x427;" horiz-adv-x="100" 
 />
    <glyph glyph-name="uni0428" unicode="&#x428;" horiz-adv-x="100" 
 />
    <glyph glyph-name="uni0429" unicode="&#x429;" horiz-adv-x="100" 
 />
    <glyph glyph-name="uni0430" unicode="&#x430;" horiz-adv-x="100" 
 />
    <glyph glyph-name="uni0431" unicode="&#x431;" horiz-adv-x="100" 
 />
    <glyph glyph-name="uni0432" unicode="&#x432;" horiz-adv-x="100" 
 />
    <glyph glyph-name="uni0433" unicode="&#x433;" horiz-adv-x="100" 
 />
    <glyph glyph-name="uni0434" unicode="&#x434;" horiz-adv-x="100" 
 />
    <glyph glyph-name="uni0435" unicode="&#x435;" horiz-adv-x="100" 
 />
    <glyph glyph-name="uni0436" unicode="&#x436;" horiz-adv-x="100" 
 />
    <glyph glyph-name="uni0437" unicode="&#x437;" horiz-adv-x="100" 
 />
    <glyph glyph-name="uni0438" unicode="&#x438;" horiz-adv-x="100" 
 />
    <glyph glyph-name="uni0439" unicode="&#x439;" horiz-adv-x="100" 
 />
    <glyph glyph-name="uni0440" unicode="&#x440;" horiz-adv-x="100" 
 />
    <glyph glyph-name="uni0441" unicode="&#x441;" horiz-adv-x="100" 
 />
    <glyph glyph-name="uni0442" unicode="&#x442;" horiz-adv-x="100" 
 />
    <glyph glyph-name="uni0443" unicode="&#x443;" horiz-adv-x="100" 
 />
    <glyph glyph-name="uni0444" unicode="&#x444;" horiz-adv-x="100" 
 />
    <glyph glyph-name="uni0445" unicode="&#x445;" horiz-adv-x="100" 
 />
    <glyph glyph-name="uni0446" unicode="&#x446;" horiz-adv-x="100" 
 />
    <glyph glyph-name="uni0447" unicode="&#x447;" horiz-adv-x="100" 
 />
    <glyph glyph-name="uni0448" unicode="&#x448;" horiz-adv-x="100" 
 />
    <glyph glyph-name="uni0449" unicode="&#x449;" horiz-adv-x="100" 
 />
    <glyph glyph-name="uni044A" unicode="&#x44a;" horiz-adv-x="100" 
 />
    <glyph glyph-name="uni044B" unicode="&#x44b;" horiz-adv-x="100" 
 />
    <glyph glyph-name="uni044C" unicode="&#x44c;" horiz-adv-x="100" 
 />
    <glyph glyph-name="uni044D" unicode="&#x44d;" horiz-adv-x="100" 
 />
    <glyph glyph-name="uni044E" unicode="&#x44e;" horiz-adv-x="100" 
 />
    <glyph glyph-name="uni044F" unicode="&#x44f;" horiz-adv-x="100" 
 />
    <glyph glyph-name="uni2010" unicode="&#x2010;" horiz-adv-x="448" 
d="M399 266h-349v168h349v-168z" />
    <glyph glyph-name="quoteleft" unicode="&#x2018;" horiz-adv-x="259" 
d="M132 558q-32 0 -55 22.5t-23 54.5v13q0 86 54 151q41 44 97 44v-88q-35 0 -57 -44q27 -7 44 -27.5t17 -48.5q0 -32 -22.5 -54.5t-54.5 -22.5z" />
    <glyph glyph-name="quoteright" unicode="&#x2019;" horiz-adv-x="259" 
d="M58 558v88q35 0 57 44q-27 7 -44 27.5t-17 48.5q0 32 22.5 54.5t54.5 22.5t55 -22.5t23 -54.5v-13q0 -86 -54 -151q-41 -44 -97 -44z" />
    <glyph glyph-name="quotereversed" unicode="&#x201b;" horiz-adv-x="259" 
d="M205 558q-56 0 -97 44q-54 65 -54 151v13q0 32 23 54.5t55 22.5t54.5 -22.5t22.5 -54.5q0 -28 -17 -48.5t-44 -27.5q22 -44 57 -44v-88z" />
    <glyph glyph-name="quotedblleft" unicode="&#x201c;" horiz-adv-x="443" 
d="M131 558q-32 0 -54.5 22.5t-22.5 54.5v13q0 86 54 151q41 44 97 44v-88q-35 0 -57 -44q27 -7 44 -27.5t17 -48.5q0 -32 -22.5 -54.5t-55.5 -22.5zM315 558q-32 0 -54.5 22.5t-22.5 54.5v13q0 86 54 151q41 44 97 44v-88q-35 0 -57 -44q27 -7 44 -27.5t17 -48.5
q0 -32 -22.5 -54.5t-55.5 -22.5z" />
    <glyph glyph-name="quotedblright" unicode="&#x201d;" horiz-adv-x="443" 
d="M242 558v88q35 0 57 44q-27 7 -44 27.5t-17 48.5q0 32 22.5 54.5t55.5 22.5q32 0 54.5 -22.5t22.5 -54.5v-13q0 -86 -54 -151q-41 -44 -97 -44zM58 558v88q35 0 57 44q-27 7 -44 27.5t-17 48.5q0 32 22.5 54.5t55.5 22.5q32 0 54.5 -22.5t22.5 -54.5v-13q0 -86 -54 -151
q-41 -44 -97 -44z" />
    <glyph glyph-name="uni201F" unicode="&#x201f;" horiz-adv-x="443" 
d="M205 558q-56 0 -97 44q-54 65 -54 151v13q0 32 22.5 54.5t54.5 22.5q33 0 55.5 -22.5t22.5 -54.5q0 -28 -17 -48.5t-44 -27.5q22 -44 57 -44v-88zM389 558q-56 0 -97 44q-54 65 -54 151v13q0 32 22.5 54.5t54.5 22.5q33 0 55.5 -22.5t22.5 -54.5q0 -28 -17 -48.5
t-44 -27.5q22 -44 57 -44v-88z" />
    <glyph glyph-name="dagger" unicode="&#x2020;" horiz-adv-x="100" 
 />
    <glyph glyph-name="daggerdbl" unicode="&#x2021;" horiz-adv-x="100" 
 />
    <glyph glyph-name="bullet" unicode="&#x2022;" horiz-adv-x="500" 
d="M247 273q-32 0 -54.5 22.5t-22.5 54.5t22.5 54.5t54.5 22.5t55 -22.5t23 -54.5t-23 -54.5t-55 -22.5z" />
    <glyph glyph-name="guilsinglleft" unicode="&#x2039;" horiz-adv-x="652" 
d="M473 -155l-423 505l423 504l129 -108l-333 -396l333 -397z" />
    <glyph glyph-name="guilsinglright" unicode="&#x203a;" horiz-adv-x="652" 
d="M179 -155l-129 108l333 397l-333 396l129 108l423 -504z" />
    <glyph glyph-name="uni203B" unicode="&#x203b;" horiz-adv-x="793" 
d="M110 -89l-41 77l-10 -4l275 276l-287 286l62 63l287 -287l287 288l62 -62l-286 -288l287 -286l-62 -62l-287 286zM396 458q-31 0 -53.5 22.5t-22.5 54.5t22.5 54.5t53.5 22.5q32 0 54.5 -22.5t22.5 -54.5t-22.5 -54.5t-54.5 -22.5zM396 -91q-31 0 -53.5 22.5t-22.5 54.5
t22.5 54.5t53.5 22.5q32 0 54.5 -22.5t22.5 -54.5t-22.5 -54.5t-54.5 -22.5zM671 183q-32 0 -54.5 22.5t-22.5 54.5t22.5 54.5t54.5 22.5t54.5 -22.5t22.5 -54.5t-22.5 -54.5t-54.5 -22.5zM122 183q-32 0 -54.5 22.5t-22.5 54.5t22.5 54.5t54.5 22.5t54.5 -22.5t22.5 -54.5
t-22.5 -54.5t-54.5 -22.5z" />
    <glyph glyph-name="uni2074" unicode="&#x2074;" horiz-adv-x="100" 
 />
    <glyph glyph-name="uni207F" unicode="&#x207f;" horiz-adv-x="100" 
 />
    <glyph glyph-name="uni2081" unicode="&#x2081;" horiz-adv-x="100" 
 />
    <glyph glyph-name="uni2082" unicode="&#x2082;" horiz-adv-x="100" 
 />
    <glyph glyph-name="uni2083" unicode="&#x2083;" horiz-adv-x="100" 
 />
    <glyph glyph-name="uni2084" unicode="&#x2084;" horiz-adv-x="100" 
 />
    <glyph glyph-name="uni2116" unicode="&#x2116;" horiz-adv-x="100" 
 />
    <glyph glyph-name="uni2121" unicode="&#x2121;" horiz-adv-x="100" 
 />
    <glyph glyph-name="trademark" unicode="&#x2122;" horiz-adv-x="100" 
 />
    <glyph glyph-name="onethird" unicode="&#x2153;" horiz-adv-x="753" 
d="M143 -24h-67l1 1h-17l547 571h82l-1 -1h3zM539 -172q-55 0 -97 17l1 3l-3 1l28 76q39 -14 84 -14q31 0 51 17q8 9 8 23q0 41 -124 41v81q120 0 120 32q0 31 -44 31q-35 0 -75 -20l-37 72q5 3 11 5l-3 9l5 1q49 17 96 17q97 0 118 -66q10 -20 10 -46q0 -47 -31 -76
q35 -31 35 -83q0 -46 -31 -78q-4 -3 -7 -7q-42 -36 -115 -36zM243 306h-47v4h-41v271l-27 -25l-52 58l80 71h37q3 2 3 5q4 1 7 3l2 -2h38v-6h9v-375h-9v-4z" />
    <glyph glyph-name="twothirds" unicode="&#x2154;" horiz-adv-x="766" 
d="M314 298h-254v77q57 37 113 92t56 93q0 37 -40 37q-32 0 -71 -25l-45 67q61 39 115 39q33 0 64 -15q59 -34 59 -103q0 -78 -108 -175l-10 -10h121v-77zM155 -34h-82l548 571h81zM564 -181q-58 0 -111 19l28 76q39 -14 83 -14q32 0 51 17q9 9 9 23q0 41 -125 41v81
q121 0 121 32q0 31 -44 31q-36 0 -76 -20l-37 72q58 30 112 30q61 -1 97 -36q29 -30 29 -76q0 -43 -31 -74q35 -32 35 -82q0 -46 -32 -79q-43 -41 -109 -41z" />
    <glyph glyph-name="oneeighth" unicode="&#x215b;" horiz-adv-x="766" 
d="M142 -18h-82l547 571h82zM252 315h-97v271l-27 -25l-52 58l81 71h95v-375zM562 -93q25 0 46 10t21 30q0 15 -12.5 26t-28 18t-26.5 10q-10 -3 -25.5 -10t-28 -18t-12.5 -26q0 -20 21 -30t45 -10zM562 81q52 12 52 35q0 12 -15.5 20.5t-36.5 8.5t-36.5 -8.5t-15.5 -20.5
q0 -23 52 -35zM562 -170q-62 0 -103 33t-41 84q0 63 52 94q-37 26 -37 75q0 46 37 76.5t92 30.5q56 0 93 -30.5t37 -76.5q0 -49 -37 -75q51 -31 51 -94q0 -51 -40.5 -84t-103.5 -33z" />
    <glyph glyph-name="threeeighths" unicode="&#x215c;" horiz-adv-x="767" 
d="M190 308q-58 0 -112 20l28 76q39 -15 84 -15q58 0 59 43q0 38 -124 38v82q120 0 120 32q0 31 -44 31q-35 0 -75 -21l-37 72q57 30 112 30q61 0 96 -35q28 -29 29 -83q0 -37 -31 -68q35 -31 35 -82q0 -46 -31 -78q-44 -42 -109 -42zM142 -25h-82l547 572l82 -1zM562 -100
q25 0 46 10t21 30q0 15 -12.5 26t-28 18t-26.5 10q-10 -3 -25.5 -10t-28 -18t-12.5 -26q0 -20 21 -30t45 -10zM562 74q52 13 52 36q0 11 -15.5 20t-36.5 9t-36.5 -9t-15.5 -20q0 -23 52 -36zM562 -177q-62 0 -103 33t-41 84q0 63 52 95q-37 26 -37 75q0 45 37 75.5t92 30.5
q56 0 93 -30.5t37 -75.5q0 -49 -37 -75q51 -32 51 -95q0 -51 -40.5 -84t-103.5 -33z" />
    <glyph glyph-name="fiveeighths" unicode="&#x215d;" horiz-adv-x="767" 
d="M193 308q-58 0 -111 20l27 76q40 -15 84 -15q7 0 20 2.5t24.5 11t11.5 27.5q0 24 -11 35q-21 16 -80 16q-19 0 -37.5 -1.5t-33.5 -1.5v22h-1v190l1 1h228v-77h-144v-52h11q62 0 111 -38q37 -35 37 -94q0 -108 -137 -122zM142 -20h-82l547 572l82 -1zM562 -94q25 0 46 10
t21 29q0 15 -12.5 26.5t-28 18.5t-26.5 10q-10 -3 -25.5 -10t-28 -18.5t-12.5 -26.5q0 -19 21 -29t45 -10zM562 79q52 13 52 36q0 12 -15.5 20.5t-36.5 8.5t-36.5 -8.5t-15.5 -20.5q0 -23 52 -36zM562 -172q-62 0 -103 33t-41 84q0 63 52 95q-37 26 -37 75q0 45 37 75.5
t92 30.5q56 0 93 -30.5t37 -75.5q0 -49 -37 -75q51 -32 51 -95q0 -51 -40.5 -84t-103.5 -33z" />
    <glyph glyph-name="seveneighths" unicode="&#x215e;" horiz-adv-x="766" 
d="M218 303l-76 30l113 282h-142v77h229v-76h1zM142 -20h-82l547 572h82zM562 -94q25 0 46 10t21 29q0 16 -12.5 27t-28 18t-26.5 10q-10 -3 -25.5 -10t-28 -18t-12.5 -27q0 -19 21 -29t45 -10zM562 79q52 13 52 36q0 12 -15.5 20.5t-36.5 8.5t-36.5 -8.5t-15.5 -20.5
q0 -23 52 -36zM562 -172q-62 0 -103 33t-41 84q0 63 52 95q-37 26 -37 75q0 45 37 75.5t92 30.5q56 0 93 -30.5t37 -75.5q0 -49 -37 -75q51 -32 51 -95q0 -51 -40.5 -84t-103.5 -33z" />
    <glyph glyph-name="arrowleft" unicode="&#x2190;" horiz-adv-x="1117" 
d="M269 54q-9 0 -17 6l-199 182q-8 8 -8 18q0 11 8 18l199 182q8 7 17 7q7 0 14 -5q11 -8 11 -19q0 -6 -62 -141h840v-88h-838q60 -131 60 -136q0 -12 -11 -20h-2q-6 0 -12 26v-30z" />
    <glyph glyph-name="arrowup" unicode="&#x2191;" horiz-adv-x="503" 
d="M293 -308h-88v947l-126 -58q-4 0 -9 28v-30q-12 0 -20 10q-4 7 -4 14q0 11 6 18l181 199q8 8 19 8q10 0 18 -8l182 -199q5 -7 6 -15q0 -9 -6.5 -18t-18.5 -9q-6 0 -140 62v-949z" />
    <glyph glyph-name="arrowright" unicode="&#x2192;" horiz-adv-x="1117" 
d="M848 54q-7 0 -14 4q-10 9 -10 16q0 9 15 24l-13 -9l60 129h-841v88h838q-60 131 -60 137q3 24 25 24q9 0 17 -7l199 -182q8 -7 8 -18q0 -10 -8 -18l-199 -182q-8 -6 -17 -6z" />
    <glyph glyph-name="arrowdown" unicode="&#x2193;" horiz-adv-x="503" 
d="M252 -308q-9 0 -9 21l1 13l-11 -25l-181 199q-6 6 -6 18q0 6 4 13q8 10 20 10q6 0 140 -62v949h88v-947q129 60 135 60q12 0 18.5 -9t6.5 -17q-1 -9 -6 -15l-182 -200q-8 -8 -18 -8z" />
    <glyph glyph-name="arrowboth" unicode="&#x2194;" horiz-adv-x="1131" 
d="M863 54q-25 0 -25 25q0 6 62 139h-668q62 -135 62 -140q0 -12 -11 -20h-2q-6 0 -12 26v-30q-9 0 -17 6l-199 182q-8 8 -8 18q0 11 8 18l199 182q8 7 17 7q7 0 14 -5q11 -8 11 -19q0 -6 -60 -137h664q-60 129 -60 135q3 26 25 26q9 0 16 -7l200 -182q8 -7 8 -18
q0 -10 -8 -18l-200 -182q-7 -6 -16 -6z" />
    <glyph glyph-name="arrowupdn" unicode="&#x2195;" horiz-adv-x="503" 
d="M252 -310q-11 0 -19 8l-181 199q-6 7 -6 19q0 6 4 13q8 10 20 10q4 0 4 -1q6 -1 136 -61v766q-137 -62 -140 -62q-12 0 -20 10q-4 7 -4 14q0 11 6 18l181 199q8 8 19 8q10 0 18 -8l182 -199q5 -7 6 -15q0 -9 -6.5 -18t-18.5 -9q-3 0 -135 60v-762q129 60 135 60
q12 0 18.5 -9t6.5 -17q-1 -9 -6 -16l-182 -199q-8 -8 -18 -8z" />
    <glyph glyph-name="uni2196" unicode="&#x2196;" horiz-adv-x="1107" 
d="M992 -291l-841 929l-46 -125q-7 -15 -27 -15q-19 4 -21 23l-12 270q0 10 7.5 18t17.5 8l270 -13q9 0 16.5 -7t7.5 -17q0 -18 -16 -24l-139 -51l859 -948l-64 -23z" />
    <glyph glyph-name="uni2197" unicode="&#x2197;" horiz-adv-x="1106" 
d="M104 -302l-65 59l859 948l-139 51q-16 5 -16 23q0 25 24 25l270 13q9 0 16.5 -7.5t7.5 -16.5l-12 -272q0 -18 -21 -23q-15 0 -15 18q0 8 2 18l-14 -20l-46 124z" />
    <glyph glyph-name="uni2198" unicode="&#x2198;" horiz-adv-x="1106" 
d="M1037 -297q-1 0 -42 2t-94 4.5t-93 19.5q-15 6 -24 6q-17 0 -18 -19q-9 0 -16 6.5t-7 18.5q0 18 21 24l-5 -1l139 51l-859 948l65 59l851 -940l46 125q8 15 27 15q21 -5 21 -23l12 -272q0 -10 -7.5 -17t-16.5 -7z" />
    <glyph glyph-name="uni2199" unicode="&#x2199;" horiz-adv-x="1106" 
d="M70 -296q-25 0 -25 26l12 269q2 21 21 23l4 1q16 0 23 -16l46 -124l852 939l65 -59l-859 -947l139 -52q16 -6 16 -26q-3 -16 -10 -16t-15 23q0 -29 -40.5 -31t-93 -4t-93.5 -4h-5q-37 0 -37 28v-30z" />
    <glyph glyph-name="similar" unicode="&#x223c;" horiz-adv-x="732" 
d="M466 227q-69 0 -153 46q-32 19 -58 19q-35 0 -91 -44q-13 -10 -26 -18l-88 133l19 14q43 38 126 67q27 9 57 9q64 0 143 -42q40 -23 72 -23q44 0 102 47l25 17l88 -134q-65 -46 -99 -64q-50 -27 -117 -27z" />
    <glyph glyph-name="uni2299" unicode="&#x2299;" horiz-adv-x="100" 
 />
    <glyph glyph-name="uni2460" unicode="&#x2460;" horiz-adv-x="1056" 
d="M596 -6h-126v381l-47 -37l-70 78l117 100h126v-522zM528 -167q177 0 302 125t125 302q0 176 -125 301t-302 125q-176 0 -301 -125t-125 -301q0 -177 125 -302t301 -125zM528 -209q-193 0 -330.5 137.5t-137.5 331.5q0 193 137.5 330.5t330.5 137.5q194 0 331.5 -137.5
t137.5 -330.5q0 -194 -137.5 -331.5t-331.5 -137.5z" />
    <glyph glyph-name="uni2461" unicode="&#x2461;" horiz-adv-x="1057" 
d="M707 -11h-366v108q82 54 163.5 133.5t81.5 134.5q0 54 -59 54q-48 0 -104 -36l-64 94q88 57 166 57q48 0 92 -21q83 -50 83 -148q0 -112 -154 -251l-18 -17h179v-108zM528 -167q177 0 302 125t125 302q0 176 -125 301t-302 125q-176 0 -301 -125t-125 -301
q0 -177 125 -302t301 -125zM528 -209q-193 0 -330.5 137.5t-137.5 331.5q0 193 137.5 330.5t330.5 137.5q194 0 331.5 -137.5t137.5 -330.5q0 -194 -137.5 -331.5t-331.5 -137.5z" />
    <glyph glyph-name="uni2462" unicode="&#x2462;" horiz-adv-x="1057" 
d="M511 -25q-83 0 -158 28l38 105q56 -20 120 -20q44 0 73 24q12 13 12 32q0 33 -40 48q-63 14 -138 14v112q74 0 137 12q17 7 25 13q11 8 11 22q0 45 -65 45q-50 0 -107 -29l-51 101q81 41 158 41q85 0 135 -49q42 -42 42 -110q0 -60 -45 -102q50 -45 50 -116
q0 -66 -44 -112q-63 -59 -153 -59zM528 -167q177 0 302 125t125 302q0 176 -125 301t-302 125q-176 0 -301 -125t-125 -301q0 -177 125 -302t301 -125zM528 -209q-193 0 -330.5 137.5t-137.5 331.5q0 193 137.5 330.5t330.5 137.5q194 0 331.5 -137.5t137.5 -330.5
q0 -194 -137.5 -331.5t-331.5 -137.5z" />
    <glyph glyph-name="uni2463" unicode="&#x2463;" horiz-adv-x="1057" 
d="M533 211v144l-104 -144h104zM642 8h-109v98h-241v105l241 320h109v-320h73v-105h-73v-98zM528 -167q177 0 302 125t125 302q0 176 -125 301t-302 125q-176 0 -301 -125t-125 -301q0 -177 125 -302t301 -125zM528 -209q-193 0 -330.5 137.5t-137.5 331.5
q0 193 137.5 330.5t330.5 137.5q194 0 331.5 -137.5t137.5 -330.5q0 -194 -137.5 -331.5t-331.5 -137.5z" />
    <glyph glyph-name="uni2464" unicode="&#x2464;" horiz-adv-x="1057" 
d="M527 -10q-81 0 -155 27l37 104q56 -20 118 -20q10 0 29 3.5t34.5 15.5t15.5 39q0 26 -6 36q-19 33 -83 36l-36 1q-29 0 -55 -2t-47 -2v295h319v-106h-204v-75l16 1q88 0 156 -54q51 -48 51 -130q0 -74 -53 -121.5t-137 -47.5zM528 -167q177 0 302 125t125 302
q0 176 -125 301t-302 125q-176 0 -301 -125t-125 -301q0 -177 125 -302t301 -125zM528 -209q-193 0 -330.5 137.5t-137.5 331.5q0 193 137.5 330.5t330.5 137.5q194 0 331.5 -137.5t137.5 -330.5q0 -194 -137.5 -331.5t-331.5 -137.5z" />
    <glyph glyph-name="uni2465" unicode="&#x2465;" horiz-adv-x="1057" 
d="M527 102q31 0 54 21.5t23 52.5q0 30 -23 51.5t-54 21.5q-33 0 -55 -21.5t-22 -51.5q0 -11 3 -21q22 -53 74 -53zM527 -9q-128 0 -180 133q-11 41 -11 88v36q0 169 104 235q69 45 150 45q64 0 112 -19l-38 -104q-31 12 -72 12q-90 0 -125 -67q29 10 60 10q77 0 132 -54.5
t55 -129.5q0 -77 -55 -131t-132 -54zM528 -167q177 0 302 125t125 302q0 176 -125 301t-302 125q-176 0 -301 -125t-125 -301q0 -177 125 -302t301 -125zM528 -209q-193 0 -330.5 137.5t-137.5 331.5q0 193 137.5 330.5t330.5 137.5q194 0 331.5 -137.5t137.5 -330.5
q0 -194 -137.5 -331.5t-331.5 -137.5z" />
    <glyph glyph-name="uni2466" unicode="&#x2466;" horiz-adv-x="1057" 
d="M529 -39l-103 41l159 396h-200v105h319v-105zM528 -167q177 0 302 125.5t125 301.5q0 177 -125 302t-302 125q-176 0 -301 -125t-125 -302q0 -176 125 -301.5t301 -125.5zM528 -208q-193 0 -330.5 137t-137.5 331t137.5 331t330.5 137q194 0 331.5 -137t137.5 -331
t-137.5 -331t-331.5 -137z" />
    <glyph glyph-name="uni2467" unicode="&#x2467;" horiz-adv-x="1057" 
d="M535 89q35 0 65.5 15t30.5 42q0 23 -18.5 39t-41 26.5t-36.5 14.5q-96 -30 -96 -80q0 -27 30 -42t66 -15zM535 336q22 5 48.5 18.5t26.5 33.5q0 17 -22.5 30t-52.5 13t-52.5 -13t-22.5 -30q0 -34 75 -52zM535 -18q-88 0 -146 46.5t-58 117.5q0 82 75 135q-54 37 -54 107
q0 64 52.5 107t130.5 43t130 -43t52 -107q0 -70 -53 -107q74 -53 74 -135q0 -71 -57.5 -117.5t-145.5 -46.5zM528 -167q177 0 302 125.5t125 301.5q0 177 -125 302t-302 125q-176 0 -301 -125t-125 -302q0 -176 125 -301.5t301 -125.5zM528 -208q-193 0 -330.5 137
t-137.5 331t137.5 331t330.5 137q194 0 331.5 -137t137.5 -331t-137.5 -331t-331.5 -137z" />
    <glyph glyph-name="uni2468" unicode="&#x2468;" horiz-adv-x="1057" 
d="M539 271q33 0 56.5 22.5t23.5 54.5q0 11 -4 21q-22 55 -76 55q-33 0 -56.5 -22t-23.5 -54t23.5 -54.5t56.5 -22.5zM470 -19q-64 0 -114 20l40 108q33 -13 74 -13q93 0 130 70q-29 -10 -61 -10q-81 0 -138 56t-57 135q0 80 57 136t138 56q132 0 187 -138q11 -42 11 -91
l-1 -38q0 -174 -108 -244q-79 -47 -158 -47zM528 -167q177 0 302 125.5t125 301.5q0 177 -125 302t-302 125q-176 0 -301 -125t-125 -302q0 -176 125 -301.5t301 -125.5zM528 -208q-193 0 -330.5 137t-137.5 331t137.5 331t330.5 137q194 0 331.5 -137t137.5 -331
t-137.5 -331t-331.5 -137z" />
    <glyph glyph-name="uni2469" unicode="&#x2469;" horiz-adv-x="1057" 
d="M438 -16h-120v382q-22 -19 -45 -37l-67 78l112 100h120v-523zM668 66q55 0 55 200q0 176 -55 176t-55 -176v-24q0 -176 55 -176zM672 -23q-183 0 -183 277t183 277q102 0 140 -78t38 -199t-38 -199t-140 -78zM528 -167q177 0 302 125.5t125 301.5q0 177 -125 302
t-302 125q-176 0 -301 -125t-125 -302q0 -176 125 -301.5t301 -125.5zM528 -208q-193 0 -330.5 137t-137.5 331t137.5 331t330.5 137q194 0 331.5 -137t137.5 -331t-137.5 -331t-331.5 -137z" />
    <glyph glyph-name="uni246A" unicode="&#x246a;" horiz-adv-x="1057" 
d="M454 -6h-119v381l-45 -37l-67 79l112 100h119v-523zM758 -6h-119v381l-45 -37l-67 79l112 100h119v-523zM528 -167q177 0 302 125.5t125 301.5q0 177 -125 302t-302 125q-176 0 -301 -125t-125 -302q0 -176 125 -301.5t301 -125.5zM528 -208q-193 0 -330.5 137
t-137.5 331t137.5 331t330.5 137q194 0 331.5 -137t137.5 -331t-137.5 -331t-331.5 -137z" />
    <glyph glyph-name="uni246B" unicode="&#x246b;" horiz-adv-x="1057" 
d="M833 -8h-343v109q77 53 153 133t76 134q0 55 -55 55q-44 0 -97 -36l-60 94q82 57 156 57q44 0 85 -21q78 -50 78 -149q0 -112 -144 -250l-17 -17h168v-109zM425 -6h-119v381l-45 -37l-67 79l112 100h119v-523zM528 -167q177 0 302 125t125 302q0 176 -125 301t-302 125
q-176 0 -301 -125t-125 -301q0 -177 125 -302t301 -125zM528 -209q-193 0 -330.5 137.5t-137.5 331.5q0 193 137.5 330.5t330.5 137.5q194 0 331.5 -137.5t137.5 -330.5q0 -194 -137.5 -331.5t-331.5 -137.5z" />
    <glyph glyph-name="uni246C" unicode="&#x246c;" horiz-adv-x="1057" 
d="M640 -16q-82 0 -158 28l39 105q56 -20 119 -20q45 0 73 24q13 13 13 32q0 33 -40 48q-64 13 -138 13v113q74 0 136 12q17 7 25 12q11 9 11 23q0 45 -64 45q-50 0 -107 -29l-52 100q81 42 159 42q84 0 135 -49q41 -43 41 -110q0 -60 -45 -103q51 -44 51 -115
q0 -66 -44 -112q-64 -59 -154 -59zM417 -6h-119v381l-45 -37l-67 79l112 100h119v-523zM528 -167q177 0 302 125t125 302q0 176 -125 301t-302 125q-176 0 -301 -125t-125 -301q0 -177 125 -302t301 -125zM528 -209q-193 0 -330.5 137.5t-137.5 331.5q0 193 137.5 330.5
t330.5 137.5q194 0 331.5 -137.5t137.5 -330.5q0 -194 -137.5 -331.5t-331.5 -137.5z" />
    <glyph glyph-name="uni246D" unicode="&#x246d;" horiz-adv-x="1057" 
d="M685 200v144l-101 -144h101zM791 -3h-106v98h-234v105l234 320h106v-320h71v-105h-71v-98zM415 -6h-119v381l-45 -37l-67 79l112 100h119v-523zM528 -167q177 0 302 125t125 302q0 176 -125 301t-302 125q-176 0 -301 -125t-125 -301q0 -177 125 -302t301 -125zM528 -209
q-193 0 -330.5 137.5t-137.5 331.5q0 193 137.5 330.5t330.5 137.5q194 0 331.5 -137.5t137.5 -330.5q0 -194 -137.5 -331.5t-331.5 -137.5z" />
    <glyph glyph-name="uni246E" unicode="&#x246e;" horiz-adv-x="1057" 
d="M640 -12q-81 0 -155 27l37 104q56 -20 118 -20q9 0 28.5 3.5t35 15.5t15.5 39q0 26 -6 37q-19 33 -83 35l-36 1q-29 0 -55.5 -2t-47.5 -2v295h320v-105h-204v-75h16q88 0 156 -54q51 -48 51 -130q0 -74 -53 -121.5t-137 -47.5zM425 -2h-119v381l-45 -36l-67 78l112 100
h119v-523zM528 -167q177 0 302 125t125 302q0 176 -125 301t-302 125q-176 0 -301 -125t-125 -301q0 -177 125 -302t301 -125zM528 -209q-193 0 -330.5 137.5t-137.5 331.5q0 193 137.5 330.5t330.5 137.5q194 0 331.5 -137.5t137.5 -330.5q0 -194 -137.5 -331.5
t-331.5 -137.5z" />
    <glyph glyph-name="uni246F" unicode="&#x246f;" horiz-adv-x="1057" 
d="M646 94q32 0 54.5 21t22.5 52t-22.5 52.5t-54.5 21.5t-54.5 -21.5t-22.5 -52.5q0 -10 3 -21q22 -52 74 -52zM646 -17q-128 0 -180 132q-11 42 -11 89l1 36q0 169 104 235q68 45 149 45q64 0 113 -19l-38 -104q-32 12 -72 12q-91 0 -125 -67q28 10 59 10q78 0 133 -54.5
t55 -130.5t-55 -130t-133 -54zM411 -9h-119v381l-45 -37l-67 78l112 100h119v-522zM528 -167q177 0 302 125t125 302q0 176 -125 301t-302 125q-176 0 -301 -125t-125 -301q0 -177 125 -302t301 -125zM528 -209q-193 0 -330.5 137.5t-137.5 331.5q0 193 137.5 330.5
t330.5 137.5q194 0 331.5 -137.5t137.5 -330.5q0 -194 -137.5 -331.5t-331.5 -137.5z" />
    <glyph glyph-name="uni2470" unicode="&#x2470;" horiz-adv-x="1057" 
d="M646 -52l-106 42l163 406h-205v108h327v-108zM443 -26h-119v382l-46 -37l-67 78l113 100h119v-523zM528 -167q177 0 302 125.5t125 301.5q0 177 -125 302t-302 125q-176 0 -301 -125t-125 -302q0 -176 125 -301.5t301 -125.5zM528 -208q-193 0 -330.5 137t-137.5 331
t137.5 331t330.5 137q194 0 331.5 -137t137.5 -331t-137.5 -331t-331.5 -137z" />
    <glyph glyph-name="uni2471" unicode="&#x2471;" horiz-adv-x="1057" 
d="M649 89q34 0 63 15t29 42q0 23 -17.5 39t-39 26.5t-35.5 14.5q-92 -30 -92 -80q0 -27 29 -42t63 -15zM649 336q22 5 47 18.5t25 33.5q0 17 -21.5 30t-50.5 13t-50.5 -13t-21.5 -30q0 -34 72 -52zM649 -17q-84 0 -139 46t-55 117q0 82 71 135q-51 37 -51 107q0 64 50 107
t124 43t124 -43t50 -107q0 -70 -51 -107q72 -53 72 -135q0 -71 -55.5 -117t-139.5 -46zM408 -8h-114v381l-43 -37l-64 79l107 100h114v-523zM528 -167q177 0 302 125.5t125 301.5q0 177 -125 302t-302 125q-176 0 -301 -125t-125 -302q0 -176 125 -301.5t301 -125.5z
M528 -208q-193 0 -330.5 137t-137.5 331t137.5 331t330.5 137q194 0 331.5 -137t137.5 -331t-137.5 -331t-331.5 -137z" />
    <glyph glyph-name="uni2472" unicode="&#x2472;" horiz-adv-x="1057" 
d="M656 271q32 0 55 22.5t23 54.5q0 11 -4 21q-22 55 -74 55q-33 0 -55.5 -22t-22.5 -54t22.5 -54.5t55.5 -22.5zM589 -19q-63 0 -111 20l38 108q33 -13 73 -13q90 0 126 70q-28 -10 -59 -10q-79 0 -135 56t-56 135q0 80 56 136t135 56q129 0 182 -138q11 -42 11 -91l-1 -38
q0 -174 -105 -244q-77 -47 -154 -47zM418 -9h-116v382l-44 -37l-66 78l110 100h116v-523zM528 -167q177 0 302 125.5t125 301.5q0 177 -125 302t-302 125q-176 0 -301 -125t-125 -302q0 -176 125 -301.5t301 -125.5zM528 -208q-193 0 -330.5 137t-137.5 331t137.5 331
t330.5 137q194 0 331.5 -137t137.5 -331t-137.5 -331t-331.5 -137z" />
    <glyph glyph-name="uni2473" unicode="&#x2473;" horiz-adv-x="1057" 
d="M709 83q50 0 50 171v23q0 172 -50 172q-51 0 -51 -195q0 -171 51 -171zM713 -5q-166 0 -166 271q0 270 166 270q92 0 126.5 -76t34.5 -194t-34.5 -194.5t-126.5 -76.5zM529 6h-311v106q70 52 139 129.5t69 131.5q0 53 -50 53q-41 0 -88 -35l-55 91q75 56 142 56
q40 0 77 -21q71 -48 71 -144q0 -109 -131 -245l-15 -16h152v-106zM528 -167q177 0 302 125.5t125 301.5q0 177 -125 302t-302 125q-176 0 -301 -125t-125 -302q0 -176 125 -301.5t301 -125.5zM528 -208q-193 0 -330.5 137t-137.5 331t137.5 331t330.5 137q194 0 331.5 -137
t137.5 -331t-137.5 -331t-331.5 -137z" />
    <glyph glyph-name="uni2474" unicode="&#x2474;" horiz-adv-x="1011" 
d="M587 5h-125v382l-47 -37l-71 78l118 100h125v-523zM816 -96q-29 0 -29 6v2q102 137 102 347q0 209 -102 348q-1 1 -1 3q0 5 53 5q3 0 4 -2q108 -163 108 -354t-107 -353q-2 -2 -28 -2zM195 -96q-26 0 -28 3q-107 162 -107 352q0 191 108 354q1 2 28 2q30 0 30 -4l-2 -4
q-102 -137 -102 -348q0 -209 101 -347q2 -1 2 -3q0 -5 -30 -5z" />
    <glyph glyph-name="uni2475" unicode="&#x2475;" horiz-adv-x="1011" 
d="M694 0h-366v109q82 53 163.5 133t81.5 134q0 55 -59 55q-48 0 -104 -36l-64 94q88 57 166 57q48 0 92 -21q83 -50 83 -149q0 -111 -154 -250l-18 -17h179v-109zM816 -96q-29 0 -29 6v2q102 137 102 347q0 209 -102 348q-1 1 -1 3q0 5 53 5q3 0 4 -2q108 -163 108 -354
t-107 -353q-2 -2 -28 -2zM195 -96q-26 0 -28 3q-107 162 -107 352q0 191 108 354q1 2 28 2q30 0 30 -4l-2 -4q-102 -137 -102 -348q0 -209 101 -347q2 -1 2 -3q0 -5 -30 -5z" />
    <glyph glyph-name="uni2476" unicode="&#x2476;" horiz-adv-x="1011" 
d="M494 -13q-82 0 -158 28l39 105q56 -20 119 -20q45 0 73 24q13 13 13 32q0 33 -40 48q-64 13 -138 13v113q74 0 136 12q17 6 25 12q12 9 12 23q0 45 -65 45q-50 0 -107 -29l-52 100q81 42 159 42q84 0 135 -50q42 -42 42 -109q0 -60 -46 -103q51 -44 51 -115
q0 -66 -44 -112q-64 -59 -154 -59zM196 -96q-27 0 -29 3q-107 162 -107 352q0 191 108 354q1 2 28 2q30 0 30 -4l-2 -4q-102 -137 -102 -348q0 -209 101 -347q2 -1 2 -3q0 -5 -29 -5zM816 -96q-29 0 -29 6v2q102 137 102 347q0 209 -102 348q-1 1 -1 3q0 5 53 5q3 0 4 -2
q108 -163 108 -354t-107 -353q-2 -2 -28 -2z" />
    <glyph glyph-name="uni2477" unicode="&#x2477;" horiz-adv-x="1011" 
d="M526 213v144l-103 -144h103zM635 10h-109v98h-240v105l240 320h109v-320h73v-105h-73v-98zM816 -96q-29 0 -29 6v2q102 137 102 347q0 209 -102 348q-1 1 -1 3q0 5 53 5q3 0 4 -2q108 -163 108 -354t-107 -353q-2 -2 -28 -2zM196 -96q-27 0 -29 3q-107 162 -107 352
q0 191 108 354q1 2 28 2q30 0 30 -4l-2 -4q-102 -137 -102 -348q0 -209 101 -347q2 -1 2 -3q0 -5 -29 -5z" />
    <glyph glyph-name="uni2478" unicode="&#x2478;" horiz-adv-x="1011" 
d="M506 -5q-81 0 -155 27l37 104q55 -20 118 -20q9 0 28 3.5t35 15.5t16 39q0 26 -6 37q-20 33 -84 35l-35 1q-29 0 -55.5 -2t-47.5 -2v295h320v-105h-204v-75h16q87 0 156 -54q51 -48 51 -130q0 -74 -53 -121.5t-137 -47.5zM816 -96q-29 0 -29 5q0 2 1 3q101 138 101 347
t-102 348q-1 1 -1 3q0 5 53 5q3 0 4 -2q108 -163 108 -354t-107 -353q-2 -2 -28 -2zM196 -96q-27 0 -29 3q-107 162 -107 352q0 191 108 354q1 2 28 2q30 0 30 -4l-2 -4q-102 -137 -102 -348q0 -209 101 -347q2 -1 2 -3q0 -5 -29 -5z" />
    <glyph glyph-name="uni2479" unicode="&#x2479;" horiz-adv-x="1011" 
d="M507 105q32 0 54.5 21.5t22.5 52.5q0 30 -22.5 52t-54.5 22t-54.5 -22t-22.5 -52q0 -10 3 -21q22 -53 74 -53zM507 -5q-128 0 -180 132q-11 42 -11 89l1 36q0 169 104 235q68 45 149 45q64 0 113 -19l-38 -104q-32 12 -72 12q-91 0 -125 -67q28 10 59 10q78 0 133 -54.5
t55 -130.5t-55 -130t-133 -54zM196 -96q-27 0 -29 3q-107 162 -107 352q0 191 108 354q1 2 28 2q30 0 30 -4l-2 -4q-102 -137 -102 -348q0 -209 101 -347q2 -1 2 -3q0 -5 -29 -5zM816 -96q-29 0 -29 5q0 2 1 3q101 138 101 347t-102 348q-1 1 -1 3q0 5 53 5q3 0 4 -2
q108 -163 108 -354t-107 -353q-2 -2 -28 -2z" />
    <glyph glyph-name="uni247A" unicode="&#x247a;" horiz-adv-x="1012" 
d="M509 -29l-103 41l159 396h-200v105h319v-105zM220 -95h-48q-3 0 -5 2q-107 162 -107 353t108 354q2 2 28 2q29 0 29 -5q0 -2 -1 -3q-102 -139 -102 -348q0 -210 102 -347l1 -2q0 -6 -5 -6zM816 -95q-27 0 -28 1.5t-1 4.5q103 141 103 348q0 210 -104 349q0 3 1 5t28 2
t29 -2q108 -163 108 -354q0 -190 -108 -352q-1 -2 -28 -2z" />
    <glyph glyph-name="uni247B" unicode="&#x247b;" horiz-adv-x="1012" 
d="M513 93q36 0 66.5 14.5t30.5 42.5q0 22 -18.5 38.5t-41 26.5t-37.5 15q-96 -31 -96 -80q0 -28 30.5 -42.5t65.5 -14.5zM513 340q23 5 49.5 18.5t26.5 33.5q0 17 -22.5 30t-53.5 13q-30 0 -52.5 -13t-22.5 -30q0 -34 75 -52zM513 -14q-88 0 -145.5 46.5t-57.5 117.5
q0 82 74 135q-53 37 -53 107q0 64 52.5 106.5t129.5 42.5q78 0 130.5 -42.5t52.5 -106.5q0 -70 -53 -107q74 -53 74 -135q0 -71 -57.5 -117.5t-146.5 -46.5zM816 -95q-27 0 -28 1.5t-1 3.5q103 142 103 349q0 210 -104 349q0 3 1 5t28 2t29 -2q108 -163 108 -354
q0 -190 -108 -352q-1 -2 -28 -2zM220 -95h-48q-3 0 -5 2q-107 162 -107 353t108 354q2 2 28 2q29 0 29 -5q0 -2 -1 -3q-102 -139 -102 -348q0 -210 102 -347l1 -2q0 -6 -5 -6z" />
    <glyph glyph-name="uni247C" unicode="&#x247c;" horiz-adv-x="1011" 
d="M525 281q32 0 56 23t24 54q0 11 -4 22q-22 55 -76 55q-33 0 -56.5 -22.5t-23.5 -54.5q0 -31 23.5 -54t56.5 -23zM456 -8q-64 0 -114 19l40 108q33 -12 74 -12q93 0 130 69q-29 -9 -61 -9q-81 0 -138 56t-57 135t57 135t138 56q132 0 187 -137q11 -43 11 -92l-1 -37
q0 -175 -108 -245q-79 -46 -158 -46zM816 -96q-29 0 -29 5q0 2 1 3q101 138 101 347q0 211 -102 348l-1 2q0 6 29 6q27 0 28 -2q108 -163 108 -354q0 -190 -107 -353q-2 -2 -28 -2zM220 -95h-49q-2 0 -4 2q-107 162 -107 353t108 353q2 2 28 2q27 0 28 -1.5t1 -4.5
q-103 -139 -103 -349t102 -348q0 -7 -4 -7z" />
    <glyph glyph-name="uni247D" unicode="&#x247d;" horiz-adv-x="1011" 
d="M407 -4h-119v382l-45 -37l-67 78l112 100h119v-523zM634 78q55 0 55 200q0 176 -55 176t-55 -176v-24q0 -176 55 -176zM638 -11q-182 0 -182 277t182 277q102 0 140 -78t38 -199t-38 -199t-140 -78zM220 -95h-49q-2 0 -4 2q-107 162 -107 353t108 353q2 2 28 2
q27 0 28 -1.5t1 -4.5q-103 -139 -103 -349t102 -348q0 -7 -4 -7zM816 -96q-29 0 -29 5q0 2 1 3q101 138 101 347q0 211 -102 348l-1 2q0 6 29 6q27 0 29 -2q107 -163 107 -354q0 -190 -107 -353q-2 -2 -28 -2z" />
    <glyph glyph-name="uni247E" unicode="&#x247e;" horiz-adv-x="1011" 
d="M437 6h-119v381l-46 -37l-67 79l113 100h119v-523zM741 6h-119v381l-46 -37l-67 79l113 100h119v-523zM195 -95q-26 0 -28 2q-107 162 -107 353t108 353q2 2 28 2q27 0 28 -1.5t1 -4.5q-103 -139 -103 -349t102 -348l1 -3q0 -4 -30 -4zM816 -96q-29 0 -29 5q0 2 1 3
q101 138 101 347q0 211 -102 348l-1 2q0 6 29 6q27 0 29 -2q107 -163 107 -354q0 -190 -107 -353q-1 -2 -28 -2z" />
    <glyph glyph-name="uni247F" unicode="&#x247f;" horiz-adv-x="1011" 
d="M814 0h-342v109q77 53 153 132.5t76 134.5t-55 55q-45 0 -97 -36l-60 94q82 56 155 56q45 0 86 -21q78 -49 78 -148q0 -112 -145 -251l-16 -16h167v-109zM409 1h-120v382l-45 -37l-67 78l112 100h120v-523zM816 -96q-29 0 -29 5q0 2 1 3q101 138 101 347q0 211 -102 348
l-1 2q0 6 29 6q27 0 29 -2q107 -163 107 -354q0 -190 -107 -353q-1 -2 -28 -2zM195 -95q-26 0 -28 2q-107 162 -107 353t108 353q2 2 28 2q27 0 28 -1.5t1 -4.5q-103 -139 -103 -349t102 -348l1 -3q0 -4 -30 -4z" />
    <glyph glyph-name="uni2480" unicode="&#x2480;" horiz-adv-x="1011" 
d="M623 -12q-82 0 -158 28l39 105q56 -20 119 -20q45 0 74 24q12 13 12 33q0 33 -40 47q-63 14 -138 14v112q74 0 137 12q17 7 25 13q11 8 11 22q0 46 -65 46q-50 0 -107 -29l-51 100q81 41 158 41q85 0 135 -49q42 -42 42 -109q0 -61 -46 -103q51 -45 51 -115
q0 -67 -44 -113q-63 -59 -154 -59zM400 -2h-119v381l-45 -36l-67 78l112 100h119v-523zM816 -96q-29 0 -29 5q0 2 1 3q101 138 101 347q0 211 -102 348l-1 2q0 6 29 6q27 0 29 -2q107 -163 107 -354q0 -190 -107 -353q-1 -2 -28 -2zM195 -95q-26 0 -28 2q-107 162 -107 353
t108 353q2 2 28 2q27 0 28 -1.5t1 -4.5q-103 -139 -103 -349t102 -348l1 -3q0 -4 -30 -4z" />
    <glyph glyph-name="uni2481" unicode="&#x2481;" horiz-adv-x="1012" 
d="M655 208v143l-97 -143h97zM758 5h-103v97h-226v106l226 320h103v-320h69v-106h-69v-97zM394 1h-115v382l-44 -37l-65 78l109 100h115v-523zM816 -96q-29 0 -29 5q0 2 1 3q102 139 102 347q0 210 -103 348l-1 2q0 6 29 6q27 0 29 -2q108 -163 108 -354q0 -190 -108 -353
q-1 -2 -28 -2zM196 -95q-27 0 -29 2q-107 162 -107 353t108 353q2 2 28 2q27 0 28 -1.5t1 -4.5q-103 -139 -103 -349t102 -348l1 -3q0 -4 -29 -4z" />
    <glyph glyph-name="uni2482" unicode="&#x2482;" horiz-adv-x="1012" 
d="M625 -15q-81 0 -156 27l38 104q55 -21 118 -21q9 0 28 3.5t35 16t16 39.5q0 25 -6 36q-20 33 -84 36h-35q-29 0 -55.5 -2t-47.5 -2v295h319v-105h-203v-75l16 1q87 0 156 -54q51 -49 51 -130q0 -75 -53 -122t-137 -47zM410 -6h-119v382l-45 -37l-67 78l112 100h119v-523z
M196 -95q-27 0 -29 2q-107 162 -107 353t108 353q2 2 28 2q29 0 29 -3l-1 -3q-102 -139 -102 -349t102 -348l1 -3q0 -4 -29 -4zM816 -96q-30 0 -30 5q0 2 2 3q102 139 102 347q0 210 -103 348l-1 2q0 6 29 6q27 0 29 -2q108 -163 108 -354q0 -190 -108 -353q-1 -2 -28 -2z
" />
    <glyph glyph-name="uni2483" unicode="&#x2483;" horiz-adv-x="1012" 
d="M628 96q31 0 54 21.5t23 52.5t-23 52.5t-54 21.5q-33 0 -55 -21.5t-22 -52.5q0 -10 3 -21q22 -53 74 -53zM628 -14q-128 0 -180 132q-11 42 -11 89v36q0 169 104 235q69 45 150 45q64 0 113 -19l-39 -104q-31 12 -71 12q-91 0 -126 -67q29 10 60 10q77 0 132 -54.5
t55 -130.5t-55 -130t-132 -54zM393 -7h-119v382l-45 -37l-68 78l113 100h119v-523zM196 -95q-27 0 -28 2q-108 162 -108 353t108 353q2 2 28 2q29 0 29 -3l-1 -3q-102 -141 -102 -349q0 -210 102 -348l1 -3q0 -4 -29 -4zM816 -96q-30 0 -30 5q0 2 2 3q102 139 102 347
q0 210 -103 348l-1 2q0 6 29 6q27 0 29 -2q108 -163 108 -354q0 -190 -108 -353q-1 -2 -28 -2z" />
    <glyph glyph-name="uni2484" unicode="&#x2484;" horiz-adv-x="1011" 
d="M616 -45l-106 42l163 406h-205v108h327v-108zM413 -18h-119v381l-45 -37l-67 78l112 100h119v-522zM816 -95q-27 0 -28 1.5t-1 4.5q103 141 103 348q0 210 -104 349q0 3 1 5t28 2t29 -2q107 -163 107 -354q0 -190 -107 -352q-1 -2 -28 -2zM220 -95h-49q-2 0 -4 2
q-107 162 -107 353t108 354q2 2 28 2q29 0 29 -5q0 -2 -1 -3q-102 -139 -102 -348q0 -210 102 -347l1 -2q0 -6 -5 -6z" />
    <glyph glyph-name="uni2485" unicode="&#x2485;" horiz-adv-x="1012" 
d="M622 333q21 5 46 18.5t25 33.5q0 17 -21.5 30t-49.5 13q-29 0 -50.5 -13t-21.5 -30q0 -34 72 -52zM622 86q33 0 62 15t29 42q0 23 -17.5 39t-39 26t-34.5 15q-92 -31 -92 -80q0 -27 29 -42t63 -15zM622 -21q-85 0 -140 46.5t-55 117.5q0 82 71 135q-51 37 -51 107
q0 64 50 106.5t125 42.5q74 0 124 -42.5t50 -106.5q0 -70 -51 -107q71 -53 71 -135q0 -71 -55 -117.5t-139 -46.5zM380 -12h-114v382l-43 -37l-64 78l107 100h114v-523zM816 -95q-27 0 -28 1.5t-1 4.5q103 141 103 348q0 210 -104 349q0 3 1 5t28 2t29 -2q108 -163 108 -354
q0 -190 -108 -352q-1 -2 -28 -2zM220 -95h-48q-3 0 -5 2q-107 162 -107 353t108 354q2 2 28 2q29 0 29 -5q0 -2 -1 -3q-102 -139 -102 -348q0 -210 102 -347l1 -2q0 -6 -5 -6z" />
    <glyph glyph-name="uni2486" unicode="&#x2486;" horiz-adv-x="1012" 
d="M636 275q32 0 55 22.5t23 54.5q0 11 -4 22q-22 54 -74 54q-33 0 -55.5 -22.5t-22.5 -53.5q0 -32 22.5 -54.5t55.5 -22.5zM569 -15q-63 0 -111 20l38 108q33 -13 73 -13q90 0 126 69q-28 -9 -59 -9q-79 0 -135 56t-56 135q0 80 56 136t135 56q129 0 182 -138
q11 -43 11 -92l-1 -37q0 -175 -105 -244q-77 -47 -154 -47zM398 -5h-116v381l-44 -36l-66 78l110 100h116v-523zM816 -95q-27 0 -28 1.5t-1 3.5q103 142 103 349q0 210 -104 349q0 3 1 5t28 2t29 -2q108 -163 108 -354q0 -190 -108 -352q-1 -2 -28 -2zM196 -95q-27 0 -29 2
q-107 162 -107 353t108 354q2 2 53 2q4 0 4 -5q0 -2 -1 -3q-102 -139 -102 -348q0 -210 102 -347l1 -2q0 -6 -29 -6z" />
    <glyph glyph-name="uni2487" unicode="&#x2487;" horiz-adv-x="1012" 
d="M678 89q49 0 49 199q0 176 -49 176q-50 0 -50 -200q0 -175 50 -175zM682 -1q-164 0 -164 277t164 277q91 0 125 -78t34 -199t-34 -199t-125 -78zM491 7h-307v108q69 54 137.5 133.5t68.5 134.5q0 54 -49 54q-41 0 -88 -36l-53 94q73 57 139 57q40 0 77 -21
q69 -50 69 -148q0 -112 -129 -251l-15 -17h150v-108zM816 -95q-27 0 -28 1.5t-1 3.5q103 140 103 349q0 210 -104 349q0 3 1 5t28 2t29 -2q108 -163 108 -354q0 -190 -108 -352q-1 -2 -28 -2zM220 -95q-51 0 -52 2q-108 162 -108 353t108 354q2 2 28 2q29 0 29 -5
q0 -2 -1 -3q-102 -141 -102 -348q0 -210 102 -347l1 -2q0 -6 -5 -6z" />
    <glyph glyph-name="uni249C" unicode="&#x249c;" horiz-adv-x="1011" 
d="M460 152q20 0 51 12q39 15 62 60q-99 -8 -132 -36q-2 -3 -3 -4t-2 -13q0 -19 24 -19zM467 51q-27 0 -50 7q-96 35 -96 123q0 53 41 92q71 60 203 66q-11 23 -43 23q-78 -3 -113 -28l-74 96q46 35 135 50q23 4 45 4q61 0 110 -32q50 -42 60 -90.5t10 -70.5v-236h-122v23
q-55 -27 -106 -27zM816 -96q-29 0 -29 5q0 2 1 3q101 138 101 347q0 211 -102 348q-1 1 -1 3q0 5 29 5q27 0 28 -2q108 -163 108 -354q0 -190 -107 -352q-2 -3 -28 -3zM220 -95h-49q-2 0 -4 2q-107 162 -107 353t108 353q1 3 28 3q30 0 30 -5q0 -2 -2 -3
q-102 -139 -102 -348t101 -347l2 -4q0 -4 -5 -4z" />
    <glyph glyph-name="uni249D" unicode="&#x249d;" horiz-adv-x="1011" 
d="M539 68q42 0 59 36t17 81q0 46 -17 82t-59 36t-59 -36t-17 -82q0 -45 17 -81t59 -36zM539 -41q-44 0 -82 22v-15h-127v606h127v-182q38 22 82 22q79 0 134.5 -66.5t55.5 -160.5q0 -93 -55.5 -159.5t-134.5 -66.5zM220 -95h-49q-2 0 -4 2q-107 162 -107 353t108 353
q1 3 28 3q30 0 30 -5q0 -2 -2 -3q-102 -139 -102 -348t101 -347l2 -4q0 -4 -5 -4zM816 -96q-29 0 -29 5q0 2 1 3q101 138 101 347q0 211 -102 348q-1 1 -1 3q0 5 29 5q27 0 28 -2q108 -163 108 -354q0 -190 -107 -352q-2 -3 -28 -3z" />
    <glyph glyph-name="uni249E" unicode="&#x249e;" horiz-adv-x="1011" 
d="M573 58q-114 0 -174 59.5t-60 154.5q0 94 60 154t174 60q53 0 100 -21l-14 -106q-47 14 -86 14q-106 0 -113 -101q0 -90 113 -101q52 0 87 14l11 -107q-45 -20 -98 -20zM220 -95h-49q-2 0 -4 2q-107 162 -107 353t108 353q1 3 28 3q29 0 29 -5q0 -2 -1 -3
q-102 -139 -102 -348t101 -347l1 -4q0 -4 -4 -4zM816 -96q-29 0 -29 5q0 2 1 3q101 138 101 347q0 211 -102 348q-1 1 -1 3q0 5 29 5q27 0 28 -2q108 -163 108 -354q0 -190 -107 -352q-2 -3 -28 -3z" />
    <glyph glyph-name="uni249F" unicode="&#x249f;" horiz-adv-x="1011" 
d="M496 61q43 0 60 36.5t17 82.5t-17 83t-60 37t-60 -37t-17 -83t17 -82.5t60 -36.5zM496 -49q-79 0 -135.5 67.5t-56.5 161.5q0 95 56.5 162.5t135.5 67.5q42 0 78 -20v181h127v-613h-127v13q-36 -20 -78 -20zM816 -96q-29 0 -29 5q0 2 1 3q101 138 101 347q0 211 -102 348
q-1 1 -1 3q0 5 29 5q27 0 28 -2q108 -163 108 -354q0 -190 -107 -352q-2 -3 -28 -3zM220 -95h-49q-2 0 -4 2q-107 162 -107 353t108 353q1 3 28 3q29 0 29 -5q0 -2 -1 -3q-102 -139 -102 -348t101 -347l1 -4q0 -4 -4 -4z" />
    <glyph glyph-name="uni24A0" unicode="&#x24a0;" horiz-adv-x="1011" 
d="M585 322q-10 69 -74 69t-73 -69h147zM511 50q-79 0 -135.5 52t-56.5 164q0 217 192 217q193 0 193 -217q0 -22 -4 -43h-264q6 -81 75 -81q21 0 41.5 14t29.5 32h109q-41 -138 -180 -138zM220 -95h-49q-2 0 -4 2q-107 162 -107 353t108 353q1 3 28 3q29 0 29 -5
q0 -2 -1 -3q-102 -139 -102 -348q0 -210 102 -348q0 -7 -4 -7zM816 -96q-29 0 -29 5q0 2 1 3q101 138 101 347q0 211 -102 348q-1 1 -1 3q0 5 29 5q27 0 28 -2q108 -163 108 -354q0 -190 -107 -352q-2 -3 -28 -3z" />
    <glyph glyph-name="uni24A1" unicode="&#x24a1;" horiz-adv-x="1011" 
d="M561 -36h-127v316h-71v122h71v13q0 87 42 123t93 43t78 7v-127q-75 0 -82 -20q-4 -10 -4 -39h81v-122h-81v-316zM816 -96q-29 0 -29 5q0 2 1 3q101 138 101 347q0 211 -102 348q-1 1 -1 3q0 5 29 5q27 0 28 -2q108 -163 108 -354q0 -190 -107 -352q-2 -3 -28 -3zM220 -95
h-49q-2 0 -4 2q-107 162 -107 353t108 353q1 3 28 3q29 0 29 -5q0 -2 -1 -3q-102 -139 -102 -348q0 -210 102 -348q0 -7 -4 -7z" />
    <glyph glyph-name="uni24A2" unicode="&#x24a2;" horiz-adv-x="1011" 
d="M506 221q42 0 58.5 31.5t16.5 70.5q0 40 -16.5 71t-58.5 31t-59 -31t-17 -71q0 -39 17 -70.5t59 -31.5zM500 -32q-92 0 -162 32l38 116q64 -26 117 -26q33 0 62 10q37 20 43 52q-42 -25 -92 -25q-79 0 -134.5 57.5t-55.5 138.5t55.5 139t134.5 58q50 0 92 -26v23h122
v-362q0 -42 -29 -89.5t-85 -75.5q-54 -22 -106 -22zM816 -95q-27 0 -28 1.5t-1 4.5q102 140 102 349q0 210 -103 348q0 3 1 5t28 2t28 -2q108 -162 108 -353t-107 -353q-2 -2 -28 -2zM220 -95h-49q-2 0 -4 2q-107 163 -107 353q0 191 108 354q2 2 28 2q29 0 29 -5
q0 -2 -1 -3q-102 -137 -102 -348q0 -210 102 -348q0 -7 -4 -7z" />
    <glyph glyph-name="uni24A3" unicode="&#x24a3;" horiz-adv-x="1011" 
d="M708 -35h-128v271q0 37 -13 45t-32 8q-8 0 -21 -4q-51 -13 -51 -60l-1 -260h-127v610h127v-172q40 13 73 13q157 0 173 -180v-271zM816 -95q-27 0 -28 1.5t-1 4.5q102 140 102 349q0 210 -103 348q0 3 1 5t28 2t29 -2q107 -162 107 -353t-107 -353q-2 -2 -28 -2zM220 -95
h-49q-2 0 -4 2q-107 163 -107 353q0 191 108 354q2 2 28 2q29 0 29 -5q0 -2 -1 -3q-102 -137 -102 -348q0 -210 102 -348q0 -7 -4 -7z" />
    <glyph glyph-name="uni24A4" unicode="&#x24a4;" horiz-adv-x="1011" 
d="M511 457q-23 0 -39.5 16.5t-16.5 39.5t16.5 39.5t39.5 16.5q24 0 40 -16.5t16 -39.5t-16 -39.5t-40 -16.5zM575 -35h-127v404h127v-404zM816 -95q-27 0 -28 1.5t-1 4.5q102 140 102 349q0 210 -103 348q0 3 1 5t28 2t29 -2q107 -162 107 -353t-107 -353q-1 -2 -28 -2z
M195 -95q-26 0 -28 2q-107 163 -107 353q0 191 108 354q2 2 28 2q29 0 29 -5q0 -2 -1 -3q-102 -137 -102 -348q0 -210 102 -347l1 -2q0 -6 -30 -6z" />
    <glyph glyph-name="uni24A5" unicode="&#x24a5;" horiz-adv-x="1011" 
d="M520 510q-23 0 -39.5 16t-16.5 40q0 23 16.5 39.5t39.5 16.5q24 0 40 -16.5t16 -39.5q0 -24 -16 -40t-40 -16zM396 -112v127q55 0 61 32v379h127v-379q0 -59 -47.5 -109t-140.5 -50zM816 -79q-29 0 -29 5q0 2 1 3q101 138 101 347q0 211 -102 348l-1 2q0 6 29 6
q27 0 29 -2q107 -163 107 -354q0 -190 -107 -353q-1 -2 -28 -2zM195 -78q-26 0 -28 2q-107 162 -107 353t108 353q2 2 28 2q27 0 28 -1.5t1 -4.5q-103 -139 -103 -349t102 -348l1 -3q0 -4 -30 -4z" />
    <glyph glyph-name="uni24A6" unicode="&#x24a6;" horiz-adv-x="1012" 
d="M724 -15h-139l-90 141l-16 -20v-121h-128v610h128v-304l84 102h147l-138 -171zM816 -95q-27 0 -28 1.5t-1 4.5q103 141 103 349q0 209 -104 348q0 3 1 5t28 2t29 -2q108 -162 108 -353t-108 -353q-1 -2 -28 -2zM196 -95q-27 0 -29 2q-107 163 -107 353q0 191 108 354
q2 2 28 2q29 0 29 -5q0 -2 -1 -3q-102 -137 -102 -348q0 -210 102 -347l1 -2q0 -6 -29 -6z" />
    <glyph glyph-name="uni24A7" unicode="&#x24a7;" horiz-adv-x="1012" 
d="M572 -43h-128v610h128v-610zM816 -95q-27 0 -28 1.5t-1 3.5q103 142 103 350q0 209 -104 348q0 3 1 5t28 2t29 -2q108 -162 108 -353t-108 -353q-1 -2 -28 -2zM196 -95q-27 0 -29 2q-107 163 -107 353q0 191 108 354q2 2 28 2q29 0 29 -5q0 -2 -1 -3q-102 -137 -102 -348
q0 -210 102 -347l1 -2q0 -6 -29 -6z" />
    <glyph glyph-name="uni24A8" unicode="&#x24a8;" horiz-adv-x="1012" 
d="M824 55h-127q0 260 -2 267q-4 19 -29 19q-89 -15 -89 -95v-191h-128q0 259 -1 267q-2 19 -27 19q-85 -15 -85 -95h-1v-191h-127v409h127v-16q44 20 87 20q67 0 113 -46q66 46 132 46q67 0 112 -42.5t45 -116.5v-254zM816 -95q-27 0 -28 1.5t-1 3.5q103 142 103 350
q0 209 -104 348q0 3 1 5t28 2t29 -2q108 -162 108 -353t-108 -353q-1 -2 -28 -2zM196 -95q-27 0 -28 2q-108 163 -108 353q0 191 108 354q2 2 53 2q4 0 4 -5q0 -2 -1 -3q-102 -137 -102 -348q0 -210 102 -347l1 -2q0 -6 -29 -6z" />
    <glyph glyph-name="uni24A9" unicode="&#x24a9;" horiz-adv-x="1012" 
d="M694 62h-128q0 259 -1 267q-3 18 -24 18l-12 -1q-76 -19 -76 -93v-191h-128v409h128v-16q43 19 83 20q67 0 112 -43q46 -41 46 -116v-254zM816 -95q-27 0 -28 1.5t-1 3.5q103 140 103 350q0 209 -103 347l-1 3q0 5 29 5q27 0 29 -2q108 -162 108 -353t-108 -353
q-1 -2 -28 -2zM196 -95q-27 0 -28 2q-108 163 -108 353q0 191 108 354q2 2 28 2q29 0 29 -5q0 -2 -1 -3q-102 -139 -102 -348q0 -210 102 -347l1 -2q0 -6 -29 -6z" />
    <glyph glyph-name="uni24AA" unicode="&#x24aa;" horiz-adv-x="1012" 
d="M508 149q47 0 65.5 34.5t18.5 77.5q0 44 -18.5 78.5t-65.5 34.5t-66 -34.5t-19 -78.5q0 -43 19 -77.5t66 -34.5zM508 45q-88 0 -150 63.5t-62 152.5q0 90 62 153.5t150 63.5q87 0 149.5 -63.5t62.5 -153.5q0 -89 -62.5 -152.5t-149.5 -63.5zM816 -95q-27 0 -28 1.5
t-1 3.5q103 140 103 350q0 209 -103 347l-1 3q0 5 29 5q27 0 29 -2q108 -162 108 -353t-108 -353q-1 -2 -28 -2zM196 -95q-27 0 -28 2q-108 163 -108 353q0 191 108 354q2 2 28 2q29 0 29 -6v-2q-103 -138 -103 -348t102 -347l1 -2q0 -6 -29 -6z" />
    <glyph glyph-name="uni24AB" unicode="&#x24ab;" horiz-adv-x="1012" 
d="M541 202q43 0 60 34t17 77t-17 77t-60 34q-42 0 -59 -34t-17 -77t17 -77t59 -34zM464 -6h-128v530h128v-16q36 18 77 18q80 0 136.5 -62.5t56.5 -150.5q0 -89 -56.5 -151.5t-136.5 -62.5q-41 0 -77 18v-123zM196 -95q-27 0 -28 2q-108 163 -108 353q0 191 108 354
q2 2 28 2q29 0 29 -6v-2q-103 -138 -103 -348t102 -347q1 -1 1 -3q0 -5 -29 -5zM816 -95q-27 0 -28 1.5t-1 3.5q103 140 103 350q0 209 -103 347l-1 3q0 5 29 5q27 0 29 -2q108 -162 108 -353t-108 -353q-1 -2 -28 -2z" />
    <glyph glyph-name="uni24AC" unicode="&#x24ac;" horiz-adv-x="1011" 
d="M495 201q43 0 59.5 34.5t16.5 76.5q0 43 -16.5 77.5t-59.5 34.5t-60 -34.5t-17 -77.5q0 -42 17 -76.5t60 -34.5zM699 -6h-127v123q-36 -18 -77 -18q-80 0 -136.5 62.5t-56.5 150.5q0 89 56.5 151.5t136.5 62.5q41 0 77 -18v16h127v-530zM195 -95q-26 0 -28 2
q-107 162 -107 353t108 354q1 2 28 2q30 0 30 -5q0 -2 -2 -3q-102 -139 -102 -348t101 -347q2 -1 2 -3q0 -5 -30 -5zM816 -95q-29 0 -29 5v3q102 137 102 346q0 211 -102 348l-1 4q0 4 29 4q27 0 28 -2q108 -163 108 -354q0 -190 -107 -352q-2 -2 -28 -2z" />
    <glyph glyph-name="uni24AD" unicode="&#x24ad;" horiz-adv-x="1011" 
d="M548 45h-128v405h128v-22q57 27 120 27v-104q-96 0 -120 -69v-237zM220 -95h-49q-2 0 -4 2q-107 162 -107 353t108 353q1 2 28 2q29 0 29 -4v-2q-103 -139 -103 -349q0 -209 101 -347l2 -4q0 -4 -5 -4zM816 -96q-29 0 -29 5q0 2 1 3q101 138 101 347q0 211 -102 348
q-1 1 -1 3q0 5 29 5q27 0 28 -2q108 -163 108 -354q0 -190 -107 -353q-2 -2 -28 -2z" />
    <glyph glyph-name="uni24AE" unicode="&#x24ae;" horiz-adv-x="1011" 
d="M490 44q-53 0 -123 11l17 103q64 -10 107 -10q24 0 40.5 3t23.5 7t9 8t2.5 7t0.5 6q0 27 -52 36q-77 9 -124 71q-20 31 -20 67q0 112 137 123q65 -1 141 -16l-20 -102q-33 7 -71 11q-27 3 -43 3q-40 -2 -40 -18q0 -6 2 -9q14 -20 55 -27q78 -14 116 -65q23 -33 23 -73
q0 -12 -2 -25q-9 -81 -117 -106q-27 -5 -62 -5zM816 -96q-29 0 -29 5q0 2 1 3q101 138 101 347q0 211 -102 348q-1 1 -1 3q0 5 29 5q27 0 28 -2q108 -163 108 -354q0 -190 -107 -353q-2 -2 -28 -2zM220 -95h-49q-2 0 -4 2q-107 162 -107 353t108 353q1 2 28 2t28 -1.5
t1 -4.5q-103 -139 -103 -349q0 -209 101 -347l1 -4q0 -4 -4 -4z" />
    <glyph glyph-name="uni24AF" unicode="&#x24af;" horiz-adv-x="1011" 
d="M639 -12q-27 0 -78 6q-135 17 -135 151v171h-74v121h74v91h127v-91h83v-121h-83v-171q0 -14 4 -18q12 -12 82 -12v-127zM816 -96q-29 0 -29 5q0 2 1 3q101 138 101 347q0 211 -102 348q-1 1 -1 3q0 5 29 5q27 0 28 -2q108 -163 108 -354q0 -190 -107 -353q-2 -2 -28 -2z
M220 -95h-49q-2 0 -4 2q-107 162 -107 353t108 353q1 2 28 2t28 -1.5t1 -4.5q-103 -139 -103 -349q0 -209 101 -347l1 -4q0 -4 -4 -4z" />
    <glyph glyph-name="uni24B0" unicode="&#x24b0;" horiz-adv-x="1011" 
d="M472 22q-66 0 -109 37t-43 94v288h128v-287q6 -5 25 -5q15 0 34 7q60 20 60 103v182h127v-410h-127v12q-46 -21 -95 -21zM220 -95h-49q-2 0 -4 2q-107 162 -107 353t108 353q1 2 28 2t28 -1.5t1 -4.5q-103 -139 -103 -349t102 -348q0 -7 -4 -7zM816 -96q-29 0 -29 5
q0 2 1 3q101 138 101 347q0 211 -102 348q-1 1 -1 3q0 5 29 5q27 0 28 -2q108 -163 108 -354q0 -190 -107 -353q-2 -2 -28 -2z" />
    <glyph glyph-name="uni24B1" unicode="&#x24b1;" horiz-adv-x="1011" 
d="M569 33h-127l-139 410h134q34 -111 69 -221l68 221h133zM816 -96q-29 0 -29 5q0 2 1 3q101 138 101 347q0 211 -102 348q-1 1 -1 3q0 5 29 5q27 0 28 -2q108 -163 108 -354q0 -190 -107 -353q-2 -2 -28 -2zM220 -95h-49q-2 0 -4 2q-107 162 -107 353t108 353q1 2 28 2
t28 -1.5t1 -4.5q-103 -139 -103 -349t102 -348q0 -7 -4 -7z" />
    <glyph glyph-name="uni24B2" unicode="&#x24b2;" horiz-adv-x="1011" 
d="M715 33h-127l-75 219l-74 -219h-127l-139 410h134l69 -221l68 221h138l69 -221l69 221h133zM840 -96h-48q-5 0 -5 5q0 2 1 3q101 138 101 347q0 211 -102 348q-1 1 -1 3q0 5 29 5q27 0 28 -2q108 -163 108 -354q0 -190 -107 -353q-2 -2 -4 -2zM220 -95h-49q-2 0 -4 2
q-107 162 -107 353t108 353q1 2 28 2t28 -1.5t1 -4.5q-103 -139 -103 -349t102 -348q0 -7 -4 -7z" />
    <glyph glyph-name="uni24B3" unicode="&#x24b3;" horiz-adv-x="1011" 
d="M715 33h-137l-66 111l-66 -111h-137l134 213q-61 98 -123 195h138l54 -90l55 90h137l-123 -195zM220 -95h-49q-2 0 -4 2q-107 162 -107 353t108 353q1 2 28 2t28 -1.5t1 -4.5q-103 -139 -103 -349t102 -348q0 -7 -4 -7zM816 -96q-29 0 -29 5q0 2 1 3q101 138 101 347
q0 211 -102 348q-1 1 -1 3q0 5 29 5q27 0 28 -2q108 -163 108 -354q0 -190 -107 -353q-2 -2 -28 -2z" />
    <glyph glyph-name="uni24B4" unicode="&#x24b4;" horiz-adv-x="1011" 
d="M351 -50h-8v110q81 0 97 17q11 11 19 36l-133 372h130l61 -198l64 198h128q-133 -394 -146 -425q-36 -78 -92 -94t-120 -16zM220 -95h-49q-2 0 -4 2q-107 162 -107 353t108 353q2 2 28 2q27 0 28 -1.5t1 -4.5q-103 -139 -103 -349t102 -348q0 -7 -4 -7zM816 -96
q-29 0 -29 5q0 2 1 3q101 138 101 347q0 211 -102 348q-1 1 -1 3q0 5 29 5q27 0 28 -2q108 -163 108 -354q0 -190 -107 -353q-2 -2 -28 -2z" />
    <glyph glyph-name="uni24B5" unicode="&#x24b5;" horiz-adv-x="1011" 
d="M692 42h-360v110l194 189h-184v110h350v-110l-194 -189h194v-110zM816 -96q-29 0 -29 5q0 2 1 3q101 138 101 347q0 211 -102 348l-1 2q0 6 29 6q27 0 28 -2q108 -163 108 -354q0 -190 -107 -353q-2 -2 -28 -2zM220 -95h-49q-2 0 -4 2q-107 162 -107 353t108 353
q2 2 28 2q27 0 28 -1.5t1 -4.5q-103 -139 -103 -349t102 -348q0 -7 -4 -7z" />
    <glyph glyph-name="uni24D0" unicode="&#x24d0;" horiz-adv-x="1057" 
d="M477 148q73 0 111 72q-98 -7 -133 -37q-4 -7 -5 -16q0 -19 27 -19zM481 47q-26 0 -50 7q-95 35 -95 123q0 52 40.5 89.5t97.5 52t105 16.5q-10 23 -47 23q-27 0 -64 -10q-30 -8 -45 -18l-74 96q47 35 136 50q23 4 44 4q62 0 110 -32q50 -42 60 -90.5t10 -71.5v-235h-121
v23q-56 -27 -107 -27zM528 -166q177 0 302 125t125 301q0 177 -125 302t-302 125q-176 0 -301 -125t-125 -302q0 -176 125 -301t301 -125zM528 -208q-193 0 -330.5 137.5t-137.5 330.5q0 194 137.5 331.5t330.5 137.5q194 0 331.5 -137.5t137.5 -331.5q0 -193 -137.5 -330.5
t-331.5 -137.5z" />
    <glyph glyph-name="uni24D1" unicode="&#x24d1;" horiz-adv-x="1057" 
d="M575 63q42 0 58.5 36.5t16.5 81.5q0 46 -16.5 82t-58.5 36q-43 0 -59.5 -36t-16.5 -82q0 -45 16.5 -81.5t59.5 -36.5zM575 -46q-45 0 -83 23v-16h-126v607h126v-183q38 23 83 23q78 0 134 -66.5t56 -160.5t-56 -160.5t-134 -66.5zM528 -166q177 0 302 125t125 301
q0 177 -125 302t-302 125q-176 0 -301 -125t-125 -302q0 -176 125 -301t301 -125zM528 -208q-193 0 -330.5 137.5t-137.5 330.5q0 194 137.5 331.5t330.5 137.5q194 0 331.5 -137.5t137.5 -331.5q0 -193 -137.5 -330.5t-331.5 -137.5z" />
    <glyph glyph-name="uni24D2" unicode="&#x24d2;" horiz-adv-x="1057" 
d="M589 53q-114 0 -174 60t-60 154q0 95 60 155t174 60q53 0 100 -21l-14 -106q-47 13 -86 13q-106 0 -113 -101q0 -89 113 -100q52 0 87 14l12 -108q-46 -20 -99 -20zM528 -166q177 0 302 125t125 301q0 177 -125 302t-302 125q-176 0 -301 -125t-125 -302q0 -176 125 -301
t301 -125zM528 -208q-193 0 -330.5 137.5t-137.5 330.5q0 194 137.5 331.5t330.5 137.5q194 0 331.5 -137.5t137.5 -331.5q0 -193 -137.5 -330.5t-331.5 -137.5z" />
    <glyph glyph-name="uni24D3" unicode="&#x24d3;" horiz-adv-x="1057" 
d="M501 61q42 0 59 36.5t17 82.5t-17 82.5t-59 36.5q-43 0 -60 -36.5t-17 -82.5t17 -82.5t60 -36.5zM501 -50q-80 0 -136.5 67.5t-56.5 162.5q0 94 56.5 161.5t136.5 67.5q41 0 77 -20v181h128v-612h-128v12q-36 -20 -77 -20zM528 -166q177 0 302 125t125 301
q0 177 -125 302t-302 125q-176 0 -301 -125t-125 -302q0 -176 125 -301t301 -125zM528 -208q-193 0 -330.5 137.5t-137.5 330.5q0 194 137.5 331.5t330.5 137.5q194 0 331.5 -137.5t137.5 -331.5q0 -193 -137.5 -330.5t-331.5 -137.5z" />
    <glyph glyph-name="uni24D4" unicode="&#x24d4;" horiz-adv-x="1057" 
d="M602 317q-10 69 -74 69t-73 -69h147zM528 45q-79 0 -135.5 52t-56.5 165q0 217 192 217q193 0 193 -217q0 -22 -4 -43h-264q6 -81 75 -81q21 0 41.5 14t29.5 31h109q-41 -138 -180 -138zM528 -166q177 0 302 125t125 301q0 177 -125 302t-302 125q-176 0 -301 -125
t-125 -302q0 -176 125 -301t301 -125zM528 -208q-193 0 -330.5 137.5t-137.5 330.5q0 194 137.5 331.5t330.5 137.5q194 0 331.5 -137.5t137.5 -331.5q0 -193 -137.5 -330.5t-331.5 -137.5z" />
    <glyph glyph-name="uni24D5" unicode="&#x24d5;" horiz-adv-x="1057" 
d="M570 -40h-127v316h-71v122h71v12q0 87 42 123.5t93 43.5t78 7v-127q-75 0 -82 -20q-4 -11 -4 -39h81v-122h-81v-316zM528 -166q177 0 302 125t125 301q0 177 -125 302t-302 125q-176 0 -301 -125t-125 -302q0 -176 125 -301t301 -125zM528 -208q-193 0 -330.5 137.5
t-137.5 330.5q0 194 137.5 331.5t330.5 137.5q194 0 331.5 -137.5t137.5 -331.5q0 -193 -137.5 -330.5t-331.5 -137.5z" />
    <glyph glyph-name="uni24D6" unicode="&#x24d6;" horiz-adv-x="1057" 
d="M521 217q42 0 59 31t17 71q0 39 -17 70.5t-59 31.5t-58.5 -31.5t-16.5 -70.5q0 -40 16.5 -71t58.5 -31zM516 -37q-92 0 -162 33l38 116q64 -26 117 -26q33 0 62 10q37 20 43 51q-42 -25 -92 -25q-79 0 -134.5 57.5t-55.5 139.5q0 81 55.5 138.5t134.5 57.5q50 0 92 -25
v22h122v-362q0 -41 -29 -88.5t-85 -75.5q-54 -23 -106 -23zM528 -166q177 0 302 125t125 301q0 177 -125 302t-302 125q-176 0 -301 -125t-125 -302q0 -176 125 -301t301 -125zM528 -208q-193 0 -330.5 137.5t-137.5 330.5q0 194 137.5 331.5t330.5 137.5
q194 0 331.5 -137.5t137.5 -331.5q0 -193 -137.5 -330.5t-331.5 -137.5z" />
    <glyph glyph-name="uni24D7" unicode="&#x24d7;" horiz-adv-x="1057" 
d="M722 -39h-128v271q0 36 -13 44t-32 8q-7 0 -21 -3q-51 -13 -51 -60v-260h-128v609h128v-172q39 14 72 14q157 0 173 -180v-271zM528 -166q177 0 302 125t125 301q0 177 -125 302t-302 125q-176 0 -301 -125t-125 -302q0 -176 125 -301t301 -125zM528 -208
q-193 0 -330.5 137.5t-137.5 330.5q0 194 137.5 331.5t330.5 137.5q194 0 331.5 -137.5t137.5 -331.5q0 -193 -137.5 -330.5t-331.5 -137.5z" />
    <glyph glyph-name="uni24D8" unicode="&#x24d8;" horiz-adv-x="1057" 
d="M528 452q-23 0 -39.5 16.5t-16.5 39.5q0 24 16.5 40t39.5 16t39.5 -16t16.5 -40q0 -23 -16.5 -39.5t-39.5 -16.5zM592 -39h-127v403h127v-403zM528 -166q177 0 302 125t125 301q0 177 -125 302t-302 125q-176 0 -301 -125t-125 -302q0 -176 125 -301t301 -125zM528 -208
q-193 0 -330.5 137.5t-137.5 330.5q0 194 137.5 331.5t330.5 137.5q194 0 331.5 -137.5t137.5 -331.5q0 -193 -137.5 -330.5t-331.5 -137.5z" />
    <glyph glyph-name="uni24D9" unicode="&#x24d9;" horiz-adv-x="1057" 
d="M557 504q-23 0 -39.5 16.5t-16.5 39.5t16.5 39.5t39.5 16.5t39.5 -16.5t16.5 -39.5t-16.5 -39.5t-39.5 -16.5zM433 -106v127q55 0 60 32v379h128v-379q0 -59 -48 -109t-140 -50zM528 -166q177 0 302 125t125 301q0 177 -125 302t-302 125q-176 0 -301 -125t-125 -302
q0 -176 125 -301t301 -125zM528 -208q-193 0 -330.5 137.5t-137.5 330.5q0 194 137.5 331.5t330.5 137.5q194 0 331.5 -137.5t137.5 -331.5q0 -193 -137.5 -330.5t-331.5 -137.5z" />
    <glyph glyph-name="uni24DA" unicode="&#x24da;" horiz-adv-x="1057" 
d="M738 -20h-139l-90 141l-16 -20v-121h-128v610h128v-304l84 103h147l-138 -172zM528 -167q177 0 302 125.5t125 301.5q0 177 -125 302t-302 125q-176 0 -301 -125t-125 -302q0 -176 125 -301.5t301 -125.5zM528 -208q-193 0 -330.5 137t-137.5 331t137.5 331t330.5 137
q194 0 331.5 -137t137.5 -331t-137.5 -331t-331.5 -137z" />
    <glyph glyph-name="uni24DB" unicode="&#x24db;" horiz-adv-x="1056" 
d="M586 -48h-127v610h127v-610zM528 -167q177 0 302 125.5t125 301.5q0 177 -125 302t-302 125q-176 0 -301 -125t-125 -302q0 -176 125 -301.5t301 -125.5zM528 -208q-193 0 -330.5 137t-137.5 331t137.5 331t330.5 137q194 0 331.5 -137t137.5 -331t-137.5 -331
t-331.5 -137z" />
    <glyph glyph-name="uni24DC" unicode="&#x24dc;" horiz-adv-x="1056" 
d="M830 56h-124q0 253 -1 260q-4 18 -29 18q-87 -14 -87 -92v-186h-124q0 252 -1 260q-3 18 -27 18q-83 -15 -83 -92v-186h-125v399h125v-16q43 19 84 19q65 0 110 -45q65 45 129 45q65 0 109 -41.5t44 -113.5v-247zM528 -167q177 0 302 125.5t125 301.5q0 177 -125 302
t-302 125q-176 0 -301 -125t-125 -302q0 -176 125 -301.5t301 -125.5zM528 -208q-193 0 -330.5 137t-137.5 331t137.5 331t330.5 137q194 0 331.5 -137t137.5 -331t-137.5 -331t-331.5 -137z" />
    <glyph glyph-name="uni24DD" unicode="&#x24dd;" horiz-adv-x="1056" 
d="M732 57h-127q0 259 -1 267q-4 19 -27 19q-1 0 -9.5 -1.5t-21.5 -7t-25.5 -15.5t-21 -27.5t-8.5 -43.5v-191h-128v409h128v-16q45 20 86 20q65 0 109 -43q46 -41 46 -116v-254zM528 -167q177 0 302 125.5t125 301.5q0 177 -125 302t-302 125q-176 0 -301 -125t-125 -302
q0 -176 125 -301.5t301 -125.5zM528 -208q-193 0 -330.5 137t-137.5 331t137.5 331t330.5 137q194 0 331.5 -137t137.5 -331t-137.5 -331t-331.5 -137z" />
    <glyph glyph-name="uni24DE" unicode="&#x24de;" horiz-adv-x="1056" 
d="M528 148q47 0 66 34.5t19 77.5q0 44 -19 78.5t-66 34.5t-65.5 -34.5t-18.5 -78.5q0 -43 18.5 -77.5t65.5 -34.5zM528 44q-87 0 -149.5 63.5t-62.5 152.5q0 90 62.5 153.5t149.5 63.5q88 0 150 -63.5t62 -153.5q0 -89 -62 -152.5t-150 -63.5zM528 -167q177 0 302 125.5
t125 301.5q0 177 -125 302t-302 125q-176 0 -301 -125t-125 -302q0 -176 125 -301.5t301 -125.5zM528 -208q-193 0 -330.5 137t-137.5 331t137.5 331t330.5 137q194 0 331.5 -137t137.5 -331t-137.5 -331t-331.5 -137z" />
    <glyph glyph-name="uni24DF" unicode="&#x24df;" horiz-adv-x="1056" 
d="M573 197q43 0 60 34t17 77t-17 77t-60 34q-42 0 -59 -34t-17 -77t17 -77t59 -34zM496 -11h-127v531h127v-17q36 18 77 18q80 0 136.5 -62.5t56.5 -150.5q0 -89 -56.5 -151.5t-136.5 -62.5q-41 0 -77 18v-123zM528 -167q177 0 302 125.5t125 301.5q0 177 -125 302
t-302 125q-176 0 -301 -125t-125 -302q0 -176 125 -301.5t301 -125.5zM528 -208q-193 0 -330.5 137t-137.5 331t137.5 331t330.5 137q194 0 331.5 -137t137.5 -331t-137.5 -331t-331.5 -137z" />
    <glyph glyph-name="uni24E0" unicode="&#x24e0;" horiz-adv-x="1056" 
d="M501 197q43 0 59.5 34t16.5 77t-16.5 77t-59.5 34t-60 -34t-17 -77t17 -77t60 -34zM705 -11h-127v123q-36 -18 -77 -18q-80 0 -136.5 62.5t-56.5 151.5q0 88 56.5 150.5t136.5 62.5q41 0 77 -17v16h127v-531zM528 -167q177 0 302 125.5t125 301.5q0 177 -125 302
t-302 125q-176 0 -301 -125t-125 -302q0 -176 125 -301.5t301 -125.5zM528 -208q-193 0 -330.5 137t-137.5 331t137.5 331t330.5 137q194 0 331.5 -137t137.5 -331t-137.5 -331t-331.5 -137z" />
    <glyph glyph-name="uni24E1" unicode="&#x24e1;" horiz-adv-x="1057" 
d="M562 40h-128v405h128v-21q57 26 120 26v-104q-96 0 -120 -68v-238zM528 -167q177 0 302 125t125 302q0 176 -125 301.5t-302 125.5q-176 0 -301 -125.5t-125 -301.5q0 -177 125 -302t301 -125zM528 -208q-193 0 -330.5 137t-137.5 331t137.5 331t330.5 137
q194 0 331.5 -137t137.5 -331t-137.5 -331t-331.5 -137z" />
    <glyph glyph-name="uni24E2" unicode="&#x24e2;" horiz-adv-x="1057" 
d="M504 44q-52 0 -122 11l17 103q62 -10 106 -10q64 0 72 17q4 8 4 14q-2 27 -52 36q-77 9 -124 71q-21 31 -21 67q0 112 139 123q64 -1 140 -16l-20 -102q-35 7 -71 11q-27 3 -43 3q-30 -1 -35.5 -6.5t-5.5 -11.5q0 -4 3 -9q16 -21 56 -27q77 -13 115 -65q23 -33 23 -73
q0 -12 -2 -25q-6 -81 -116 -106q-28 -5 -63 -5zM528 -167q177 0 302 125t125 302q0 176 -125 301.5t-302 125.5q-176 0 -301 -125.5t-125 -301.5q0 -177 125 -302t301 -125zM528 -208q-193 0 -330.5 137t-137.5 331t137.5 331t330.5 137q194 0 331.5 -137t137.5 -331
t-137.5 -331t-331.5 -137z" />
    <glyph glyph-name="uni24E3" unicode="&#x24e3;" horiz-adv-x="1057" 
d="M653 -17q-26 0 -77 6q-136 18 -136 151v171h-74v122h74v90h128v-90h82v-122h-82q0 -185 3 -188q12 -13 82 -13v-127zM528 -167q177 0 302 125t125 302q0 176 -125 301.5t-302 125.5q-176 0 -301 -125.5t-125 -301.5q0 -177 125 -302t301 -125zM528 -208
q-193 0 -330.5 137t-137.5 331t137.5 331t330.5 137q194 0 331.5 -137t137.5 -331t-137.5 -331t-331.5 -137z" />
    <glyph glyph-name="uni24E4" unicode="&#x24e4;" horiz-adv-x="1056" 
d="M486 17q-66 0 -109 37.5t-43 94.5v287h128v-286q6 -5 25 -5q15 0 33.5 6.5t39 29t20.5 73.5v182h128v-409h-128v12q-45 -22 -94 -22zM528 -167q177 0 302 125.5t125 301.5q0 177 -125 302t-302 125q-176 0 -301 -125t-125 -302q0 -176 125 -301.5t301 -125.5zM528 -208
q-193 0 -330.5 137t-137.5 331t137.5 331t330.5 137q194 0 331.5 -137t137.5 -331t-137.5 -331t-331.5 -137z" />
    <glyph glyph-name="uni24E5" unicode="&#x24e5;" horiz-adv-x="1056" 
d="M583 28h-127l-139 410h134l69 -221l68 221h134zM528 -167q177 0 302 125.5t125 301.5q0 177 -125 302t-302 125q-176 0 -301 -125t-125 -302q0 -176 125 -301.5t301 -125.5zM528 -208q-193 0 -330.5 137t-137.5 331t137.5 331t330.5 137q194 0 331.5 -137t137.5 -331
t-137.5 -331t-331.5 -137z" />
    <glyph glyph-name="uni24E6" unicode="&#x24e6;" horiz-adv-x="1056" 
d="M729 28h-127l-75 220l-74 -220h-127l-139 410h134l69 -221l68 221h139l68 -221l69 221h133zM528 -167q177 0 302 125.5t125 301.5q0 177 -125 302t-302 125q-176 0 -301 -125t-125 -302q0 -176 125 -301.5t301 -125.5zM528 -208q-193 0 -330.5 137t-137.5 331t137.5 331
t330.5 137q194 0 331.5 -137t137.5 -331t-137.5 -331t-331.5 -137z" />
    <glyph glyph-name="uni24E7" unicode="&#x24e7;" horiz-adv-x="1056" 
d="M729 29h-137l-66 110l-66 -110h-137l135 213l-123 195h137l54 -91l55 91h137l-123 -195zM528 -167q177 0 302 125.5t125 301.5q0 177 -125 302t-302 125q-176 0 -301 -125t-125 -302q0 -176 125 -301.5t301 -125.5zM528 -208q-193 0 -330.5 137t-137.5 331t137.5 331
t330.5 137q194 0 331.5 -137t137.5 -331t-137.5 -331t-331.5 -137z" />
    <glyph glyph-name="uni24E8" unicode="&#x24e8;" horiz-adv-x="1056" 
d="M393 -24h-8v110q81 0 97 17q11 11 19 36l-132 372h129l61 -198l64 198h128q-133 -394 -146 -425q-36 -78 -92 -94t-120 -16zM528 -167q177 0 302 125.5t125 301.5q0 177 -125 302t-302 125q-176 0 -301 -125t-125 -302q0 -176 125 -301.5t301 -125.5zM528 -208
q-193 0 -330.5 137t-137.5 331t137.5 331t330.5 137q194 0 331.5 -137t137.5 -331t-137.5 -331t-331.5 -137z" />
    <glyph glyph-name="uni24E9" unicode="&#x24e9;" horiz-adv-x="1056" 
d="M708 56h-360v110l194 188h-183v111h349v-111l-194 -188h194v-110zM528 -167q177 0 302 125.5t125 301.5q0 177 -125 302t-302 125q-176 0 -301 -125t-125 -302q0 -176 125 -301.5t301 -125.5zM528 -208q-193 0 -330.5 137t-137.5 331t137.5 331t330.5 137
q194 0 331.5 -137t137.5 -331t-137.5 -331t-331.5 -137z" />
    <glyph glyph-name="SF100000" unicode="&#x2500;" horiz-adv-x="100" 
 />
    <glyph glyph-name="uni2501" unicode="&#x2501;" horiz-adv-x="100" 
 />
    <glyph glyph-name="SF110000" unicode="&#x2502;" horiz-adv-x="100" 
 />
    <glyph glyph-name="uni2503" unicode="&#x2503;" horiz-adv-x="100" 
 />
    <glyph glyph-name="SF010000" unicode="&#x250c;" horiz-adv-x="100" 
 />
    <glyph glyph-name="uni250D" unicode="&#x250d;" horiz-adv-x="100" 
 />
    <glyph glyph-name="uni250E" unicode="&#x250e;" horiz-adv-x="100" 
 />
    <glyph glyph-name="uni250F" unicode="&#x250f;" horiz-adv-x="100" 
 />
    <glyph glyph-name="SF030000" unicode="&#x2510;" horiz-adv-x="100" 
 />
    <glyph glyph-name="uni2511" unicode="&#x2511;" horiz-adv-x="100" 
 />
    <glyph glyph-name="uni2512" unicode="&#x2512;" horiz-adv-x="100" 
 />
    <glyph glyph-name="uni2513" unicode="&#x2513;" horiz-adv-x="100" 
 />
    <glyph glyph-name="SF020000" unicode="&#x2514;" horiz-adv-x="100" 
 />
    <glyph glyph-name="uni2515" unicode="&#x2515;" horiz-adv-x="100" 
 />
    <glyph glyph-name="uni2516" unicode="&#x2516;" horiz-adv-x="100" 
 />
    <glyph glyph-name="uni2517" unicode="&#x2517;" horiz-adv-x="100" 
 />
    <glyph glyph-name="SF040000" unicode="&#x2518;" horiz-adv-x="100" 
 />
    <glyph glyph-name="uni2519" unicode="&#x2519;" horiz-adv-x="100" 
 />
    <glyph glyph-name="uni251A" unicode="&#x251a;" horiz-adv-x="100" 
 />
    <glyph glyph-name="uni251B" unicode="&#x251b;" horiz-adv-x="100" 
 />
    <glyph glyph-name="SF080000" unicode="&#x251c;" horiz-adv-x="100" 
 />
    <glyph glyph-name="uni251D" unicode="&#x251d;" horiz-adv-x="100" 
 />
    <glyph glyph-name="uni251E" unicode="&#x251e;" horiz-adv-x="100" 
 />
    <glyph glyph-name="uni251F" unicode="&#x251f;" horiz-adv-x="100" 
 />
    <glyph glyph-name="uni2520" unicode="&#x2520;" horiz-adv-x="100" 
 />
    <glyph glyph-name="uni2521" unicode="&#x2521;" horiz-adv-x="100" 
 />
    <glyph glyph-name="uni2522" unicode="&#x2522;" horiz-adv-x="100" 
 />
    <glyph glyph-name="uni2523" unicode="&#x2523;" horiz-adv-x="100" 
 />
    <glyph glyph-name="SF090000" unicode="&#x2524;" horiz-adv-x="100" 
 />
    <glyph glyph-name="uni2525" unicode="&#x2525;" horiz-adv-x="100" 
 />
    <glyph glyph-name="uni2526" unicode="&#x2526;" horiz-adv-x="100" 
 />
    <glyph glyph-name="uni2527" unicode="&#x2527;" horiz-adv-x="100" 
 />
    <glyph glyph-name="uni2528" unicode="&#x2528;" horiz-adv-x="100" 
 />
    <glyph glyph-name="uni2529" unicode="&#x2529;" horiz-adv-x="100" 
 />
    <glyph glyph-name="uni252A" unicode="&#x252a;" horiz-adv-x="100" 
 />
    <glyph glyph-name="uni252B" unicode="&#x252b;" horiz-adv-x="100" 
 />
    <glyph glyph-name="SF060000" unicode="&#x252c;" horiz-adv-x="100" 
 />
    <glyph glyph-name="uni252D" unicode="&#x252d;" horiz-adv-x="100" 
 />
    <glyph glyph-name="uni252E" unicode="&#x252e;" horiz-adv-x="100" 
 />
    <glyph glyph-name="uni252F" unicode="&#x252f;" horiz-adv-x="100" 
 />
    <glyph glyph-name="uni2530" unicode="&#x2530;" horiz-adv-x="100" 
 />
    <glyph glyph-name="uni2531" unicode="&#x2531;" horiz-adv-x="100" 
 />
    <glyph glyph-name="uni2532" unicode="&#x2532;" horiz-adv-x="100" 
 />
    <glyph glyph-name="uni2533" unicode="&#x2533;" horiz-adv-x="100" 
 />
    <glyph glyph-name="SF070000" unicode="&#x2534;" horiz-adv-x="100" 
 />
    <glyph glyph-name="uni2535" unicode="&#x2535;" horiz-adv-x="100" 
 />
    <glyph glyph-name="uni2536" unicode="&#x2536;" horiz-adv-x="100" 
 />
    <glyph glyph-name="uni2537" unicode="&#x2537;" horiz-adv-x="100" 
 />
    <glyph glyph-name="uni2538" unicode="&#x2538;" horiz-adv-x="100" 
 />
    <glyph glyph-name="uni2539" unicode="&#x2539;" horiz-adv-x="100" 
 />
    <glyph glyph-name="uni253A" unicode="&#x253a;" horiz-adv-x="100" 
 />
    <glyph glyph-name="uni253B" unicode="&#x253b;" horiz-adv-x="100" 
 />
    <glyph glyph-name="SF050000" unicode="&#x253c;" horiz-adv-x="100" 
 />
    <glyph glyph-name="uni253D" unicode="&#x253d;" horiz-adv-x="100" 
 />
    <glyph glyph-name="uni253E" unicode="&#x253e;" horiz-adv-x="100" 
 />
    <glyph glyph-name="uni253F" unicode="&#x253f;" horiz-adv-x="100" 
 />
    <glyph glyph-name="uni2540" unicode="&#x2540;" horiz-adv-x="100" 
 />
    <glyph glyph-name="uni2541" unicode="&#x2541;" horiz-adv-x="100" 
 />
    <glyph glyph-name="uni2542" unicode="&#x2542;" horiz-adv-x="100" 
 />
    <glyph glyph-name="uni2543" unicode="&#x2543;" horiz-adv-x="100" 
 />
    <glyph glyph-name="uni2544" unicode="&#x2544;" horiz-adv-x="100" 
 />
    <glyph glyph-name="uni2545" unicode="&#x2545;" horiz-adv-x="100" 
 />
    <glyph glyph-name="uni2546" unicode="&#x2546;" horiz-adv-x="100" 
 />
    <glyph glyph-name="uni2547" unicode="&#x2547;" horiz-adv-x="100" 
 />
    <glyph glyph-name="uni2548" unicode="&#x2548;" horiz-adv-x="100" 
 />
    <glyph glyph-name="uni2549" unicode="&#x2549;" horiz-adv-x="100" 
 />
    <glyph glyph-name="uni254A" unicode="&#x254a;" horiz-adv-x="100" 
 />
    <glyph glyph-name="uni254B" unicode="&#x254b;" horiz-adv-x="100" 
 />
    <glyph glyph-name="shade" unicode="&#x2592;" horiz-adv-x="953" 
d="M777 -69q-20 0 -32.5 12.5t-12.5 29.5q0 18 12.5 30.5t29.5 12.5q18 0 30.5 -12.5t12.5 -30.5q0 -17 -12 -29.5t-28 -12.5zM825 -89v698h-698v-698h698zM908 -171h-863v863h863v-863zM777 48q-20 0 -32.5 12.5t-12.5 29.5q0 18 12.5 30.5t29.5 12.5q18 0 30.5 -12.5
t12.5 -30.5q0 -17 -12 -29.5t-28 -12.5zM777 164q-20 0 -32.5 12.5t-12.5 29.5q0 18 12.5 30.5t29.5 12.5q18 0 30.5 -12.5t12.5 -30.5q0 -17 -12 -29.5t-28 -12.5zM777 281q-20 0 -32.5 12.5t-12.5 29.5q0 18 12.5 30.5t29.5 12.5q18 0 30.5 -12.5t12.5 -30.5
q0 -17 -12 -29.5t-28 -12.5zM777 398q-20 0 -32.5 12.5t-12.5 29.5q0 18 12.5 30.5t29.5 12.5q18 0 30.5 -12.5t12.5 -30.5q0 -17 -12 -29.5t-28 -12.5zM777 514q-20 0 -32.5 12.5t-12.5 29.5q0 18 12.5 30.5t29.5 12.5q18 0 30.5 -12.5t12.5 -30.5q0 -17 -12 -29.5
t-28 -12.5zM660 -69q-20 0 -32.5 12.5t-12.5 29.5q0 18 12.5 30.5t29.5 12.5q18 0 30.5 -12.5t12.5 -30.5q0 -17 -12 -29.5t-28 -12.5zM660 48q-20 0 -32.5 12.5t-12.5 29.5q0 18 12.5 30.5t29.5 12.5q18 0 30.5 -12.5t12.5 -30.5q0 -17 -12 -29.5t-28 -12.5zM660 164
q-20 0 -32.5 12.5t-12.5 29.5q0 18 12.5 30.5t29.5 12.5q18 0 30.5 -12.5t12.5 -30.5q0 -17 -12 -29.5t-28 -12.5zM660 281q-20 0 -32.5 12.5t-12.5 29.5q0 18 12.5 30.5t29.5 12.5q18 0 30.5 -12.5t12.5 -30.5q0 -17 -12 -29.5t-28 -12.5zM660 398q-20 0 -32.5 12.5
t-12.5 29.5q0 18 12.5 30.5t29.5 12.5q18 0 30.5 -12.5t12.5 -30.5q0 -17 -12 -29.5t-28 -12.5zM660 514q-20 0 -32.5 12.5t-12.5 29.5q0 18 12.5 30.5t29.5 12.5q18 0 30.5 -12.5t12.5 -30.5q0 -17 -12 -29.5t-28 -12.5zM542 -69q-20 0 -32.5 12.5t-12.5 29.5
q0 18 12.5 30.5t29.5 12.5q18 0 30.5 -12.5t12.5 -30.5q0 -17 -12 -29.5t-28 -12.5zM542 48q-20 0 -32.5 12.5t-12.5 29.5q0 18 12.5 30.5t29.5 12.5q18 0 30.5 -12.5t12.5 -30.5q0 -17 -12 -29.5t-28 -12.5zM542 164q-20 0 -32.5 12.5t-12.5 29.5q0 18 12.5 30.5t29.5 12.5
q18 0 30.5 -12.5t12.5 -30.5q0 -17 -12 -29.5t-28 -12.5zM542 281q-20 0 -32.5 12.5t-12.5 29.5q0 18 12.5 30.5t29.5 12.5q18 0 30.5 -12.5t12.5 -30.5q0 -17 -12 -29.5t-28 -12.5zM542 398q-20 0 -32.5 12.5t-12.5 29.5q0 18 12.5 30.5t29.5 12.5q18 0 30.5 -12.5
t12.5 -30.5q0 -17 -12 -29.5t-28 -12.5zM542 514q-20 0 -32.5 12.5t-12.5 29.5q0 18 12.5 30.5t29.5 12.5q18 0 30.5 -12.5t12.5 -30.5q0 -17 -12 -29.5t-28 -12.5zM425 -69q-20 0 -32.5 12.5t-12.5 29.5q0 18 12.5 30.5t29.5 12.5q18 0 30.5 -12.5t12.5 -30.5
q0 -17 -12 -29.5t-28 -12.5zM425 48q-20 0 -32.5 12.5t-12.5 29.5q0 18 12.5 30.5t29.5 12.5q18 0 30.5 -12.5t12.5 -30.5q0 -17 -12 -29.5t-28 -12.5zM425 164q-20 0 -32.5 12.5t-12.5 29.5q0 18 12.5 30.5t29.5 12.5q18 0 30.5 -12.5t12.5 -30.5q0 -17 -12 -29.5
t-28 -12.5zM425 281q-20 0 -32.5 12.5t-12.5 29.5q0 18 12.5 30.5t29.5 12.5q18 0 30.5 -12.5t12.5 -30.5q0 -17 -12 -29.5t-28 -12.5zM425 398q-20 0 -32.5 12.5t-12.5 29.5q0 18 12.5 30.5t29.5 12.5q18 0 30.5 -12.5t12.5 -30.5q0 -17 -12 -29.5t-28 -12.5zM425 514
q-20 0 -32.5 12.5t-12.5 29.5q0 18 12.5 30.5t29.5 12.5q18 0 30.5 -12.5t12.5 -30.5q0 -17 -12 -29.5t-28 -12.5zM307 -69q-20 0 -32.5 12.5t-12.5 29.5q0 18 12.5 30.5t29.5 12.5q18 0 30.5 -12.5t12.5 -30.5q0 -17 -12 -29.5t-28 -12.5zM307 48q-20 0 -32.5 12.5
t-12.5 29.5q0 18 12.5 30.5t29.5 12.5q18 0 30.5 -12.5t12.5 -30.5q0 -17 -12 -29.5t-28 -12.5zM307 164q-20 0 -32.5 12.5t-12.5 29.5q0 18 12.5 30.5t29.5 12.5q18 0 30.5 -12.5t12.5 -30.5q0 -17 -12 -29.5t-28 -12.5zM307 281q-20 0 -32.5 12.5t-12.5 29.5
q0 18 12.5 30.5t29.5 12.5q18 0 30.5 -12.5t12.5 -30.5q0 -17 -12 -29.5t-28 -12.5zM307 398q-20 0 -32.5 12.5t-12.5 29.5q0 18 12.5 30.5t29.5 12.5q18 0 30.5 -12.5t12.5 -30.5q0 -17 -12 -29.5t-28 -12.5zM307 514q-20 0 -32.5 12.5t-12.5 29.5q0 18 12.5 30.5
t29.5 12.5q18 0 30.5 -12.5t12.5 -30.5q0 -17 -12 -29.5t-28 -12.5zM191 -69q-20 0 -32.5 12.5t-12.5 29.5q0 18 12.5 30.5t29.5 12.5q18 0 30.5 -12.5t12.5 -30.5q0 -17 -12 -29.5t-28 -12.5zM191 48q-20 0 -32.5 12.5t-12.5 29.5q0 18 12.5 30.5t29.5 12.5
q18 0 30.5 -12.5t12.5 -30.5q0 -17 -12 -29.5t-28 -12.5zM191 164q-20 0 -32.5 12.5t-12.5 29.5q0 18 12.5 30.5t29.5 12.5q18 0 30.5 -12.5t12.5 -30.5q0 -17 -12 -29.5t-28 -12.5zM191 281q-20 0 -32.5 12.5t-12.5 29.5q0 18 12.5 30.5t29.5 12.5q18 0 30.5 -12.5
t12.5 -30.5q0 -17 -12 -29.5t-28 -12.5zM191 398q-20 0 -32.5 12.5t-12.5 29.5q0 18 12.5 30.5t29.5 12.5q18 0 30.5 -12.5t12.5 -30.5q0 -17 -12 -29.5t-28 -12.5zM191 514q-20 0 -32.5 12.5t-12.5 29.5q0 18 12.5 30.5t29.5 12.5q18 0 30.5 -12.5t12.5 -30.5
q0 -17 -12 -29.5t-28 -12.5z" />
    <glyph glyph-name="filledbox" unicode="&#x25a0;" horiz-adv-x="865" 
d="M820 -128h-775v776h760l15 -15v-761z" />
    <glyph glyph-name="H22073" unicode="&#x25a1;" horiz-adv-x="879" 
d="M752 -53v625l-640 30l15 -15v-640h625zM834 -135l-774 30l-15 -15v774h789v-789z" />
    <glyph glyph-name="uni25A3" unicode="&#x25a3;" horiz-adv-x="949" 
d="M737 -3h-526v526h526v-526zM821 -87v694h-694v-694h694zM903 -169h-858v858h858v-858z" />
    <glyph glyph-name="uni25A4" unicode="&#x25a4;" horiz-adv-x="957" 
d="M830 -91v36l-718 30l15 -15v-51h703zM830 16v41l-718 30l15 -15v-56h703zM830 128v41l-718 30l15 -15v-56h703zM830 240v41l-718 30l15 -15v-56h703zM830 351v42l-718 30l15 -15v-57h703zM830 463v42l-718 30l15 -15v-57h703zM830 575v37l-718 30l15 -15v-52h703z
M913 -174l-853 30l-15 -15v853h868v-868z" />
    <glyph glyph-name="uni25A5" unicode="&#x25a5;" horiz-adv-x="957" 
d="M164 -91v703h-37v-703h37zM830 -91v703h-36v-703h36zM723 -91v703h-41v-703h41zM611 -91v703h-41v-703h41zM499 -91v703h-41v-703h41zM388 -91v703h-42v-703h42zM276 -91v703h-42v-703h42zM913 -173h-868v867h868v-867z" />
    <glyph glyph-name="uni25A6" unicode="&#x25a6;" horiz-adv-x="958" 
d="M167 -91v39h-40v-39h40zM830 572v40h-39v-40h39zM830 460v48h-39v-48h39zM830 349v47h-39v-47h39zM830 237v47h-39v-47h39zM830 125v47h-39v-47h39zM830 13v47h-39v-47h39zM830 -91v39h-39v-39h39zM726 572v40h-47v-40h47zM726 460v48h-47v-48h47zM726 349v47h-47v-47h47
zM726 237v47h-47v-47h47zM726 125v47h-47v-47h47zM726 13v47h-47v-47h47zM726 -91v39h-47v-39h47zM614 572v40h-47v-40h47zM614 460v48h-47v-48h47zM614 349v47h-47v-47h47zM614 237v47h-47v-47h47zM614 125v47h-47v-47h47zM614 13v47h-47v-47h47zM614 -91v39h-47v-39h47z
M502 572v40h-47v-40h47zM502 460v48h-47v-48h47zM502 349v47h-47v-47h47zM502 237v47h-47v-47h47zM502 125v47h-47v-47h47zM502 13v47h-47v-47h47zM502 -91v39h-47v-39h47zM391 572v40h-48v-40h48zM391 460v48h-48v-48h48zM391 349v47h-48v-47h48zM391 237v47h-48v-47h48z
M391 125v47h-48v-47h48zM391 13v47h-48v-47h48zM391 -91v39h-48v-39h48zM279 572v40h-48v-40h48zM279 460v48h-48v-48h48zM279 349v47h-48v-47h48zM279 237v47h-48v-47h48zM279 125v47h-48v-47h48zM279 13v47h-48v-47h48zM279 -91v39h-48v-39h48zM167 572v40h-40v-40h40z
M167 460v48h-40v-48h40zM167 349v47h-40v-47h40zM167 237v47h-40v-47h40zM167 125v47h-40v-47h40zM167 13v47h-40v-47h40zM913 -173h-868v867h868v-867z" />
    <glyph glyph-name="uni25A7" unicode="&#x25a7;" horiz-adv-x="958" 
d="M830 -44v89l-566 567h-84zM235 -91l-108 107v-107h108zM417 -91l-290 290v-83l201 -207h89zM601 -91l-474 473v-83l384 -390h90zM784 -91l-657 656v-83l567 -573h90zM830 506v106h-100zM830 322v90l-200 200h-83zM830 139v89l-383 384h-83zM913 -173h-868v867h868v-867z
" />
    <glyph glyph-name="uni25A8" unicode="&#x25a8;" horiz-adv-x="957" 
d="M830 -91v104l-104 -104h104zM260 -91l570 564v90l-653 -654h83zM443 -91l387 381v89l-470 -470h83zM626 -91l204 198v89l-287 -287h83zM127 -41l653 653h-83l-570 -548v-105zM127 142l470 470h-83l-387 -365v-105zM127 325l287 287h-83l-204 -182v-105zM127 508l104 104
h-104v-104zM913 -173h-868v867h868v-867z" />
    <glyph glyph-name="uni25A9" unicode="&#x25a9;" horiz-adv-x="957" 
d="M289 117l51 47l-51 50l-48 -48zM217 -91l-22 22l-19 -22h41zM384 212l48 48l-48 49l-53 -46zM384 23l48 48l-48 50l-49 -50zM478 117l49 49l-49 48l-48 -47zM573 212l48 48l-48 49l-52 -50zM573 23l48 48l-47 49l-50 -49zM667 117l49 49l-54 52l-49 -47zM762 23l49 51
l-46 49l-52 -52zM762 212l48 48l-56 56l-48 -50zM762 400l48 49l-50 50l-52 -47zM289 -72l49 49l-49 48l-50 -45zM406 -91l-22 22l-19 -22h41zM478 -72l49 49l-49 48l-50 -47zM595 -91l-22 22l-19 -22h41zM667 -72l49 49l-49 48l-51 -47zM784 -91l-22 22l-19 -22h41z
M127 -45l22 22l-22 23v-45zM127 144l22 22l-22 23v-45zM127 333l22 22l-22 23v-45zM127 522l22 22l-22 23v-45zM195 589l26 23h-49zM289 495l51 47l-51 50l-48 -48zM384 589l26 23h-49zM478 495l51 47l-51 50l-48 -48zM573 589l26 23h-49zM670 494l48 47l-51 51l-48 -48z
M762 589l26 23h-49zM830 517v50l-23 -23zM830 329v49l-22 -23zM830 140v49l-22 -23zM830 -50v50l-23 -23zM195 23l51 46l-51 51l-49 -49zM195 212l51 46l-51 51l-49 -49zM192 398l52 51l-49 49l-49 -49zM289 306l51 47l-51 50l-48 -48zM381 398l51 51l-48 49l-49 -49z
M478 306l51 47l-51 50l-48 -48zM570 398l51 51l-48 49l-49 -49zM667 306l51 47l-51 50l-48 -48zM913 -173h-868v867h868v-867z" />
    <glyph glyph-name="triagup" unicode="&#x25b2;" horiz-adv-x="971" 
d="M912 -91h-879l453 715l426 -685v-30z" />
    <glyph glyph-name="uni25B3" unicode="&#x25b3;" horiz-adv-x="1008" 
d="M826 -24l-309 529l-335 -529h644zM976 -106h-943l471 731l13 -7z" />
    <glyph glyph-name="uni25B6" unicode="&#x25b6;" horiz-adv-x="791" 
d="M45 -166v879l715 -453l-700 -411z" />
    <glyph glyph-name="uni25B7" unicode="&#x25b7;" horiz-adv-x="820" 
d="M127 -62l508 322l-523 365l15 -15v-672zM45 -184v916l744 -472l-729 -429z" />
    <glyph glyph-name="triagdn" unicode="&#x25bc;" horiz-adv-x="971" 
d="M473 -84l-440 695h906q-453 -672 -466 -695z" />
    <glyph glyph-name="uni25BD" unicode="&#x25bd;" horiz-adv-x="1009" 
d="M500 29l326 515h-644zM492 -98l-459 724h943q-472 -701 -484 -724z" />
    <glyph glyph-name="uni25C0" unicode="&#x25c0;" horiz-adv-x="792" 
d="M747 -193l-715 453l700 441l15 -15v-879z" />
    <glyph glyph-name="uni25C1" unicode="&#x25c1;" horiz-adv-x="821" 
d="M693 -65v647l-508 -322zM776 -197l-744 457l744 471v-928z" />
    <glyph glyph-name="uni25C6" unicode="&#x25c6;" horiz-adv-x="1088" 
d="M533 -235l-494 495l505 505l505 -505l-505 -469z" />
    <glyph glyph-name="uni25C7" unicode="&#x25c7;" horiz-adv-x="1110" 
d="M554 -143l401 409l-401 394l-389 -394zM554 -256l-505 522l505 510l517 -510z" />
    <glyph glyph-name="uni25C8" unicode="&#x25c8;" horiz-adv-x="1110" 
d="M550 -146l405 411l-405 395l-395 -395zM550 -256l-501 521l501 511l521 -511zM550 -12l-278 277l278 278l288 -278z" />
    <glyph glyph-name="circle" unicode="&#x25cb;" horiz-adv-x="959" 
d="M479 -92q146 0 249 103.5t103 248.5q0 146 -103 249t-249 133v-30q-145 0 -248.5 -103t-103.5 -249q0 -145 103.5 -248.5t248.5 -103.5zM479 -174q-179 0 -306.5 127.5t-127.5 306.5q0 180 127.5 307t306.5 127q180 0 307.5 -127t127.5 -307q0 -179 -128 -307
q-103 -103 -240 -103q-33 0 -67 6v-30z" />
    <glyph glyph-name="uni25CE" unicode="&#x25ce;" horiz-adv-x="1004" 
d="M502 -114q155 0 265 109.5t110 264.5t-110 265t-265 110t-265 -110t-110 -265t110 -264.5t265 -109.5zM502 -197q-189 0 -323 134t-134 323t134 323t323 134t323 -134q121 -121 121 -273q0 -17 -2 -35l15 -15q0 -189 -134 -323t-323 -134zM502 43q90 0 153.5 64t63.5 153
q0 90 -63.5 154t-153.5 64t-153.5 -64t-63.5 -154q0 -89 63.5 -153t153.5 -64zM502 -27q-119 0 -203.5 84t-84.5 203t84.5 203.5t203.5 84.5t203.5 -84.5t84.5 -203.5t-84.5 -203t-203.5 -84z" />
    <glyph glyph-name="H18533" unicode="&#x25cf;" horiz-adv-x="936" 
d="M468 -163q-175 0 -299 124t-124 299q0 176 124 300t299 124q176 0 300 -124t124 -300q0 -175 -124 -299t-300 -124z" />
    <glyph glyph-name="uni25D0" unicode="&#x25d0;" horiz-adv-x="1004" 
d="M516 -114q146 5 251 110q110 109 110 264t-110 265q-105 105 -251 110v-749zM502 -197q-189 0 -323 134t-134 323t134 323t323 134t323 -134t134 -323t-134 -323t-323 -134z" />
    <glyph glyph-name="uni25D1" unicode="&#x25d1;" horiz-adv-x="1004" 
d="M488 -114v749q-146 -5 -251 -110q-110 -110 -110 -265t110 -264q105 -105 251 -110zM502 -197q-189 0 -323 134t-134 323t134 323t323 134t323 -134t134 -323t-134 -323q-117 -134 -323 -134z" />
    <glyph glyph-name="uni2605" unicode="&#x2605;" horiz-adv-x="1019" 
d="M816 -206l-307 222l-306 -222l125 354l-314 228h378l117 360l117 -360h379l-306 -222z" />
    <glyph glyph-name="uni2606" unicode="&#x2606;" horiz-adv-x="1084" 
d="M713 -26l-66 203l170 124h-210l-65 200l-65 -200h-210l170 -124l-65 -200l170 124zM868 -238l-326 237l-326 -237l124 384l-326 237h403l125 383l114 -383h414l-326 -237z" />
    <glyph glyph-name="uni260E" unicode="&#x260e;" horiz-adv-x="1089" 
d="M332 399q8 32 8 41q-19 -3 -23 -8q0 -5 8 -20q4 -6 7 -13zM609 443v14h-129v-14h129zM543 9q65 0 111 46t46 112q0 148 -157 157q-66 0 -112 -46t-46 -111q0 -66 46 -112t112 -46zM757 398l7 14q9 13 9 18q0 6 -24 10q0 -9 8 -42zM973 -105h-857v32q0 46 10.5 71t17.5 30
q2 122 74 189q46 37 77 90q-52 -27 -192 -48q-36 0 -46.5 23t-10.5 65q0 107 76 173q59 52 148.5 78.5t274.5 26.5t274.5 -26.5t147.5 -78.5q76 -64 76 -173q0 -68 -25 -81q-14 -7 -31 -7q-23 0 -77 12q-77 16 -117 37q32 -53 79 -91q71 -67 74 -189q27 -19 27 -133z" />
    <glyph glyph-name="uni260F" unicode="&#x260f;" horiz-adv-x="1102" 
d="M549 27q57 0 97.5 40.5t40.5 97.5q0 58 -40.5 98.5t-97.5 40.5t-97.5 -40.5t-40.5 -98.5q0 -57 40.5 -97.5t97.5 -40.5zM906 -35q-24 152 -75 199q-85 70 -126 178q-20 77 -20 103h-2v-70h-264v70h-2q0 -29 -20 -103q-41 -108 -126 -177q-51 -48 -75 -200h294
q-49 14 -88 53q-62 61 -62 147q0 87 61.5 148t147.5 61t147.5 -61t61.5 -148q0 -86 -61 -147q-40 -39 -89 -53h298zM613 446v7h-138v-7h138zM980 330l1 9q0 141 -179 193q-79 22 -251 22t-250.5 -22.5t-126.5 -65.5q-52 -47 -52 -136q33 0 152 41q-22 34 -22 59q0 19 12 40
q18 37 139 50q74 8 148 8q36 0 74 -2q130 -7 177.5 -28t47.5 -68q0 -23 -21 -59q5 -2 35.5 -12.5t67 -19.5t48.5 -9zM985 -111h-868v38q0 79 27 103q4 124 76 191q60 50 124 112q-23 -20 -102 -54q-63 -20 -133 -26l-14 1q-27 3 -39 27q-9 21 -9 69q0 107 78 175
q59 52 149.5 78.5t276.5 26.5t276.5 -26.5t149.5 -78.5q79 -68 79 -179q0 -70 -28 -85q-15 -8 -35 -8q-25 0 -62 8q-85 18 -121 41q31 -47 72 -81q73 -67 76 -191q27 -24 27 -103v-38z" />
    <glyph glyph-name="uni261C" unicode="&#x261c;" horiz-adv-x="959" 
d="M569 135q27 0 87.5 11.5t94.5 42.5l15 9h28v117q-6 -22 -27 -22q-17 0 -26 16q-26 47 -65.5 62t-100.5 15l-88 -9q13 -9 13 -26q0 -3 2 -3q5 0 30 19q8 7 18 7q14 0 22.5 -9t8.5 -19t-7 -24q42 -43 142 -43q13 0 21.5 -8.5t8.5 -21.5q0 -12 -8.5 -20.5t-21.5 -8.5
q-133 0 -183 77q-2 2 -4 2q-3 0 -3 -39q2 -1 9 -14q10 -19 10 -40q0 -8 -2 -11q11 -7 17 -30q8 -30 9 -30zM437 138q47 2 66 12q-3 2 -11 2q-7 0 -19 -2q-23 -4 -67 -4q-18 0 -31 1l-1 -4q24 -5 63 -5zM406 205q69 0 69 13q0 5 -19 5q-29 -4 -95 -6q-12 -1 -12 -4
q0 -8 57 -8zM356 276l30 1q74 2 74 6q-3 7 -19 7q-12 -7 -30 -8q-47 0 -55 14q-30 -6 -32 -15q7 -5 32 -5zM358 357l8 7q7 10 7 16l-1 4q-92 4 -152 4q-113 0 -113 -14q10 -6 91 -11q102 -6 160 -6zM855 172v168h-2v-168h2zM522 76q-121 0 -163.5 11t-42.5 56v17
q-26 11 -26 54v16h1q0 2 -7 8q-18 17 -18 44v19h-7q-16 1 -67.5 4t-84 8.5t-47 23.5t-14.5 37q0 26 23 46q19 16 47 17q168 8 459 8q52 0 104 -13t88 -58l27 -1v35h120v-295h-120v26h-11q-75 -63 -261 -63z" />
    <glyph glyph-name="uni261E" unicode="&#x261e;" horiz-adv-x="959" 
d="M391 135q1 0 9 30q6 23 17 30q-2 3 -2 11q0 21 10 40q7 13 9 14q0 39 -3 39q-2 0 -4 -2q-50 -77 -183 -77q-13 0 -21.5 8.5t-8.5 20.5q0 13 8.5 21.5t21.5 8.5q100 0 142 43q-7 14 -7 24t8.5 19t22.5 9q10 0 18 -7q25 -19 30 -19q2 0 2 3q0 17 13 26l-88 9
q-61 0 -100.5 -15t-65.5 -62q-9 -16 -26 -16q-21 0 -27 22v-117h28l15 -9q34 -31 94.5 -42.5t87.5 -11.5zM523 138q39 0 63 5l-1 4q-13 -1 -31 -1q-44 0 -67 4q-11 2 -19 2q-7 0 -11 -2q19 -10 66 -12zM554 205q57 0 57 8q0 3 -12 4q-66 2 -95 6q-19 0 -19 -5q0 -13 69 -13z
M604 276q25 0 32 5q-2 9 -32 15q-8 -14 -55 -14q-18 1 -30 8q-15 0 -19 -7q0 -4 104 -7zM602 357q58 0 160 6q81 5 91 11q0 14 -113 14q-60 0 -152 -4l-1 -4q0 -10 15 -23zM107 172v168h-2v-168h2zM438 76q-186 0 -261 63h-11v-26h-120v295h120v-35l27 1q36 45 88 58t104 13
q291 0 459 -8q28 -1 48 -17q22 -20 22 -46q0 -19 -14.5 -37t-48 -23.5t-157.5 -12.5v-19q0 -27 -18 -44q-7 -6 -7 -8h1v-16q0 -43 -26 -54v-17q0 -45 -42.5 -56t-163.5 -11z" />
    <glyph glyph-name="spade" unicode="&#x2660;" horiz-adv-x="829" 
d="M414 -214q-51 0 -99 5q-43 4 -43 26q0 4 3 8q20 36 47 161q-49 -28 -99 -28q-43 0 -86 21q-92 45 -92 163q0 187 315 539l55 61l43 -56l11 -5q316 -353 316 -539q0 -119 -94 -164q-42 -20 -84 -20q-51 0 -102 29l7 -29q16 -68 27.5 -98.5t14 -34.5t2.5 -7q0 -23 -43 -27
q-49 -5 -99 -5z" />
    <glyph glyph-name="uni2661" unicode="&#x2661;" horiz-adv-x="899" 
d="M450 -81l27 28q296 309 296 520q0 85 -51 117.5t-83 32.5q-37 0 -77 -34t-72 -164q-4 -14 -15 -22.5t-25 -8.5t-25.5 8.5t-14.5 22.5q-32 130 -72 164t-77 64v-30q-32 0 -83 -32.5t-51 -117.5q0 -224 323 -548zM450 -179q-15 0 -18 38l-10 -26q-32 29 -58 56
q-319 316 -319 578q0 120 74 176t142 56q142 0 189 -133q47 133 189 133q67 0 141.5 -56t74.5 -176q0 -277 -377 -635q-13 -11 -28 -11z" />
    <glyph glyph-name="club" unicode="&#x2663;" horiz-adv-x="999" 
d="M511 -210q-77 0 -106 2q-39 2 -39 27q0 107 24 176q-74 -53 -149 -53q-66 0 -122 48q-67 57 -74 165q1 108 65 164t124 56q91 0 151 -45q5 -4 9 -4q3 0 3 4q0 8 -20 25q-28 21 -59.5 63.5t-31.5 122.5q0 70 36.5 111.5t84.5 59.5t84 18q53 0 101 -18q121 -45 121 -171
q0 -80 -31.5 -122.5t-59.5 -63.5q-16 -13 -20 -26q0 -3 2 -3q4 0 10 4q60 45 151 45q60 0 124 -56t65 -164q-7 -108 -74 -165q-49 -48 -121 -48q-14 0 -29 2q-82 14 -119 54q22 -88 22 -179q0 -25 -39 -27q-29 -2 -83 -2z" />
    <glyph glyph-name="uni2664" unicode="&#x2664;" horiz-adv-x="835" 
d="M417 -132q44 0 50 1q-31 104 -34 147l-5 59q0 22 19 35q11 6 22 6t21 -6q77 -47 140 -48q78 0 78 93q0 138 -281 466l-9 11l-10 -11q-281 -328 -281 -466q0 -92 79 -92q59 0 138 46q11 6 21 6q11 0 21 -6q19 -13 19 -35q-5 -99 -38 -205q5 -1 50 -1zM417 -214
q-105 0 -127 21q-16 14 -16 34q0 10 4.5 20.5t37.5 142.5q-49 -23 -111 -23q-150 0 -160 173q0 184 301 521l41 46q13 14 31 14q17 0 30 -14q329 -361 342 -566q0 -84 -45 -129.5t-115 -45.5q-64 1 -113 23q32 -128 38 -143q5 -10 5 -19q0 -33 -38 -45q-30 -10 -105 -10z
" />
    <glyph glyph-name="heart" unicode="&#x2665;" horiz-adv-x="886" 
d="M433 -170q-189 179 -297 360q-91 152 -91 288q0 115 70.5 166t128.5 51q67 0 122.5 -37.5t76.5 -125.5q22 88 77.5 125.5t121.5 37.5q59 0 129 -51t70 -166q0 -136 -91 -288.5t-237 -300.5q-29 -30 -70 -33z" />
    <glyph glyph-name="uni2667" unicode="&#x2667;" horiz-adv-x="1014" 
d="M567 -135q-1 29 -9.5 100.5t-26.5 107.5q-6 9 -6 20q0 21 18 33q11 8 24 8q18 0 32 -16q1 -1 20.5 -21t52.5 -41q48 -32 92 -32q101 0 120 138q0 63 -33 97q-38 38 -90 38q-78 0 -129 -40q-22 -13 -37 -13q-32 0 -51 33q-13 23 -13 57q0 43 45 75q72 52 72 120
q0 90 -83 116q-33 10 -50 10q-33 0 -65 -10q-84 -26 -84 -116q0 -68 73 -120q44 -32 44 -75q0 -34 -13 -57q-19 -33 -51 -33q-15 0 -37 13q-51 40 -129 40q-54 0 -90 -38q-33 -34 -33 -90q0 -75 41 -112q36 -33 79 -33q11 0 21 2q68 14 124 71l20 21q14 16 32 16q13 0 24 -8
q18 -12 18 -33q0 -11 -6 -20q-18 -36 -26.5 -107.5t-9.5 -100.5h120zM522 -217q-81 0 -103 2q-55 10 -55 52q0 1 1 28t5 67t4 44q-20 -16 -89 -31q-18 -3 -35 -3q-71 0 -133 53q-67 58 -69 173q0 90 56 149q66 63 149 63q64 0 122 -25q-25 20 -53 55q-38 44 -38 119
q0 108 74 158t141 50h16q67 0 141 -50t74 -158q0 -75 -37 -119q-29 -35 -54 -55q58 25 122 25q83 0 149 -63q56 -59 56 -149q-2 -115 -69 -173q-63 -51 -133 -53q-17 0 -35 3q-69 15 -89 31q0 -4 4 -44t5 -67t1 -28q0 -42 -55 -52q-22 -2 -73 -2z" />
    <glyph glyph-name="uni2668" unicode="&#x2668;" horiz-adv-x="977" 
d="M340 -53q-21 0 -36 38q-2 6 -5 11q-10 18 -10 44q0 38 22 111q1 2 1 5q9 27 9 50q0 7 -3 19q-14 66 -23 86q-24 75 -24 116q0 53 38 103q29 41 38 115q4 17 22 17q17 0 21 -17q1 -9 3 -17l5 -42q0 -52 -35 -115q-5 -12 -5 -34q0 -21 25 -100q28 -92 28 -134
q0 -52 -28 -123q-6 -14 -15 -41.5t-11.5 -31.5t-2.5 -7q0 -5 2.5 -13.5t3.5 -19.5q0 -20 -20 -20zM478 -191q-98 0 -194 20q-53 11 -107.5 34t-91 65.5t-36.5 97.5q2 64 59 107q41 32 87 55q45 25 73 25q37 0 37 -25q0 -17 -16 -23q-72 -25 -126 -80q-33 -30 -35 -53
q1 -25 23 -40q132 -81 290 -81q95 0 191 8q4 1 26 3q107 21 184 103q7 8 15 28q3 8 3 12q0 17 -18 33q-29 34 -89 49q-15 5 -28 10.5t-15 15.5q-18 -61 -69 -144q-20 -27 -23 -58q-2 -20 -22 -20q-21 0 -21 18q-5 19 -5 38q0 28 11 54l35 86q15 35 17 73q-2 43 -27 103
q-31 81 -31 127q0 54 33 122q17 33 18 68q0 19 19 19q11 0 17 -10q16 -32 16 -67q0 -49 -12 -78q-5 -14 -5 -30q0 -62 27 -122q30 -80 30 -133l-3 -23q6 5 16 5q88 -5 144 -60q57 -49 57 -110q-8 -63 -69 -112q-72 -59 -162 -88q-80 -21 -162 -21zM472 -71q-11 0 -21 11
q-22 30 -22 74q0 49 29 109l12 30q9 27 9 54q0 39 -25 112q-29 75 -31 134q1 65 40 127q26 47 26 82q0 12 -2 27q0 24 22 24q11 0 17 -11q21 -41 21 -72q0 -45 -25 -102q-14 -30 -14 -62q0 -33 25 -103q37 -103 37 -157q0 -52 -33 -117q-26 -50 -37 -108q-5 -18 -5 -29
q0 -23 -23 -23z" />
    <glyph glyph-name="uni2669" unicode="&#x2669;" horiz-adv-x="356" 
d="M143 -153h-5q-44 0 -70 31q-16 22 -16 48q0 15 6 32q15 45 59 79q53 37 99 41l15 597h67v-634q2 -13 2 -26q0 -72 -65 -131q-45 -34 -92 -37z" />
    <glyph glyph-name="musicalnote" unicode="&#x266a;" horiz-adv-x="583" 
d="M143 -153h-8q-41 0 -67 30q-16 22 -16 48q0 62 74 115l-8 -3q52 36 98 40q0 555 -1 563q0 35 33 35q18 0 39 -29q15 -26 77 -83q70 -58 121.5 -130t52.5 -163q-4 -62 -37 -109.5t-69.5 -76t-50.5 -34.5t-27 -6q-20 0 -20 9q0 11 20 31q7 5 29 32q63 75 66 160
q-1 37 -31.5 66t-71.5 48.5t-48 21.5v-372q2 -13 2 -26q0 -72 -65 -131q-45 -34 -92 -36z" />
    <glyph glyph-name="uni266C" unicode="&#x266c;" horiz-adv-x="786" 
d="M298 416l349 70v30l-349 -70v-30zM143 -145h-5q-44 0 -70 31q-16 22 -16 48q0 60 65 111q53 37 99 41l15 485l498 100v-511q2 -13 2 -25q0 -72 -65 -133q-51 -36 -100 -36q-42 0 -67 31q-16 22 -16 47q0 16 6 32q15 45 59 80q53 36 99 40v151l-349 -70v-228q2 -13 2 -26
q0 -72 -65 -131q-45 -34 -92 -37z" />
    <glyph glyph-name="uni266D" unicode="&#x266d;" horiz-adv-x="487" 
d="M154 -34q32 0 91 41q53 47 67 119q8 41 8 86q0 32 -4 65l-13 -21q-21 43 -65 43q-57 0 -88 -80v-253h4zM134 -112q-20 0 -37.5 6.5t-30.5 6.5t-21 -8l15 750h90v-311q33 52 124 52q89 0 130 -74q25 -54 25 -114q0 -150 -122 -242q-96 -66 -173 -66z" />
    <glyph glyph-name="uni266F" unicode="&#x266f;" horiz-adv-x="719" 
d="M406 326l12 88h-98l-11 -88h97zM525 -54l-165 23l26 197h-98l-29 -220l-164 23l25 197h-70v160h91l12 88h-71v160h91l24 181l164 -23l-20 -158h97l24 181l164 -23l-20 -158h63v-160h-84l-11 -88h63v-160h-84z" />
    <glyph glyph-name="uni3002" unicode="&#x3002;" horiz-adv-x="100" 
 />
    <glyph glyph-name="uni3008" unicode="&#x3008;" horiz-adv-x="652" 
d="M473 -155l-423 505l423 504l129 -108l-333 -396l333 -397z" />
    <glyph glyph-name="uni3009" unicode="&#x3009;" horiz-adv-x="652" 
d="M179 -155l-129 108l333 397l-333 396l129 108l423 -504z" />
    <glyph glyph-name="uni3013" unicode="&#x3013;" horiz-adv-x="743" 
d="M693 389h-643v150h643v-150zM693 161h-643v150h643v-150z" />
    <glyph glyph-name="uni301C" unicode="&#x301c;" horiz-adv-x="732" 
d="M466 227q-69 0 -153 46q-32 19 -58 19q-35 0 -91 -44q-13 -10 -26 -18l-88 133l19 14q43 38 126 67q27 9 57 9q64 0 143 -42q40 -23 72 -23q44 0 102 47l25 17l88 -134q-65 -46 -99 -64q-50 -27 -117 -27z" />
    <glyph glyph-name="uni3041" unicode="&#x3041;" horiz-adv-x="100" 
 />
    <glyph glyph-name="uni3042" unicode="&#x3042;" horiz-adv-x="100" 
 />
    <glyph glyph-name="uni3043" unicode="&#x3043;" horiz-adv-x="100" 
 />
    <glyph glyph-name="uni3044" unicode="&#x3044;" horiz-adv-x="100" 
 />
    <glyph glyph-name="uni3045" unicode="&#x3045;" horiz-adv-x="100" 
 />
    <glyph glyph-name="uni3046" unicode="&#x3046;" horiz-adv-x="100" 
 />
    <glyph glyph-name="uni3047" unicode="&#x3047;" horiz-adv-x="100" 
 />
    <glyph glyph-name="uni3048" unicode="&#x3048;" horiz-adv-x="100" 
 />
    <glyph glyph-name="uni3049" unicode="&#x3049;" horiz-adv-x="100" 
 />
    <glyph glyph-name="uni304A" unicode="&#x304a;" horiz-adv-x="100" 
 />
    <glyph glyph-name="uni304B" unicode="&#x304b;" horiz-adv-x="100" 
 />
    <glyph glyph-name="uni304C" unicode="&#x304c;" horiz-adv-x="100" 
 />
    <glyph glyph-name="uni304D" unicode="&#x304d;" horiz-adv-x="100" 
 />
    <glyph glyph-name="uni304E" unicode="&#x304e;" horiz-adv-x="100" 
 />
    <glyph glyph-name="uni304F" unicode="&#x304f;" horiz-adv-x="100" 
 />
    <glyph glyph-name="uni3050" unicode="&#x3050;" horiz-adv-x="100" 
 />
    <glyph glyph-name="uni3051" unicode="&#x3051;" horiz-adv-x="100" 
 />
    <glyph glyph-name="uni3052" unicode="&#x3052;" horiz-adv-x="100" 
 />
    <glyph glyph-name="uni3053" unicode="&#x3053;" horiz-adv-x="100" 
 />
    <glyph glyph-name="uni3054" unicode="&#x3054;" horiz-adv-x="100" 
 />
    <glyph glyph-name="uni3055" unicode="&#x3055;" horiz-adv-x="100" 
 />
    <glyph glyph-name="uni3056" unicode="&#x3056;" horiz-adv-x="100" 
 />
    <glyph glyph-name="uni3057" unicode="&#x3057;" horiz-adv-x="100" 
 />
    <glyph glyph-name="uni3058" unicode="&#x3058;" horiz-adv-x="100" 
 />
    <glyph glyph-name="uni3059" unicode="&#x3059;" horiz-adv-x="100" 
 />
    <glyph glyph-name="uni305A" unicode="&#x305a;" horiz-adv-x="100" 
 />
    <glyph glyph-name="uni305B" unicode="&#x305b;" horiz-adv-x="100" 
 />
    <glyph glyph-name="uni305C" unicode="&#x305c;" horiz-adv-x="100" 
 />
    <glyph glyph-name="uni305D" unicode="&#x305d;" horiz-adv-x="100" 
 />
    <glyph glyph-name="uni305E" unicode="&#x305e;" horiz-adv-x="100" 
 />
    <glyph glyph-name="uni305F" unicode="&#x305f;" horiz-adv-x="100" 
 />
    <glyph glyph-name="uni3060" unicode="&#x3060;" horiz-adv-x="100" 
 />
    <glyph glyph-name="uni3061" unicode="&#x3061;" horiz-adv-x="100" 
 />
    <glyph glyph-name="uni3062" unicode="&#x3062;" horiz-adv-x="100" 
 />
    <glyph glyph-name="uni3063" unicode="&#x3063;" horiz-adv-x="100" 
 />
    <glyph glyph-name="uni3064" unicode="&#x3064;" horiz-adv-x="100" 
 />
    <glyph glyph-name="uni3065" unicode="&#x3065;" horiz-adv-x="100" 
 />
    <glyph glyph-name="uni3066" unicode="&#x3066;" horiz-adv-x="100" 
 />
    <glyph glyph-name="uni3067" unicode="&#x3067;" horiz-adv-x="100" 
 />
    <glyph glyph-name="uni3068" unicode="&#x3068;" horiz-adv-x="100" 
 />
    <glyph glyph-name="uni3069" unicode="&#x3069;" horiz-adv-x="100" 
 />
    <glyph glyph-name="uni306A" unicode="&#x306a;" horiz-adv-x="100" 
 />
    <glyph glyph-name="uni306B" unicode="&#x306b;" horiz-adv-x="100" 
 />
    <glyph glyph-name="uni306C" unicode="&#x306c;" horiz-adv-x="100" 
 />
    <glyph glyph-name="uni306D" unicode="&#x306d;" horiz-adv-x="100" 
 />
    <glyph glyph-name="uni306E" unicode="&#x306e;" horiz-adv-x="100" 
 />
    <glyph glyph-name="uni306F" unicode="&#x306f;" horiz-adv-x="100" 
 />
    <glyph glyph-name="uni3070" unicode="&#x3070;" horiz-adv-x="100" 
 />
    <glyph glyph-name="uni3071" unicode="&#x3071;" horiz-adv-x="100" 
 />
    <glyph glyph-name="uni3072" unicode="&#x3072;" horiz-adv-x="100" 
 />
    <glyph glyph-name="uni3073" unicode="&#x3073;" horiz-adv-x="100" 
 />
    <glyph glyph-name="uni3074" unicode="&#x3074;" horiz-adv-x="100" 
 />
    <glyph glyph-name="uni3075" unicode="&#x3075;" horiz-adv-x="100" 
 />
    <glyph glyph-name="uni3076" unicode="&#x3076;" horiz-adv-x="100" 
 />
    <glyph glyph-name="uni3077" unicode="&#x3077;" horiz-adv-x="100" 
 />
    <glyph glyph-name="uni3078" unicode="&#x3078;" horiz-adv-x="100" 
 />
    <glyph glyph-name="uni3079" unicode="&#x3079;" horiz-adv-x="100" 
 />
    <glyph glyph-name="uni307A" unicode="&#x307a;" horiz-adv-x="100" 
 />
    <glyph glyph-name="uni307B" unicode="&#x307b;" horiz-adv-x="100" 
 />
    <glyph glyph-name="uni307C" unicode="&#x307c;" horiz-adv-x="100" 
 />
    <glyph glyph-name="uni307D" unicode="&#x307d;" horiz-adv-x="100" 
 />
    <glyph glyph-name="uni307E" unicode="&#x307e;" horiz-adv-x="100" 
 />
    <glyph glyph-name="uni307F" unicode="&#x307f;" horiz-adv-x="100" 
 />
    <glyph glyph-name="uni3080" unicode="&#x3080;" horiz-adv-x="100" 
 />
    <glyph glyph-name="uni3081" unicode="&#x3081;" horiz-adv-x="100" 
 />
    <glyph glyph-name="uni3082" unicode="&#x3082;" horiz-adv-x="100" 
 />
    <glyph glyph-name="uni3083" unicode="&#x3083;" horiz-adv-x="100" 
 />
    <glyph glyph-name="uni3084" unicode="&#x3084;" horiz-adv-x="100" 
 />
    <glyph glyph-name="uni3085" unicode="&#x3085;" horiz-adv-x="100" 
 />
    <glyph glyph-name="uni3086" unicode="&#x3086;" horiz-adv-x="100" 
 />
    <glyph glyph-name="uni3087" unicode="&#x3087;" horiz-adv-x="100" 
 />
    <glyph glyph-name="uni3088" unicode="&#x3088;" horiz-adv-x="100" 
 />
    <glyph glyph-name="uni3089" unicode="&#x3089;" horiz-adv-x="100" 
 />
    <glyph glyph-name="uni308A" unicode="&#x308a;" horiz-adv-x="100" 
 />
    <glyph glyph-name="uni308B" unicode="&#x308b;" horiz-adv-x="100" 
 />
    <glyph glyph-name="uni308C" unicode="&#x308c;" horiz-adv-x="100" 
 />
    <glyph glyph-name="uni308D" unicode="&#x308d;" horiz-adv-x="100" 
 />
    <glyph glyph-name="uni308E" unicode="&#x308e;" horiz-adv-x="100" 
 />
    <glyph glyph-name="uni308F" unicode="&#x308f;" horiz-adv-x="100" 
 />
    <glyph glyph-name="uni3090" unicode="&#x3090;" horiz-adv-x="100" 
 />
    <glyph glyph-name="uni3091" unicode="&#x3091;" horiz-adv-x="100" 
 />
    <glyph glyph-name="uni3092" unicode="&#x3092;" horiz-adv-x="100" 
 />
    <glyph glyph-name="uni3093" unicode="&#x3093;" horiz-adv-x="100" 
 />
    <glyph glyph-name="uni30A1" unicode="&#x30a1;" horiz-adv-x="100" 
 />
    <glyph glyph-name="uni30A2" unicode="&#x30a2;" horiz-adv-x="100" 
 />
    <glyph glyph-name="uni30A3" unicode="&#x30a3;" horiz-adv-x="100" 
 />
    <glyph glyph-name="uni30A4" unicode="&#x30a4;" horiz-adv-x="100" 
 />
    <glyph glyph-name="uni30A5" unicode="&#x30a5;" horiz-adv-x="100" 
 />
    <glyph glyph-name="uni30A6" unicode="&#x30a6;" horiz-adv-x="100" 
 />
    <glyph glyph-name="uni30A7" unicode="&#x30a7;" horiz-adv-x="100" 
 />
    <glyph glyph-name="uni30A8" unicode="&#x30a8;" horiz-adv-x="100" 
 />
    <glyph glyph-name="uni30A9" unicode="&#x30a9;" horiz-adv-x="100" 
 />
    <glyph glyph-name="uni30AA" unicode="&#x30aa;" horiz-adv-x="100" 
 />
    <glyph glyph-name="uni30AB" unicode="&#x30ab;" horiz-adv-x="100" 
 />
    <glyph glyph-name="uni30AC" unicode="&#x30ac;" horiz-adv-x="100" 
 />
    <glyph glyph-name="uni30AD" unicode="&#x30ad;" horiz-adv-x="100" 
 />
    <glyph glyph-name="uni30AE" unicode="&#x30ae;" horiz-adv-x="100" 
 />
    <glyph glyph-name="uni30AF" unicode="&#x30af;" horiz-adv-x="100" 
 />
    <glyph glyph-name="uni30B0" unicode="&#x30b0;" horiz-adv-x="100" 
 />
    <glyph glyph-name="uni30B1" unicode="&#x30b1;" horiz-adv-x="100" 
 />
    <glyph glyph-name="uni30B2" unicode="&#x30b2;" horiz-adv-x="100" 
 />
    <glyph glyph-name="uni30B3" unicode="&#x30b3;" horiz-adv-x="100" 
 />
    <glyph glyph-name="uni30B4" unicode="&#x30b4;" horiz-adv-x="100" 
 />
    <glyph glyph-name="uni30B5" unicode="&#x30b5;" horiz-adv-x="100" 
 />
    <glyph glyph-name="uni30B6" unicode="&#x30b6;" horiz-adv-x="100" 
 />
    <glyph glyph-name="uni30B7" unicode="&#x30b7;" horiz-adv-x="100" 
 />
    <glyph glyph-name="uni30B8" unicode="&#x30b8;" horiz-adv-x="100" 
 />
    <glyph glyph-name="uni30B9" unicode="&#x30b9;" horiz-adv-x="100" 
 />
    <glyph glyph-name="uni30BA" unicode="&#x30ba;" horiz-adv-x="100" 
 />
    <glyph glyph-name="uni30BB" unicode="&#x30bb;" horiz-adv-x="100" 
 />
    <glyph glyph-name="uni30BC" unicode="&#x30bc;" horiz-adv-x="100" 
 />
    <glyph glyph-name="uni30BD" unicode="&#x30bd;" horiz-adv-x="100" 
 />
    <glyph glyph-name="uni30BE" unicode="&#x30be;" horiz-adv-x="100" 
 />
    <glyph glyph-name="uni30BF" unicode="&#x30bf;" horiz-adv-x="100" 
 />
    <glyph glyph-name="uni30C0" unicode="&#x30c0;" horiz-adv-x="100" 
 />
    <glyph glyph-name="uni30C1" unicode="&#x30c1;" horiz-adv-x="100" 
 />
    <glyph glyph-name="uni30C2" unicode="&#x30c2;" horiz-adv-x="100" 
 />
    <glyph glyph-name="uni30C3" unicode="&#x30c3;" horiz-adv-x="100" 
 />
    <glyph glyph-name="uni30C4" unicode="&#x30c4;" horiz-adv-x="100" 
 />
    <glyph glyph-name="uni30C5" unicode="&#x30c5;" horiz-adv-x="100" 
 />
    <glyph glyph-name="uni30C6" unicode="&#x30c6;" horiz-adv-x="100" 
 />
    <glyph glyph-name="uni30C7" unicode="&#x30c7;" horiz-adv-x="100" 
 />
    <glyph glyph-name="uni30C8" unicode="&#x30c8;" horiz-adv-x="100" 
 />
    <glyph glyph-name="uni30C9" unicode="&#x30c9;" horiz-adv-x="100" 
 />
    <glyph glyph-name="uni30CA" unicode="&#x30ca;" horiz-adv-x="100" 
 />
    <glyph glyph-name="uni30CB" unicode="&#x30cb;" horiz-adv-x="100" 
 />
    <glyph glyph-name="uni30CC" unicode="&#x30cc;" horiz-adv-x="100" 
 />
    <glyph glyph-name="uni30CD" unicode="&#x30cd;" horiz-adv-x="100" 
 />
    <glyph glyph-name="uni30CE" unicode="&#x30ce;" horiz-adv-x="100" 
 />
    <glyph glyph-name="uni30CF" unicode="&#x30cf;" horiz-adv-x="100" 
 />
    <glyph glyph-name="uni30D0" unicode="&#x30d0;" horiz-adv-x="100" 
 />
    <glyph glyph-name="uni30D1" unicode="&#x30d1;" horiz-adv-x="100" 
 />
    <glyph glyph-name="uni30D2" unicode="&#x30d2;" horiz-adv-x="100" 
 />
    <glyph glyph-name="uni30D3" unicode="&#x30d3;" horiz-adv-x="100" 
 />
    <glyph glyph-name="uni30D4" unicode="&#x30d4;" horiz-adv-x="100" 
 />
    <glyph glyph-name="uni30D5" unicode="&#x30d5;" horiz-adv-x="100" 
 />
    <glyph glyph-name="uni30D6" unicode="&#x30d6;" horiz-adv-x="100" 
 />
    <glyph glyph-name="uni30D7" unicode="&#x30d7;" horiz-adv-x="100" 
 />
    <glyph glyph-name="uni30D8" unicode="&#x30d8;" horiz-adv-x="100" 
 />
    <glyph glyph-name="uni30D9" unicode="&#x30d9;" horiz-adv-x="100" 
 />
    <glyph glyph-name="uni30DA" unicode="&#x30da;" horiz-adv-x="100" 
 />
    <glyph glyph-name="uni30DB" unicode="&#x30db;" horiz-adv-x="100" 
 />
    <glyph glyph-name="uni30DC" unicode="&#x30dc;" horiz-adv-x="100" 
 />
    <glyph glyph-name="uni30DD" unicode="&#x30dd;" horiz-adv-x="100" 
 />
    <glyph glyph-name="uni30DE" unicode="&#x30de;" horiz-adv-x="100" 
 />
    <glyph glyph-name="uni30DF" unicode="&#x30df;" horiz-adv-x="100" 
 />
    <glyph glyph-name="uni30E0" unicode="&#x30e0;" horiz-adv-x="100" 
 />
    <glyph glyph-name="uni30E1" unicode="&#x30e1;" horiz-adv-x="100" 
 />
    <glyph glyph-name="uni30E2" unicode="&#x30e2;" horiz-adv-x="100" 
 />
    <glyph glyph-name="uni30E3" unicode="&#x30e3;" horiz-adv-x="100" 
 />
    <glyph glyph-name="uni30E4" unicode="&#x30e4;" horiz-adv-x="100" 
 />
    <glyph glyph-name="uni30E5" unicode="&#x30e5;" horiz-adv-x="100" 
 />
    <glyph glyph-name="uni30E6" unicode="&#x30e6;" horiz-adv-x="100" 
 />
    <glyph glyph-name="uni30E7" unicode="&#x30e7;" horiz-adv-x="100" 
 />
    <glyph glyph-name="uni30E8" unicode="&#x30e8;" horiz-adv-x="100" 
 />
    <glyph glyph-name="uni30E9" unicode="&#x30e9;" horiz-adv-x="100" 
 />
    <glyph glyph-name="uni30EA" unicode="&#x30ea;" horiz-adv-x="100" 
 />
    <glyph glyph-name="uni30EB" unicode="&#x30eb;" horiz-adv-x="100" 
 />
    <glyph glyph-name="uni30EC" unicode="&#x30ec;" horiz-adv-x="100" 
 />
    <glyph glyph-name="uni30ED" unicode="&#x30ed;" horiz-adv-x="100" 
 />
    <glyph glyph-name="uni30EE" unicode="&#x30ee;" horiz-adv-x="100" 
 />
    <glyph glyph-name="uni30EF" unicode="&#x30ef;" horiz-adv-x="100" 
 />
    <glyph glyph-name="uni30F0" unicode="&#x30f0;" horiz-adv-x="100" 
 />
    <glyph glyph-name="uni30F1" unicode="&#x30f1;" horiz-adv-x="100" 
 />
    <glyph glyph-name="uni30F2" unicode="&#x30f2;" horiz-adv-x="100" 
 />
    <glyph glyph-name="uni30F3" unicode="&#x30f3;" horiz-adv-x="100" 
 />
    <glyph glyph-name="uni30F4" unicode="&#x30f4;" horiz-adv-x="100" 
 />
    <glyph glyph-name="uni30F5" unicode="&#x30f5;" horiz-adv-x="100" 
 />
    <glyph glyph-name="uni30F6" unicode="&#x30f6;" horiz-adv-x="100" 
 />
    <glyph glyph-name="uni30FB" unicode="&#x30fb;" horiz-adv-x="500" 
d="M247 273q-32 0 -54.5 22.5t-22.5 54.5t22.5 54.5t54.5 22.5t55 -22.5t23 -54.5t-23 -54.5t-55 -22.5z" />
    <glyph glyph-name="uni3131" unicode="&#x3131;" horiz-adv-x="719" 
d="M173 -143l-73 178q175 83 243.5 240.5t77.5 275.5h-290v192h486l2 -102q0 -146 -53 -327q-96 -326 -393 -457z" />
    <glyph glyph-name="uni3132" unicode="&#x3132;" horiz-adv-x="843" 
d="M205 -127l-105 151q146 120 146 526v19h-97v163h272q9 -124 9 -162q0 -44 -2 -111q-4 -150 -51 -319.5t-172 -266.5zM508 -133l-85 163q75 47 106 204q30 148 30 314v21h-96v163h271l6 -86q3 -12 3 -113q0 -87 -12 -206q-42 -364 -223 -460z" />
    <glyph glyph-name="uni3133" unicode="&#x3133;" horiz-adv-x="1209" 
d="M614 46l3 4l-65 162v-142h-236v288h-213v185h449v-301q113 56 152 184q22 72 22 122h207v-3q0 -63 -23 -152q14 -30 62.5 -74.5t133.5 -59.5l-30 -197q-177 35 -266 132q-69 -91 -196 -148z" />
    <glyph glyph-name="uni3134" unicode="&#x3134;" horiz-adv-x="808" 
d="M100 -135v869h192v-678l416 40v-173z" />
    <glyph glyph-name="uni3135" unicode="&#x3135;" horiz-adv-x="1158" 
d="M543 36l3 4l-45 144l5 -110l-403 -20v502h212v-298l179 8l5 -41q117 44 165 146h-144v188h526v-188h-181l-6 -19q-4 -23 -12 -45q53 -45 179 -45h11l18 -187q-25 -2 -49 -2q-155 0 -266 80q-72 -70 -197 -117z" />
    <glyph glyph-name="uni3136" unicode="&#x3136;" horiz-adv-x="1184" 
d="M100 38l3 3v518h212v-310l180 7l11 -192zM798 148q38 0 65 26t27 62t-27 62t-65 26t-65 -26t-27 -62t27 -62t65 -26zM798 32v6q-108 0 -184 57t-76 137q0 61 49 114h-72v141h165v74h236v-74h165v-141h-72q49 -53 49 -114q0 -80 -76 -137t-184 -63z" />
    <glyph glyph-name="uni3137" unicode="&#x3137;" horiz-adv-x="807" 
d="M100 -136v871h484v-192h-292v-472l415 31v-193z" />
    <glyph glyph-name="uni3138" unicode="&#x3138;" horiz-adv-x="861" 
d="M414 -135v50l-314 -44v863h265v-176h-89v-485l138 19v642h288v-176h-112v-493l171 22v-178z" />
    <glyph glyph-name="uni3139" unicode="&#x3139;" horiz-adv-x="818" 
d="M107 -137v519h296v162h-303v192h495v-540h-296v-125l419 33v-193z" />
    <glyph glyph-name="uni313A" unicode="&#x313a;" horiz-adv-x="1153" 
d="M588 23h-485v348h268v58h-268v150h482v-354h-269v-58h269zM1053 21h-239v367h-180v192h416z" />
    <glyph glyph-name="uni313B" unicode="&#x313b;" horiz-adv-x="1144" 
d="M559 25h-456v348h243v57h-243v148h453v-352h-265v-58h265zM861 184l3 3v227h-86v-230h83zM1044 21h-443v558h440z" />
    <glyph glyph-name="uni313C" unicode="&#x313c;" horiz-adv-x="1146" 
d="M554 30h-451v340h243v57h-243v146h448v-346h-260v-56h260zM857 187l3 3v193h-88v-196h85zM1046 27h-455v544h181v-91h88v91h183z" />
    <glyph glyph-name="uni313D" unicode="&#x313d;" horiz-adv-x="1246" 
d="M653 28l3 4l-84 178l21 11q107 59 146 207q22 84 22 137l207 1q0 -76 -28 -184q16 -33 66 -82t137 -66l-34 -189q-176 36 -266 136q-68 -94 -190 -153zM584 47h-481v323h256v54h-256v138h481v-328h-283v-54h285z" />
    <glyph glyph-name="uni313E" unicode="&#x313e;" horiz-adv-x="1181" 
d="M584 71h-481v283h252v55h-252v123h478v-288h-283v-55h283zM1081 67h-448v464h448v-117h-247v-67h247v-96h-247v-67h247v-117z" />
    <glyph glyph-name="uni313F" unicode="&#x313f;" horiz-adv-x="1177" 
d="M555 45h-452v315h239v60h-239v137h449v-321h-264v-59h264zM1077 414h-483v144h480zM1077 43h-483v144h46v167h155v-167h82v167h154v-167h43z" />
    <glyph glyph-name="uni3140" unicode="&#x3140;" horiz-adv-x="1224" 
d="M848 147q38 0 65 24.5t27 59.5q0 36 -27 60.5t-65 24.5t-65 -24.5t-27 -60.5q0 -35 27 -59.5t65 -24.5zM848 13v6q-104 0 -177.5 61t-73.5 148q0 69 54 129h-76v136h155v88h236v-88h155v-136h-75q54 -60 54 -129q0 -87 -73.5 -148t-178.5 -67zM552 38h-449v330h236v54
h-236v142h446v-335h-264v-55h264z" />
    <glyph glyph-name="uni3141" unicode="&#x3141;" horiz-adv-x="677" 
d="M384 51v499h-91v-499h91zM577 -132h-477v864h477v-864z" />
    <glyph glyph-name="uni3142" unicode="&#x3142;" horiz-adv-x="677" 
d="M384 52v275h-91v-275h91zM577 -132h-477v864h193v-235h91v235h193v-864z" />
    <glyph glyph-name="uni3143" unicode="&#x3143;" horiz-adv-x="776" 
d="M532 16v308h-76v-308h76zM328 16v308h-76v-308h76zM676 -131h-576v862h152v-256h76v256h128v-256h76v256h144v-862z" />
    <glyph glyph-name="uni3144" unicode="&#x3144;" horiz-adv-x="1251" 
d="M408 199l3 3v112h-120v-115h117zM655 35l3 4l-59 150v-131h-496v495h188v-90h119v90h189v-311q111 60 148 192q20 75 20 126h207l1 -3q0 -68 -25 -161q14 -31 62.5 -77t135.5 -63l-30 -205q-179 37 -267 137q-69 -95 -196 -153z" />
    <glyph glyph-name="uni3145" unicode="&#x3145;" horiz-adv-x="876" 
d="M230 -143l-130 141q260 248 260 722v11l191 12q2 -6 2 -33l-2 -75q-3 -96 -32 -239q22 -55 89.5 -167.5t167.5 -188.5l-102 -148q-147 113 -232 265q-70 -163 -212 -300z" />
    <glyph glyph-name="uni3146" unicode="&#x3146;" horiz-adv-x="965" 
d="M519 -150l-158 108q43 65 73 141q-45 33 -83 84q-39 -107 -101 -197l-150 106q79 120 116 271t46 265q9 103 9 119v2h184v-4q0 -142 -47 -368q37 -69 77 -119q52 220 52 471l-1 21h192l1 -23q0 -36 -3 -123q-4 -130 -37 -311q83 -113 176 -166l-84 -154q-83 48 -146 114
q-43 -128 -116 -237z" />
    <glyph glyph-name="uni3147" unicode="&#x3147;" horiz-adv-x="773" 
d="M387 49q46 0 78.5 73.5t32.5 177.5t-32.5 177.5t-78.5 73.5q-47 0 -79.5 -73.5t-32.5 -177.5t32.5 -177.5t79.5 -73.5zM387 -146q-119 0 -203 130.5t-84 315.5t84 315.5t203 130.5q118 0 202 -130.5t84 -315.5t-84 -315.5t-202 -130.5z" />
    <glyph glyph-name="uni3148" unicode="&#x3148;" horiz-adv-x="886" 
d="M664 -143q-149 154 -214 345q-66 -178 -227 -343l-123 126q149 155 201 321.5t55 268.5h-187v168h553v-168h-180q8 -101 61 -277.5t183 -312.5z" />
    <glyph glyph-name="uni3149" unicode="&#x3149;" horiz-adv-x="928" 
d="M483 331q24 139 26 227h-82q6 -81 56 -227zM703 -134q-74 116 -114 260q-41 -134 -120 -258l-127 83q49 76 80 160q-29 49 -51 97q-41 -176 -144 -340l-127 83q97 158 131.5 329.5t36.5 277.5h-95v176h582v-176h-87q20 -359 160 -608z" />
    <glyph glyph-name="uni314A" unicode="&#x314a;" horiz-adv-x="876" 
d="M664 -159q-153 142 -219 319q-66 -164 -232 -317l-113 130q144 133 196 276t56 233h-191v168h194v108h192v-108h168v-168h-179q10 -92 63 -243t177 -267z" />
    <glyph glyph-name="uni314B" unicode="&#x314b;" horiz-adv-x="724" 
d="M172 -144l-72 178q173 80 243 231h-204v154h262q19 78 25 139h-296v185h492l2 -104q0 -148 -53 -325q-99 -328 -399 -458z" />
    <glyph glyph-name="uni314C" unicode="&#x314c;" horiz-adv-x="808" 
d="M586 585h-486v152h486v-152zM100 -137v660h485v-184h-301v-277l424 33v-184z" />
    <glyph glyph-name="uni314D" unicode="&#x314d;" horiz-adv-x="849" 
d="M347 41l94 6v527h-94v-533zM110 -135l-10 160l71 4v545h-66v160h577v-160h-65v-516l132 8v-160z" />
    <glyph glyph-name="uni314E" unicode="&#x314e;" horiz-adv-x="776" 
d="M388 11q44 0 75.5 59.5t31.5 143.5t-31.5 143.5t-75.5 59.5t-75.5 -59.5t-31.5 -143.5t31.5 -143.5t75.5 -59.5zM388 -156q-117 0 -199.5 108.5t-82.5 261.5q0 182 113 297h-119v160h192v84h192v-84h192v-160h-119q114 -115 114 -297q0 -153 -83 -261.5t-200 -108.5z" />
    <glyph glyph-name="uni314F" unicode="&#x314f;" horiz-adv-x="510" 
d="M300 -195h-200v991h200v-355h110v-176h-110v-460z" />
    <glyph glyph-name="uni3150" unicode="&#x3150;" horiz-adv-x="633" 
d="M534 -196h-188v469h-70v-450h-176v964h176v-354h70v363h188v-992z" />
    <glyph glyph-name="uni3151" unicode="&#x3151;" horiz-adv-x="510" 
d="M300 -196h-200v992h200v-199h110v-176h-110v-144h110v-176h-110v-297z" />
    <glyph glyph-name="uni3152" unicode="&#x3152;" horiz-adv-x="633" 
d="M346 269v160h-70v-160h70zM534 -196h-188v305h-70v-287h-176v965h176v-198h70v207h188v-992z" />
    <glyph glyph-name="uni3153" unicode="&#x3153;" horiz-adv-x="533" 
d="M433 -196h-200v503h-133v160h133v329h200v-992z" />
    <glyph glyph-name="uni3154" unicode="&#x3154;" horiz-adv-x="743" 
d="M395 -178h-176v445h-119v160h119v359h176v-964zM643 -196h-188v992h188v-992z" />
    <glyph glyph-name="uni3155" unicode="&#x3155;" horiz-adv-x="529" 
d="M429 -196h-200v340h-129v152h129v129h-129v152h129v219h200v-992z" />
    <glyph glyph-name="uni3156" unicode="&#x3156;" horiz-adv-x="748" 
d="M648 -196h-188v992h188v-992zM402 -178h-176v311h-126v152h126v129h-126v152h126v221h176v-965z" />
    <glyph glyph-name="uni3157" unicode="&#x3157;" horiz-adv-x="1114" 
d="M1014 -174h-914v184h337v365h200v-365h377v-184z" />
    <glyph glyph-name="uni3158" unicode="&#x3158;" horiz-adv-x="1154" 
d="M944 -196h-200v133l-625 -72l-19 167l219 28v230h184v-209l241 25v689h200v-355h110v-176h-110v-460z" />
    <glyph glyph-name="uni3159" unicode="&#x3159;" horiz-adv-x="1128" 
d="M1028 -196h-176v468h-57v-450h-160v118l-511 -73l-24 167l178 25v210h184v-184l173 25v676h160v-354h57v363h176v-991z" />
    <glyph glyph-name="uni315A" unicode="&#x315a;" horiz-adv-x="1048" 
d="M948 -195h-200v133l-629 -72l-19 167l226 26v207h184v-186l238 28v688h200v-991z" />
    <glyph glyph-name="uni315B" unicode="&#x315b;" horiz-adv-x="1114" 
d="M1014 -175h-914v184h206v366h180v-366h113v366h180v-366h235v-184z" />
    <glyph glyph-name="uni315C" unicode="&#x315c;" horiz-adv-x="1114" 
d="M648 -271h-184v359h-364v184h914v-184h-366v-359z" />
    <glyph glyph-name="uni315D" unicode="&#x315d;" horiz-adv-x="1069" 
d="M471 -198h-192v291l-160 -19l-19 167l669 77v480h200v-991h-200v80h-186v176h186v86l-298 -34v-313z" />
    <glyph glyph-name="uni315E" unicode="&#x315e;" horiz-adv-x="1090" 
d="M990 -193h-168v991h168v-991zM413 -198h-176v311l-113 -16l-24 166l530 77v449h144v-964h-144v93h-151v176h151v76l-217 -31v-337z" />
    <glyph glyph-name="uni315F" unicode="&#x315f;" horiz-adv-x="1069" 
d="M480 -198h-192v280l-169 -20l-19 167l669 78v491h200v-992h-200v332l-289 -34v-302z" />
    <glyph glyph-name="uni3160" unicode="&#x3160;" horiz-adv-x="1114" 
d="M835 -272h-160v359h-235v-359h-160v359h-180v184h914v-184h-179v-359z" />
    <glyph glyph-name="uni3161" unicode="&#x3161;" horiz-adv-x="1114" 
d="M1014 -92h-914v184h914v-184z" />
    <glyph glyph-name="uni3162" unicode="&#x3162;" horiz-adv-x="1069" 
d="M969 -195h-200v136l-650 -75l-19 167l669 77v686h200v-991z" />
    <glyph glyph-name="uni3163" unicode="&#x3163;" horiz-adv-x="400" 
d="M300 -195h-200v991h200v-991z" />
    <glyph glyph-name="uni3165" unicode="&#x3165;" horiz-adv-x="100" 
 />
    <glyph glyph-name="uni3166" unicode="&#x3166;" horiz-adv-x="100" 
 />
    <glyph glyph-name="uni3167" unicode="&#x3167;" horiz-adv-x="100" 
 />
    <glyph glyph-name="uni3168" unicode="&#x3168;" horiz-adv-x="100" 
 />
    <glyph glyph-name="uni3169" unicode="&#x3169;" horiz-adv-x="100" 
 />
    <glyph glyph-name="uni316A" unicode="&#x316a;" horiz-adv-x="100" 
 />
    <glyph glyph-name="uni316B" unicode="&#x316b;" horiz-adv-x="100" 
 />
    <glyph glyph-name="uni316C" unicode="&#x316c;" horiz-adv-x="100" 
 />
    <glyph glyph-name="uni316D" unicode="&#x316d;" horiz-adv-x="100" 
 />
    <glyph glyph-name="uni316E" unicode="&#x316e;" horiz-adv-x="100" 
 />
    <glyph glyph-name="uni316F" unicode="&#x316f;" horiz-adv-x="100" 
 />
    <glyph glyph-name="uni3170" unicode="&#x3170;" horiz-adv-x="100" 
 />
    <glyph glyph-name="uni3171" unicode="&#x3171;" horiz-adv-x="100" 
 />
    <glyph glyph-name="uni3172" unicode="&#x3172;" horiz-adv-x="100" 
 />
    <glyph glyph-name="uni3173" unicode="&#x3173;" horiz-adv-x="100" 
 />
    <glyph glyph-name="uni3174" unicode="&#x3174;" horiz-adv-x="100" 
 />
    <glyph glyph-name="uni3175" unicode="&#x3175;" horiz-adv-x="100" 
 />
    <glyph glyph-name="uni3176" unicode="&#x3176;" horiz-adv-x="100" 
 />
    <glyph glyph-name="uni3177" unicode="&#x3177;" horiz-adv-x="100" 
 />
    <glyph glyph-name="uni3178" unicode="&#x3178;" horiz-adv-x="100" 
 />
    <glyph glyph-name="uni3179" unicode="&#x3179;" horiz-adv-x="100" 
 />
    <glyph glyph-name="uni317A" unicode="&#x317a;" horiz-adv-x="100" 
 />
    <glyph glyph-name="uni317B" unicode="&#x317b;" horiz-adv-x="100" 
 />
    <glyph glyph-name="uni317C" unicode="&#x317c;" horiz-adv-x="100" 
 />
    <glyph glyph-name="uni317D" unicode="&#x317d;" horiz-adv-x="100" 
 />
    <glyph glyph-name="uni317E" unicode="&#x317e;" horiz-adv-x="100" 
 />
    <glyph glyph-name="uni317F" unicode="&#x317f;" horiz-adv-x="100" 
 />
    <glyph glyph-name="uni3180" unicode="&#x3180;" horiz-adv-x="100" 
 />
    <glyph glyph-name="uni3181" unicode="&#x3181;" horiz-adv-x="100" 
 />
    <glyph glyph-name="uni3182" unicode="&#x3182;" horiz-adv-x="100" 
 />
    <glyph glyph-name="uni3183" unicode="&#x3183;" horiz-adv-x="100" 
 />
    <glyph glyph-name="uni3184" unicode="&#x3184;" horiz-adv-x="100" 
 />
    <glyph glyph-name="uni3185" unicode="&#x3185;" horiz-adv-x="100" 
 />
    <glyph glyph-name="uni3186" unicode="&#x3186;" horiz-adv-x="100" 
 />
    <glyph glyph-name="uni3187" unicode="&#x3187;" horiz-adv-x="100" 
 />
    <glyph glyph-name="uni3188" unicode="&#x3188;" horiz-adv-x="100" 
 />
    <glyph glyph-name="uni3189" unicode="&#x3189;" horiz-adv-x="100" 
 />
    <glyph glyph-name="uni318A" unicode="&#x318a;" horiz-adv-x="100" 
 />
    <glyph glyph-name="uni318B" unicode="&#x318b;" horiz-adv-x="100" 
 />
    <glyph glyph-name="uni318C" unicode="&#x318c;" horiz-adv-x="100" 
 />
    <glyph glyph-name="uni318D" unicode="&#x318d;" horiz-adv-x="500" 
d="M247 273q-32 0 -54.5 22.5t-22.5 54.5t22.5 54.5t54.5 22.5t55 -22.5t23 -54.5t-23 -54.5t-55 -22.5z" />
    <glyph glyph-name="uni318E" unicode="&#x318e;" horiz-adv-x="100" 
 />
    <glyph glyph-name="uni3200" unicode="&#x3200;" horiz-adv-x="1011" 
d="M703 42h-145v284h-312v119h457v-403zM816 -96q-29 0 -29 6v2q102 137 102 347q0 211 -102 348l-1 4q0 4 53 4q3 0 4 -2q108 -163 108 -354q0 -190 -107 -352q-2 -3 -28 -3zM195 -95q-26 0 -28 2q-107 162 -107 353t108 353q1 3 28 3q30 0 30 -5q0 -2 -2 -3
q-102 -139 -102 -348t101 -347q2 -1 2 -3q0 -5 -30 -5z" />
    <glyph glyph-name="uni3201" unicode="&#x3201;" horiz-adv-x="1011" 
d="M294 66v401h144v-280l304 7l3 -119zM816 -96q-29 0 -29 6v2q102 137 102 347q0 211 -102 348l-1 4q0 4 53 4q3 0 4 -2q108 -163 108 -354q0 -190 -107 -352q-2 -3 -28 -3zM195 -95q-26 0 -28 2q-107 162 -107 353t108 353q1 3 28 3q30 0 30 -5q0 -2 -2 -3
q-102 -139 -102 -348t101 -347q2 -1 2 -3q0 -5 -30 -5z" />
    <glyph glyph-name="uni3202" unicode="&#x3202;" horiz-adv-x="1011" 
d="M725 57h-438v406h438v-107h-292v-183h292v-116zM196 -95q-27 0 -29 2q-107 162 -107 353t108 353q1 3 28 3q30 0 30 -5q0 -2 -2 -3q-102 -139 -102 -348t101 -347q2 -1 2 -3q0 -5 -29 -5zM816 -96q-29 0 -29 6v2q102 137 102 347q0 211 -102 348l-1 4q0 4 53 4q3 0 4 -2
q108 -163 108 -354q0 -190 -107 -352q-2 -3 -28 -3z" />
    <glyph glyph-name="uni3203" unicode="&#x3203;" horiz-adv-x="1011" 
d="M725 48h-439v259h296v73h-296v92h439v-253h-292v-81h292v-90zM816 -96q-29 0 -29 6v2q102 137 102 347q0 211 -102 348l-1 4q0 4 29 4q27 0 28 -2q108 -163 108 -354q0 -190 -107 -352q-2 -3 -28 -3zM196 -95q-27 0 -29 2q-107 162 -107 353t108 353q1 3 28 3q30 0 30 -5
q0 -2 -2 -3q-102 -139 -102 -348t101 -347q2 -1 2 -3q0 -5 -29 -5z" />
    <glyph glyph-name="uni3204" unicode="&#x3204;" horiz-adv-x="1011" 
d="M616 186v141h-222v-141h222zM739 58h-468v404h468v-404zM816 -95q-27 0 -28 1.5t-1 4.5q102 140 102 348q0 211 -103 349q0 3 1 5t52 2q3 0 5 -2q107 -163 107 -354q0 -190 -107 -352q-2 -2 -28 -2zM195 -95q-26 0 -28 2q-107 162 -107 353t108 354q2 2 28 2q29 0 29 -5
q0 -2 -1 -3q-102 -139 -102 -348q0 -210 102 -347v-2q0 -6 -29 -6z" />
    <glyph glyph-name="uni3205" unicode="&#x3205;" horiz-adv-x="1011" 
d="M609 167v80h-206v-80h206zM724 55h-436v410h115v-104h206v104h115v-410zM195 -95q-26 0 -28 2q-107 162 -107 353t108 354q2 2 28 2q29 0 29 -5q0 -2 -1 -3q-102 -139 -102 -348q0 -210 102 -347l1 -2q0 -6 -30 -6zM816 -95q-27 0 -28 1.5t-1 4.5q102 140 102 348
q0 211 -103 349q0 3 1 5t52 2q3 0 5 -2q107 -163 107 -354q0 -190 -107 -352q-1 -2 -28 -2z" />
    <glyph glyph-name="uni3206" unicode="&#x3206;" horiz-adv-x="1011" 
d="M269 50l-20 125q132 30 181 163q29 81 29 136v1l113 1l-1 -23q-3 -111 -17 -150l22 -20q83 -86 198 -98l-7 -127q-96 10 -157 48t-96 72l-26 22l-20 -20q-94 -105 -199 -130zM195 -95q-26 0 -28 2q-107 162 -107 353t108 354q2 2 28 2q29 0 29 -5q0 -2 -1 -3
q-102 -139 -102 -348q0 -210 102 -347l1 -2q0 -6 -30 -6zM816 -95q-27 0 -28 1.5t-1 4.5q102 140 102 348q0 211 -103 349q0 3 1 5t53 2q2 0 4 -2q107 -163 107 -354q0 -190 -107 -352q-1 -2 -28 -2z" />
    <glyph glyph-name="uni3207" unicode="&#x3207;" horiz-adv-x="1011" 
d="M505 174q42 0 72.5 25t30.5 61t-30.5 61t-72.5 25q-43 0 -73.5 -25t-30.5 -61t30.5 -61t73.5 -25zM509 21q-102 0 -173.5 70t-71.5 169t71.5 169t173.5 70q101 0 173 -70t72 -169t-72 -169t-173 -70zM195 -95q-26 0 -28 2q-107 162 -107 353t108 354q2 2 28 2q29 0 29 -5
q0 -2 -1 -3q-102 -139 -102 -348q0 -210 102 -347l1 -2q0 -6 -30 -6zM816 -95q-27 0 -28 1.5t-1 4.5q103 141 103 348q0 210 -104 349q0 3 1 5t53 2q2 0 4 -2q107 -163 107 -354q0 -190 -107 -352q-1 -2 -28 -2z" />
    <glyph glyph-name="uni3208" unicode="&#x3208;" horiz-adv-x="1012" 
d="M261 45l-19 126q148 35 191 195h-161v110h477v-110h-191q-4 -43 -12 -68l22 -20q83 -86 198 -98l-7 -127q-96 10 -157 48t-96 72l-26 22q-66 -66 -102 -95q-49 -39 -117 -55zM196 -95q-27 0 -29 2q-107 162 -107 353t108 354q2 2 28 2q29 0 29 -5q0 -2 -1 -3
q-102 -139 -102 -348q0 -210 102 -347l1 -2q0 -6 -29 -6zM816 -95q-27 0 -28 1.5t-1 4.5q103 141 103 348q0 210 -104 349q0 3 1 5t53 2q2 0 4 -2q108 -163 108 -354q0 -190 -108 -352q-1 -2 -28 -2z" />
    <glyph glyph-name="uni3209" unicode="&#x3209;" horiz-adv-x="1012" 
d="M276 45l-20 126q144 33 189 186h-170v104h176v51h120v-51h177v-104h-176q-4 -36 -12 -59q10 -8 23 -20q83 -86 198 -98l-8 -127q-95 10 -156 48t-97 72q-14 13 -25 22q-66 -66 -102 -95q-49 -39 -117 -55zM816 -95q-27 0 -28 1.5t-1 3.5q103 142 103 349q0 210 -104 349
q0 3 1 5t53 2q2 0 4 -2q108 -163 108 -354q0 -190 -108 -352q-1 -2 -28 -2zM196 -95q-27 0 -29 2q-107 162 -107 353t108 354q2 2 28 2q29 0 29 -5q0 -2 -1 -3q-102 -139 -102 -348q0 -210 102 -347l1 -2q0 -6 -29 -6z" />
    <glyph glyph-name="uni320A" unicode="&#x320a;" horiz-adv-x="1012" 
d="M734 59h-145v122h-311v119h311v43h-311v118h456v-402zM196 -95q-27 0 -28 2q-108 162 -108 353t108 354q2 2 28 2q29 0 29 -5q0 -2 -1 -3q-102 -141 -102 -348q0 -210 102 -347l1 -2q0 -6 -29 -6zM816 -95q-27 0 -28 1.5t-1 3.5q103 140 103 349q0 210 -104 349q0 3 1 5
t53 2q2 0 4 -2q108 -163 108 -354q0 -190 -108 -352q-1 -2 -28 -2z" />
    <glyph glyph-name="uni320B" unicode="&#x320b;" horiz-adv-x="1012" 
d="M726 57h-438v406h438v-107h-291v-29h291v-118h-291v-36h291v-116zM816 -95q-27 0 -28 1.5t-1 3.5q103 140 103 349q0 210 -103 349v3q0 4 53 4q2 0 4 -2q108 -163 108 -354q0 -190 -108 -352q-1 -2 -28 -2zM196 -95q-27 0 -28 2q-108 162 -108 353t108 354q2 2 28 2
q29 0 29 -5q0 -2 -1 -3q-102 -141 -102 -348q0 -210 102 -347l1 -2q0 -6 -29 -6z" />
    <glyph glyph-name="uni320C" unicode="&#x320c;" horiz-adv-x="1012" 
d="M596 194v137h-163v-137h163zM776 78h-521v116h61v137h-61v117h521v-117h-64v-137h64v-116zM196 -95q-27 0 -28 2q-108 162 -108 353t108 354q2 2 28 2q29 0 29 -6v-2q-103 -140 -103 -348q0 -210 102 -347q1 -1 1 -3q0 -5 -29 -5zM816 -95q-27 0 -28 1.5t-1 3.5
q103 140 103 349q0 210 -104 349q0 3 1 5t53 2q2 0 4 -2q108 -163 108 -354q0 -190 -108 -352q-1 -2 -28 -2z" />
    <glyph glyph-name="uni320D" unicode="&#x320d;" horiz-adv-x="1011" 
d="M509 143q33 0 56.5 18t23.5 43t-23.5 43t-56.5 18q-34 0 -57.5 -18t-23.5 -43t23.5 -43t57.5 -18zM512 35q-79 0 -134.5 49.5t-55.5 119.5q0 81 73 133h-114v99h168v49h114v-49h168v-99h-103q74 -52 74 -133q0 -70 -55.5 -119.5t-134.5 -49.5zM816 -95q-30 0 -30 5l1 3
q102 137 102 346q0 211 -102 348l-1 4q0 4 53 4q2 0 4 -2q108 -163 108 -354q0 -190 -107 -352q-2 -2 -28 -2zM195 -95q-27 0 -28 2q-107 162 -107 353t107 354q2 2 29 2q29 0 29 -6l-1 -2q-102 -139 -102 -348t101 -347q2 -1 2 -3q0 -5 -30 -5z" />
    <glyph glyph-name="uni320E" unicode="&#x320e;" horiz-adv-x="1011" 
d="M276 18l-41 101q99 47 138 137t45 157h-166v110h277l1 -59q0 -83 -30 -186q-54 -186 -224 -260zM714 -22h-114v564h114v-202h63v-100h-63v-262zM195 -95q-26 0 -28 2q-107 162 -107 353t108 354q1 2 28 2q30 0 30 -5q0 -2 -2 -3q-102 -139 -102 -348t101 -347q2 -1 2 -3
q0 -5 -30 -5zM816 -95q-29 0 -29 5v3q102 137 102 346q0 211 -102 348l-1 4q0 4 53 4q2 0 4 -2q108 -163 108 -354q0 -190 -107 -352q-2 -2 -28 -2z" />
    <glyph glyph-name="uni320F" unicode="&#x320f;" horiz-adv-x="1011" 
d="M732 -23h-114v90l-347 -33v495h110v-386l237 22v378h114v-203h62v-100h-62v-263zM195 -95q-26 0 -28 2q-107 162 -107 353t108 354q1 2 28 2q30 0 30 -5q0 -2 -2 -3q-102 -139 -102 -348t101 -347q2 -1 2 -3q0 -5 -30 -5zM816 -95q-29 0 -29 5v3q102 137 102 346
q0 211 -102 348l-1 4q0 4 53 4q3 0 4 -2q108 -163 108 -354q0 -190 -107 -352q-2 -2 -28 -2z" />
    <glyph glyph-name="uni3210" unicode="&#x3210;" horiz-adv-x="1011" 
d="M724 -23h-114v76l-346 -25v496h276v-109h-166v-269l236 17v380h114v-203h63v-100h-63v-263zM195 -95q-26 0 -28 2q-107 162 -107 353t108 354q1 2 28 2q30 0 30 -5q0 -2 -2 -3q-102 -139 -102 -348t101 -347q2 -1 2 -3q0 -5 -30 -5zM816 -95q-29 0 -29 5v3
q102 137 102 346q0 211 -102 348l-1 4q0 4 53 4q3 0 4 -2q108 -163 108 -354q0 -190 -107 -352q-2 -2 -28 -2z" />
    <glyph glyph-name="uni3211" unicode="&#x3211;" horiz-adv-x="1011" 
d="M734 -23h-114v78l-348 -27v296h169v92h-173v110h282v-308h-169v-71l239 18v378h114v-203h63v-100h-63v-263zM196 -95q-27 0 -29 2q-107 162 -107 353t108 354q1 2 28 2q30 0 30 -5q0 -2 -2 -3q-102 -139 -102 -348t101 -347q2 -1 2 -3q0 -5 -29 -5zM816 -95q-29 0 -29 5
v3q102 137 102 346q0 211 -102 348l-1 4q0 4 53 4q3 0 4 -2q108 -163 108 -354q0 -190 -107 -352q-2 -2 -28 -2z" />
    <glyph glyph-name="uni3212" unicode="&#x3212;" horiz-adv-x="1011" 
d="M728 -24h-113v565h113v-202h63v-101h-63v-262zM431 134v284h-52v-284h52zM541 30h-272v492h272v-492zM816 -95q-29 0 -29 5v3q102 137 102 346q0 211 -102 348l-1 4q0 4 53 4q3 0 4 -2q108 -163 108 -354q0 -190 -107 -352q-2 -2 -28 -2zM196 -95q-27 0 -29 2
q-107 162 -107 353t108 354q1 2 28 2q30 0 30 -5q0 -2 -2 -3q-102 -139 -102 -348t101 -347q2 -1 2 -3q0 -5 -29 -5z" />
    <glyph glyph-name="uni3213" unicode="&#x3213;" horiz-adv-x="1011" 
d="M729 -23h-114v566h114v-203h62v-100h-62v-263zM431 136v157h-52v-157h52zM541 32h-272v492h110v-134h52v134h110v-492zM196 -95q-27 0 -29 2q-107 162 -107 353t108 354q1 2 28 2q30 0 30 -5q0 -2 -2 -3q-102 -139 -102 -348t101 -347q2 -1 2 -3q0 -5 -29 -5zM816 -95
q-29 0 -29 4l1 4q101 138 101 346q0 211 -102 348l-1 4q0 4 53 4q3 0 4 -2q108 -163 108 -354q0 -190 -107 -352q-2 -2 -28 -2z" />
    <glyph glyph-name="uni3214" unicode="&#x3214;" horiz-adv-x="1011" 
d="M717 -23h-114v566h114v-203h63v-100h-63v-263zM282 28l-74 81q148 141 148 417l109 7q1 -3 1 -19l-1 -42q-2 -55 -18 -137q12 -31 50.5 -95t95.5 -108l-58 -84q-84 64 -132 151q-40 -93 -121 -171zM816 -95q-28 0 -28 4v2q101 140 101 348q0 211 -102 348l-1 4q0 4 53 4
q3 0 4 -2q108 -163 108 -354q0 -190 -107 -352q-2 -2 -28 -2zM196 -95q-27 0 -29 2q-107 162 -107 353t108 354q1 2 28 2q30 0 30 -5q0 -2 -2 -3q-102 -139 -102 -348t101 -347q2 -1 2 -3q0 -5 -29 -5z" />
    <glyph glyph-name="uni3215" unicode="&#x3215;" horiz-adv-x="1011" 
d="M397 135q26 0 44.5 41.5t18.5 101.5q0 59 -18.5 101t-44.5 42q-27 0 -45.5 -42t-18.5 -101q0 -60 18.5 -101.5t45.5 -41.5zM397 24q-68 0 -116 74t-48 180q0 105 48 179.5t116 74.5q67 0 115 -74.5t48 -179.5q0 -106 -48 -180t-115 -74zM726 -23h-114v566h114v-203h62
v-100h-62v-263zM816 -95q-27 0 -28 1.5t-1 4.5q102 140 102 348q0 211 -102 348l-1 4q0 4 53 4q3 0 4 -2q108 -163 108 -354q0 -190 -107 -352q-2 -2 -28 -2zM196 -95q-27 0 -29 2q-107 162 -107 353t108 354q1 2 28 2q29 0 29 -5q0 -2 -1 -3q-102 -139 -102 -348t101 -347
q1 -1 1 -3q0 -5 -28 -5z" />
    <glyph glyph-name="uni3216" unicode="&#x3216;" horiz-adv-x="1011" 
d="M733 -23h-114v566h114v-203h63v-100h-63v-263zM547 21q-85 87 -122 196q-38 -101 -130 -195l-70 72q85 88 114.5 183t31.5 153h-106v96h315v-96h-103q5 -58 35 -158.5t104 -177.5zM196 -95q-27 0 -29 2q-107 162 -107 353t108 354q1 2 28 2q29 0 29 -5q0 -2 -1 -3
q-102 -139 -102 -348t101 -347q1 -1 1 -3q0 -5 -28 -5zM816 -95q-27 0 -28 1.5t-1 4.5q102 140 102 348q0 211 -102 348l-1 4q0 4 53 4q3 0 4 -2q108 -163 108 -354q0 -190 -107 -352q-2 -2 -28 -2z" />
    <glyph glyph-name="uni3217" unicode="&#x3217;" horiz-adv-x="1012" 
d="M549 20q-87 81 -125 181q-37 -93 -132 -180l-64 74q82 76 111.5 157.5t31.5 132.5h-108v96h110v61h110v-61h95v-96h-102q6 -53 36 -139t101 -152zM737 -23h-114v566h114v-203h63v-100h-63v-263zM196 -95q-27 0 -28 2q-108 162 -108 353t108 354q2 2 28 2q29 0 29 -6v-2
q-103 -140 -103 -348q0 -210 102 -347l1 -2q0 -6 -29 -6zM816 -95q-27 0 -28 1.5t-1 3.5q103 140 103 349q0 210 -104 349q0 3 1 5t53 2q2 0 4 -2q108 -163 108 -354q0 -190 -108 -352q-1 -2 -28 -2z" />
    <glyph glyph-name="uni3218" unicode="&#x3218;" horiz-adv-x="1011" 
d="M285 17l-41 102q98 45 138 131h-116v88h149q11 45 15 79h-169v106h280l1 -59q0 -85 -30 -186q-56 -187 -227 -261zM726 -23h-114v566h114v-203h63v-100h-63v-263zM816 -95q-27 0 -28 1.5t-1 4.5q102 140 102 348q0 211 -103 349q0 3 1 5t28 2t29 -2q107 -162 107 -354
q0 -190 -107 -352q-1 -2 -28 -2zM220 -95h-49q-2 0 -4 2q-107 162 -107 353t108 354q2 2 28 2q29 0 29 -5q0 -2 -1 -3q-102 -137 -102 -348q0 -210 102 -347l1 -2q0 -6 -5 -6z" />
    <glyph glyph-name="uni3219" unicode="&#x3219;" horiz-adv-x="1011" 
d="M544 441h-277v87h277v-87zM727 -23h-114v80l-346 -27v376h276v-105h-171v-158l241 19v381h114v-203h63v-100h-63v-263zM220 -95h-48q-3 0 -5 2q-107 162 -107 353t108 354q2 2 28 2q29 0 29 -5q0 -2 -1 -3q-102 -137 -102 -348q0 -210 102 -347l1 -2q0 -6 -5 -6zM816 -95
q-27 0 -28 1.5t-1 4.5q103 141 103 348q0 210 -104 349q0 3 1 5t28 2t29 -2q107 -162 107 -354q0 -190 -107 -352q-1 -2 -28 -2z" />
    <glyph glyph-name="uni321A" unicode="&#x321a;" horiz-adv-x="1012" 
d="M389 131l54 3v301h-54v-304zM732 -23h-114v77l-364 -24l-5 92l40 2v311h-38v91h329v-91h-37v-295l75 5v398h114v-203h63v-100h-63v-263zM220 -95h-48q-3 0 -5 2q-107 162 -107 353t108 354q2 2 28 2q29 0 29 -5q0 -2 -1 -3q-102 -137 -102 -348q0 -210 102 -347l1 -2
q0 -6 -5 -6zM816 -95q-27 0 -28 1.5t-1 3.5q103 142 103 349q0 210 -104 349q0 3 1 5t28 2t29 -2q108 -162 108 -354q0 -190 -108 -352q-1 -2 -28 -2z" />
    <glyph glyph-name="uni321B" unicode="&#x321b;" horiz-adv-x="1012" 
d="M418 118q25 0 43 34t18 82t-18 81.5t-43 33.5t-43 -33.5t-18 -81.5t18 -82t43 -34zM418 23q-67 0 -114 61.5t-47 149.5q0 103 64 169h-67v91h109v48h109v-48h110v-91h-68q65 -66 65 -169q0 -88 -47.5 -149.5t-113.5 -61.5zM733 -22h-114v565h114v-203h63v-100h-63v-262z
M816 -95q-27 0 -28 1.5t-1 3.5q103 142 103 349q0 210 -104 349q0 3 1 5t28 2t29 -2q108 -162 108 -354q0 -190 -108 -352q-1 -2 -28 -2zM220 -95h-48q-3 0 -4 2q-108 162 -108 353t108 354q2 2 28 2q29 0 29 -5q0 -2 -1 -3q-102 -137 -102 -348q0 -210 102 -347l1 -2
q0 -6 -5 -6z" />
    <glyph glyph-name="uni321C" unicode="&#x321c;" horiz-adv-x="1012" 
d="M558 -17h-105v140h-208v105h521v-105h-208v-140zM717 249q-157 60 -206 135q-49 -69 -219 -132l-31 91q148 56 176 103h-161v92h456v-92h-149q33 -55 164 -106zM220 -95h-48q-3 0 -4 2q-108 162 -108 353t108 354q2 2 28 2q29 0 29 -5q0 -2 -1 -3q-102 -139 -102 -348
q0 -210 102 -347l1 -2q0 -6 -5 -6zM816 -95q-27 0 -28 1.5t-1 3.5q103 140 103 349q0 210 -103 348l-1 3q0 5 29 5q27 0 29 -2q108 -162 108 -354q0 -190 -108 -352q-1 -2 -28 -2z" />
    <glyph glyph-name="uni3260" unicode="&#x3260;" horiz-adv-x="1057" 
d="M717 38h-145v284h-311v118h456v-402zM528 -167q177 0 302 125.5t125 301.5q0 177 -125 302t-302 125q-176 0 -301 -125t-125 -302q0 -176 125 -301.5t301 -125.5zM528 -208q-193 0 -330.5 137t-137.5 331t137.5 331t330.5 137q194 0 331.5 -137t137.5 -331t-137.5 -331
t-331.5 -137z" />
    <glyph glyph-name="uni3261" unicode="&#x3261;" horiz-adv-x="1057" 
d="M308 61v401h145v-280l304 7l2 -119zM528 -167q177 0 302 125.5t125 301.5q0 177 -125 302t-302 125q-176 0 -301 -125t-125 -302q0 -176 125 -301.5t301 -125.5zM528 -208q-193 0 -330.5 137t-137.5 331t137.5 331t330.5 137q194 0 331.5 -137t137.5 -331t-137.5 -331
t-331.5 -137z" />
    <glyph glyph-name="uni3262" unicode="&#x3262;" horiz-adv-x="1057" 
d="M739 53h-438v405h438v-106h-292v-184h292v-115zM528 -167q177 0 302 125.5t125 301.5q0 177 -125 302t-302 125q-176 0 -301 -125t-125 -302q0 -176 125 -301.5t301 -125.5zM528 -208q-193 0 -330.5 137t-137.5 331t137.5 331t330.5 137q194 0 331.5 -137t137.5 -331
t-137.5 -331t-331.5 -137z" />
    <glyph glyph-name="uni3263" unicode="&#x3263;" horiz-adv-x="1057" 
d="M739 44h-439v259h296v73h-296v91h439v-253h-292v-81h292v-89zM528 -167q177 0 302 125.5t125 301.5q0 177 -125 302t-302 125q-176 0 -301 -125t-125 -302q0 -176 125 -301.5t301 -125.5zM528 -208q-193 0 -330.5 137t-137.5 331t137.5 331t330.5 137q194 0 331.5 -137
t137.5 -331t-137.5 -331t-331.5 -137z" />
    <glyph glyph-name="uni3264" unicode="&#x3264;" horiz-adv-x="1057" 
d="M630 181v141h-221v-141h221zM753 53h-468v405h468v-405zM528 -167q177 0 302 125.5t125 301.5q0 177 -125 302t-302 125q-176 0 -301 -125t-125 -302q0 -176 125 -301.5t301 -125.5zM528 -208q-193 0 -330.5 137t-137.5 331t137.5 331t330.5 137q194 0 331.5 -137
t137.5 -331t-137.5 -331t-331.5 -137z" />
    <glyph glyph-name="uni3265" unicode="&#x3265;" horiz-adv-x="1057" 
d="M623 163v79h-206v-79h206zM738 51h-435v410h114v-104h206v104h115v-410zM528 -166q177 0 302 125t125 301q0 177 -125 302t-302 125q-176 0 -301 -125t-125 -302q0 -176 125 -301t301 -125zM528 -208q-193 0 -330.5 137.5t-137.5 330.5q0 194 137.5 331.5t330.5 137.5
q194 0 331.5 -137.5t137.5 -331.5q0 -193 -137.5 -330.5t-331.5 -137.5z" />
    <glyph glyph-name="uni3266" unicode="&#x3266;" horiz-adv-x="1057" 
d="M283 46l-19 125q74 17 117 62.5t62.5 99t25 93.5t5.5 45l112 1q-3 -132 -18 -174q9 -7 23 -20q82 -85 198 -97l-8 -127q-96 10 -157 47.5t-96 72.5l-26 22q-65 -67 -102 -96q-49 -38 -117 -54zM528 -166q177 0 302 125t125 301q0 177 -125 302t-302 125q-176 0 -301 -125
t-125 -302q0 -176 125 -301t301 -125zM528 -208q-193 0 -330.5 137.5t-137.5 330.5q0 194 137.5 331.5t330.5 137.5q194 0 331.5 -137.5t137.5 -331.5q0 -193 -137.5 -330.5t-331.5 -137.5z" />
    <glyph glyph-name="uni3267" unicode="&#x3267;" horiz-adv-x="1057" 
d="M519 170q43 0 73 25t30 61q0 35 -30 60.5t-73 25.5t-73.5 -25.5t-30.5 -60.5q0 -36 30.5 -61t73.5 -25zM523 17q-102 0 -173.5 70t-71.5 169t71.5 169t173.5 70t173.5 -70t71.5 -169t-71.5 -169t-173.5 -70zM528 -166q177 0 302 125t125 301q0 177 -125 302t-302 125
q-176 0 -301 -125t-125 -302q0 -176 125 -301t301 -125zM528 -208q-193 0 -330.5 137.5t-137.5 330.5q0 194 137.5 331.5t330.5 137.5q194 0 331.5 -137.5t137.5 -331.5q0 -193 -137.5 -330.5t-331.5 -137.5z" />
    <glyph glyph-name="uni3268" unicode="&#x3268;" horiz-adv-x="1057" 
d="M275 41l-19 125q148 35 191 195h-161v110h477v-110h-191q-4 -43 -12 -68q9 -7 23 -20q82 -85 198 -97l-8 -127q-96 10 -157 47.5t-96 72.5l-26 22q-65 -67 -102 -96q-49 -38 -117 -54zM528 -166q177 0 302 125t125 301q0 177 -125 302t-302 125q-176 0 -301 -125
t-125 -302q0 -176 125 -301t301 -125zM528 -208q-193 0 -330.5 137.5t-137.5 330.5q0 194 137.5 331.5t330.5 137.5q194 0 331.5 -137.5t137.5 -331.5q0 -193 -137.5 -330.5t-331.5 -137.5z" />
    <glyph glyph-name="uni3269" unicode="&#x3269;" horiz-adv-x="1057" 
d="M290 41l-20 125q144 34 189 186h-170v104h177v51h119v-51h177v-104h-176q-3 -35 -12 -59q10 -7 23 -20q83 -85 198 -97l-7 -127q-96 10 -157 47.5t-97 72.5l-25 22q-66 -67 -102 -96q-49 -38 -117 -54zM528 -166q177 0 302 125t125 301q0 177 -125 302t-302 125
q-176 0 -301 -125t-125 -302q0 -176 125 -301t301 -125zM528 -208q-193 0 -330.5 137.5t-137.5 330.5q0 194 137.5 331.5t330.5 137.5q194 0 331.5 -137.5t137.5 -331.5q0 -193 -137.5 -330.5t-331.5 -137.5z" />
    <glyph glyph-name="uni326A" unicode="&#x326a;" horiz-adv-x="1057" 
d="M748 54h-145v123h-311v118h311v44h-311v118h456v-403zM528 -166q177 0 302 125t125 301q0 177 -125 302t-302 125q-176 0 -301 -125t-125 -302q0 -176 125 -301t301 -125zM528 -208q-193 0 -330.5 137.5t-137.5 330.5q0 194 137.5 331.5t330.5 137.5q194 0 331.5 -137.5
t137.5 -331.5q0 -193 -137.5 -330.5t-331.5 -137.5z" />
    <glyph glyph-name="uni326B" unicode="&#x326b;" horiz-adv-x="1057" 
d="M740 53h-437v405h437v-106h-291v-29h291v-119h-291v-35h291v-116zM528 -166q177 0 302 125t125 301q0 177 -125 302t-302 125q-176 0 -301 -125t-125 -302q0 -176 125 -301t301 -125zM528 -208q-193 0 -330.5 137.5t-137.5 330.5q0 194 137.5 331.5t330.5 137.5
q194 0 331.5 -137.5t137.5 -331.5q0 -193 -137.5 -330.5t-331.5 -137.5z" />
    <glyph glyph-name="uni326C" unicode="&#x326c;" horiz-adv-x="1057" 
d="M610 190v137h-163v-137h163zM790 73h-521v117h61v137h-61v116h521v-116h-64v-137h64v-117zM528 -166q177 0 302 125t125 301q0 177 -125 302t-302 125q-176 0 -301 -125t-125 -302q0 -176 125 -301t301 -125zM528 -208q-193 0 -330.5 137.5t-137.5 330.5
q0 194 137.5 331.5t330.5 137.5q194 0 331.5 -137.5t137.5 -331.5q0 -193 -137.5 -330.5t-331.5 -137.5z" />
    <glyph glyph-name="uni326D" unicode="&#x326d;" horiz-adv-x="1057" 
d="M523 139q33 0 56.5 17.5t23.5 43.5q0 25 -23.5 43t-56.5 18t-57 -18t-24 -43q0 -26 24 -43.5t57 -17.5zM526 31q-79 0 -134.5 49.5t-55.5 119.5q0 81 74 133h-115v99h168v49h114v-49h168v-99h-103q74 -52 74 -133q0 -70 -55.5 -119.5t-134.5 -49.5zM528 -166
q177 0 302 125t125 301q0 177 -125 302t-302 125q-176 0 -301 -125t-125 -302q0 -176 125 -301t301 -125zM528 -208q-193 0 -330.5 137.5t-137.5 330.5q0 194 137.5 331.5t330.5 137.5q194 0 331.5 -137.5t137.5 -331.5q0 -193 -137.5 -330.5t-331.5 -137.5z" />
    <glyph glyph-name="uni326E" unicode="&#x326e;" horiz-adv-x="1057" 
d="M728 -27h-114v565h114v-202h63v-101h-63v-262zM290 13l-41 102q100 47 139 136.5t44 157.5h-165v109h276l2 -58q0 -83 -31 -186q-54 -186 -224 -261zM528 -166q177 0 302 125t125 301q0 177 -125 302t-302 125q-176 0 -301 -125t-125 -302q0 -176 125 -301t301 -125z
M528 -208q-193 0 -330.5 137.5t-137.5 330.5q0 194 137.5 331.5t330.5 137.5q194 0 331.5 -137.5t137.5 -331.5q0 -193 -137.5 -330.5t-331.5 -137.5z" />
    <glyph glyph-name="uni326F" unicode="&#x326f;" horiz-adv-x="1057" 
d="M746 -27h-114v89l-347 -33v495h110v-386l237 23v377h114v-203h62v-100h-62v-262zM528 -167q177 0 302 125.5t125 301.5q0 177 -125 302t-302 125q-176 0 -301 -125t-125 -302q0 -176 125 -301.5t301 -125.5zM528 -208q-193 0 -330.5 137t-137.5 331t137.5 331t330.5 137
q194 0 331.5 -137t137.5 -331t-137.5 -331t-331.5 -137z" />
    <glyph glyph-name="uni3270" unicode="&#x3270;" horiz-adv-x="1057" 
d="M738 -27h-114v76l-346 -26v496h276v-109h-166v-269l236 17v380h114v-203h63v-100h-63v-262zM528 -167q177 0 302 125.5t125 301.5q0 177 -125 302t-302 125q-176 0 -301 -125t-125 -302q0 -176 125 -301.5t301 -125.5zM528 -208q-193 0 -330.5 137t-137.5 331t137.5 331
t330.5 137q194 0 331.5 -137t137.5 -331t-137.5 -331t-331.5 -137z" />
    <glyph glyph-name="uni3271" unicode="&#x3271;" horiz-adv-x="1057" 
d="M748 -27h-114v78l-348 -28v296h169v93h-173v109h282v-308h-169v-71l239 19v377h114v-203h63v-100h-63v-262zM528 -167q177 0 302 125.5t125 301.5q0 177 -125 302t-302 125q-176 0 -301 -125t-125 -302q0 -176 125 -301.5t301 -125.5zM528 -208q-193 0 -330.5 137
t-137.5 331t137.5 331t330.5 137q194 0 331.5 -137t137.5 -331t-137.5 -331t-331.5 -137z" />
    <glyph glyph-name="uni3272" unicode="&#x3272;" horiz-adv-x="1057" 
d="M445 129v285h-52v-285h52zM555 25h-272v492h272v-492zM743 -29h-114v565h114v-202h62v-100h-62v-263zM528 -167q177 0 302 125.5t125 301.5q0 177 -125 302t-302 125q-176 0 -301 -125t-125 -302q0 -176 125 -301.5t301 -125.5zM528 -208q-193 0 -330.5 137t-137.5 331
t137.5 331t330.5 137q194 0 331.5 -137t137.5 -331t-137.5 -331t-331.5 -137z" />
    <glyph glyph-name="uni3273" unicode="&#x3273;" horiz-adv-x="1057" 
d="M445 132v156h-52v-156h52zM555 27h-272v492h110v-134h52v134h110v-492zM743 -27h-114v565h114v-203h62v-100h-62v-262zM528 -167q177 0 302 125.5t125 301.5q0 177 -125 302t-302 125q-176 0 -301 -125t-125 -302q0 -176 125 -301.5t301 -125.5zM528 -208
q-193 0 -330.5 137t-137.5 331t137.5 331t330.5 137q194 0 331.5 -137t137.5 -331t-137.5 -331t-331.5 -137z" />
    <glyph glyph-name="uni3274" unicode="&#x3274;" horiz-adv-x="1057" 
d="M731 -27h-113v565h113v-203h63v-100h-63v-262zM296 23l-74 81q148 141 148 418l109 6q1 -3 1 -18l-1 -43q-2 -55 -18 -136q12 -32 50.5 -96t95.5 -107l-58 -85q-84 65 -132 151q-40 -92 -121 -171zM528 -167q177 0 302 125.5t125 301.5q0 177 -125 302t-302 125
q-176 0 -301 -125t-125 -302q0 -176 125 -301.5t301 -125.5zM528 -208q-193 0 -330.5 137t-137.5 331t137.5 331t330.5 137q194 0 331.5 -137t137.5 -331t-137.5 -331t-331.5 -137z" />
    <glyph glyph-name="uni3275" unicode="&#x3275;" horiz-adv-x="1057" 
d="M740 -27h-114v565h114v-203h63v-100h-63v-262zM411 130q26 0 44.5 42t18.5 101t-18.5 101t-44.5 42q-27 0 -45.5 -42t-18.5 -101t18.5 -101t45.5 -42zM411 19q-68 0 -116 74.5t-48 179.5t48 179.5t116 74.5q67 0 115 -74.5t48 -179.5t-48 -179.5t-115 -74.5zM528 -167
q177 0 302 125.5t125 301.5q0 177 -125 302t-302 125q-176 0 -301 -125t-125 -302q0 -176 125 -301.5t301 -125.5zM528 -208q-193 0 -330.5 137t-137.5 331t137.5 331t330.5 137q194 0 331.5 -137t137.5 -331t-137.5 -331t-331.5 -137z" />
    <glyph glyph-name="uni3276" unicode="&#x3276;" horiz-adv-x="1057" 
d="M747 -27h-114v565h114v-203h63v-100h-63v-262zM561 16q-85 88 -122 197q-38 -102 -130 -196l-70 72q85 88 115 183t31 153h-106v96h315v-96h-103q5 -57 35 -158t104 -178zM528 -167q177 0 302 125.5t125 301.5q0 177 -125 302t-302 125q-176 0 -301 -125t-125 -302
q0 -176 125 -301.5t301 -125.5zM528 -208q-193 0 -330.5 137t-137.5 331t137.5 331t330.5 137q194 0 331.5 -137t137.5 -331t-137.5 -331t-331.5 -137z" />
    <glyph glyph-name="uni3277" unicode="&#x3277;" horiz-adv-x="1057" 
d="M751 -27h-114v565h114v-203h63v-100h-63v-262zM563 15q-87 81 -124 182q-38 -94 -133 -181l-64 74q82 76 111.5 157.5t32.5 132.5h-109v96h110v61h110v-61h95v-96h-102q6 -52 36.5 -138t100.5 -152zM528 -167q177 0 302 125.5t125 301.5q0 177 -125 302t-302 125
q-176 0 -301 -125t-125 -302q0 -176 125 -301.5t301 -125.5zM528 -208q-193 0 -330.5 137t-137.5 331t137.5 331t330.5 137q194 0 331.5 -137t137.5 -331t-137.5 -331t-331.5 -137z" />
    <glyph glyph-name="uni3278" unicode="&#x3278;" horiz-adv-x="1057" 
d="M741 -27h-114v565h114v-203h62v-100h-62v-262zM299 13l-41 101q99 46 138 132h-116v87h149q11 45 15 80h-169v105h280l2 -59q0 -85 -31 -185q-56 -187 -227 -261zM528 -167q177 0 302 125.5t125 301.5q0 177 -125 302t-302 125q-176 0 -301 -125t-125 -302
q0 -176 125 -301.5t301 -125.5zM528 -208q-193 0 -330.5 137t-137.5 331t137.5 331t330.5 137q194 0 331.5 -137t137.5 -331t-137.5 -331t-331.5 -137z" />
    <glyph glyph-name="uni3279" unicode="&#x3279;" horiz-adv-x="1057" 
d="M741 -27h-114v79l-346 -27v376h276v-105h-171v-157l241 18v381h114v-203h63v-100h-63v-262zM558 437h-277v86h277v-86zM528 -167q177 0 302 125.5t125 301.5q0 177 -125 302t-302 125q-176 0 -301 -125t-125 -302q0 -176 125 -301.5t301 -125.5zM528 -208
q-193 0 -330.5 137t-137.5 331t137.5 331t330.5 137q194 0 331.5 -137t137.5 -331t-137.5 -331t-331.5 -137z" />
    <glyph glyph-name="uni327A" unicode="&#x327a;" horiz-adv-x="1057" 
d="M404 126l53 3v301h-53v-304zM747 -27h-114v76l-365 -23l-5 91l40 2v311h-37v91h328v-91h-37v-294l76 4v398h114v-203h62v-100h-62v-262zM528 -167q177 0 302 125.5t125 301.5q0 177 -125 302t-302 125q-176 0 -301 -125t-125 -302q0 -176 125 -301.5t301 -125.5z
M528 -208q-193 0 -330.5 137t-137.5 331t137.5 331t330.5 137q194 0 331.5 -137t137.5 -331t-137.5 -331t-331.5 -137z" />
    <glyph glyph-name="uni327B" unicode="&#x327b;" horiz-adv-x="1057" 
d="M748 -27h-114v565h114v-203h62v-100h-62v-262zM432 113q25 0 43 34t18 82t-18 82t-43 34t-43 -34t-18 -82t18 -82t43 -34zM432 18q-67 0 -114 62t-47 149q0 104 65 169h-68v91h109v48h110v-48h109v-91h-68q65 -65 65 -169q0 -87 -47 -149t-114 -62zM528 -167
q177 0 302 125.5t125 301.5q0 177 -125 302t-302 125q-176 0 -301 -125t-125 -302q0 -176 125 -301.5t301 -125.5zM528 -208q-193 0 -330.5 137t-137.5 331t137.5 331t330.5 137q194 0 331.5 -137t137.5 -331t-137.5 -331t-331.5 -137z" />
    <glyph glyph-name="uni327F" unicode="&#x327f;" horiz-adv-x="1031" 
d="M515 -211q-163 0 -288.5 98.5t-172.5 273.5l80 20q39 -147 143 -228.5t238 -81.5q158 0 269 108.5t118 254.5h-234v82h317l-5 -32l4 -4l1 -20q0 -195 -138 -333t-332 -138zM440 8h-88v529h88v-213l172 211l12 -4l58 -47l-154 -190l178 -236l-60 -33q-3 -6 -8 -6
q-12 0 -35 30l-132 175l-31 -39v-177zM279 232h-234l1 42q8 189 142 323q143 133 328 133q146 0 269 -85q118 -84 176 -234l-63 -12l-13 -19q-52 132 -150.5 200t-218.5 68q-152 0 -260.5 -99t-124.5 -235h148v-82z" />
    <glyph glyph-name="uni33C2" unicode="&#x33c2;" horiz-adv-x="1167" 
d="M182 23q61 8 98 131v115q-3 1 -12 1l-23 -1q-27 -2 -58 -23q-51 -42 -51 -134q0 -42 16 -74q9 -15 30 -15zM1005 -68h-82v432q0 57 -20 87t-38 30q-20 0 -39.5 -24.5t-23.5 -88.5v-436h-83v436q-2 55 -21.5 84t-37.5 29q-57 0 -66 -116v-433h-82v655h82v-40q18 16 66 16
q64 0 100 -57q39 57 105 57q52 0 96 -52t44 -147v-432zM362 -68h-82v52q-27 -35 -85 -42q-9 -2 -19 -2q-63 1 -96 59q-26 50 -26 114q0 90 46 173q28 46 128 63q30 4 44 4l8 -1v30q0 113 -66 124q-53 0 -85 -42q-4 -5 -17 -18l-60 56l63 60q35 27 101 27q55 0 100.5 -51
t45.5 -156v-450zM1078 -16q9 0 9 9q0 8 -9 8q-8 0 -8 -8q0 -9 8 -9zM1078 -51q-18 0 -30.5 13t-12.5 31t12.5 30.5t30.5 12.5t31 -12.5t13 -30.5t-13 -31t-31 -13zM434 -16q9 0 9 9q0 8 -9 8q-8 0 -8 -8q0 -9 8 -9zM434 -51q-18 0 -30.5 13t-12.5 31t12.5 30.5t30.5 12.5
t31 -12.5t13 -30.5t-13 -31t-31 -13z" />
    <glyph glyph-name="uni33C7" unicode="&#x33c7;" horiz-adv-x="993" 
d="M298 -162q-111 0 -185 117q-68 117 -68 305q0 216 78.5 319.5t174.5 103.5q60 0 126 -55l-53 -63q-42 35 -62 35q-84 0 -133 -93.5t-49 -246.5q0 -156 48.5 -248t122.5 -92q31 0 73 35l53 -63q-66 -54 -126 -54zM681 -80q82 0 92 196q0 136 -30.5 190.5t-61.5 54.5
t-61.5 -54.5t-30.5 -166.5q0 -102 27 -161t65 -59zM681 -162q-79 0 -130 87q-40 76 -44 191q0 178 53.5 252.5t120.5 74.5t120.5 -74.5t53.5 -228.5q0 -133 -44 -215q-50 -87 -130 -87zM904 -113q9 0 9 9q0 8 -9 8q-8 0 -8 -8q0 -9 8 -9zM904 -148q-18 0 -30.5 13t-12.5 31
t12.5 30.5t30.5 12.5t31 -12.5t13 -30.5t-13 -31t-31 -13z" />
    <glyph glyph-name="uni33D8" unicode="&#x33d8;" horiz-adv-x="1157" 
d="M211 -30q33 0 51 38.5t24.5 96t6.5 104.5q0 46 -6.5 104t-25 96.5t-40.5 44.5v-7q-43 0 -61.5 -38t-25 -96t-6.5 -104q0 -47 6.5 -104.5t25 -96t51.5 -38.5zM127 -313h-82l15 857h67v-38h1q4 0 25 10q29 13 58 13q38 0 76.5 -26.5t63 -96t24.5 -197.5
q0 -129 -24.5 -198.5t-63 -96t-76.5 -26.5q-29 0 -58 14q-22 10 -26 10v-225zM424 -60q8 0 8 8q0 4 -2.5 6.5t-4.5 2.5t-2 1q0 2 5 7l2 2q-3 0 -20 -9l5 -5q0 -13 9 -13zM424 -95q-18 0 -31 12.5t-13 30.5t13 31t31 13t32 -14q10 -10 10 -18q0 -3 -1 -5l3 -2
q0 -23 -13 -35.5t-31 -12.5zM1068 -60q9 0 9 8q0 9 -9 9q-8 0 -8 -9q0 -8 8 -8zM1068 -95q-18 0 -31 12.5t-13 30.5t13 31t31 13t31 -13t13 -31t-13 -30.5t-31 -12.5zM995 -113h-82v433q0 57 -20 86.5t-38 29.5q-20 0 -40 -24t-24 -88v-437h-82v437q-2 55 -21.5 83.5
t-38.5 28.5q-56 0 -65 -116v-433h-83v656h83v-40q18 16 65 16q64 0 101 -57q39 57 105 57q52 0 96 -52t44 -147v-433z" />
    <glyph glyph-name="uniAC00" unicode="&#xac00;" 
d="M103 -80l-73 178q175 83 243.5 240.5t77.5 275.5h-290v192h486l2 -102q0 -146 -53 -327q-96 -326 -393 -457zM871 -150h-200v991h200v-355h110v-176h-110v-460z" />
    <glyph glyph-name="uniAC01" unicode="&#xac01;" 
d="M48 238l-15 183q225 19 309 171q16 28 24 54h-309v184h510l1 -96q0 -17 -8 -74q-32 -193 -206 -322q-107 -79 -306 -100zM868 -150h-200v204h-566v164h766v-368zM868 249h-200v593h200v-227h110v-176h-110v-190z" />
    <glyph glyph-name="uniAC02" unicode="&#xac02;" 
 />
    <glyph glyph-name="uniAC03" unicode="&#xac03;" 
 />
    <glyph glyph-name="uniAC04" unicode="&#xac04;" 
d="M48 214l-16 183q271 25 336 252h-311v184h509l1 -97q0 -18 -8 -76q-10 -71 -53.5 -163t-151 -176t-306.5 -107zM124 -150v350h200v-183l549 10l3 -164zM868 198h-200v647h200v-232h110v-176h-110v-239z" />
    <glyph glyph-name="uniAC05" unicode="&#xac05;" 
 />
    <glyph glyph-name="uniAC06" unicode="&#xac06;" 
 />
    <glyph glyph-name="uniAC07" unicode="&#xac07;" 
d="M47 277l-14 184q255 19 328 187h-304v184h509l1 -95q0 -17 -8 -70q-31 -178 -208 -298q-107 -73 -304 -92zM867 -150h-763v408h763v-147h-561v-101h561v-160zM868 287h-200v557h200v-212h110v-176h-110v-169z" />
    <glyph glyph-name="uniAC08" unicode="&#xac08;" 
d="M46 318l-13 184q262 24 325 169h-302v184h509l2 -96q0 -95 -68 -210q-115 -200 -453 -231zM867 -150h-765v288h567v42h-567v126h765v-290h-563v-42h563v-124zM867 335h-200v509h200v-182h110v-176h-110v-151z" />
    <glyph glyph-name="uniAC09" unicode="&#xac09;" 
d="M46 320l-13 184q262 24 325 169h-302v184h509l2 -96q0 -95 -68 -210q-115 -200 -453 -231zM483 -148h-403v288h221v42h-221v127h403v-293h-223v-42h223v-122zM867 -150h-200v299h-149v161h349v-460zM867 337h-200v509h200v-182h110v-176h-110v-151z" />
    <glyph glyph-name="uniAC0A" unicode="&#xac0a;" 
d="M46 321l-13 184q262 24 325 169h-302v184h509l2 -96q0 -95 -68 -210q-115 -200 -453 -231zM465 -147h-379v279h201v41h-201v121h379v-282h-219v-41h219v-118zM715 -16v176h-66v-176h66zM867 -150h-369v444h369v-444zM867 326h-200v521h200v-194h110v-176h-110v-151z" />
    <glyph glyph-name="uniAC0B" unicode="&#xac0b;" 
d="M46 321l-13 184q262 24 325 169h-302v184h509l2 -96q0 -95 -68 -210q-115 -200 -453 -231zM461 -147h-375v283h201v41h-201v125h375v-288h-215v-41h215v-120zM711 -14v156h-68v-156h68zM867 -150h-378v450h154v-74h68v74h156v-450zM867 326h-200v521h200v-194h110v-176
h-110v-151z" />
    <glyph glyph-name="uniAC0C" unicode="&#xac0c;" 
 />
    <glyph glyph-name="uniAC0D" unicode="&#xac0d;" 
 />
    <glyph glyph-name="uniAC0E" unicode="&#xac0e;" 
 />
    <glyph glyph-name="uniAC0F" unicode="&#xac0f;" 
 />
    <glyph glyph-name="uniAC10" unicode="&#xac10;" 
d="M47 281l-14 183q157 15 232 71.5t97 116.5h-305v184h509l1 -96q0 -17 -8 -70q-31 -179 -208 -298q-107 -72 -304 -91zM666 5v95h-362v-95h362zM867 -150h-764v399h764v-399zM868 279h-200v564h200v-215h110v-176h-110v-173z" />
    <glyph glyph-name="uniAC11" unicode="&#xac11;" 
d="M47 281l-14 183q259 19 328 188h-304v184h509l1 -96q0 -17 -8 -70q-31 -179 -208 -298q-107 -72 -304 -91zM666 2v54h-364v-54h364zM867 -150h-767v414h202v-75h364v75h201v-414zM868 295h-200v548h200v-206h110v-176h-110v-166z" />
    <glyph glyph-name="uniAC12" unicode="&#xac12;" 
d="M47 301l-14 183q258 20 328 191h-304v184h509l1 -96q0 -17 -8 -70q-31 -179 -208 -300q-107 -73 -304 -92zM350 -14v90h-94v-90h94zM555 -150l-44 112v-98h-415v414h160v-74h94v74h161v-255q87 47 117 156q17 61 17 105h176v-5q0 -56 -20 -133q11 -24 50.5 -61.5
t113.5 -52.5l-26 -174q-151 31 -222 112q-56 -76 -162 -120zM868 313h-200v544h200v-206h110v-176h-110v-162z" />
    <glyph glyph-name="uniAC13" unicode="&#xac13;" 
d="M48 231l-16 183q269 23 335 241h-310v184h509l1 -97q0 -17 -8 -75q-29 -197 -205 -332q-107 -82 -306 -104zM103 -170l-31 174q206 38 284 133q46 55 46 93l176 1v-2q0 -46 -26 -111q70 -65 362 -101l-12 -176q-356 44 -455 136q-101 -97 -344 -147zM868 227h-200v624
h200v-228h110v-176h-110v-220z" />
    <glyph glyph-name="uniAC14" unicode="&#xac14;" 
d="M47 244l-15 183q225 19 309 171q16 28 24 54h-309v184h510l1 -96q0 -17 -8 -74q-32 -193 -206 -322q-107 -79 -306 -100zM498 -170l-18 54q-109 28 -172 85q-65 -91 -197 -139l-54 168q107 38 144 135q22 58 22 97v3h176v-6q0 -37 -11 -87q10 -18 45.5 -46t101.5 -41
q36 37 52 77.5t19.5 69.5t3.5 33h176v-5q0 -48 -19 -117q14 -23 57.5 -54t120.5 -43l-21 -175q-170 31 -246 110q-63 -77 -180 -119zM867 265h-200v583h200v-221h110v-176h-110v-186z" />
    <glyph glyph-name="uniAC15" unicode="&#xac15;" horiz-adv-x="1045" 
d="M65 225l-15 183q225 19 309 171q16 28 24 54h-309v184h510l1 -96q0 -17 -8 -74q-32 -193 -206 -322q-107 -79 -306 -100zM506 -44q70 0 120 22.5t50 54.5q0 31 -50 53.5t-120 22.5q-71 0 -121 -22.5t-50 -53.5q0 -32 50 -54.5t121 -22.5zM513 -180q-168 0 -286 62
t-118 151q0 88 118 150.5t286 62.5q167 0 285.5 -62.5t118.5 -150.5q0 -89 -118.5 -151t-285.5 -62zM885 265h-200v564h200v-215h110v-176h-110v-173z" />
    <glyph glyph-name="uniAC16" unicode="&#xac16;" 
d="M47 282l-14 184q255 19 328 187h-304v184h509l1 -95q0 -17 -8 -70q-31 -178 -208 -298q-107 -73 -304 -92zM91 -160l-26 158q225 44 303 111h-269v152h770v-152h-284q-9 -16 -23 -36q100 -49 319 -65l-7 -160q-328 31 -442 110q-111 -76 -341 -118zM868 291h-200v558h200
v-211h110v-176h-110v-171z" />
    <glyph glyph-name="uniAC17" unicode="&#xac17;" 
d="M47 282l-14 184q157 15 232 71t97 116h-305v184h509l1 -95q0 -17 -8 -70q-31 -178 -208 -298q-107 -73 -304 -92zM97 -160l-26 158q224 44 302 111h-269v152h282v58h202v-58h282v-152h-282q-8 -16 -23 -36q100 -49 318 -65l-7 -160q-326 31 -440 110q-110 -76 -339 -118z
M868 319h-200v530h200v-211h110v-176h-110v-143z" />
    <glyph glyph-name="uniAC18" unicode="&#xac18;" 
 />
    <glyph glyph-name="uniAC19" unicode="&#xac19;" 
d="M46 320l-13 184q262 24 325 169h-302v184h509l2 -96q0 -95 -68 -210q-115 -200 -453 -231zM866 -150h-762v461h762v-119h-553v-46h553v-122h-553v-46h553v-128zM867 339h-200v507h200v-179h110v-176h-110v-152z" />
    <glyph glyph-name="uniAC1A" unicode="&#xac1a;" 
d="M47 283l-14 183q259 19 328 188h-304v184h509l1 -96q0 -17 -8 -70q-31 -179 -208 -298q-107 -73 -304 -91zM605 -1v117h-242v-117h242zM873 -150h-773v149h90v117h-90v150h773v-150h-95v-117h95v-149zM868 296h-200v549h200v-205h110v-176h-110v-168z" />
    <glyph glyph-name="uniAC1B" unicode="&#xac1b;" horiz-adv-x="1044" 
d="M63 296l-13 183q261 24 325 170h-302v184h509l2 -96q0 -96 -68 -211q-116 -199 -453 -230zM494 -64q67 0 114.5 19t47.5 46t-47.5 45.5t-114.5 18.5t-114.5 -18.5t-47.5 -45.5t47.5 -46t114.5 -19zM501 -180q-159 0 -271.5 52.5t-112.5 126.5q0 63 85 112h-96v136h295v67
h200v-67h295v-136h-96q84 -49 84 -112q0 -74 -112 -126.5t-271 -52.5zM884 313h-200v529h200v-209h110v-176h-110v-144z" />
    <glyph glyph-name="uniAC1C" unicode="&#xac1c;" 
d="M135 -60l-90 170q123 74 176.5 224t62.5 279h-199v192h394l2 -99q0 -146 -42 -320q-77 -317 -304 -446zM965 -150h-188v469h-69v-450h-176v964h176v-354h69v363h188v-992z" />
    <glyph glyph-name="uniAC1D" unicode="&#xac1d;" 
d="M76 250l-19 183q116 16 169 78.5t67 126.5h-214v184h410l1 -96q0 -97 -47 -214q-92 -226 -367 -262zM957 -150h-200v204h-590v164h790v-368zM964 249h-188v203h-54v-187h-176v570h176v-223h54v230h188v-593z" />
    <glyph glyph-name="uniAC1E" unicode="&#xac1e;" 
 />
    <glyph glyph-name="uniAC1F" unicode="&#xac1f;" 
 />
    <glyph glyph-name="uniAC20" unicode="&#xac20;" 
d="M75 229l-20 183q187 19 238 229h-215v184h409l2 -94q0 -104 -47 -225q-104 -246 -367 -277zM174 -150v350h200v-183l577 10l3 -164zM952 198h-188v247h-53v-231h-176v624h176v-233h53v240h188v-647z" />
    <glyph glyph-name="uniAC21" unicode="&#xac21;" 
 />
    <glyph glyph-name="uniAC22" unicode="&#xac22;" 
 />
    <glyph glyph-name="uniAC23" unicode="&#xac23;" 
d="M75 272l-18 183q193 26 234 185h-212v184h409l1 -97q0 -17 -5 -64q-23 -176 -162 -296q-86 -75 -247 -95zM946 -150h-779v408h779v-147h-577v-101h577v-160zM953 287h-188v183h-53v-167h-176v534h176v-207h53v214h188v-557z" />
    <glyph glyph-name="uniAC24" unicode="&#xac24;" 
d="M74 314l-17 184q178 15 230 161h-209v184h409l2 -97q0 -88 -48 -196q-92 -203 -367 -236zM946 -150h-781v293h583v42h-583v129h781v-295h-579v-43h579v-126zM953 341h-188v161h-54v-145h-176v480h176v-175h54v182h188v-503z" />
    <glyph glyph-name="uniAC25" unicode="&#xac25;" 
 />
    <glyph glyph-name="uniAC26" unicode="&#xac26;" 
 />
    <glyph glyph-name="uniAC27" unicode="&#xac27;" 
 />
    <glyph glyph-name="uniAC28" unicode="&#xac28;" 
 />
    <glyph glyph-name="uniAC29" unicode="&#xac29;" 
 />
    <glyph glyph-name="uniAC2A" unicode="&#xac2a;" 
 />
    <glyph glyph-name="uniAC2B" unicode="&#xac2b;" 
 />
    <glyph glyph-name="uniAC2C" unicode="&#xac2c;" 
d="M75 272l-18 183q193 26 234 185h-212v184h409l1 -97q0 -17 -5 -64q-23 -176 -162 -296q-86 -75 -247 -95zM745 5v103h-378v-103h378zM946 -150h-780v407h780v-407zM953 287h-188v181h-53v-165h-176v534h176v-209h53v216h188v-557z" />
    <glyph glyph-name="uniAC2D" unicode="&#xac2d;" 
d="M74 285l-17 183q190 24 233 177h-211v184h409l1 -97q0 -92 -48 -203q-91 -211 -367 -244zM745 5v49h-380v-49h380zM946 -150h-782v415h201v-76h380v76h201v-415zM953 296h-188v185h-53v-169h-176v525h176v-196h53v203h188v-548z" />
    <glyph glyph-name="uniAC2E" unicode="&#xac2e;" 
 />
    <glyph glyph-name="uniAC2F" unicode="&#xac2f;" 
d="M69 222l-21 183q156 17 217 170q15 38 22 72h-216v184h410l1 -93q0 -107 -46 -232q-104 -252 -367 -284zM152 -170l-31 174q208 39 284 132q46 57 46 93l176 2q0 -48 -26 -113q70 -65 362 -101l-12 -176q-356 43 -456 135q-100 -96 -343 -146zM945 226h-188v240h-53v-192
h-176v570h176v-218h53v225h188v-625z" />
    <glyph glyph-name="uniAC30" unicode="&#xac30;" 
d="M67 256l-19 183q116 16 169 78.5t67 126.5h-214v184h410l1 -96q0 -97 -47 -214q-90 -226 -367 -262zM533 -170l-17 54q-106 28 -167 85q-62 -91 -189 -139l-53 168q102 37 139 135q22 57 22 100h169v-6q0 -38 -11 -87q10 -18 44 -46t98 -41q35 37 50 77q22 59 22 100v3
h170v-5q0 -49 -19 -117q50 -77 173 -97l-21 -175q-164 30 -237 110q-61 -77 -173 -119zM945 265h-188v211h-54v-195h-176v560h176v-205h54v212h188v-583z" />
    <glyph glyph-name="uniAC31" unicode="&#xac31;" horiz-adv-x="999" 
d="M69 202l-19 183q184 18 237 215h-214v184h409l1 -97q0 -98 -47 -217q-104 -239 -367 -268zM535 -54q71 0 121.5 21t50.5 51q0 29 -50.5 50t-121.5 21t-121.5 -21t-50.5 -50q0 -30 50.5 -51t121.5 -21zM542 -180q-168 0 -287.5 58t-119.5 140t119.5 140t287.5 58
q169 0 288 -58t119 -140t-119 -140t-288 -58zM947 239h-188v188h-53v-172h-176v542h176v-210h53v217h188v-565z" />
    <glyph glyph-name="uniAC32" unicode="&#xac32;" 
 />
    <glyph glyph-name="uniAC33" unicode="&#xac33;" 
 />
    <glyph glyph-name="uniAC34" unicode="&#xac34;" 
 />
    <glyph glyph-name="uniAC35" unicode="&#xac35;" 
 />
    <glyph glyph-name="uniAC36" unicode="&#xac36;" 
 />
    <glyph glyph-name="uniAC37" unicode="&#xac37;" 
 />
    <glyph glyph-name="uniAC38" unicode="&#xac38;" 
d="M103 -79l-73 177q176 84 244 241.5t77 275.5h-290v192h486l2 -102q0 -146 -53 -327q-96 -326 -393 -457zM871 -150h-200v992h200v-199h110v-176h-110v-144h110v-176h-110v-297z" />
    <glyph glyph-name="uniAC39" unicode="&#xac39;" 
d="M48 239l-15 183q225 19 309 171q16 28 24 54h-309v184h510l1 -97q0 -17 -8 -73q-31 -193 -206 -322q-107 -79 -306 -100zM868 -150h-200v205h-566v163h766v-368zM868 250h-200v593h200v-85h110v-176h-110v-71h110v-176h-110v-85z" />
    <glyph glyph-name="uniAC3A" unicode="&#xac3a;" 
 />
    <glyph glyph-name="uniAC3B" unicode="&#xac3b;" 
 />
    <glyph glyph-name="uniAC3C" unicode="&#xac3c;" 
d="M48 214l-16 183q224 20 309 183q18 37 27 69h-311v184h509l1 -97q0 -18 -8 -76q-29 -202 -204 -340q-108 -84 -307 -106zM124 -150v350h200v-183l549 10l3 -164zM868 198h-200v647h200v-94h110v-176h-110v-77h110v-176h-110v-124z" />
    <glyph glyph-name="uniAC3D" unicode="&#xac3d;" 
 />
    <glyph glyph-name="uniAC3E" unicode="&#xac3e;" 
 />
    <glyph glyph-name="uniAC3F" unicode="&#xac3f;" 
 />
    <glyph glyph-name="uniAC40" unicode="&#xac40;" 
d="M46 318l-13 184q228 16 311 146q8 11 13 23h-301v184h509l2 -96q0 -95 -68 -210q-115 -200 -453 -231zM867 -150h-765v288h567v42h-567v126h765v-290h-563v-42h563v-124zM867 334h-200v510h200v-58h110v-176h-110v-35h110v-176h-110v-65z" />
    <glyph glyph-name="uniAC41" unicode="&#xac41;" 
 />
    <glyph glyph-name="uniAC42" unicode="&#xac42;" 
 />
    <glyph glyph-name="uniAC43" unicode="&#xac43;" 
 />
    <glyph glyph-name="uniAC44" unicode="&#xac44;" 
 />
    <glyph glyph-name="uniAC45" unicode="&#xac45;" 
 />
    <glyph glyph-name="uniAC46" unicode="&#xac46;" 
 />
    <glyph glyph-name="uniAC47" unicode="&#xac47;" 
 />
    <glyph glyph-name="uniAC48" unicode="&#xac48;" 
 />
    <glyph glyph-name="uniAC49" unicode="&#xac49;" 
 />
    <glyph glyph-name="uniAC4A" unicode="&#xac4a;" 
 />
    <glyph glyph-name="uniAC4B" unicode="&#xac4b;" 
d="M48 231l-16 183q269 23 335 241h-310v184h509l1 -97q0 -17 -8 -75q-28 -196 -205 -332q-107 -83 -306 -104zM103 -170l-31 173q209 41 284 133q46 57 46 93l176 2v-2q0 -46 -26 -111q70 -65 362 -101l-12 -176q-356 43 -455 135q-101 -96 -344 -146zM868 226h-200v625
h200v-84h110v-176h-110v-74h110v-176h-110v-115z" />
    <glyph glyph-name="uniAC4C" unicode="&#xac4c;" 
 />
    <glyph glyph-name="uniAC4D" unicode="&#xac4d;" horiz-adv-x="1045" 
d="M65 226l-15 183q221 18 306 165q18 31 27 60h-309v184h510l1 -97q0 -17 -8 -73q-31 -193 -206 -322q-107 -80 -306 -100zM506 -43q70 0 120 22.5t50 53.5q0 32 -50 54.5t-120 22.5q-71 0 -121 -22.5t-50 -54.5q0 -31 50 -53.5t121 -22.5zM513 -180q-168 0 -286 62.5
t-118 150.5q0 89 118 151t286 62q167 0 285.5 -62t118.5 -151q0 -88 -118.5 -150.5t-285.5 -62.5zM885 265h-200v565h200v-77h110v-176h-110v-58h110v-176h-110v-78z" />
    <glyph glyph-name="uniAC4E" unicode="&#xac4e;" 
 />
    <glyph glyph-name="uniAC4F" unicode="&#xac4f;" 
 />
    <glyph glyph-name="uniAC50" unicode="&#xac50;" 
 />
    <glyph glyph-name="uniAC51" unicode="&#xac51;" 
 />
    <glyph glyph-name="uniAC52" unicode="&#xac52;" 
 />
    <glyph glyph-name="uniAC53" unicode="&#xac53;" 
 />
    <glyph glyph-name="uniAC54" unicode="&#xac54;" 
d="M135 -60l-90 170q123 74 176.5 224t62.5 279h-199v192h394l2 -100q0 -145 -42 -319q-77 -318 -304 -446zM777 315v160h-69v-160h69zM965 -150h-188v305h-69v-287h-176v965h176v-198h69v207h188v-992z" />
    <glyph glyph-name="uniAC55" unicode="&#xac55;" 
 />
    <glyph glyph-name="uniAC56" unicode="&#xac56;" 
 />
    <glyph glyph-name="uniAC57" unicode="&#xac57;" 
 />
    <glyph glyph-name="uniAC58" unicode="&#xac58;" 
d="M75 229l-20 183q187 19 238 229h-215v184h409l2 -95q0 -103 -47 -225q-104 -245 -367 -276zM174 -150v349h200v-182l577 9l3 -163zM764 490v93h-53v-93h53zM952 198h-188v132h-53v-117h-176v625h176v-95h53v102h188v-647z" />
    <glyph glyph-name="uniAC59" unicode="&#xac59;" 
 />
    <glyph glyph-name="uniAC5A" unicode="&#xac5a;" 
 />
    <glyph glyph-name="uniAC5B" unicode="&#xac5b;" 
 />
    <glyph glyph-name="uniAC5C" unicode="&#xac5c;" 
d="M74 314l-17 183q176 16 230 161h-209v184h409l2 -96q0 -88 -48 -196q-92 -203 -367 -236zM946 -150h-781v292h583v43h-583v129h781v-296h-579v-42h579v-126zM765 562v50h-54v-50h54zM953 341h-188v61h-54v-45h-176v480h176v-65h54v72h188v-503z" />
    <glyph glyph-name="uniAC5D" unicode="&#xac5d;" 
 />
    <glyph glyph-name="uniAC5E" unicode="&#xac5e;" 
 />
    <glyph glyph-name="uniAC5F" unicode="&#xac5f;" 
 />
    <glyph glyph-name="uniAC60" unicode="&#xac60;" 
 />
    <glyph glyph-name="uniAC61" unicode="&#xac61;" 
 />
    <glyph glyph-name="uniAC62" unicode="&#xac62;" 
 />
    <glyph glyph-name="uniAC63" unicode="&#xac63;" 
 />
    <glyph glyph-name="uniAC64" unicode="&#xac64;" 
 />
    <glyph glyph-name="uniAC65" unicode="&#xac65;" 
d="M74 284l-17 184q190 22 233 177h-211v184h409l1 -97q0 -94 -48 -203q-91 -211 -367 -245zM745 5v49h-380v-49h380zM946 -150h-782v415h201v-76h380v76h201v-415zM765 534v62h-53v-62h53zM953 295h-188v79h-53v-63h-176v526h176v-81h53v88h188v-549z" />
    <glyph glyph-name="uniAC66" unicode="&#xac66;" 
 />
    <glyph glyph-name="uniAC67" unicode="&#xac67;" 
 />
    <glyph glyph-name="uniAC68" unicode="&#xac68;" 
 />
    <glyph glyph-name="uniAC69" unicode="&#xac69;" 
 />
    <glyph glyph-name="uniAC6A" unicode="&#xac6a;" 
 />
    <glyph glyph-name="uniAC6B" unicode="&#xac6b;" 
 />
    <glyph glyph-name="uniAC6C" unicode="&#xac6c;" 
 />
    <glyph glyph-name="uniAC6D" unicode="&#xac6d;" 
 />
    <glyph glyph-name="uniAC6E" unicode="&#xac6e;" 
 />
    <glyph glyph-name="uniAC6F" unicode="&#xac6f;" 
 />
    <glyph glyph-name="uniAC70" unicode="&#xac70;" 
d="M148 -79l-73 177q176 84 244 241.5t77 275.5h-290v192h486l2 -102q0 -146 -53 -327q-96 -328 -393 -457zM935 -150h-200v503h-133v160h133v329h200v-992z" />
    <glyph glyph-name="uniAC71" unicode="&#xac71;" 
d="M87 238l-15 184q225 19 309 170q16 29 24 55h-309v184h510l1 -97q0 -17 -8 -73q-31 -193 -206 -322q-107 -80 -306 -101zM939 -150h-200v204h-566v164h766v-368zM938 249h-200v205h-123v160h123v229h200v-594z" />
    <glyph glyph-name="uniAC72" unicode="&#xac72;" 
 />
    <glyph glyph-name="uniAC73" unicode="&#xac73;" 
 />
    <glyph glyph-name="uniAC74" unicode="&#xac74;" horiz-adv-x="980" 
d="M68 215l-16 183q224 20 309 183q18 36 27 69h-311v184h509l1 -97q0 -18 -8 -77q-29 -202 -204 -339q-108 -84 -307 -106zM175 -150v350h200v-182l550 9l3 -163zM919 198h-200v240h-135v160h135v248h200v-648z" />
    <glyph glyph-name="uniAC75" unicode="&#xac75;" 
 />
    <glyph glyph-name="uniAC76" unicode="&#xac76;" 
 />
    <glyph glyph-name="uniAC77" unicode="&#xac77;" 
d="M86 277l-14 183q157 15 232 71.5t97 116.5h-305v184h509l1 -96q0 -17 -8 -70q-31 -179 -208 -298q-107 -73 -304 -91zM938 -150h-763v408h763v-148h-561v-101h561v-159zM937 287h-200v182h-123v160h123v215h200v-557z" />
    <glyph glyph-name="uniAC78" unicode="&#xac78;" 
d="M85 328l-13 184q243 17 323 161h-300v184h509q1 -91 2 -98q0 -94 -68 -205q-116 -195 -453 -226zM947 -150h-775v292h578v43h-578v129h775v-296h-572v-42h572v-126zM947 341h-200v144h-133v160h133v199h200v-503z" />
    <glyph glyph-name="uniAC79" unicode="&#xac79;" 
 />
    <glyph glyph-name="uniAC7A" unicode="&#xac7a;" 
d="M85 329l-13 183q228 17 311 146q8 12 13 23h-301v184h509l2 -95q0 -96 -68 -211q-114 -199 -453 -230zM536 -146h-379v292h201v43h-201v127h379v-296h-219v-43h219v-123zM786 -9v185h-66v-185h66zM937 -150h-368v467h368v-467zM937 343h-200v171h-123v160h123v174h200
v-505z" />
    <glyph glyph-name="uniAC7B" unicode="&#xac7b;" 
 />
    <glyph glyph-name="uniAC7C" unicode="&#xac7c;" 
 />
    <glyph glyph-name="uniAC7D" unicode="&#xac7d;" 
 />
    <glyph glyph-name="uniAC7E" unicode="&#xac7e;" 
 />
    <glyph glyph-name="uniAC7F" unicode="&#xac7f;" 
 />
    <glyph glyph-name="uniAC80" unicode="&#xac80;" 
d="M86 277l-14 183q157 15 232 71.5t97 116.5h-305v184h509l1 -96q0 -17 -8 -70q-31 -179 -208 -298q-107 -73 -304 -91zM737 5v103h-362v-103h362zM938 -150h-764v407h764v-407zM937 287h-200v195h-123v160h123v202h200v-557z" />
    <glyph glyph-name="uniAC81" unicode="&#xac81;" 
d="M77 281l-14 184q255 19 328 187h-304v184h509l1 -95q0 -17 -8 -70q-31 -178 -208 -298q-107 -73 -304 -92zM727 5v49h-364v-49h364zM929 -150h-767v415h201v-76h364v76h202v-415zM928 295h-200v187h-123v160h123v202h200v-549z" />
    <glyph glyph-name="uniAC82" unicode="&#xac82;" 
 />
    <glyph glyph-name="uniAC83" unicode="&#xac83;" 
d="M64 230l-16 184q269 23 335 241h-310v184h509l1 -97q0 -17 -8 -75q-28 -198 -205 -333q-107 -82 -306 -104zM151 -170l-31 173q207 39 284 133q46 57 46 93l176 1q0 -47 -26 -112q70 -66 362 -102l-12 -175q-356 43 -456 135q-100 -97 -343 -146zM914 226h-200v250h-123
v160h123v215h200v-625z" />
    <glyph glyph-name="uniAC84" unicode="&#xac84;" 
d="M48 243l-15 184q221 18 306 164q18 32 27 61h-309v184h510l1 -97q0 -17 -8 -73q-31 -193 -206 -322q-107 -80 -306 -101zM531 -170l-18 54q-109 28 -172 84q-65 -91 -197 -138l-55 167q106 37 145 135q22 57 22 97v3h176q0 -39 -12 -93q40 -66 148 -87q35 38 51 78t20 69
t4 33h176v-5q0 -48 -20 -116q51 -78 179 -98l-22 -174q-169 30 -245 109q-63 -77 -180 -118zM899 265h-200v208h-123v160h123v215h200v-583z" />
    <glyph glyph-name="uniAC85" unicode="&#xac85;" horiz-adv-x="989" 
d="M65 228l-15 184q221 18 306 164q18 32 27 61h-309v184h510l1 -97q0 -17 -8 -73q-31 -193 -206 -322q-107 -80 -306 -101zM528 -43q71 0 121 22.5t50 54.5t-50 55t-121 23q-70 0 -120 -23t-50 -55t50 -54.5t120 -22.5zM535 -180q-167 0 -285.5 62.5t-118.5 151.5
t118.5 152t285.5 63q168 0 286 -63t118 -152t-118 -151.5t-286 -62.5zM916 268h-200v194h-123v160h123v211h200v-565z" />
    <glyph glyph-name="uniAC86" unicode="&#xac86;" 
d="M79 281l-14 184q259 19 328 188h-304v184h509l1 -96q0 -17 -8 -70q-31 -178 -208 -298q-107 -73 -304 -92zM155 -160l-26 157q225 44 303 111h-269v152h770v-152h-285q-8 -15 -23 -35q101 -49 320 -66l-7 -160q-328 31 -442 110q-111 -75 -341 -117zM930 291h-200v187
h-123v160h123v211h200v-558z" />
    <glyph glyph-name="uniAC87" unicode="&#xac87;" 
 />
    <glyph glyph-name="uniAC88" unicode="&#xac88;" 
 />
    <glyph glyph-name="uniAC89" unicode="&#xac89;" 
d="M86 321l-13 183q261 24 325 169h-302v184h509l2 -95q0 -96 -68 -211q-114 -199 -453 -230zM938 -150h-762v462h762v-120h-553v-45h553v-123h-553v-45h553v-129zM938 339h-200v156h-123v160h123v192h200v-508z" />
    <glyph glyph-name="uniAC8A" unicode="&#xac8a;" 
d="M84 282l-14 184q255 19 328 187h-304v184h509l1 -96q0 -16 -8 -69q-31 -178 -208 -298q-107 -73 -304 -92zM674 -1v117h-242v-117h242zM941 -150h-772v149h90v117h-90v149h772v-149h-94v-117h94v-149zM935 295h-200v198h-123v160h123v192h200v-550z" />
    <glyph glyph-name="uniAC8B" unicode="&#xac8b;" horiz-adv-x="978" 
d="M63 294l-13 184q228 16 311 146q8 11 13 23h-301v184h509l2 -96q0 -95 -68 -210q-115 -200 -453 -231zM526 -63q67 0 114.5 19t47.5 45q0 27 -47.5 46t-114.5 19t-114.5 -19t-47.5 -46q0 -26 47.5 -45t114.5 -19zM533 -180q-159 0 -271.5 52.5t-112.5 126.5q0 64 85 112
h-96v137h295v67h200v-67h295v-137h-97q85 -48 85 -112q0 -74 -112 -126.5t-271 -52.5zM915 314h-200v172h-123v160h123v197h200v-529z" />
    <glyph glyph-name="uniAC8C" unicode="&#xac8c;" 
d="M968 -150h-188v991h188v-991zM719 -132h-176v465h-121q-62 -248 -289 -393l-90 170q123 74 176.5 224t62.5 279h-199v192h394l2 -95q0 -9 -2.5 -68t-16.5 -149h83v339h176v-964z" />
    <glyph glyph-name="uniAC8D" unicode="&#xac8d;" 
 />
    <glyph glyph-name="uniAC8E" unicode="&#xac8e;" 
 />
    <glyph glyph-name="uniAC8F" unicode="&#xac8f;" 
 />
    <glyph glyph-name="uniAC90" unicode="&#xac90;" 
d="M723 214h-176v230h-135v4q-110 -192 -339 -218l-20 183q192 20 238 229h-215v184h409l2 -91q0 -7 -2.5 -42.5t-13.5 -88.5h76v235h176v-625zM177 -150v350h200v-182l576 9l4 -164zM955 198h-188v647h188v-647z" />
    <glyph glyph-name="uniAC91" unicode="&#xac91;" 
 />
    <glyph glyph-name="uniAC92" unicode="&#xac92;" 
 />
    <glyph glyph-name="uniAC93" unicode="&#xac93;" 
 />
    <glyph glyph-name="uniAC94" unicode="&#xac94;" 
d="M948 -150h-781v292h584v43h-584v129h781v-296h-578v-42h578v-126zM955 341h-188v502h188v-502zM72 314l-17 183q178 16 230 161h-209v184h409l2 -90q0 -6 -1.5 -32t-10.5 -66h72v183h176v-480h-176v137h-141q-78 -140 -334 -180z" />
    <glyph glyph-name="uniAC95" unicode="&#xac95;" 
 />
    <glyph glyph-name="uniAC96" unicode="&#xac96;" 
 />
    <glyph glyph-name="uniAC97" unicode="&#xac97;" 
 />
    <glyph glyph-name="uniAC98" unicode="&#xac98;" 
 />
    <glyph glyph-name="uniAC99" unicode="&#xac99;" 
 />
    <glyph glyph-name="uniAC9A" unicode="&#xac9a;" 
 />
    <glyph glyph-name="uniAC9B" unicode="&#xac9b;" 
 />
    <glyph glyph-name="uniAC9C" unicode="&#xac9c;" 
d="M748 5v103h-378v-103h378zM949 -150h-780v407h780v-407zM956 287h-188v556h188v-556zM73 272l-18 183q194 24 234 185h-212v184h409q1 -91 2 -99q0 -19 -9 -76h69v188h176v-535h-176v187h-125q-96 -187 -350 -217z" />
    <glyph glyph-name="uniAC9D" unicode="&#xac9d;" 
d="M72 284l-17 183q190 24 233 177h-211v184h409q1 -90 2 -98q0 -20 -10 -81h69v188h176v-526h-176v178h-129q-100 -177 -346 -205zM747 5v49h-380v-49h380zM948 -150h-782v415h201v-76h380v76h201v-415zM955 295h-188v548h188v-548z" />
    <glyph glyph-name="uniAC9E" unicode="&#xac9e;" 
 />
    <glyph glyph-name="uniAC9F" unicode="&#xac9f;" 
d="M65 221l-21 183q156 17 217 170q15 39 22 73h-216v184h410l1 -91q0 -3 -1 -29.5t-8 -69.5h69v203h176v-570h-176v191h-124q-108 -215 -349 -244zM155 -170l-31 173q208 39 284 133q45 57 45 93l176 1v-3q0 -47 -25 -110q70 -65 362 -101l-12 -175q-356 43 -456 135
q-100 -97 -343 -146zM946 226h-188v624h188v-624z" />
    <glyph glyph-name="uniACA0" unicode="&#xaca0;" 
d="M536 -170l-17 53q-109 29 -173 85q-64 -91 -196 -138l-55 167q106 37 145 135q22 57 22 100h176q0 -39 -12 -93q40 -66 147 -87q36 37 52 78q23 58 23 99v3h176v-5q0 -48 -19 -116q49 -78 179 -98l-22 -174q-170 30 -245 109q-64 -77 -181 -118zM928 265h-188v582h188
v-582zM46 256l-19 183q116 15 169 77.5t67 127.5h-214v184h410l1 -91q0 -5 -1.5 -31t-8.5 -65h70v200h176v-560h-176v184h-134q-100 -180 -340 -209z" />
    <glyph glyph-name="uniACA1" unicode="&#xaca1;" horiz-adv-x="1004" 
d="M69 241l-19 183q188 19 237 216h-214v184h409q1 -91 2 -99q0 -22 -10 -88h69v200h176v-542h-176v166h-131q-109 -194 -343 -220zM540 -39q71 0 121 23t50 56t-50 56t-121 23q-72 0 -122 -23t-50 -56t50 -56t122 -23zM547 -180q-169 0 -288 64.5t-119 155.5t119 155.5
t288 64.5q168 0 287.5 -64.5t119.5 -155.5t-119.5 -155.5t-287.5 -64.5zM951 279h-188v564h188v-564z" />
    <glyph glyph-name="uniACA2" unicode="&#xaca2;" 
 />
    <glyph glyph-name="uniACA3" unicode="&#xaca3;" 
 />
    <glyph glyph-name="uniACA4" unicode="&#xaca4;" 
 />
    <glyph glyph-name="uniACA5" unicode="&#xaca5;" 
 />
    <glyph glyph-name="uniACA6" unicode="&#xaca6;" 
 />
    <glyph glyph-name="uniACA7" unicode="&#xaca7;" 
 />
    <glyph glyph-name="uniACA8" unicode="&#xaca8;" 
d="M145 -79l-73 177q176 84 244 241.5t77 275.5h-290v192h486l2 -102q0 -146 -53 -327q-96 -328 -393 -457zM939 -150h-200v340h-129v152h129v129h-129v152h129v219h200v-992z" />
    <glyph glyph-name="uniACA9" unicode="&#xaca9;" 
d="M83 238l-15 184q225 19 309 170q16 29 24 55h-309v184h510l1 -97q0 -17 -8 -73q-31 -193 -206 -322q-107 -80 -306 -101zM942 -150h-200v204h-567v164h767v-368zM941 249h-200v94h-116v152h116v77h-116v152h116v119h200v-594z" />
    <glyph glyph-name="uniACAA" unicode="&#xacaa;" 
d="M83 269l-14 183q161 16 236 78t95 126h-307v184h509l1 -96q0 -17 -8 -72q-28 -182 -207 -308q-107 -76 -305 -95zM943 -150h-200v241h-178v163h378v-404zM536 -150h-200v241h-188v163h388v-404zM942 285h-200v76h-117v152h117v77h-117v152h117v101h200v-558z" />
    <glyph glyph-name="uniACAB" unicode="&#xacab;" 
 />
    <glyph glyph-name="uniACAC" unicode="&#xacac;" 
d="M80 215l-16 183q224 20 309 183q18 36 27 69h-311v184h509l1 -97q0 -18 -8 -77q-29 -202 -204 -339q-108 -84 -307 -106zM194 -150v350h200v-182l549 9l4 -163zM937 198h-200v119h-116v152h116v76h-116v152h116v149h200v-648z" />
    <glyph glyph-name="uniACAD" unicode="&#xacad;" 
 />
    <glyph glyph-name="uniACAE" unicode="&#xacae;" 
 />
    <glyph glyph-name="uniACAF" unicode="&#xacaf;" 
d="M83 277l-14 183q157 15 232 71.5t97 116.5h-305v184h509l1 -96q0 -17 -8 -70q-31 -179 -208 -298q-107 -73 -304 -91zM942 -150h-763v408h763v-148h-561v-101h561v-159zM941 287h-200v87h-116v152h116v69h-116v152h116v97h200v-557z" />
    <glyph glyph-name="uniACB0" unicode="&#xacb0;" 
d="M82 328l-13 184q243 17 323 161h-300v184h509q1 -91 2 -98q0 -94 -68 -205q-116 -195 -453 -226zM941 -150h-765v292h568v43h-568v129h765v-296h-562v-42h562v-126zM941 341h-200v57h-117v152h117v70h-117v152h117v72h200v-503z" />
    <glyph glyph-name="uniACB1" unicode="&#xacb1;" 
 />
    <glyph glyph-name="uniACB2" unicode="&#xacb2;" 
 />
    <glyph glyph-name="uniACB3" unicode="&#xacb3;" 
 />
    <glyph glyph-name="uniACB4" unicode="&#xacb4;" 
 />
    <glyph glyph-name="uniACB5" unicode="&#xacb5;" 
 />
    <glyph glyph-name="uniACB6" unicode="&#xacb6;" 
 />
    <glyph glyph-name="uniACB7" unicode="&#xacb7;" 
d="M56 337l-13 184q243 17 323 161h-300v184h509q1 -91 2 -98q0 -93 -68 -206q-117 -194 -453 -225zM740 -35q31 0 52.5 20.5t21.5 49.5t-21.5 49.5t-52.5 20.5q-30 0 -51.5 -20.5t-21.5 -49.5t21.5 -49.5t51.5 -20.5zM740 -150q-87 0 -148.5 53.5t-61.5 128.5q0 61 42 108
h-60v122h128v73h200v-73h129v-122h-60q41 -47 41 -108q0 -75 -61.5 -128.5t-148.5 -53.5zM500 -141h-367v298h194v43h-194v129h367v-304h-213v-43h213v-123zM915 362h-200v48h-117v152h117v69h-117v152h117v70h200v-491z" />
    <glyph glyph-name="uniACB8" unicode="&#xacb8;" 
d="M83 277l-14 183q157 15 232 71.5t97 116.5h-305v184h509l1 -96q0 -17 -8 -70q-31 -179 -208 -298q-107 -73 -304 -91zM741 5v103h-362v-103h362zM942 -150h-765v407h765v-407zM941 287h-200v87h-116v152h116v69h-116v152h116v97h200v-557z" />
    <glyph glyph-name="uniACB9" unicode="&#xacb9;" 
d="M83 281l-14 184q255 19 328 187h-304v184h509l1 -95q0 -17 -8 -70q-31 -178 -208 -298q-107 -73 -304 -92zM740 4v51h-364v-51h364zM941 -150h-766v415h201v-76h364v76h201v-415zM941 295h-200v79h-116v152h116v69h-116v152h116v97h200v-549z" />
    <glyph glyph-name="uniACBA" unicode="&#xacba;" 
 />
    <glyph glyph-name="uniACBB" unicode="&#xacbb;" 
d="M82 226l-16 184q269 23 335 241h-310v184h509l1 -97q0 -17 -8 -75q-28 -198 -205 -333q-107 -82 -306 -104zM174 -170l-29 174q196 39 269 133q43 55 43 92l167 2v-3q0 -46 -24 -110q67 -65 343 -101l-11 -176q-338 44 -432 136q-95 -97 -326 -147zM939 222h-200v125
h-116v152h116v76h-116v152h116v120h200v-625z" />
    <glyph glyph-name="uniACBC" unicode="&#xacbc;" 
d="M70 243l-15 184q221 18 306 164q18 32 27 61h-309v184h510l1 -97q0 -17 -8 -73q-31 -193 -206 -322q-107 -80 -306 -101zM536 -170l-16 54q-102 28 -162 84q-61 -91 -184 -138l-51 167q101 38 135 135q21 59 21 100h165q0 -39 -11 -93q37 -66 138 -87q33 38 48 78
q22 59 22 99v3h165v-5q0 -49 -18 -116q14 -23 54.5 -54.5t112.5 -43.5l-20 -174q-159 30 -230 109q-59 -77 -169 -118zM928 265h-200v83h-116v152h116v76h-116v152h116v120h200v-583z" />
    <glyph glyph-name="uniACBD" unicode="&#xacbd;" horiz-adv-x="1007" 
d="M65 226l-15 184q221 18 306 164q18 32 27 61h-309v184h510l1 -97q0 -17 -8 -73q-31 -193 -206 -322q-107 -80 -306 -101zM546 -38q71 0 121 22t50 53t-50 53t-121 22q-70 0 -120 -22t-50 -53t50 -53t120 -22zM553 -170q-167 0 -285.5 60.5t-118.5 146.5t118.5 147
t285.5 61q168 0 286 -61t118 -147t-118 -146.5t-286 -60.5zM923 266h-200v76h-116v152h116v77h-116v152h116v108h200v-565z" />
    <glyph glyph-name="uniACBE" unicode="&#xacbe;" 
 />
    <glyph glyph-name="uniACBF" unicode="&#xacbf;" 
 />
    <glyph glyph-name="uniACC0" unicode="&#xacc0;" 
 />
    <glyph glyph-name="uniACC1" unicode="&#xacc1;" 
d="M83 321l-13 183q261 24 325 169h-302v184h509l2 -95q0 -96 -68 -211q-114 -199 -453 -230zM942 -150h-763v462h763v-120h-553v-45h553v-123h-553v-45h553v-129zM942 339h-200v51h-116v152h116v77h-116v152h116v76h200v-508z" />
    <glyph glyph-name="uniACC2" unicode="&#xacc2;" 
 />
    <glyph glyph-name="uniACC3" unicode="&#xacc3;" 
 />
    <glyph glyph-name="uniACC4" unicode="&#xacc4;" 
d="M960 -150h-188v991h188v-991zM714 -132h-176v322h-116v152h116v129h-94q-23 -144 -97 -294t-226 -237l-90 170q123 74 176.5 224t62.5 279h-199v192h394l2 -100q0 -19 -4 -82h75v209h176v-964z" />
    <glyph glyph-name="uniACC5" unicode="&#xacc5;" 
 />
    <glyph glyph-name="uniACC6" unicode="&#xacc6;" 
 />
    <glyph glyph-name="uniACC7" unicode="&#xacc7;" 
 />
    <glyph glyph-name="uniACC8" unicode="&#xacc8;" 
d="M725 214h-176v111h-109v148h109v81h-96q-7 -24 -17 -48q-104 -245 -367 -276l-20 183q192 20 238 229h-215v184h409l2 -91l-2 -33h68v137h176v-625zM182 -150v350h200v-182l576 9l4 -164zM955 198h-188v647h188v-647z" />
    <glyph glyph-name="uniACC9" unicode="&#xacc9;" 
 />
    <glyph glyph-name="uniACCA" unicode="&#xacca;" 
 />
    <glyph glyph-name="uniACCB" unicode="&#xaccb;" 
 />
    <glyph glyph-name="uniACCC" unicode="&#xaccc;" 
d="M958 -150h-782v292h584v43h-584v129h782v-296h-579v-42h579v-126zM958 341h-188v502h188v-502zM70 314l-17 183q178 16 230 161h-209v184h409l2 -81h67v76h176v-485h-176v46h-110v148h110v67h-90q-10 -31 -26 -65q-91 -202 -366 -234z" />
    <glyph glyph-name="uniACCD" unicode="&#xaccd;" 
 />
    <glyph glyph-name="uniACCE" unicode="&#xacce;" 
 />
    <glyph glyph-name="uniACCF" unicode="&#xaccf;" 
 />
    <glyph glyph-name="uniACD0" unicode="&#xacd0;" 
 />
    <glyph glyph-name="uniACD1" unicode="&#xacd1;" 
 />
    <glyph glyph-name="uniACD2" unicode="&#xacd2;" 
 />
    <glyph glyph-name="uniACD3" unicode="&#xacd3;" 
 />
    <glyph glyph-name="uniACD4" unicode="&#xacd4;" 
 />
    <glyph glyph-name="uniACD5" unicode="&#xacd5;" 
d="M758 5v49h-380v-49h380zM959 -150h-782v415h201v-76h380v76h201v-415zM957 295h-188v548h188v-548zM69 284l-17 183q191 24 233 177h-211v184h409l1 -83h67v92h176v-526h-176v64h-110v148h110v74h-89q-10 -33 -26 -68q-34 -79 -120 -152t-247 -93z" />
    <glyph glyph-name="uniACD6" unicode="&#xacd6;" 
 />
    <glyph glyph-name="uniACD7" unicode="&#xacd7;" 
d="M63 221l-21 183q156 17 217 170q15 39 22 73h-216v184h410l1 -104h67v117h176v-570h-176v79h-110v148h110v78h-89q-9 -35 -24 -73q-104 -253 -367 -285zM157 -170l-31 173q207 39 284 133q46 57 46 93l176 1v-3q0 -44 -26 -110q71 -65 362 -101l-12 -175
q-356 43 -455 135q-101 -97 -344 -146zM949 226h-188v624h188v-624z" />
    <glyph glyph-name="uniACD8" unicode="&#xacd8;" 
 />
    <glyph glyph-name="uniACD9" unicode="&#xacd9;" 
 />
    <glyph glyph-name="uniACDA" unicode="&#xacda;" 
 />
    <glyph glyph-name="uniACDB" unicode="&#xacdb;" 
 />
    <glyph glyph-name="uniACDC" unicode="&#xacdc;" 
 />
    <glyph glyph-name="uniACDD" unicode="&#xacdd;" 
 />
    <glyph glyph-name="uniACDE" unicode="&#xacde;" 
 />
    <glyph glyph-name="uniACDF" unicode="&#xacdf;" 
 />
    <glyph glyph-name="uniACE0" unicode="&#xace0;" horiz-adv-x="1000" 
d="M883 189h-192v458h-607v171h799v-629zM942 -84h-914v184h237v365h200v-365h477v-184z" />
    </font>
</defs>
</svg>
