<?xml version="1.0" standalone="no"?>
<!DOCTYPE svg PUBLIC "-//W3C//DTD SVG 1.1//EN" "http://www.w3.org/Graphics/SVG/1.1/DTD/svg11.dtd" >
<svg xmlns="http://www.w3.org/2000/svg" xmlns:xlink="http://www.w3.org/1999/xlink" version="1.1">
<metadata>
Created by FontForge 20170731 at Tue Oct  5 02:27:03 2021
 By Aleksey,,,
Copyright (c) 2021 by KOTRA. All rights reserved.
</metadata>
<defs>
<font id="KOTRALEAP" horiz-adv-x="900" >
  <font-face 
    font-family="KOTRA LEAP"
    font-weight="400"
    font-stretch="normal"
    units-per-em="1024"
    panose-1="2 11 6 0 0 1 1 1 1 1"
    ascent="819"
    descent="-205"
    x-height="455"
    cap-height="663"
    bbox="-102 -224 1072 836"
    underline-thickness="50"
    underline-position="-175"
    unicode-range="U+0020-FFE6"
  />
<missing-glyph horiz-adv-x="280" 
 />
    <glyph glyph-name=".notdef" horiz-adv-x="280" 
 />
    <glyph glyph-name=".null" horiz-adv-x="0" 
 />
    <glyph glyph-name="nonmarkingreturn" horiz-adv-x="280" 
 />
    <glyph glyph-name="space" unicode=" " horiz-adv-x="280" 
 />
    <glyph glyph-name="exclam" unicode="!" horiz-adv-x="270" 
d="M65 144l-9 304v148q0 14 -5.5 26.5t-19.5 18.5l184 60v-253l-9 -304h-141zM43 -22q0 19 7 36t19.5 29.5t29.5 19.5t37 7t37 -7t29.5 -19.5t19.5 -29.5t7 -36t-7 -36t-19.5 -29.5t-29.5 -19.5t-37 -7t-37 7t-29.5 19.5t-19.5 29.5t-7 36z" />
    <glyph glyph-name="quotedbl" unicode="&#x22;" horiz-adv-x="405" 
d="M106 438q-7 40 -17 67t-19.5 48.5t-16.5 42t-7 46.5q0 32 20 55t51 23q30 0 50.5 -23t20.5 -55q0 -26 -7 -46.5t-16.5 -42t-19.5 -48.5t-17 -67h-22zM277 438q-7 40 -17 67t-19.5 48.5t-16.5 42t-7 46.5q0 32 20 55t51 23q30 0 50.5 -23t20.5 -55q0 -26 -7 -46.5
t-16.5 -42t-19.5 -48.5t-17 -67h-22z" />
    <glyph glyph-name="numbersign" unicode="#" horiz-adv-x="720" 
d="M353 -110l31 212h-108l-31 -212h-135l31 212h-99v107h115l30 193h-96v107h112l15 97q0 14 -5.5 26.5t-19.5 18.5l175 60l-31 -202h109l15 97q0 14 -5.5 26.5t-19.5 18.5l175 60l-31 -202h98v-107h-114l-29 -193h94v-107h-110l-31 -212h-135zM292 209h108l30 193h-109z
" />
    <glyph glyph-name="dollar" unicode="$" horiz-adv-x="657" 
d="M387 726v-70q39 -5 72.5 -17.5t58 -31t39 -44.5t14.5 -58q0 -43 -21.5 -61.5t-50.5 -18.5q-56 0 -77 46q16 23 4.5 45t-39.5 35v-209q42 -21 81.5 -41.5t69.5 -46t48.5 -58t18.5 -77.5q0 -40 -15.5 -73t-44 -57t-69 -39t-89.5 -20q-1 -21 -4 -36t-10.5 -24.5t-20 -14.5
t-33.5 -5h-37v80q-93 11 -147.5 56t-82.5 123l131 54q13 -45 35 -81.5t64 -51.5v216q-41 19 -78.5 39t-67 46t-47 61t-17.5 84q0 80 56.5 126.5t153.5 55.5v68h105zM387 197v-168q31 8 51.5 27.5t20.5 54.5q0 30 -20 49.5t-52 36.5zM282 392v165q-32 -9 -48.5 -30t-16.5 -47
q0 -31 18 -51t47 -37z" />
    <glyph glyph-name="percent" unicode="%" horiz-adv-x="855" 
d="M616 686l-264 -796h-122l265 796h121zM649 280q35 0 67 -12.5t56 -36.5t38 -60t14 -82q0 -47 -14 -82.5t-38 -60t-56 -37t-67 -12.5q-36 0 -68 12.5t-56 37t-38.5 60t-14.5 82.5q0 46 14.5 82t38.5 60t56 36.5t68 12.5zM649 -21q25 0 34.5 27.5t9.5 82.5t-9.5 82
t-34.5 27t-35.5 -27t-10.5 -82t10.5 -82.5t35.5 -27.5zM208 679q35 0 67 -12.5t56 -36.5t38 -60t14 -82q0 -47 -14 -82.5t-38 -60t-56 -37t-67 -12.5q-36 0 -68 12.5t-56 37t-38.5 60t-14.5 82.5q0 46 14.5 82t38.5 60t56 36.5t68 12.5zM208 378q25 0 34.5 27.5t9.5 82.5
t-9.5 82t-34.5 27t-35.5 -27t-10.5 -82t10.5 -82.5t35.5 -27.5z" />
    <glyph glyph-name="ampersand" unicode="&#x26;" horiz-adv-x="693" 
d="M280 381q40 35 65.5 68.5t23.5 71.5q-2 35 -20 56t-50 21q-15 0 -26.5 -7t-19.5 -18t-12.5 -25t-4.5 -29q0 -40 12 -70t32 -68zM608 -82q-31 14 -56 31t-57 37q-42 -47 -100 -67.5t-121 -20.5q-40 0 -80 12t-72.5 36t-52.5 61t-20 87q0 35 9.5 64.5t26 55.5t40 49.5
t50.5 45.5q-32 53 -55 98.5t-23 93.5q0 50 17.5 86.5t46.5 60.5t66.5 35.5t77.5 11.5q31 0 63.5 -10t59 -31.5t43 -54.5t16.5 -79q0 -34 -15 -65.5t-38.5 -60t-51 -52.5t-51.5 -43q28 -37 65 -77.5t75 -71.5q9 15 18 35t17.5 41t15 41t10.5 36l104 -40q-15 -54 -38 -103
t-42 -83q23 -17 49.5 -33.5t55.5 -32.5zM408 51q-50 45 -89.5 89t-79.5 92q-15 -21 -32.5 -56t-17.5 -75q0 -28 8.5 -48t23.5 -33t35 -19t42 -6q42 0 68.5 16.5t41.5 39.5z" />
    <glyph glyph-name="quotesingle" unicode="'" horiz-adv-x="225" 
d="M102 438q-7 40 -17.5 67t-20 48.5t-16.5 42t-7 46.5q0 32 20.5 55t50.5 23q31 0 51.5 -23t20.5 -55q0 -26 -7 -46.5t-17 -42t-20 -48.5t-17 -67h-21z" />
    <glyph glyph-name="parenleft" unicode="(" horiz-adv-x="360" 
d="M333 -130h-63q-40 18 -77.5 53.5t-66.5 88.5t-46.5 122t-17.5 154t17.5 154t46.5 122t66.5 88.5t77.5 53.5h63q-33 -39 -55 -90t-34.5 -106.5t-17.5 -112.5t-5 -109t5 -109t17.5 -112.5t34.5 -106.5t55 -90z" />
    <glyph glyph-name="parenright" unicode=")" horiz-adv-x="360" 
d="M26 706h63q40 -18 77.5 -53.5t66.5 -88.5t46.5 -122t17.5 -154t-17.5 -154t-46.5 -122t-66.5 -88.5t-77.5 -53.5h-63q33 39 55 90t34.5 106.5t17.5 112.5t5 109t-5 109t-17.5 112.5t-34.5 106.5t-55 90z" />
    <glyph glyph-name="asterisk" unicode="*" horiz-adv-x="540" 
d="M179 368l-85 73l73 101h-113v102h114l-67 93l81 81l92 -130l91 123l83 -73l-68 -94h105v-102h-106l66 -92l-79 -80l-92 128z" />
    <glyph glyph-name="plus" unicode="+" horiz-adv-x="540" 
d="M48 356h151v170h141v-170h151v-107h-151v-108q0 -48 -20.5 -69.5t-65.5 -21.5h-55v199h-151v107z" />
    <glyph glyph-name="comma" unicode="," horiz-adv-x="270" 
d="M134 70q40 0 67 -26.5t27 -79.5q0 -47 -30 -95.5t-96 -86.5l-17 19q38 29 39 53t-32 41q-21 11 -36 30.5t-15 52.5q0 19 7 36t19.5 29.5t29.5 19.5t37 7z" />
    <glyph glyph-name="hyphen" unicode="-" horiz-adv-x="540" 
d="M67 359h406v-107h-406v107z" />
    <glyph glyph-name="period" unicode="." horiz-adv-x="270" 
d="M42 -22q0 19 7 36t19.5 29.5t29.5 19.5t37 7t37 -7t29.5 -19.5t19.5 -29.5t7 -36t-7 -36t-19.5 -29.5t-29.5 -19.5t-37 -7t-37 7t-29.5 19.5t-19.5 29.5t-7 36z" />
    <glyph glyph-name="slash" unicode="/" horiz-adv-x="360" 
d="M347 726l-200 -876h-135l201 876h134z" />
    <glyph glyph-name="zero" unicode="0" horiz-adv-x="585" 
d="M292 -93q-74 0 -125.5 31t-84 84t-47 123.5t-14.5 149.5t15 149t47.5 122.5t84 83t124.5 30.5t124.5 -31t84.5 -83.5t48 -122.5t15 -148t-15 -148.5t-47.5 -124t-84.5 -84.5t-125 -31zM292 574q-37 0 -61 -28.5t-37.5 -70.5t-18.5 -90.5t-5 -89.5q0 -37 5 -85.5t18.5 -92
t37.5 -74t61 -30.5t61 28.5t37.5 71t19 91.5t5.5 91q0 38 -5.5 86.5t-19 91t-37.5 72t-61 29.5z" />
    <glyph glyph-name="one" unicode="1" horiz-adv-x="495" 
d="M42 25h142v505q-19 -18 -50.5 -31t-63.5 -18l-18 96q41 11 79.5 31t65.5 46h141v-629h124v-96h-420v96z" />
    <glyph glyph-name="two" unicode="2" horiz-adv-x="585" 
d="M252 25h289v-96h-495v58q33 34 70.5 74.5t74.5 83t70.5 86.5t59.5 86.5t41.5 81t15.5 70.5q0 54 -22.5 84t-63.5 30q-51 0 -79 -43.5t-39 -115.5l-131 41q18 102 79.5 158t171.5 56q48 0 90.5 -13.5t74 -41.5t49.5 -70.5t18 -100.5q0 -36 -14.5 -76t-37.5 -81
t-52.5 -80.5t-60 -75t-59 -65t-50.5 -50.5z" />
    <glyph glyph-name="three" unicode="3" horiz-adv-x="585" 
d="M283 -98q-100 0 -162.5 47.5t-87.5 122.5l130 60q11 -61 45.5 -97.5t82.5 -36.5q54 0 85 36t31 98t-35 95.5t-95 33.5h-74v96h62q27 0 49 9.5t37.5 25.5t24 37t8.5 44q0 58 -27.5 84t-63.5 26q-38 0 -65.5 -31.5t-39.5 -82.5l-125 55q15 39 40 68t55.5 48.5t64.5 29
t67 9.5q51 0 95.5 -15.5t77.5 -42.5t52 -63.5t19 -79.5q0 -30 -10.5 -56t-26 -47t-34.5 -36t-36 -22q63 -23 95.5 -76t32.5 -115q0 -45 -18 -85.5t-52.5 -71t-85 -49t-116.5 -18.5z" />
    <glyph glyph-name="four" unicode="4" horiz-adv-x="585" 
d="M478 -74h-147v155h-298v97l310 481h135v-482h110v-96h-110v-155zM157 177h174v272z" />
    <glyph glyph-name="five" unicode="5" horiz-adv-x="585" 
d="M285 -90q-38 0 -75 9t-69.5 27.5t-58.5 47.5t-42 70l119 48q14 -47 50 -76.5t77 -29.5q33 0 56.5 14t39.5 36.5t23.5 51.5t7.5 60q0 29 -5.5 58t-18.5 52.5t-33 38t-50 14.5q-21 0 -38 -8t-30.5 -21t-22.5 -29.5t-13 -33.5l-126 23l27 392h411v-97h-280l-9 -156
q30 15 61 19t63 2q48 -3 87 -24.5t67 -55t43.5 -77t15.5 -91.5q0 -57 -19.5 -105.5t-56 -83.5t-87.5 -55t-114 -20z" />
    <glyph glyph-name="six" unicode="6" horiz-adv-x="585" 
d="M185 365q22 14 55.5 25.5t74.5 11.5q51 0 95.5 -16t76.5 -47t50.5 -77.5t18.5 -106.5q0 -50 -16.5 -95t-49 -79t-80 -53.5t-109.5 -19.5q-74 0 -125.5 32t-83.5 81.5t-46.5 109.5t-14.5 117q0 85 15 163.5t50.5 137.5t93 94.5t142.5 35.5q61 0 114.5 -30t85.5 -87
l-91 -70q-21 42 -46.5 66.5t-64.5 24.5q-35 0 -60.5 -17t-43 -46.5t-28 -69t-13.5 -85.5zM184 251q1 -40 6 -83.5t18 -79.5t35 -59.5t57 -23.5q22 0 42 11.5t34 31.5t22.5 47t8.5 59q0 80 -33.5 113.5t-84.5 33.5q-23 0 -52 -12.5t-53 -37.5z" />
    <glyph glyph-name="seven" unicode="7" horiz-adv-x="585" 
d="M535 654v-104q-75 -140 -121 -294.5t-60 -329.5h-153q20 173 69 331t117 301h-193v-120h-144v216h485z" />
    <glyph glyph-name="eight" unicode="8" horiz-adv-x="585" 
d="M386 485q0 45 -26.5 71.5t-67.5 26.5t-67 -26.5t-26 -71.5q0 -41 24.5 -70.5t68.5 -29.5q45 0 69.5 29.5t24.5 70.5zM411 129q0 31 -9.5 54t-26 39t-38 24t-45.5 8q-23 0 -44.5 -8t-38 -24t-26 -39t-9.5 -54q0 -61 30.5 -96t87.5 -35q58 0 88.5 35t30.5 96zM30 129
q0 37 10.5 68t28.5 55.5t42 42t50 27.5q-47 20 -75 64t-28 97q0 50 19.5 87t52 61t75 36t87.5 12q46 0 88.5 -12t75 -36t52 -61t19.5 -87q0 -53 -28 -97t-75 -64q26 -10 50 -27.5t42 -42t28.5 -55.5t10.5 -68q0 -53 -19.5 -95t-54 -71t-83 -44.5t-106.5 -15.5t-106 15.5
t-82.5 44.5t-54 71t-19.5 95z" />
    <glyph glyph-name="nine" unicode="9" horiz-adv-x="585" 
d="M393 248q-20 -26 -57.5 -43t-82.5 -17q-44 0 -82.5 16t-68 46t-46.5 74t-17 101q0 51 15 97.5t46 81t77 55t108 20.5q73 0 123 -32t81 -81.5t44 -109.5t13 -117q0 -82 -15.5 -159.5t-50.5 -138t-92.5 -97t-142.5 -36.5q-61 0 -101 17.5t-77 46.5l53 92q26 -25 56 -42.5
t71 -17.5q38 0 65 22t44.5 57.5t26.5 79t10 85.5zM393 378q0 44 -6.5 81.5t-19.5 64.5t-33 42.5t-48 15.5q-23 0 -41.5 -12.5t-31 -33.5t-19 -49.5t-6.5 -60.5q0 -36 8.5 -61.5t23 -42.5t33.5 -25t39 -8q34 0 62 26t39 63z" />
    <glyph glyph-name="colon" unicode=":" horiz-adv-x="270" 
d="M42 469q0 19 7 36t19.5 29.5t29.5 19.5t37 7t37 -7t29.5 -19.5t19.5 -29.5t7 -36t-7 -36t-19.5 -29.5t-29.5 -19.5t-37 -7t-37 7t-29.5 19.5t-19.5 29.5t-7 36zM42 148q0 19 7 36t19.5 29.5t29.5 19.5t37 7t37 -7t29.5 -19.5t19.5 -29.5t7 -36t-7 -36t-19.5 -29.5
t-29.5 -19.5t-37 -7t-37 7t-29.5 19.5t-19.5 29.5t-7 36z" />
    <glyph glyph-name="semicolon" unicode=";" horiz-adv-x="270" 
d="M134 240q40 0 67 -26.5t27 -79.5q0 -47 -30 -95.5t-96 -86.5l-17 19q38 29 39 53t-32 41q-21 11 -36 30.5t-15 52.5q0 19 7 36t19.5 29.5t29.5 19.5t37 7zM41 469q0 19 7 36t19.5 29.5t29.5 19.5t37 7t37 -7t29.5 -19.5t19.5 -29.5t7 -36t-7 -36t-19.5 -29.5t-29.5 -19.5
t-37 -7t-37 7t-29.5 19.5t-19.5 29.5t-7 36z" />
    <glyph glyph-name="less" unicode="&#x3c;" horiz-adv-x="540" 
d="M81 346l413 269v-145l-263 -174l263 -176v-144l-413 269v101z" />
    <glyph glyph-name="equal" unicode="=" horiz-adv-x="540" 
d="M76 459h388v-105h-388v105zM76 259h388v-105h-388v105z" />
    <glyph glyph-name="greater" unicode="&#x3e;" horiz-adv-x="540" 
d="M458 245l-413 -269v144l263 176l-263 174v145l413 -269v-101z" />
    <glyph glyph-name="question" unicode="?" horiz-adv-x="495" 
d="M159 178q0 40 12 73.5t29.5 62t38 53.5t38 49.5t29.5 50t12 54.5q0 47 -18.5 71t-53.5 24q-21 0 -35.5 -11.5t-23.5 -31t-13.5 -45t-4.5 -54.5h-139q-1 66 14.5 112t43.5 75t67.5 42.5t87.5 13.5q51 0 92 -15t70 -41.5t44.5 -63t15.5 -80.5q0 -40 -12 -70.5t-30.5 -56
t-39.5 -48t-39.5 -47t-30.5 -53t-12 -65.5v-33h-142v34zM138 -22q0 19 7 36t19.5 29.5t29.5 19.5t37 7t37 -7t29.5 -19.5t19.5 -29.5t7 -36t-7 -36t-19.5 -29.5t-29.5 -19.5t-37 -7t-37 7t-29.5 19.5t-19.5 29.5t-7 36z" />
    <glyph glyph-name="at" unicode="@" 
d="M382 199q-2 -26 13 -36.5t38 -10.5q18 0 41 6.5t43 14.5q1 25 4.5 55.5t6.5 53.5q-13 -1 -27.5 -3t-31.5 -7q-32 -6 -57.5 -25t-29.5 -48zM750 351q0 73 -22.5 126t-61 87.5t-90 51.5t-110.5 17q-65 0 -122 -25t-99 -71.5t-66 -111.5t-24 -146q0 -74 23 -135t66 -105
t104 -68.5t137 -24.5q80 0 158.5 19.5t137.5 70.5l38 -62q-33 -33 -73.5 -56.5t-84.5 -39t-89 -22.5t-87 -7q-98 0 -181 29t-143 84t-94 135t-34 182q0 109 36 193t96.5 141.5t139.5 87t164 29.5q87 0 160 -25t126 -72t82.5 -114t29.5 -152q0 -93 -25 -156t-62.5 -101.5
t-81 -54.5t-80.5 -16q-42 0 -71.5 14.5t-34.5 41.5q-25 -12 -59.5 -23.5t-63.5 -11.5q-34 0 -63 8t-49.5 25.5t-30.5 44.5t-6 65t23.5 64.5t47.5 44.5t61.5 28t65.5 15q24 2 49 4.5t48 3.5q0 44 -16 61.5t-42 17.5q-32 0 -61.5 -18.5t-56.5 -51.5l-77 68q34 47 86 71t114 24
q43 0 79 -12t61.5 -36t38.5 -60t10 -85l-8 -91l-10 -88q-1 -10 1.5 -18t13.5 -8q18 0 33 16t26 44.5t17 67.5t6 86z" />
    <glyph glyph-name="A" unicode="A" horiz-adv-x="706" 
d="M27 -71l262 722h128l262 -722h-158l-50 160h-236l-51 -160h-157zM265 186h175l-87 278z" />
    <glyph glyph-name="B" unicode="B" horiz-adv-x="639" 
d="M45 -71v647q0 14 -5 26.5t-19 18.5l183 60v-30h107q70 0 120 -14.5t81 -40t45.5 -61t14.5 -77.5q0 -46 -25 -84.5t-66 -57.5q29 -11 51.5 -28.5t38.5 -40.5t24 -50t8 -55q0 -42 -16 -81t-49.5 -68t-86.5 -46.5t-127 -17.5h-279zM319 26q60 0 94.5 30.5t34.5 85.5
q0 56 -34.5 88t-94.5 32h-115v-236h115zM288 554h-84v-197h102q23 0 43.5 5.5t35.5 17.5t24 31.5t9 46.5q0 55 -35 75.5t-95 20.5z" />
    <glyph glyph-name="C" unicode="C" horiz-adv-x="673" 
d="M198 293q0 -71 13 -126t35 -92.5t52 -57t65 -19.5q32 0 56 13t41 35.5t26.5 52.5t12.5 63l156 -24q-11 -60 -38 -104t-67 -73.5t-90 -44t-106 -14.5q-70 0 -128.5 24t-100.5 72.5t-65.5 122t-23.5 172.5q0 97 25 170t69 122.5t105 74.5t133 25q55 0 103.5 -17t85 -47
t57.5 -70.5t21 -87.5q0 -38 -24.5 -60.5t-60.5 -22.5q-56 0 -82 52q12 24 12 52t-12 51t-37 38.5t-63 15.5q-76 0 -123 -77t-47 -219z" />
    <glyph glyph-name="D" unicode="D" horiz-adv-x="672" 
d="M45 -71v647q0 14 -5 26.5t-19 18.5l183 60v-30h117q67 0 124.5 -26.5t100 -74t66.5 -114t24 -146.5t-24 -146.5t-66.5 -114t-100 -74t-124.5 -26.5h-276zM293 554h-89v-528h89q87 0 135.5 70t48.5 194t-48.5 194t-135.5 70z" />
    <glyph glyph-name="E" unicode="E" horiz-adv-x="583" 
d="M45 576q0 14 -5 26.5t-19 18.5l183 60v-30h330v-97h-330v-188h312v-97h-312v-243h357v-97h-516v647z" />
    <glyph glyph-name="F" unicode="F" horiz-adv-x="547" 
d="M204 -71h-159v647q0 14 -5 26.5t-19 18.5l183 60v-30h321v-97h-321v-208h307v-97h-307v-320z" />
    <glyph glyph-name="G" unicode="G" horiz-adv-x="695" 
d="M198 293q0 -71 13.5 -126t36.5 -92.5t53.5 -57t65.5 -19.5q33 0 59 14.5t44.5 37.5t28 53t9.5 61v56h-149v97h309v-145q0 -60 -26 -110.5t-69.5 -86t-99.5 -55t-115 -18.5q-70 1 -129 25t-102 72t-67 121t-24 173q0 97 25.5 170t69.5 122.5t103.5 74.5t128.5 25
q63 0 114.5 -17t88.5 -45t57.5 -64.5t20.5 -75.5q0 -38 -24.5 -60.5t-60.5 -22.5q-56 0 -82 52q9 22 6.5 46t-16.5 44t-40 33.5t-64 13.5q-35 0 -65 -19.5t-52 -57.5t-35 -93t-13 -126z" />
    <glyph glyph-name="H" unicode="H" horiz-adv-x="670" 
d="M625 -71h-159v343h-262v-343h-159v647q0 14 -5 26.5t-19 18.5l183 60v-312h262v207q0 14 -5 26.5t-19 18.5l183 60v-752z" />
    <glyph glyph-name="I" unicode="I" horiz-adv-x="249" 
d="M204 -71h-159v647q0 14 -5 26.5t-19 18.5l183 60v-752z" />
    <glyph glyph-name="J" unicode="J" horiz-adv-x="316" 
d="M271 206q0 -71 -16 -130.5t-50.5 -104.5t-90.5 -74t-135 -38v20q44 19 70 47.5t40 70t18.5 98t4.5 131.5v350q0 14 -5.5 26.5t-19.5 18.5l184 60v-475z" />
    <glyph glyph-name="K" unicode="K" horiz-adv-x="678" 
d="M204 -71h-159v647q0 14 -5 26.5t-19 18.5l183 60v-308l232 278h177l-275 -317l311 -405h-180l-220 301l-45 -52v-249z" />
    <glyph glyph-name="L" unicode="L" horiz-adv-x="562" 
d="M45 -71v647q0 14 -5 26.5t-19 18.5l183 60v-655h349v-97h-508z" />
    <glyph glyph-name="M" unicode="M" horiz-adv-x="860" 
d="M815 651v-722h-154v454l-196 -363v-1h-75l-190 389v-479h-155v647q0 14 -5 26.5t-19 18.5l179 60l228 -472l233 441v1h154z" />
    <glyph glyph-name="N" unicode="N" horiz-adv-x="679" 
d="M200 681l279 -505v400q0 14 -5.5 26.5t-19.5 18.5l180 60v-752h-155v2l-279 503v-505h-155v647q0 14 -5 26.5t-19 18.5z" />
    <glyph glyph-name="O" unicode="O" horiz-adv-x="716" 
d="M198 293q0 -68 12 -122.5t33.5 -92.5t50.5 -59t64 -21q34 0 63.5 21t51.5 59.5t34 93t12 121.5t-12 121.5t-34 93.5t-51.5 60t-63.5 21q-35 0 -64 -21t-50.5 -59.5t-33.5 -93.5t-12 -122zM36 293q0 94 24.5 167t68 123t102 76t127.5 26t127.5 -26t102 -75.5t68 -123
t24.5 -167.5q0 -95 -24 -167.5t-67 -122.5t-102 -75.5t-129 -25.5t-129 26t-102 75.5t-67 122.5t-24 167z" />
    <glyph glyph-name="P" unicode="P" horiz-adv-x="652" 
d="M204 -71h-159v647q0 14 -5 26.5t-19 18.5l183 60v-30h133q74 0 127 -18t86.5 -49.5t49.5 -74t16 -92.5t-16 -92.5t-49.5 -74t-86.5 -49.5t-127 -18h-133v-254zM328 554h-124v-274h124q60 0 94.5 37.5t34.5 99.5q0 63 -34.5 100t-94.5 37z" />
    <glyph glyph-name="Q" unicode="Q" horiz-adv-x="716" 
d="M36 293q0 94 24.5 167t68 123t102 76t127.5 26t127.5 -26t102 -75.5t68 -123t24.5 -167.5q0 -121 -38.5 -205.5t-104.5 -131.5l48 -116h-135l-28 68q-32 -6 -64 -6q-70 0 -129 26t-102 75.5t-67 122.5t-24 167zM425 229l56 -136q18 38 28 88t10 112q0 67 -12 121.5
t-34 93.5t-51.5 60t-63.5 21q-35 0 -64 -21t-50.5 -59.5t-33.5 -93.5t-12 -122q0 -68 12 -122.5t33.5 -92.5t50.5 -59t64 -21q13 0 25 3l-92 228h134z" />
    <glyph glyph-name="R" unicode="R" horiz-adv-x="680" 
d="M202 -71h-157v647q0 14 -5 26.5t-19 18.5l183 60v-30h133q71 0 122 -17.5t84 -48t48.5 -71.5t15.5 -87q0 -65 -30 -116.5t-95 -80.5l173 -301h-175l-140 274h-136zM319 554h-115v-254h115q60 0 94.5 35t34.5 92t-34.5 92t-94.5 35z" />
    <glyph glyph-name="S" unicode="S" horiz-adv-x="620" 
d="M224 493q0 -27 12 -48t33 -38.5t49.5 -33t61.5 -31.5q42 -21 81.5 -43.5t69.5 -50t48.5 -62.5t18.5 -80t-19.5 -82.5t-54.5 -64.5t-84 -42t-109 -15q-118 0 -190.5 47t-104.5 137l139 54q8 -27 19.5 -53t28.5 -45.5t41.5 -31.5t58.5 -12q51 0 83 25t32 75
q0 25 -11.5 44.5t-32.5 36t-49.5 32t-61.5 31.5q-42 20 -81 42.5t-69.5 51t-49 66t-18.5 87.5q0 44 18 80.5t51.5 62t80.5 39.5t104 14q48 0 91 -11.5t75.5 -33.5t51 -52.5t18.5 -69.5q0 -43 -24 -61.5t-55 -18.5q-60 0 -83 46q11 16 11.5 34.5t-9 34t-28.5 26t-46 10.5
q-26 0 -44.5 -8.5t-30 -22t-17 -30.5t-5.5 -35z" />
    <glyph glyph-name="T" unicode="T" horiz-adv-x="598" 
d="M382 -71h-160v625h-200v97h554v-97h-194v-625z" />
    <glyph glyph-name="U" unicode="U" horiz-adv-x="671" 
d="M626 248q0 -177 -75.5 -261.5t-214.5 -84.5q-140 0 -215.5 84.5t-75.5 261.5v328q0 14 -5 26.5t-19 18.5l183 60v-433q0 -128 34.5 -189t97.5 -61t97 61t34 189v328q0 14 -5 26.5t-19 18.5l183 60v-433z" />
    <glyph glyph-name="V" unicode="V" horiz-adv-x="679" 
d="M508 651h157l-257 -722h-137l-258 722h158l168 -522z" />
    <glyph glyph-name="W" unicode="W" horiz-adv-x="921" 
d="M395 601h131l114 -460l110 510h157l-188 -722h-152l-107 428l-106 -428h-152l-189 722h158l111 -510z" />
    <glyph glyph-name="X" unicode="X" horiz-adv-x="652" 
d="M457 651h165l-208 -347l224 -375h-165l-147 261l-148 -261h-165l225 375l-208 347h164l132 -234z" />
    <glyph glyph-name="Y" unicode="Y" horiz-adv-x="643" 
d="M467 651h162l-228 -404v-318h-159v317l-229 405h162l146 -277z" />
    <glyph glyph-name="Z" unicode="Z" horiz-adv-x="601" 
d="M565 -71h-525v97l337 528h-311v97h490v-97l-338 -528h347v-97z" />
    <glyph glyph-name="bracketleft" unicode="[" horiz-adv-x="360" 
d="M75 706h245v-92h-100v-652h100v-92h-245v836z" />
    <glyph glyph-name="backslash" unicode="\" horiz-adv-x="360" 
d="M146 726l201 -876h-135l-200 876h134z" />
    <glyph glyph-name="bracketright" unicode="]" horiz-adv-x="360" 
d="M284 -130h-245v92h100v652h-100v92h245v-836z" />
    <glyph glyph-name="asciicircum" unicode="^" horiz-adv-x="450" 
d="M281 720l141 -286h-130l-68 159l-67 -159h-130l141 286h113z" />
    <glyph glyph-name="underscore" unicode="_" horiz-adv-x="540" 
d="M22 16h496v-107h-496v107z" />
    <glyph glyph-name="grave" unicode="`" horiz-adv-x="270" 
d="M233 466q-30 23 -57 38t-50.5 27.5t-44 25t-36.5 31.5q-21 23 -23 53t20 54t49.5 22t47.5 -25q17 -18 28.5 -40.5t22.5 -49t24 -56.5t34 -63z" />
    <glyph glyph-name="a" unicode="a" horiz-adv-x="573" 
d="M528 -71h-155v33q-32 -19 -74.5 -33t-93.5 -14q-81 0 -129.5 40.5t-48.5 123.5q0 40 20.5 70t52 51.5t70.5 34t77 17.5q29 4 64 6t62 3q-5 62 -29.5 90t-61.5 28q-42 0 -76 -24t-60 -62l-95 74q36 53 94.5 80.5t133.5 27.5q52 0 97.5 -13t79 -40.5t53 -71.5t19.5 -106
v-315zM189 73q0 -34 22 -47.5t56 -13.5q27 0 55 9t51 22v136q-18 -2 -39.5 -4.5t-41.5 -7.5t-39 -13t-33 -20t-22.5 -27t-8.5 -34z" />
    <glyph glyph-name="b" unicode="b" horiz-adv-x="567" 
d="M317 -85q-33 0 -61 9.5t-57 26.5v-22h-154v647q0 14 -5 26.5t-19 18.5l179 60v-260q24 17 54.5 28t63.5 11q54 0 95 -20.5t69.5 -57t43 -88t14.5 -113.5q0 -59 -15.5 -108t-45 -84t-70.5 -54.5t-92 -19.5zM385 177q0 53 -10 89t-26 57.5t-35 30.5t-38 9q-23 0 -42 -7
t-34 -18v-310q15 -7 33.5 -11.5t36.5 -4.5q22 0 43 9.5t37 29.5t25.5 51t9.5 75z" />
    <glyph glyph-name="c" unicode="c" horiz-adv-x="567" 
d="M304 475q48 0 90.5 -13t74 -36.5t49.5 -57t18 -75.5q0 -38 -23 -60.5t-59 -22.5q-28 0 -48.5 15t-32.5 37q9 22 8.5 43t-9.5 37.5t-26.5 26.5t-41.5 10q-28 0 -49.5 -14.5t-36 -40t-22 -60.5t-7.5 -76t7.5 -75.5t22 -60t36 -40t49.5 -14.5q23 0 39.5 12t27.5 30t17.5 40
t9.5 43l147 -34q-8 -39 -26 -73t-47.5 -59.5t-71 -40t-96.5 -14.5t-105 19.5t-88.5 56.5t-61 90t-22.5 120t22.5 120t61 90t88.5 57t105 20z" />
    <glyph glyph-name="d" unicode="d" horiz-adv-x="600" 
d="M555 -71h-155v45q-26 -25 -63 -42t-79 -17q-54 0 -95 21t-69.5 58.5t-43 90t-14.5 114.5q0 59 15.5 108.5t45 85.5t70.5 56.5t92 20.5q37 0 74 -12t67 -32v150q0 14 -5 26.5t-19 18.5l179 60v-752zM191 203q0 -53 10 -89.5t25.5 -59t35 -32.5t38.5 -10q33 0 58 13.5
t42 30.5v288q-17 11 -42.5 20t-51.5 9q-23 0 -43.5 -10.5t-36.5 -31.5t-25.5 -53t-9.5 -75z" />
    <glyph glyph-name="e" unicode="e" horiz-adv-x="582" 
d="M409 96l142 -45q-29 -72 -95 -110.5t-152 -38.5q-55 0 -105 19.5t-88.5 56.5t-61 90t-22.5 120t22 120t59 90t85 57t100 20q57 0 105.5 -19t83 -54t54 -84.5t19.5 -110.5v-56h-365q6 -70 34.5 -111.5t79.5 -41.5q47 0 72 28t33 70zM401 248q-5 56 -29.5 93.5t-69.5 37.5
q-46 0 -73.5 -35.5t-35.5 -95.5h208z" />
    <glyph glyph-name="f" unicode="f" horiz-adv-x="441" 
d="M4 455h82v20q0 51 10.5 91.5t33 69t58 43.5t85.5 15q32 0 61 -8t50.5 -23.5t34.5 -38.5t13 -53t-16.5 -50t-45.5 -20q-41 0 -60 37q8 7 10 17.5t-2 20.5t-13 16.5t-22 6.5q-18 0 -30 -15.5t-12 -40.5v-88h119v-97h-119v-429h-155v429h-82v97z" />
    <glyph glyph-name="g" unicode="g" horiz-adv-x="596" 
d="M481 437q-16 0 -33 -14q32 -23 53 -54t21 -81q0 -44 -19.5 -78t-53.5 -57t-79 -35t-96 -12q-16 0 -32 -0.5t-29 -3t-21 -7t-8 -11.5q0 -17 28 -25t70.5 -12.5t91.5 -9t91.5 -15.5t70.5 -32.5t28 -59.5q0 -41 -25 -69.5t-64 -46.5t-87.5 -26.5t-95.5 -8.5q-44 0 -91 7.5
t-85.5 23.5t-63.5 40t-25 57q0 18 8 32.5t20 27t26.5 22t28.5 17.5q-32 16 -48 28.5t-16 38.5q0 28 25 47.5t60 30.5q-40 18 -66.5 52t-26.5 85q0 52 22 87t56.5 56t77.5 30t86 9q31 0 63 -5.5t61 -17.5q27 35 61.5 53.5t64.5 18.5q31 0 49.5 -19.5t18.5 -48.5
q0 -32 -15 -48t-38 -16q-32 0 -46 22q6 11 -0.5 19.5t-17.5 8.5zM219 -19q-15 -12 -25.5 -27t-10.5 -30t11.5 -24.5t30 -14.5t41.5 -7t46 -2q40 0 68.5 11.5t28.5 35.5q0 17 -23 27t-54.5 16t-63.5 9t-49 6zM280 203q36 0 61 20t25 65t-25 65t-61 20q-37 0 -62 -19.5
t-25 -65.5t25 -65.5t62 -19.5z" />
    <glyph glyph-name="h" unicode="h" horiz-adv-x="567" 
d="M522 -71h-155v342q0 51 -21 78.5t-72 27.5q-20 0 -39.5 -4t-34.5 -10v-434h-155v647q0 14 -5 26.5t-19 18.5l179 60v-229q29 12 58 17t63 5q63 0 102.5 -18.5t61.5 -47t29.5 -63.5t7.5 -68v-348z" />
    <glyph glyph-name="i" unicode="i" horiz-adv-x="245" 
d="M200 -71h-155v417q0 14 -5 26.5t-19 18.5l179 60v-522zM200 681v-155h-155v155h155z" />
    <glyph glyph-name="j" unicode="j" horiz-adv-x="248" 
d="M203 681v-155h-154v155h154zM203 124q0 -71 -15.5 -130.5t-51 -104.5t-94 -74t-144.5 -38v20q50 19 80 47.5t45.5 70.5t20.5 98t5 131v202q0 14 -5.5 26.5t-19.5 18.5l179 60v-327z" />
    <glyph glyph-name="k" unicode="k" horiz-adv-x="552" 
d="M200 -71h-155v647q0 14 -5 26.5t-19 18.5l179 60v-400l149 174h174l-195 -209l231 -317h-178l-143 219l-38 -41v-178z" />
    <glyph glyph-name="l" unicode="l" horiz-adv-x="245" 
d="M200 -71h-155v647q0 14 -5 26.5t-19 18.5l179 60v-752z" />
    <glyph glyph-name="m" unicode="m" horiz-adv-x="830" 
d="M785 -71h-151v338q0 51 -19 78.5t-56 27.5q-41 0 -73 -29q11 -38 11 -71v-344h-151v338q0 51 -17 78.5t-58 27.5q-22 0 -41 -7.5t-34 -20.5v-416h-151v452q0 14 -5 26.5t-19 18.5l175 60v-52q26 17 58.5 26.5t63.5 9.5q47 0 79.5 -16.5t53.5 -42.5q37 34 79.5 46.5
t84.5 12.5q49 0 82 -18.5t52.5 -47t27.5 -63.5t8 -68v-344z" />
    <glyph glyph-name="n" unicode="n" horiz-adv-x="567" 
d="M200 486v-46q29 14 59 22t62 8q60 0 99 -18.5t61.5 -47t31.5 -63.5t9 -68v-344h-155v338q0 51 -21 78.5t-72 27.5q-20 0 -39.5 -6.5t-34.5 -14.5v-423h-155v452q0 14 -5 26.5t-19 18.5z" />
    <glyph glyph-name="o" unicode="o" horiz-adv-x="608" 
d="M189 188q0 -41 7.5 -75.5t22 -60t36 -40t49.5 -14.5t50 14.5t36.5 40t22 60.5t7.5 75t-7.5 75t-22.5 60.5t-36.5 40.5t-49.5 15t-49.5 -14.5t-36 -40t-22 -60.5t-7.5 -76zM27 188q0 67 22.5 120t61 90t88.5 57t105 20t105.5 -20t88.5 -57t60.5 -90t22.5 -120t-22.5 -120
t-60.5 -90t-88.5 -56.5t-105.5 -19.5t-105 19.5t-88.5 56.5t-61 90t-22.5 120z" />
    <glyph glyph-name="p" unicode="p" horiz-adv-x="591" 
d="M200 -223h-155v604q0 14 -5 26.5t-19 18.5l179 60v-60q29 20 66.5 32t74.5 12q51 0 92 -20t70.5 -56t45 -85.5t15.5 -108.5q0 -62 -14.5 -114.5t-43 -90.5t-69.5 -59t-95 -21q-42 0 -79 17t-63 42v-197zM409 204q0 43 -9.5 75t-25 53t-36.5 31t-44 10q-26 0 -51.5 -9
t-42.5 -20v-288q17 -17 42 -30.5t59 -13.5q18 0 37.5 10t35 32.5t25.5 59t10 90.5z" />
    <glyph glyph-name="q" unicode="q" horiz-adv-x="600" 
d="M555 -223h-155v182q-30 -20 -67 -32t-74 -12q-51 0 -92 20.5t-70.5 56.5t-45 85.5t-15.5 108.5q0 62 14.5 114.5t43 90t69.5 58.5t95 21q34 0 65.5 -12t57.5 -31l174 59v-709zM191 182q0 -44 9.5 -76t25.5 -53t36.5 -31t43.5 -10q26 0 51.5 9t42.5 20v287q-17 17 -42 31
t-58 14q-19 0 -38.5 -10t-35 -32.5t-25.5 -59t-10 -89.5z" />
    <glyph glyph-name="r" unicode="r" horiz-adv-x="441" 
d="M200 486v-83q35 32 72.5 50t69.5 18q42 0 67 -21.5t25 -59.5q0 -35 -19.5 -58.5t-54.5 -23.5q-23 0 -41.5 5t-31.5 18q5 13 -1 22t-17 9q-14 0 -33 -8.5t-36 -24.5v-400h-155v452q0 14 -5 26.5t-19 18.5z" />
    <glyph glyph-name="s" unicode="s" horiz-adv-x="536" 
d="M495 346q0 -36 -23 -52t-53 -16q-56 0 -78 39q6 9 7 19.5t-5 20t-20 16t-38 6.5q-29 0 -49.5 -16t-20.5 -41q0 -29 35.5 -51.5t89.5 -45.5q39 -16 71.5 -31t56.5 -33t37 -41.5t13 -55.5q0 -33 -17 -62.5t-48.5 -51.5t-76.5 -35t-102 -13q-53 0 -94 10t-72 28.5t-52 44
t-34 55.5l132 48q16 -45 50 -67.5t72 -22.5q40 0 62.5 16t22.5 44q0 15 -6.5 25.5t-20.5 19.5t-35.5 18.5t-50.5 22.5q-40 18 -75 35.5t-60.5 37.5t-40 45t-14.5 60q0 33 15.5 61t45 48.5t71 32t93.5 11.5q48 0 87 -11t67 -29t43 -41.5t15 -47.5z" />
    <glyph glyph-name="t" unicode="t" horiz-adv-x="396" 
d="M22 455h82v91q0 14 -5 26.5t-19 18.5l179 60v-196h110v-97h-110v-297q0 -38 11 -51t34 -13q17 0 32 6t27 14l19 -80q-29 -21 -58.5 -28t-58.5 -7q-87 0 -124 43.5t-37 145.5v267h-82v97z" />
    <glyph glyph-name="u" unicode="u" horiz-adv-x="567" 
d="M522 486v-557h-155v32q-26 -21 -60 -33.5t-71 -12.5q-54 0 -90.5 18.5t-59 47.5t-32 64t-9.5 67v262q0 14 -5 26.5t-19 18.5l179 60v-361q0 -51 20 -78.5t57 -27.5q29 0 51 11.5t39 26.5v331q0 14 -5 26.5t-19 18.5z" />
    <glyph glyph-name="v" unicode="v" horiz-adv-x="550" 
d="M274 90l102 365h160l-189 -529h-144l-190 529h162z" />
    <glyph glyph-name="w" unicode="w" horiz-adv-x="769" 
d="M603 455h152l-145 -529h-147l-79 306l-78 -306h-148l-145 529h153l72 -355l80 325h133l79 -325z" />
    <glyph glyph-name="x" unicode="x" horiz-adv-x="562" 
d="M373 455h168l-175 -250l191 -276h-167l-109 167l-109 -167h-168l191 276l-174 250h167l93 -142z" />
    <glyph glyph-name="y" unicode="y" horiz-adv-x="532" 
d="M128 -222l75 205l-199 472h162l109 -300l92 300h160l-250 -677h-149z" />
    <glyph glyph-name="z" unicode="z" horiz-adv-x="535" 
d="M499 -71h-459v97l264 332h-243v97h422v-97l-265 -332h281v-97z" />
    <glyph glyph-name="braceleft" unicode="{" horiz-adv-x="360" 
d="M39 346q18 2 34 8.5t29 32.5q7 14 9.5 35t2 45t-2.5 49t-3 48q-2 38 8.5 65t29.5 44t45 25t56 8h93v-92h-34q-23 0 -38 -11.5t-20 -34.5q-3 -18 -1 -40.5t5 -45.5t5 -45.5t-2 -41.5q-6 -32 -28 -61t-59 -46q37 -17 59 -46t28 -61q4 -19 2 -41.5t-5 -45.5t-5 -45.5
t1 -40.5q5 -23 20 -34.5t38 -11.5h34v-92h-93q-30 0 -56 8t-45 25t-29.5 44t-8.5 65q1 23 3 48t2.5 49t-2 45t-9.5 35q-13 26 -29 32.5t-34 8.5v116z" />
    <glyph glyph-name="bar" unicode="|" horiz-adv-x="540" 
d="M340 746v-825q0 -48 -20.5 -69.5t-65.5 -21.5h-55v916h141z" />
    <glyph glyph-name="braceright" unicode="}" horiz-adv-x="360" 
d="M321 230q-18 -2 -34 -8.5t-29 -32.5q-7 -14 -9.5 -35t-2 -45t2 -49t3.5 -48q2 -38 -8.5 -65t-29.5 -44t-45.5 -25t-56.5 -8h-92v92h34q23 0 38 11.5t20 34.5q3 18 1 40.5t-5 45.5t-5 45.5t2 41.5q6 32 28 61t59 46q-37 17 -59 46t-28 61q-4 19 -2 41.5t5 45.5t5 45.5
t-1 40.5q-5 23 -20 34.5t-38 11.5h-34v92h92q30 0 56.5 -8t45.5 -25t29.5 -44t8.5 -65q-2 -23 -3.5 -48t-2 -49t2 -45t9.5 -35q13 -26 29 -32.5t34 -8.5v-116z" />
    <glyph glyph-name="asciitilde" unicode="~" horiz-adv-x="540" 
d="M24 294q9 16 24 33.5t34 32.5t42 24.5t49 9.5q33 0 59.5 -12t49.5 -27t43.5 -27t41.5 -12q17 0 30 6t24 15t19.5 20.5t16.5 22.5l58 -76q-9 -16 -24 -33.5t-34 -32.5t-42 -24.5t-49 -9.5q-33 0 -59.5 12t-49 27t-43 27t-41.5 12q-17 0 -30.5 -6t-24 -15t-19.5 -20.5
t-17 -22.5z" />
    <glyph glyph-name="uni00A0" unicode="&#xa0;" horiz-adv-x="280" 
 />
    <glyph glyph-name="exclamdown" unicode="&#xa1;" horiz-adv-x="270" 
d="M195 350l9 -304v-148q0 -14 5.5 -26.5t19.5 -18.5l-184 -60v253l9 304h141zM217 516q0 -19 -7 -36t-19.5 -29.5t-29.5 -19.5t-37 -7t-37 7t-29.5 19.5t-19.5 29.5t-7 36t7 36t19.5 29.5t29.5 19.5t37 7t37 -7t29.5 -19.5t19.5 -29.5t7 -36z" />
    <glyph glyph-name="cent" unicode="&#xa2;" horiz-adv-x="636" 
d="M379 726v-144q41 -5 77 -20t63 -38t42.5 -53.5t15.5 -67.5q0 -38 -23 -60.5t-60 -22.5q-28 0 -48 15t-32 37q14 33 3 62.5t-38 43.5v-357q26 17 41 49t19 63l147 -34q-8 -35 -24 -66t-42 -55.5t-61 -41t-80 -22.5v-164h-105v168q-46 10 -87 33.5t-71.5 59t-48 83
t-17.5 104.5t17.5 104t48 83t71.5 59.5t87 33.5v148h105zM274 130v336q-29 -23 -45.5 -67t-16.5 -101t16 -101t46 -67z" />
    <glyph glyph-name="sterling" unicode="&#xa3;" horiz-adv-x="644" 
d="M106 342h90q-8 20 -17.5 39t-18 38.5t-14 39.5t-5.5 42q0 38 13.5 71.5t37.5 58.5t57 39.5t73 14.5q42 0 75 -15t57 -39.5t38.5 -55.5t19.5 -62l-114 -33q-12 44 -28 70t-49 26q-26 0 -41 -16.5t-15 -47.5q0 -16 7.5 -35t17 -40.5t19 -45.5t14.5 -49h141v-109h-133
q-4 -42 -18.5 -90.5t-43.5 -88.5q15 -1 36.5 -6t45 -11t47 -11t42.5 -5q21 0 51 12.5t51 34.5l52 -95q-26 -26 -65 -43.5t-83 -17.5q-23 0 -48.5 5.5t-51.5 12t-52 12t-50 5.5q-23 0 -53 -10t-72 -39l-69 91q37 19 65 48t47.5 62t31 67.5t16.5 66.5h-104v109z" />
    <glyph glyph-name="currency" unicode="&#xa4;" 
d="M317 29l-52 -80h-168l123 178q-38 64 -38 151q0 48 12 89t33 75l-114 163h168l47 -72q59 32 131 32q61 0 117 -25l43 65h168l-105 -150q25 -35 39.5 -79.5t14.5 -97.5q0 -49 -12 -90.5t-35 -75.5l114 -163h-168l-47 73q-60 -30 -129 -30q-77 0 -142 37zM344 278
q0 -41 7.5 -75.5t21.5 -60t35.5 -40t50.5 -14.5q28 0 50 14.5t36.5 40t22 60.5t7.5 75t-7.5 75t-22.5 60.5t-36.5 40.5t-49.5 15t-49.5 -14.5t-36 -40t-22 -60.5t-7.5 -76z" />
    <glyph glyph-name="yen" unicode="&#xa5;" horiz-adv-x="716" 
d="M164 149h115v65h-115v95h79l-193 342h162l146 -277l146 277h162l-194 -342h80v-95h-114v-65h114v-95h-114v-125h-159v125h-115v95z" />
    <glyph glyph-name="section" unicode="&#xa7;" horiz-adv-x="500" 
d="M242 -43q-72 0 -112 31t-59 80l95 38q11 -36 32 -54t49 -18q29 0 43.5 12.5t14.5 35.5q0 24 -20 36t-61 33q-29 15 -54 28.5t-44 29.5t-29.5 36.5t-10.5 47.5q0 33 18 59.5t50 43.5q-34 18 -53.5 41t-19.5 61q0 27 12 50.5t35 41t55.5 28t73.5 10.5q72 0 112 -31t59 -80
l-95 -38q-23 72 -81 72q-29 0 -43.5 -12.5t-14.5 -35.5q0 -24 20 -36t61 -33q29 -15 54 -28.5t44 -29.5t29.5 -36.5t10.5 -47.5q0 -33 -18 -60t-50 -43q33 -19 53 -41.5t20 -60.5q0 -27 -12 -50.5t-35 -41t-55.5 -28t-73.5 -10.5zM200 293q0 -24 30 -45q4 -2 9 -2h10
q21 0 35.5 13t14.5 33q0 13 -8.5 23.5t-22.5 21.5q-10 2 -18 2q-21 0 -35.5 -13t-14.5 -33z" />
    <glyph glyph-name="dieresis" unicode="&#xa8;" horiz-adv-x="500" 
d="M64 639q0 34 23 57.5t58 23.5t58.5 -23.5t23.5 -57.5q0 -33 -23.5 -56.5t-58.5 -23.5t-58 23.5t-23 56.5zM273 639q0 34 23 57.5t58 23.5t58.5 -23.5t23.5 -57.5q0 -33 -23.5 -56.5t-58.5 -23.5t-58 23.5t-23 56.5z" />
    <glyph glyph-name="ordfeminine" unicode="&#xaa;" horiz-adv-x="500" 
d="M417 412q0 -40 -42 -40h-65v20q-23 -12 -52.5 -20.5t-64.5 -8.5q-56 0 -89.5 25.5t-33.5 76.5q0 25 14 43.5t36 32t49.5 21.5t53.5 11q19 2 43 3t43 2q-2 38 -19.5 51t-43.5 13q-55 0 -94 -48l-65 51q25 32 65.5 49.5t91.5 17.5q36 0 67.5 -8t55 -25.5t37 -44.5t13.5 -66
v-156zM69 316h362v-77h-362v77zM182 461q0 -17 15.5 -22.5t38.5 -5.5q19 0 38.5 5.5t35.5 13.5v66q-26 -2 -57 -8q-28 -6 -49.5 -17.5t-21.5 -31.5z" />
    <glyph glyph-name="guillemotleft" unicode="&#xab;" horiz-adv-x="800" 
d="M530 641l44 -65l-366 -280l361 -289l-45 -67l-444 354zM716 641l43 -67l-366 -278l365 -289l-49 -67l-443 354z" />
    <glyph glyph-name="logicalnot" unicode="&#xac;" 
d="M774 412v-323h-159v226h-489v97h648z" />
    <glyph glyph-name="uni00AD" unicode="&#xad;" horiz-adv-x="600" 
d="M74 359h452v-107h-452v107z" />
    <glyph glyph-name="registered" unicode="&#xae;" horiz-adv-x="1064" 
d="M499 -173q-98 0 -185.5 35t-153.5 97t-105 146t-39 182q0 95 38 179t104 146.5t154 99t187 36.5q97 0 184.5 -35.5t154 -97.5t106 -146.5t39.5 -181.5q0 -93 -37 -176.5t-101.5 -146.5t-153.5 -100t-192 -37zM514 490h-99v-197h99q51 0 81.5 27t30.5 72t-30.5 71.5
t-81.5 26.5zM415 5h-137v503q0 11 -5 20t-16 14l158 47v-23h115q61 0 105 -13.5t72.5 -37.5t42 -55.5t13.5 -67.5q0 -51 -26 -91.5t-82 -62.5l140 -219q53 53 83.5 121.5t30.5 146.5t-31.5 148.5t-87 124t-130.5 85.5t-161 32q-83 0 -157 -31.5t-129.5 -85t-88.5 -124
t-33 -149.5q0 -78 31.5 -148.5t86.5 -124t129.5 -85t160.5 -31.5q81 0 153.5 28.5t127.5 78.5h-127l-121 213h-117v-213z" />
    <glyph glyph-name="degree" unicode="&#xb0;" horiz-adv-x="500" 
d="M250 759q28 0 53 -8.5t44 -25t30 -39.5t11 -52t-11 -52t-30 -39.5t-44 -25.5t-53 -9t-53 9t-44 25.5t-30.5 39.5t-11.5 52t11.5 52t30.5 39.5t44 25t53 8.5zM250 566q20 0 26.5 18t6.5 50t-6.5 49.5t-26.5 17.5t-27 -17.5t-7 -49.5t7 -50t27 -18z" />
    <glyph glyph-name="plusminus" unicode="&#xb1;" horiz-adv-x="540" 
d="M48 422h151v160h141v-160h151v-107h-151v-98q0 -48 -20.5 -69.5t-65.5 -21.5h-55v189h-151v107zM48 96h443v-107h-443v107z" />
    <glyph glyph-name="uni00B2" unicode="&#xb2;" horiz-adv-x="350" 
d="M164 394h153v-57h-283v35q27 25 59.5 57t60 64.5t46 63t18.5 54.5q0 25 -11 38.5t-31 13.5q-27 0 -42.5 -22t-20.5 -58l-81 22q11 55 46 84.5t99 29.5q27 0 51 -7t42 -21t28.5 -36.5t10.5 -52.5q0 -26 -15.5 -55.5t-37.5 -58t-47.5 -53t-44.5 -41.5z" />
    <glyph glyph-name="uni00B3" unicode="&#xb3;" horiz-adv-x="350" 
d="M170 329q-57 0 -93 25t-51 66l81 33q6 -30 24 -49t44 -19q27 0 43.5 16.5t16.5 45.5t-18.5 44.5t-49.5 15.5h-46v56h39q28 0 45 16.5t17 37.5q0 27 -14 38.5t-32 11.5q-20 0 -34.5 -15.5t-22.5 -41.5l-77 30q18 42 56 63t76 21q30 0 55 -8t43.5 -21.5t29 -33t10.5 -41.5
q0 -28 -16 -48.5t-34 -31.5q30 -14 46 -39.5t16 -56.5q0 -23 -10 -44t-29.5 -37t-48.5 -25t-66 -9z" />
    <glyph glyph-name="acute" unicode="&#xb4;" horiz-adv-x="500" 
d="M145 535q19 28 30.5 53.5t21.5 48t20 41.5t25 34q19 20 45.5 20.5t46.5 -19.5t20.5 -46.5t-19.5 -46.5q-15 -15 -34 -25.5t-41.5 -20t-47.5 -22t-52 -31.5z" />
    <glyph glyph-name="paragraph" unicode="&#xb6;" horiz-adv-x="500" 
d="M441 660v-766h-67v712h-70v-712h-68v435q-42 0 -75.5 13t-56 35.5t-34.5 53t-12 64.5t13.5 64.5t37 52.5t55 35t67.5 13h210z" />
    <glyph glyph-name="periodcentered" unicode="&#xb7;" horiz-adv-x="300" 
d="M57 308q0 19 7 36t19.5 29.5t29.5 19.5t37 7t37 -7t29.5 -19.5t19.5 -29.5t7 -36t-7 -36t-19.5 -29.5t-29.5 -19.5t-37 -7t-37 7t-29.5 19.5t-19.5 29.5t-7 36z" />
    <glyph glyph-name="cedilla" unicode="&#xb8;" horiz-adv-x="500" 
d="M258 35q66 -5 106.5 -32t40.5 -78q0 -74 -82.5 -105t-228.5 -23l17 82q75 -4 115.5 9.5t40.5 39.5q0 17 -17 26t-39.5 12.5t-45.5 3.5h-34l31 149l109 -12z" />
    <glyph glyph-name="uni00B9" unicode="&#xb9;" horiz-adv-x="350" 
d="M55 397h77v235q-11 -7 -28 -12t-34 -7l-11 55q24 7 46.5 16.5t36.5 22.5h85v-310h67v-57h-239v57z" />
    <glyph glyph-name="ordmasculine" unicode="&#xba;" horiz-adv-x="500" 
d="M69 316h362v-77h-362v77zM189 538q0 -51 15.5 -78.5t47.5 -27.5t47.5 28.5t15.5 77.5t-15.5 78t-47.5 29t-47.5 -28.5t-15.5 -78.5zM75 538q0 40 13.5 72.5t37 55t56 34.5t70.5 12t70.5 -12t56 -34.5t37 -55t13.5 -72.5q0 -41 -13.5 -73t-37 -54.5t-56 -34.5t-70.5 -12
t-70.5 12t-56 34.5t-37 54.5t-13.5 73z" />
    <glyph glyph-name="guillemotright" unicode="&#xbb;" horiz-adv-x="800" 
d="M719 294l-444 -354l-45 67l361 289l-366 280l44 65zM533 294l-443 -354l-49 67l365 289l-366 278l43 67z" />
    <glyph glyph-name="onequarter" unicode="&#xbc;" horiz-adv-x="800" 
d="M671 726l-423 -876h-100l424 876h99zM80 397h77v235q-11 -7 -28 -12t-34 -7l-11 55q24 7 46.5 16.5t36.5 22.5h85v-310h67v-57h-239v57zM658 -126h-87v79h-170v54l174 245h83v-243h61v-56h-61v-79zM483 9h88v117z" />
    <glyph glyph-name="onehalf" unicode="&#xbd;" horiz-adv-x="800" 
d="M646 726l-423 -876h-100l424 876h99zM65 397h77v235q-11 -7 -28 -12t-34 -7l-11 55q24 7 46.5 16.5t36.5 22.5h85v-310h67v-57h-239v57zM581 -66h153v-57h-283v35q27 25 59.5 57t60 64.5t46 63t18.5 54.5q0 25 -11 38.5t-31 13.5q-27 0 -42.5 -22t-20.5 -58l-81 22
q11 55 46 84.5t99 29.5q27 0 51 -7t42 -21t28.5 -36.5t10.5 -52.5q0 -26 -15.5 -55.5t-37.5 -58t-47.5 -53t-44.5 -41.5z" />
    <glyph glyph-name="threequarters" unicode="&#xbe;" horiz-adv-x="800" 
d="M678 726l-423 -876h-100l424 876h99zM675 -126h-87v79h-170v54l174 245h83v-243h61v-56h-61v-79zM500 9h88v117zM207 329q-57 0 -93 25t-51 66l81 33q6 -30 24 -49t44 -19q27 0 43.5 16.5t16.5 45.5t-18.5 44.5t-49.5 15.5h-46v56h39q28 0 45 16.5t17 37.5q0 27 -14 38.5
t-32 11.5q-20 0 -34.5 -15.5t-22.5 -41.5l-77 30q18 42 56 63t76 21q30 0 55 -8t43.5 -21.5t29 -33t10.5 -41.5q0 -28 -16 -48.5t-34 -31.5q30 -14 46 -39.5t16 -56.5q0 -23 -10 -44t-29.5 -37t-48.5 -25t-66 -9z" />
    <glyph glyph-name="questiondown" unicode="&#xbf;" horiz-adv-x="495" 
d="M334 316q0 -40 -12 -73.5t-29.5 -62t-38 -53.5t-38 -49.5t-29.5 -50t-12 -54.5q0 -47 18.5 -71t53.5 -24q21 0 35.5 11.5t23.5 31t13.5 45t4.5 54.5h139q1 -66 -14.5 -112t-43.5 -75t-67.5 -42.5t-87.5 -13.5q-51 0 -92 15t-70 41.5t-44.5 63t-15.5 80.5q0 40 12 70.5
t30.5 56t39.5 48t39.5 47t30.5 53t12 65.5v33h142v-34zM355 516q0 -19 -7 -36t-19.5 -29.5t-29.5 -19.5t-37 -7t-37 7t-29.5 19.5t-19.5 29.5t-7 36t7 36t19.5 29.5t29.5 19.5t37 7t37 -7t29.5 -19.5t19.5 -29.5t7 -36z" />
    <glyph glyph-name="AE" unicode="&#xc6;" horiz-adv-x="856" 
d="M851 -71h-429v211h-198l-123 -211h-97l418 721h409v-76h-311v-238h270v-75h-270v-257h331v-75zM422 212v269l-157 -269h157z" />
    <glyph glyph-name="Eth" unicode="&#xd0;" horiz-adv-x="805" 
d="M177 257h-125v66h125v327h237q85 0 152.5 -28.5t115 -77.5t72.5 -114.5t25 -139.5q0 -73 -25.5 -138.5t-72.5 -115t-115 -78.5t-152 -29h-237v328zM464 257h-192v-256h142q65 0 115.5 24.5t85 64.5t52.5 92t18 106q0 60 -18 113t-53 92.5t-86 62t-118 22.5h-138v-255h192
v-66z" />
    <glyph glyph-name="multiply" unicode="&#xd7;" horiz-adv-x="600" 
d="M161 542l139 -139l139 139l91 -91l-139 -139l139 -139l-91 -91l-139 139l-139 -139l-91 91l139 139l-139 139z" />
    <glyph glyph-name="Oslash" unicode="&#xd8;" horiz-adv-x="850" 
d="M618 731l-48 -126q49 -18 90 -47.5t69.5 -68.5t44.5 -86.5t16 -101.5q0 -72 -28 -132.5t-77 -105t-115.5 -69t-142.5 -24.5q-25 0 -48 2t-45 8l-46 -123h-48l50 135q-50 18 -91 47.5t-70 69.5t-45.5 88.5t-16.5 103.5q0 73 28 133.5t77 103.5t114.5 67t140.5 24
q26 0 50.5 -2.5t48.5 -9.5l43 114h49zM317 63l182 484q-17 5 -35.5 6.5t-36.5 1.5q-60 0 -108.5 -18.5t-82.5 -52t-52 -80.5t-18 -103q0 -83 39.5 -146t111.5 -92zM691 301q0 82 -39 143t-110 90l-181 -483q16 -3 32.5 -5t33.5 -2q64 0 113.5 20.5t83 55.5t50.5 81.5
t17 99.5z" />
    <glyph glyph-name="Thorn" unicode="&#xde;" horiz-adv-x="612" 
d="M97 -71v721h96v-127h124q54 0 100 -17t79.5 -47t52.5 -72t19 -92q0 -49 -19 -89.5t-52.5 -70t-79.5 -46t-100 -16.5h-124v-144h-96zM317 145q33 0 61.5 12t49.5 32t33 47.5t12 58.5q0 33 -11.5 61.5t-32.5 49.5t-49.5 33t-62.5 12h-124v-306h124z" />
    <glyph glyph-name="germandbls" unicode="&#xdf;" horiz-adv-x="594" 
d="M70 -59v523q0 51 18.5 89t50 63.5t73 38.5t86.5 13q47 0 88.5 -13t72.5 -37t49 -58.5t18 -77.5q0 -49 -31 -92.5t-88 -69.5q80 -17 122.5 -65t42.5 -115q0 -50 -21.5 -87t-57.5 -62t-83.5 -37.5t-99.5 -12.5h-87v68h86q40 0 71 10.5t52 28.5t32 42t11 51q0 59 -42.5 97
t-123.5 38h-140v-335h-99zM169 344h124q34 0 59.5 11t42.5 30t26 43t9 51q0 23 -8.5 44.5t-25.5 38t-42 26.5t-58 10q-23 0 -45.5 -9t-40.5 -26t-29.5 -42t-11.5 -57v-120z" />
    <glyph glyph-name="ae" unicode="&#xe6;" horiz-adv-x="932" 
d="M833 -27q-32 -20 -74.5 -31t-107.5 -11t-116.5 22t-87.5 60q-37 -41 -89.5 -61.5t-133.5 -20.5q-37 0 -68 10.5t-53.5 30.5t-35 48.5t-12.5 64.5q0 65 38 107.5t109 59.5q35 8 80.5 12t100.5 5v29q0 44 -33.5 65t-93.5 21q-24 0 -56 -8.5t-60 -25.5l-42 60
q40 23 75.5 35.5t82.5 12.5q64 0 114 -16t83 -54q35 31 83 50.5t103 19.5q59 0 103 -18.5t73 -51.5t43.5 -79.5t14.5 -102.5q0 -8 -1 -21t-3 -24h-389q5 -35 19 -64.5t36 -51.5t51.5 -34.5t64.5 -12.5q41 0 78 7.5t65 22.5zM383 202q-98 0 -157 -17q-41 -11 -56.5 -38
t-15.5 -60q0 -45 23 -65t66 -22q24 -1 49 4t45.5 19t33 37.5t12.5 58.5v83zM774 228q-1 77 -35.5 118.5t-102.5 41.5q-30 0 -57.5 -11.5t-48.5 -32.5t-34 -50.5t-14 -65.5h292z" />
    <glyph glyph-name="eth" unicode="&#xf0;" horiz-adv-x="541" 
d="M361 658h101l-99 -95q33 -28 59.5 -66.5t46 -84.5t30 -99t10.5 -109q0 -62 -15 -112.5t-45.5 -86t-76.5 -55t-107 -19.5q-53 0 -96 15.5t-73 44.5t-46.5 70t-16.5 92q0 44 15.5 83t44.5 68t70.5 45.5t92.5 16.5q36 0 69.5 -8.5t76.5 -30.5q-7 22 -16.5 47t-21.5 49.5
t-25.5 46.5t-29.5 38l-56 -53h-102l100 98q-30 16 -61 27.5t-62 17.5q3 17 6.5 31.5t6.5 30.5q39 -7 81 -21t82 -36zM271 3q38 0 64 13t42.5 37t24 58t7.5 77v35q-34 40 -70 58.5t-76 18.5q-34 0 -58.5 -11.5t-41 -32t-24.5 -48t-8 -59.5q0 -68 32.5 -107t107.5 -39z" />
    <glyph glyph-name="divide" unicode="&#xf7;" horiz-adv-x="600" 
d="M53 356h493v-107h-493v107zM221 111q0 32 22.5 55t56.5 23t56.5 -23t22.5 -55t-22.5 -55t-56.5 -23t-56.5 23t-22.5 55zM221 491q0 32 22.5 55t56.5 23t56.5 -23t22.5 -55t-22.5 -55t-56.5 -23t-56.5 23t-22.5 55z" />
    <glyph glyph-name="oslash" unicode="&#xf8;" horiz-adv-x="625" 
d="M492 592l-59 -155q78 -31 116.5 -97.5t38.5 -151.5q0 -57 -16.5 -106t-50 -85t-85 -57t-120.5 -21q-21 0 -40 2t-36 6l-56 -146h-48l61 158q-80 29 -120 96t-40 153q0 57 17.5 106t52 85t87 56.5t121.5 20.5q20 0 38.5 -2t34.5 -5l54 143h50zM224 14l137 359
q-12 3 -23.5 4t-25.5 1q-87 0 -132.5 -52t-45.5 -138q0 -61 23 -106.5t67 -67.5zM490 188q0 60 -21.5 104.5t-64.5 67.5l-138 -360q12 -2 23.5 -3t22.5 -1q88 0 133 52.5t45 139.5z" />
    <glyph glyph-name="thorn" unicode="&#xfe;" horiz-adv-x="625" 
d="M133 -223h-96v845h96v-219q33 26 78.5 39.5t103.5 13.5q69 0 120.5 -21t85 -57t50.5 -85t17 -105q0 -57 -16.5 -106t-50 -85t-85 -57t-120.5 -21q-58 0 -103.5 14.5t-79.5 38.5v-195zM312 -4q88 0 133 52.5t45 139.5t-45 138.5t-133 51.5q-87 0 -132.5 -52t-45.5 -138
q0 -43 11.5 -78.5t34 -60.5t56 -39t76.5 -14z" />
    <glyph glyph-name="dcroat" unicode="&#x111;" horiz-adv-x="662" 
d="M33 182q0 60 17 108.5t49 83t79 53.5t107 19q48 0 84.5 -12.5t66.5 -31.5v117h-141v65h141v90h96v-90h113v-65h-113v-590h-96v39q-35 -26 -73.5 -42t-78.5 -16q-60 0 -106.5 20t-79 56t-49 86t-16.5 110zM436 320q-33 26 -65 38.5t-67 12.5q-81 0 -126.5 -50t-45.5 -144
q0 -96 44.5 -144.5t125.5 -48.5q35 0 70 19t64 47v270z" />
    <glyph glyph-name="Hbar" unicode="&#x126;" horiz-adv-x="784" 
d="M745 443h-72v-514h-99v333h-367v-333h-99v514h-71v67h71v140h99v-140h367v140h99v-140h72v-67zM574 334v109h-367v-109h367z" />
    <glyph glyph-name="hbar" unicode="&#x127;" horiz-adv-x="615" 
d="M34 519v65h110v90h98v-90h141v-65h-141v-122q35 27 77 43t77 16q40 0 74 -11.5t58.5 -34t38 -55t13.5 -74.5v-352h-97v351q0 27 -9 47t-24.5 32.5t-35.5 18.5t-42 6q-32 0 -67.5 -17t-62.5 -47v-391h-98v590h-110z" />
    <glyph glyph-name="dotlessi" unicode="&#x131;" horiz-adv-x="258" 
d="M81 -71v518h98v-518h-98z" />
    <glyph glyph-name="IJ" unicode="&#x132;" horiz-adv-x="640" 
d="M106 -71v721h98v-721h-98zM282 -151q50 12 80.5 32.5t47.5 49.5t22.5 66t5.5 82v571h97v-568q0 -57 -12 -105.5t-39.5 -86t-71.5 -63.5t-108 -36z" />
    <glyph glyph-name="ij" unicode="&#x133;" horiz-adv-x="509" 
d="M77 -71v499h97v-499h-97zM73 544v106h105v-106h-105zM193 -155q72 20 101.5 69t29.5 130v384h100v-365q0 -109 -47 -180.5t-159 -99.5zM322 544v106h106v-106h-106z" />
    <glyph glyph-name="kgreenlandic" unicode="&#x138;" horiz-adv-x="541" 
d="M80 449h100v-241q11 12 24.5 29.5t27 36t25.5 36.5t20 32q12 24 23.5 46t25.5 38.5t32.5 26t44.5 9.5q20 0 48.5 -10t50.5 -24l-40 -60q-11 8 -24.5 13t-28.5 5q-18 0 -29.5 -21.5t-30.5 -58.5q-14 -27 -32 -51.5t-44 -51.5l262 -274h-111l-244 256v-256h-99z" />
    <glyph glyph-name="Ldot" unicode="&#x13f;" horiz-adv-x="524" 
d="M496 -71h-423v721h97v-650h326v-71zM322 267v105h106v-105h-106z" />
    <glyph glyph-name="ldot" unicode="&#x140;" horiz-adv-x="457" 
d="M330 243q-31 0 -49 17.5t-18 40.5t18 41.5t49 18.5q29 0 46.5 -18.5t17.5 -41.5t-17.5 -40.5t-46.5 -17.5zM77 -71v734h97v-734h-97z" />
    <glyph glyph-name="Lslash" unicode="&#x141;" horiz-adv-x="572" 
d="M543 -71h-359v242l-81 -86h-90l171 182v383h98v-279l116 125h90l-206 -221v-271h261v-75z" />
    <glyph glyph-name="lslash" unicode="&#x142;" horiz-adv-x="499" 
d="M219 -71v279l-112 -123h-89l201 219v359h97v-255l80 88h88l-168 -183v-384h-97z" />
    <glyph glyph-name="napostrophe" unicode="&#x149;" horiz-adv-x="732" 
d="M555 -71v341q0 28 -10 48.5t-27 34.5t-38.5 21t-43.5 7q-81 0 -138 -66v-386h-99v518h98v-50q45 33 82.5 47t75.5 13q32 -1 67 -10t64 -29.5t47.5 -52t18.5 -77.5v-359h-97zM166 538q0 -51 -27.5 -93.5t-85.5 -58.5v31q33 8 48.5 35t15.5 58v18h-62v103h111v-93z" />
    <glyph glyph-name="Eng" unicode="&#x14a;" horiz-adv-x="800" 
d="M474 -151q40 10 67.5 25.5t45 35.5t27 45t13.5 55l-457 443v-525h-97v722h12l543 -525v525h99v-568q0 -57 -12 -105.5t-39 -86t-71.5 -63.5t-108.5 -36z" />
    <glyph glyph-name="eng" unicode="&#x14b;" horiz-adv-x="595" 
d="M299 -143q46 22 73 47.5t41.5 54.5t18.5 62t4 70v179q0 28 -10 48.5t-27 34.5t-38.5 21t-44.5 7q-79 0 -138 -66v-386h-98v518h97v-50q46 33 83 47t75 13q33 -1 68 -10t64 -29.5t47.5 -52t18.5 -77.5v-224q0 -51 -15 -94.5t-47 -83.5q-26 -35 -69.5 -62t-102.5 -47v80z
" />
    <glyph glyph-name="OE" unicode="&#x152;" horiz-adv-x="917" 
d="M546 3h320v-74h-371q-25 -9 -51 -13.5t-61 -4.5q-85 0 -150 29.5t-109 81.5t-66.5 121.5t-22.5 149.5q0 78 22.5 145t66.5 116.5t109 77.5t150 28q41 0 81 -10h381v-72h-299v-243h259v-73h-259v-259zM450 -6v584q-19 5 -35 8t-32 3q-61 0 -107.5 -24t-78 -64.5t-47.5 -94
t-16 -113.5q0 -65 15.5 -121t47 -98t77.5 -66t108 -24q15 0 32 3.5t36 6.5z" />
    <glyph glyph-name="oe" unicode="&#x153;" horiz-adv-x="932" 
d="M856 -24q-30 -19 -71.5 -32t-103.5 -13q-74 0 -125.5 24t-86.5 64q-35 -45 -85.5 -66.5t-106.5 -21.5q-55 0 -99.5 18t-76 52.5t-49 84.5t-17.5 113q0 61 17.5 109t49 81.5t76 51t99.5 17.5q58 0 107.5 -20.5t86.5 -64.5q35 42 84 63.5t114 21.5q58 0 100 -17t69 -48.5
t39.5 -76.5t12.5 -101q0 -13 -0.5 -28t-5.5 -27h-364q6 -74 46.5 -118t114.5 -44q42 0 74.5 7t58.5 23zM275 3q61 0 101.5 41.5t47.5 128.5v40q-2 42 -15 75t-33 55t-46 33t-55 10q-61 0 -101.5 -47.5t-40.5 -138.5q0 -100 40 -148.5t102 -48.5zM794 226q0 77 -30 119.5
t-96 42.5q-62 0 -102.5 -43.5t-43.5 -118.5h272z" />
    <glyph glyph-name="Tbar" unicode="&#x166;" horiz-adv-x="526" 
d="M464 280h-153v-351h-98v351h-152v68h152v226h-204v76h506v-76h-204v-226h153v-68z" />
    <glyph glyph-name="tbar" unicode="&#x167;" horiz-adv-x="410" 
d="M26 179v73h86v109h-91v72h91v176h97v-176h160v-72h-160v-109h149v-73h-149v-147q0 -14 10.5 -22.5t29.5 -8.5q27 0 65 1t70 7v-66q-15 -3 -34 -6t-39.5 -6t-41.5 -4.5t-40 -1.5q-21 0 -42 3.5t-37.5 13t-27 26t-10.5 41.5v170h-86z" />
    <glyph glyph-name="caron" unicode="&#x2c7;" horiz-adv-x="500" 
d="M204 545l-120 183h102l63 -107l64 107h102l-121 -183h-90z" />
    <glyph glyph-name="uni02D0" unicode="&#x2d0;" horiz-adv-x="500" 
d="M362 605l-112 -201l-113 201h225zM137 12l112 201l113 -201h-225z" />
    <glyph glyph-name="breve" unicode="&#x2d8;" horiz-adv-x="500" 
d="M181 720q0 -37 15 -63.5t53 -26.5t53.5 26.5t15.5 63.5h97q0 -26 -6.5 -54.5t-25 -52.5t-51 -40t-84.5 -16t-84 16t-50 40t-24 52.5t-6 54.5h97z" />
    <glyph glyph-name="dotaccent" unicode="&#x2d9;" horiz-adv-x="500" 
d="M168 639q0 34 23 57.5t58 23.5t58.5 -23.5t23.5 -57.5q0 -33 -23.5 -56.5t-58.5 -23.5t-58 23.5t-23 56.5z" />
    <glyph glyph-name="ring" unicode="&#x2da;" horiz-adv-x="500" 
d="M250 759q28 0 53 -8.5t44 -25t30 -39.5t11 -52t-11 -52t-30 -39.5t-44 -25.5t-53 -9t-53 9t-44 25.5t-30.5 39.5t-11.5 52t11.5 52t30.5 39.5t44 25t53 8.5zM250 566q20 0 26.5 18t6.5 50t-6.5 49.5t-26.5 17.5t-27 -17.5t-7 -49.5t7 -50t27 -18z" />
    <glyph glyph-name="ogonek" unicode="&#x2db;" horiz-adv-x="500" 
d="M361 -211h-30q-40 0 -78.5 6t-68.5 20.5t-48.5 38.5t-18.5 60q0 39 32.5 73.5t81.5 59.5l97 -26q-27 -17 -50 -42t-23 -57q0 -29 32 -41t95 -12z" />
    <glyph glyph-name="tilde" unicode="&#x2dc;" horiz-adv-x="540" 
d="M24 294q9 16 24 33.5t34 32.5t42 24.5t49 9.5q33 0 59.5 -12t49.5 -27t43.5 -27t41.5 -12q17 0 30 6t24 15t19.5 20.5t16.5 22.5l58 -76q-9 -16 -24 -33.5t-34 -32.5t-42 -24.5t-49 -9.5q-33 0 -59.5 12t-49 27t-43 27t-41.5 12q-17 0 -30.5 -6t-24 -15t-19.5 -20.5
t-17 -22.5z" />
    <glyph glyph-name="hungarumlaut" unicode="&#x2dd;" horiz-adv-x="500" 
d="M106 537q11 32 17.5 56.5t12 44.5t12 36.5t16.5 33.5q13 21 31.5 30.5t37.5 -1.5q17 -10 19 -30t-11 -43q-10 -17 -21.5 -31t-25.5 -28.5t-31.5 -32.5t-38.5 -44zM246 537q11 32 17.5 56.5t12 44.5t12 36.5t16.5 33.5q13 21 31.5 30.5t37.5 -1.5q17 -10 19 -30t-11 -43
q-10 -17 -21.5 -31t-25.5 -28.5t-31.5 -32.5t-38.5 -44z" />
    <glyph glyph-name="Alpha" unicode="&#x391;" horiz-adv-x="711" 
d="M513 89h-315l-66 -160h-98l311 721h18l312 -721h-96zM351 464l-125 -305h257l-124 305h-8z" />
    <glyph glyph-name="Beta" unicode="&#x392;" horiz-adv-x="618" 
d="M73 -71v721h236q49 0 90.5 -12t70.5 -35.5t45.5 -58.5t16.5 -80q0 -43 -30 -86.5t-78 -71.5q73 -19 117.5 -66t44.5 -109q0 -49 -18.5 -87t-51 -63.5t-76.5 -38.5t-96 -13h-271zM170 0h172q40 0 68.5 10.5t47 28t27 41.5t8.5 51q0 55 -44 92.5t-131 37.5h-148v-261z
M170 578v-247h134q33 0 58 11.5t42 30t25.5 42t8.5 47.5q0 22 -8.5 43t-25.5 37.5t-41.5 26t-56.5 9.5h-136z" />
    <glyph glyph-name="Gamma" unicode="&#x393;" horiz-adv-x="524" 
d="M509 587h-325v-657h-97v733h422v-76z" />
    <glyph glyph-name="uni0394" unicode="&#x394;" horiz-adv-x="694" 
d="M0 -70l306 733h65l313 -733h-684zM337 530l-210 -527h426z" />
    <glyph glyph-name="Epsilon" unicode="&#x395;" horiz-adv-x="553" 
d="M502 -71h-429v721h408v-72h-311v-243h274v-72h-274v-262h332v-72z" />
    <glyph glyph-name="Zeta" unicode="&#x396;" horiz-adv-x="579" 
d="M528 650v-25l-367 -625h380v-71h-512v22l365 627h-346v72h480z" />
    <glyph glyph-name="Eta" unicode="&#x397;" horiz-adv-x="711" 
d="M636 650v-721h-97v333h-367v-333h-99v721h99v-316h367v316h97z" />
    <glyph glyph-name="Theta" unicode="&#x398;" horiz-adv-x="850" 
d="M609 269h-351v68h351v-68zM437 670q90 0 162.5 -30t122.5 -82t77 -121.5t27 -148.5q0 -78 -27.5 -148t-78.5 -122t-123 -82.5t-160 -30.5q-87 0 -158 30t-121.5 82t-78 122t-27.5 149q0 81 27.5 151t78 121t121.5 80.5t158 29.5zM437 -23q71 0 125 26t91 69.5t55.5 99.5
t18.5 116q0 64 -20 120.5t-57.5 98.5t-91 66.5t-121.5 24.5q-66 0 -118.5 -24.5t-90 -66.5t-57.5 -98.5t-20 -120.5q0 -62 19.5 -118.5t56.5 -99t90 -68t120 -25.5z" />
    <glyph glyph-name="Iota" unicode="&#x399;" horiz-adv-x="264" 
d="M84 -71v721h96v-721h-96z" />
    <glyph glyph-name="Kappa" unicode="&#x39a;" horiz-adv-x="673" 
d="M172 300l298 350h106l-294 -349l338 -372h-116l-332 366v-366h-99v721h99v-350z" />
    <glyph glyph-name="Lambda" unicode="&#x39b;" horiz-adv-x="689" 
d="M654 -71h-97l-208 536l-213 -536h-102l305 721h19z" />
    <glyph glyph-name="Mu" unicode="&#x39c;" horiz-adv-x="917" 
d="M845 650v-721h-97v500l-288 -317h-5l-286 319v-502h-96v721h7l378 -418l379 418h8z" />
    <glyph glyph-name="Nu" unicode="&#x39d;" horiz-adv-x="800" 
d="M85 650l543 -525v525h99v-722h-13l-544 525v-525h-97v722h12z" />
    <glyph glyph-name="Xi" unicode="&#x39e;" horiz-adv-x="552" 
d="M473 265h-395v65h395v-65zM507 585h-463v65h463v-65zM507 -71h-463v65h463v-65z" />
    <glyph glyph-name="Omicron" unicode="&#x39f;" horiz-adv-x="878" 
d="M437 670q90 0 162.5 -30t122.5 -82t77 -121.5t27 -148.5q0 -78 -27.5 -148t-78.5 -122t-123 -82.5t-160 -30.5q-87 0 -158 30t-121.5 82t-78 122t-27.5 149q0 81 27.5 151t78 121t121.5 80.5t158 29.5zM437 -23q71 0 125 26t91 69.5t55.5 99.5t18.5 116q0 64 -20 120.5
t-57.5 98.5t-91 66.5t-121.5 24.5q-66 0 -118.5 -24.5t-90 -66.5t-57.5 -98.5t-20 -120.5q0 -62 19.5 -118.5t56.5 -99t90 -68t120 -25.5z" />
    <glyph glyph-name="Pi" unicode="&#x3a0;" horiz-adv-x="689" 
d="M605 -71h-96v666h-326v-666h-96v734h518v-734z" />
    <glyph glyph-name="Rho" unicode="&#x3a1;" horiz-adv-x="599" 
d="M73 -71v721h220q58 0 105 -17t80 -47t51 -71.5t18 -91.5q0 -47 -18 -88t-51.5 -71t-81 -47.5t-105.5 -17.5h-124v-270h-94zM167 271h123q38 0 68.5 11.5t51.5 32t32 48.5t11 60q0 69 -42 112t-118 43h-126v-307z" />
    <glyph glyph-name="Sigma" unicode="&#x3a3;" horiz-adv-x="583" 
d="M74 663h458v-72h-347l224 -280v-23l-229 -274h352v-73h-462v67l234 293l-230 286v76z" />
    <glyph glyph-name="Tau" unicode="&#x3a4;" horiz-adv-x="587" 
d="M245 -71v649h-204v72h506v-72h-205v-649h-97z" />
    <glyph glyph-name="Upsilon" unicode="&#x3a5;" horiz-adv-x="680" 
d="M291 -71v303l-254 418h108l197 -339l195 339h105l-255 -418v-303h-96z" />
    <glyph glyph-name="Phi" unicode="&#x3a6;" horiz-adv-x="625" 
d="M264 -70v137q-51 6 -93 25t-71.5 49t-46 70t-16.5 87q0 48 16 87.5t46 69.5t72 49.5t93 25.5v120h98v-119q51 -6 93 -25.5t71.5 -49.5t45.5 -70t16 -88t-16 -88t-45.5 -70.5t-71.5 -50t-93 -25.5v-134h-98zM362 453v-310q64 13 96 53t32 102t-32 102.5t-96 52.5zM264 143
v309q-64 -11 -97 -52.5t-33 -101.5q0 -62 33 -102t97 -53z" />
    <glyph glyph-name="Chi" unicode="&#x3a7;" horiz-adv-x="717" 
d="M40 -71l261 371l-243 350h114l190 -289l185 289h112l-239 -350q63 -93 129 -186t130 -185h-113l-204 304l-211 -304h-111z" />
    <glyph glyph-name="Psi" unicode="&#x3a8;" horiz-adv-x="713" 
d="M411 -70h-94v199q-124 12 -180.5 81t-56.5 187v253h98v-253q0 -88 32.5 -135.5t106.5 -61.5v450h94v-448q64 17 96.5 64.5t32.5 129.5v254h98v-253q0 -113 -54.5 -182.5t-172.5 -83.5v-201z" />
    <glyph glyph-name="uni03A9" unicode="&#x3a9;" horiz-adv-x="668" 
d="M198 87q-40 16 -71.5 43.5t-53 62.5t-33 76t-11.5 85q0 71 24 127.5t65.5 95.5t97.5 60t119 21q64 0 120 -21t97 -60.5t64.5 -96t23.5 -126.5q0 -44 -12.5 -85t-35 -76t-54 -62.5t-70.5 -43.5v-93h148v-64h-244v201q81 26 125.5 80.5t44.5 142.5q0 52 -15 95t-42.5 73.5
t-65.5 47t-84 16.5q-44 0 -82.5 -16.5t-67 -46.5t-44.5 -73t-16 -96q0 -45 12.5 -82t35 -65t52.5 -47t66 -27v-203h-240v64h147v93z" />
    <glyph glyph-name="alpha" unicode="&#x3b1;" horiz-adv-x="607" 
d="M269 -2q37 0 61.5 14t39.5 39t21.5 60.5t6.5 79.5q0 97 -34.5 144.5t-94.5 48.5q-33 1 -57.5 -13.5t-40 -40.5t-22.5 -62t-6 -77q1 -44 8.5 -79.5t23 -60.5t39 -39t55.5 -14zM552 449q-28 -44 -46 -110t-18 -150q0 -36 7 -66t18.5 -53t25.5 -39.5t29 -26.5l-60 -68
q-21 13 -41 31t-37 37q-16 -20 -32.5 -34.5t-36.5 -24t-45 -14t-56 -4.5q-48 0 -88 20t-69 55t-45.5 83.5t-16.5 105.5q0 61 17.5 110t47 83.5t69.5 53t85 18.5q54 0 90.5 -19t67.5 -45q7 14 14 31t15 26h105z" />
    <glyph glyph-name="beta" unicode="&#x3b2;" horiz-adv-x="526" 
d="M166 -211h-99v705q0 38 10.5 71.5t32.5 58t57 38.5t84 14q45 0 82 -12.5t62.5 -35t39.5 -54t14 -69.5q0 -24 -8 -46.5t-20.5 -42t-29.5 -35.5t-35 -28q30 -14 56.5 -35t46.5 -48t32 -59t12 -66q0 -50 -18 -89.5t-49.5 -68t-75 -43.5t-94.5 -15q-23 0 -48 4t-52 14v-158z
M216 314v64h14q24 0 46 9t38.5 25.5t26.5 40t10 52.5q0 48 -27 75t-73 27q-45 0 -65 -31.5t-20 -79.5v-474q53 -22 103 -22q33 0 58 11t42.5 30.5t26.5 46t9 57.5q0 40 -14.5 71t-38.5 53t-55.5 33.5t-66.5 11.5h-14z" />
    <glyph glyph-name="gamma" unicode="&#x3b3;" horiz-adv-x="557" 
d="M321 78q17 -66 27.5 -115.5t10.5 -78.5q0 -18 -8 -36t-23.5 -32t-39.5 -22.5t-56 -8.5t-55 9t-37 23.5t-20.5 33t-6.5 37.5q0 21 6.5 41.5t17 39.5t23 37t25.5 35q10 13 18.5 25t16.5 24l-68 265q-5 23 -15.5 36t-24.5 13t-24.5 -8.5t-19.5 -17.5l-66 39q23 32 54 46
t62 14q19 0 39 -4.5t36.5 -14.5t29 -26t17.5 -40l49 -206l188 276l77 -39zM251 -3q-20 -33 -34.5 -60.5t-14.5 -50.5q0 -16 7 -26t21 -10t26.5 8.5t14.5 27.5q1 15 -5.5 45.5t-14.5 65.5z" />
    <glyph glyph-name="delta" unicode="&#x3b4;" horiz-adv-x="625" 
d="M177 428q-25 11 -43 26.5t-30 31t-17.5 30t-5.5 24.5q0 64 48.5 101t153.5 37q57 0 104 -19t83 -45l-55 -58q-69 52 -136 52q-45 0 -69 -13.5t-24 -44.5q0 -23 27.5 -51t84.5 -43h17q69 0 120.5 -21t85 -57t50.5 -85t17 -105q0 -57 -16.5 -105.5t-50 -84.5t-85 -56.5
t-120.5 -20.5t-121.5 20.5t-87.5 56.5t-52.5 84.5t-17.5 105.5q0 81 35 144.5t105 95.5zM312 -3q88 0 133 52t45 139t-45 138.5t-133 51.5q-87 0 -132.5 -52t-45.5 -138q0 -87 45.5 -139t132.5 -52z" />
    <glyph glyph-name="epsilon" unicode="&#x3b5;" horiz-adv-x="496" 
d="M309 170h-97q-42 0 -62 -29t-18 -77q3 -42 37 -61t88 -19q46 0 80.5 17.5t60.5 47.5l64 -48q-42 -45 -90.5 -63.5t-114.5 -18.5q-106 0 -164.5 39t-58.5 105q0 27 7.5 49.5t19.5 40.5t27.5 31t31.5 22q-35 19 -55 49.5t-18 60.5q4 69 51.5 107.5t145.5 38.5q69 0 122 -25
t85 -64l-66 -41q-23 26 -60 44.5t-81 18.5q-53 0 -76 -20.5t-23 -58.5q0 -32 16 -57t51 -25h97v-64z" />
    <glyph glyph-name="zeta" unicode="&#x3b6;" horiz-adv-x="588" 
d="M57 656q50 -11 100 -15.5t103 -4.5q42 0 85 3.5t85 11.5v-66q-29 -5 -62.5 -9t-62.5 -6q-80 -23 -122.5 -87.5t-42.5 -170.5q0 -73 14.5 -124t45 -83.5t77 -47t110.5 -14.5q85 0 130 -36t42 -92q-3 -67 -64 -97t-187 -31v63q85 3 119.5 23.5t34.5 51.5q0 23 -17 39.5
t-58 16.5q-79 0 -143 16.5t-109 55t-69.5 101.5t-24.5 156q0 81 29.5 142.5t90.5 120.5q-44 1 -67.5 7.5t-36.5 9.5v66z" />
    <glyph glyph-name="eta" unicode="&#x3b7;" horiz-adv-x="612" 
d="M436 -213v483q0 28 -10 48.5t-27 34.5t-38.5 21t-44.5 7q-79 0 -138 -66v-386h-98v518h97v-50q46 33 83 47t75 13q33 -1 68 -10t64 -29.5t47.5 -52t18.5 -77.5v-501h-97z" />
    <glyph glyph-name="theta" unicode="&#x3b8;" horiz-adv-x="647" 
d="M323 670q71 0 125.5 -26.5t91.5 -75t56 -118t19 -155.5q0 -83 -19 -152.5t-56 -119t-91.5 -77t-125.5 -27.5q-66 0 -119.5 27.5t-91 77t-58 119t-20.5 152.5q0 85 20.5 154.5t58 118.5t91 75.5t119.5 26.5zM134 330h380q-4 60 -17.5 109t-37.5 84.5t-58 55t-78 19.5
q-45 0 -79 -19.5t-57.5 -55t-36.5 -84.5t-16 -109zM514 264h-380q4 -59 17.5 -109t37 -86.5t57 -56.5t77.5 -20t78 20.5t58 57t37.5 86t17.5 108.5z" />
    <glyph glyph-name="iota" unicode="&#x3b9;" horiz-adv-x="258" 
d="M81 -70v517h98v-517h-98z" />
    <glyph glyph-name="kappa" unicode="&#x3ba;" horiz-adv-x="541" 
d="M80 449h100v-234q12 13 25.5 29t26.5 33t23.5 34t17.5 31q12 24 24 46t27 38.5t34 26t45 9.5q20 0 48.5 -10t50.5 -24l-39 -60q-23 18 -54 18q-18 0 -30.5 -18.5t-27.5 -47.5q-20 -37 -38.5 -61.5t-44.5 -50.5l267 -278h-111l-244 255v-255h-99z" />
    <glyph glyph-name="lambda" unicode="&#x3bb;" horiz-adv-x="626" 
d="M71 670q40 -4 73.5 -25t60 -53.5t47.5 -73t38 -83.5h-1l152 -403q8 -24 23.5 -36.5t29.5 -12.5q24 0 40.5 9.5t28.5 26.5l50 -49q-10 -12 -21.5 -22.5t-27 -18.5t-35.5 -12.5t-46 -4.5q-48 0 -82.5 25t-51.5 70l-109 294l-117 -371h-98l162 501q-23 75 -59.5 117.5
t-82.5 61.5z" />
    <glyph glyph-name="uni03BC" unicode="&#x3bc;" horiz-adv-x="594" 
d="M177 -213h-97v660h98v-350q0 -30 10.5 -49.5t26.5 -31t36 -15.5t38 -4q36 0 76 16.5t71 54.5v379h97v-517h-97v54q-39 -32 -79.5 -47.5t-78.5 -15.5q-27 0 -53 4.5t-48 13.5v-152z" />
    <glyph glyph-name="nu" unicode="&#x3bd;" horiz-adv-x="506" 
d="M466 447q5 -20 8 -49.5t3 -53.5q0 -42 -12.5 -91.5t-36.5 -103.5t-58 -109.5t-77 -109.5h-74l-215 517h102l160 -428q50 77 84 154.5t34 158.5q0 26 -4 59t-9 56h95z" />
    <glyph glyph-name="xi" unicode="&#x3be;" horiz-adv-x="623" 
d="M319 -150q36 0 66.5 4.5t52 15t34 27.5t12.5 42q0 23 -14.5 39t-58.5 16h-57q-78 0 -133 17t-90 46.5t-52 68t-18 82.5q-2 69 31.5 112.5t90.5 72.5q-29 24 -44 56t-15 61q0 20 6.5 44.5t25.5 47.5q-53 4 -85 12l2 64q45 -7 98 -12.5t104 -5.5q18 0 40.5 1.5t45.5 3.5
t46 5.5t42 6.5l1 -62q-35 -6 -78.5 -12t-83.5 -6q-17 0 -30.5 -8.5t-22.5 -21t-14 -27t-5 -27.5q0 -11 3 -26t11.5 -28.5t23 -23t37.5 -9.5h129v-65h-75q-41 0 -75 -9.5t-59 -28t-39 -46.5t-13 -64q2 -76 52 -114.5t143 -38.5h55q91 0 132.5 -32.5t41.5 -95.5q0 -29 -13 -55
t-44 -46t-81.5 -32.5t-125.5 -13.5v65z" />
    <glyph glyph-name="omicron" unicode="&#x3bf;" horiz-adv-x="625" 
d="M315 456q69 0 120.5 -21t85 -57t50.5 -85t17 -105q0 -57 -16.5 -106t-50 -85t-85 -57t-120.5 -21t-121.5 21t-87.5 57t-52.5 85t-17.5 106t17.5 106t52 85t87 56.5t121.5 20.5zM312 -4q88 0 133 52.5t45 139.5t-45 138.5t-133 51.5q-87 0 -132.5 -52t-45.5 -138
q0 -43 11.5 -78.5t34 -60.5t56 -39t76.5 -14z" />
    <glyph glyph-name="pi" unicode="&#x3c0;" horiz-adv-x="636" 
d="M608 380h-131v-322q0 -66 60 -66q19 0 38.5 3.5t33.5 10.5v-65q-30 -20 -80 -20q-78 0 -115 35t-37 96v328h-147v-321q0 -28 -9.5 -53t-25 -45.5t-37 -36.5t-45.5 -26l-52 60q70 31 70 100v322h-105v67h582v-67z" />
    <glyph glyph-name="rho" unicode="&#x3c1;" horiz-adv-x="625" 
d="M37 188q0 57 17.5 106t52 85t87 56.5t121.5 20.5t120.5 -21t85 -57t50.5 -85t17 -105q0 -57 -16.5 -106t-50 -85t-85 -57t-120.5 -21q-58 0 -103.5 14.5t-79.5 38.5v-187h-96v403zM312 -4q88 0 133 52.5t45 139.5t-45 138.5t-133 51.5q-87 0 -132.5 -52t-45.5 -138
q0 -43 11.5 -78.5t34 -60.5t56 -39t76.5 -14z" />
    <glyph glyph-name="sigma" unicode="&#x3c3;" horiz-adv-x="641" 
d="M315 456h311v-72h-111q73 -75 73 -196q0 -57 -16.5 -106t-50 -85t-85 -57t-120.5 -21t-121.5 21t-87.5 57t-52.5 85t-17.5 106t17.5 106t52 85t87 56.5t121.5 20.5zM312 -4q88 0 133 52.5t45 139.5t-45 138.5t-133 51.5q-87 0 -132.5 -52t-45.5 -138q0 -43 11.5 -78.5
t34 -60.5t56 -39t76.5 -14z" />
    <glyph glyph-name="tau" unicode="&#x3c4;" horiz-adv-x="454" 
d="M19 433h411v-72h-159v-328q0 -14 10.5 -22.5t27.5 -8.5q27 0 61 1t66 7v-64q-29 -11 -69.5 -15t-78.5 -4h-16.5t-15.5 1q-35 4 -59 24t-24 58v351h-154v72z" />
    <glyph glyph-name="upsilon" unicode="&#x3c5;" horiz-adv-x="607" 
d="M80 447h103v-336q0 -58 28 -89t87 -31q27 0 51 15t42 45.5t28.5 77.5t10.5 111q0 48 -14.5 92.5t-40.5 74.5q20 11 38 23.5t36 24.5q35 -36 59.5 -93.5t24.5 -121.5q0 -100 -24 -162.5t-60 -97t-79 -47t-81 -12.5q-40 0 -77.5 11.5t-67 34.5t-47 59t-17.5 85v336z" />
    <glyph glyph-name="phi" unicode="&#x3c6;" horiz-adv-x="641" 
d="M371 -213h-100v142q-61 3 -108 27t-78.5 61.5t-48 85t-16.5 97.5q0 94 38 158.5t93 104.5l53 -66q-45 -32 -66 -80t-20 -117q0 -39 10.5 -73.5t30.5 -61t48.5 -43.5t63.5 -22v384q0 19 8.5 35t22.5 27.5t32 18t38 6.5q58 0 105 -20.5t80 -57t51 -87t18 -110.5
q0 -55 -18.5 -102.5t-52.5 -83.5t-80.5 -57.5t-103.5 -24.5v-141zM371 0q36 3 64.5 19.5t48 43t30 61t10.5 72.5q0 30 -6 66t-20.5 66.5t-39 51.5t-60.5 21q-8 0 -17.5 -4t-9.5 -26v-371z" />
    <glyph glyph-name="chi" unicode="&#x3c7;" horiz-adv-x="717" 
d="M40 -210l261 341l-243 321h114l190 -260l185 260h112l-239 -321q31 -46 63.5 -87.5t65.5 -82t65.5 -82.5t64.5 -89h-113l-204 274l-211 -274h-111z" />
    <glyph glyph-name="psi" unicode="&#x3c8;" horiz-adv-x="713" 
d="M411 -213h-94v120q-124 12 -180.5 81.5t-56.5 188.5v270h98v-270q0 -88 32.5 -136t106.5 -62v468h94v-467q129 36 129 194v273h98v-271q0 -115 -54 -183.5t-173 -83.5v-122z" />
    <glyph glyph-name="omega" unicode="&#x3c9;" horiz-adv-x="695" 
d="M231 393q-29 -5 -49 -27t-32 -54.5t-17.5 -71.5t-5.5 -76q0 -27 4 -57.5t15 -56t30.5 -42t49.5 -16.5q25 0 40 11.5t22.5 30.5t10 41.5t2.5 45.5v117h99v-119q0 -24 2.5 -46.5t10 -40.5t22 -29t38.5 -11q30 0 49.5 16.5t31 41.5t16 55.5t4.5 58.5q0 31 -5 68t-17 71
t-32.5 59t-51.5 31v64q55 -2 93 -29.5t61.5 -69.5t34 -93.5t10.5 -100.5q0 -47 -12 -91t-36.5 -78t-61 -55t-84.5 -21q-76 0 -122 53q-23 -27 -54.5 -40t-70.5 -13q-47 0 -83 21t-60 55t-36.5 78t-12.5 91q0 52 10.5 103.5t34 93t61 68.5t91.5 29v-65z" />
    <glyph glyph-name="uni0401" unicode="&#x401;" horiz-adv-x="541" 
d="M502 -71h-429v721h408v-72h-311v-243h274v-72h-274v-262h332v-72zM123 705v103h103v-103h-103zM324 705v103h105v-103h-105z" />
    <glyph glyph-name="uni0410" unicode="&#x410;" horiz-adv-x="711" 
d="M513 89h-315l-66 -160h-98l311 721h18l312 -721h-96zM351 464l-125 -305h257l-124 305h-8z" />
    <glyph glyph-name="uni0411" unicode="&#x411;" horiz-adv-x="594" 
d="M80 650h421v-71h-322v-245h104q79 0 132.5 -18t85.5 -47t46 -65t14 -73q0 -49 -21.5 -87t-57.5 -63.5t-83.5 -38.5t-99.5 -13h-219v721zM179 -2h119q40 0 71 10.5t52 29t32 43t11 52.5q0 58 -42.5 95t-123.5 37h-119v-267z" />
    <glyph glyph-name="uni0412" unicode="&#x412;" horiz-adv-x="629" 
d="M73 -71v721h236q49 0 90.5 -12t70.5 -35.5t45.5 -58.5t16.5 -80q0 -43 -30 -86.5t-78 -71.5q73 -19 117.5 -66t44.5 -109q0 -49 -18.5 -87t-51 -63.5t-76.5 -38.5t-96 -13h-271zM170 0h172q40 0 68.5 10.5t47 28t27 41.5t8.5 51q0 55 -44 92.5t-131 37.5h-148v-261z
M170 578v-247h134q33 0 58 11.5t42 30t25.5 42t8.5 47.5q0 22 -8.5 43t-25.5 37.5t-41.5 26t-56.5 9.5h-136z" />
    <glyph glyph-name="uni0413" unicode="&#x413;" horiz-adv-x="524" 
d="M509 587h-325v-657h-97v733h422v-76z" />
    <glyph glyph-name="uni0414" unicode="&#x414;" horiz-adv-x="684" 
d="M645 -200h-99v141h-423v-141h-99v209h42q41 0 70 30q19 18 22 47.5t3 63.5v500h424v-641h60v-209zM486 583h-226v-448q0 -33 -6.5 -64.5t-33.5 -61.5h266v574z" />
    <glyph glyph-name="uni0415" unicode="&#x415;" horiz-adv-x="553" 
d="M502 -71h-429v721h408v-72h-311v-243h274v-72h-274v-262h332v-72z" />
    <glyph glyph-name="uni0416" unicode="&#x416;" horiz-adv-x="998" 
d="M450 650h98v-350l268 350h106l-264 -349l308 -372h-117l-301 366v-366h-98v366l-300 -366h-118l309 372l-264 349h106l267 -350v350z" />
    <glyph glyph-name="uni0417" unicode="&#x417;" horiz-adv-x="526" 
d="M33 567q36 46 91 71.5t121 25.5q52 0 95.5 -14t75 -39t49 -59.5t17.5 -76.5q0 -33 -12 -60.5t-31.5 -48.5t-44.5 -35t-50 -21q32 -11 60 -29.5t48.5 -43.5t32.5 -54.5t12 -63.5q0 -44 -19 -81t-54.5 -64.5t-86 -43t-113.5 -15.5q-27 0 -55.5 4t-55.5 12t-51 20t-43 28
l40 63q37 -26 79 -40t85 -14q85 0 133 36t48 100q0 67 -53.5 105.5t-152.5 38.5h-65v69h65q91 0 140.5 37.5t49.5 96.5q0 24 -8.5 46t-26.5 38.5t-46 26t-67 9.5q-35 0 -74 -17t-68 -51z" />
    <glyph glyph-name="uni0418" unicode="&#x418;" horiz-adv-x="800" 
d="M727 650v-722h-96v525l-544 -525h-14v722h99v-525l543 525h12z" />
    <glyph glyph-name="uni0419" unicode="&#x419;" horiz-adv-x="800" 
d="M547 836q0 -32 -13.5 -56t-36 -40.5t-51 -25t-58.5 -8.5q-65 0 -105 34.5t-48 94.5h80q14 -67 73 -67q28 0 50 17t30 51h79zM727 650v-722h-96v525l-544 -525h-14v722h99v-525l543 525h12z" />
    <glyph glyph-name="uni041A" unicode="&#x41a;" horiz-adv-x="673" 
d="M172 300l298 350h106l-294 -349l338 -372h-116l-332 366v-366h-99v721h99v-350z" />
    <glyph glyph-name="uni041B" unicode="&#x41b;" horiz-adv-x="735" 
d="M165 663h484v-733h-97v657h-290v-376q0 -51 -14.5 -96.5t-48.5 -84.5q-30 -36 -70.5 -61t-102.5 -42v77q42 17 69 40t42.5 50t21.5 57.5t6 61.5v450z" />
    <glyph glyph-name="uni041C" unicode="&#x41c;" horiz-adv-x="917" 
d="M845 650v-721h-97v500l-288 -317h-5l-286 319v-502h-96v721h7l378 -418l379 418h8z" />
    <glyph glyph-name="uni041D" unicode="&#x41d;" horiz-adv-x="711" 
d="M636 650v-721h-97v333h-367v-333h-99v721h99v-316h367v316h97z" />
    <glyph glyph-name="uni041E" unicode="&#x41e;" horiz-adv-x="878" 
d="M437 670q90 0 162.5 -30t122.5 -82t77 -121.5t27 -148.5q0 -78 -27.5 -148t-78.5 -122t-123 -82.5t-160 -30.5q-87 0 -158 30t-121.5 82t-78 122t-27.5 149q0 81 27.5 151t78 121t121.5 80.5t158 29.5zM437 -23q71 0 125 26t91 69.5t55.5 99.5t18.5 116q0 64 -20 120.5
t-57.5 98.5t-91 66.5t-121.5 24.5q-66 0 -118.5 -24.5t-90 -66.5t-57.5 -98.5t-20 -120.5q0 -62 19.5 -118.5t56.5 -99t90 -68t120 -25.5z" />
    <glyph glyph-name="uni041F" unicode="&#x41f;" horiz-adv-x="737" 
d="M651 663v-733h-99v657h-367v-657h-98v733h564z" />
    <glyph glyph-name="uni0420" unicode="&#x420;" horiz-adv-x="599" 
d="M73 -71v721h220q58 0 105 -17t80 -47t51 -71.5t18 -91.5q0 -47 -18 -88t-51.5 -71t-81 -47.5t-105.5 -17.5h-124v-270h-94zM167 271h123q38 0 68.5 11.5t51.5 32t32 48.5t11 60q0 69 -42 112t-118 43h-126v-307z" />
    <glyph glyph-name="uni0421" unicode="&#x421;" horiz-adv-x="765" 
d="M52 297q0 76 27.5 143.5t79 118.5t124.5 81t165 30q84 0 147 -18.5t117 -56.5l-48 -65q-26 17 -48.5 29t-47 20t-53.5 12t-68 4q-63 0 -117 -22t-93.5 -61.5t-61.5 -94.5t-22 -120t22 -122t61.5 -99.5t93.5 -67t117 -24.5q75 0 135.5 21t97.5 47l39 -63q-51 -38 -120 -58
t-151 -20q-91 0 -164 32t-124.5 86t-79.5 123.5t-28 144.5z" />
    <glyph glyph-name="uni0422" unicode="&#x422;" horiz-adv-x="587" 
d="M245 -71v649h-204v72h506v-72h-205v-649h-97z" />
    <glyph glyph-name="uni0423" unicode="&#x423;" horiz-adv-x="593" 
d="M34 650h106l150 -320l165 320h104l-382 -721h-103l166 305z" />
    <glyph glyph-name="uni0424" unicode="&#x424;" horiz-adv-x="708" 
d="M306 -71v156q-54 5 -103 21t-86 42.5t-58.5 64t-21.5 85.5t21.5 86t58.5 65t86 43t103 21v137h98v-138q54 -5 103 -21t86 -42.5t58.5 -64.5t21.5 -86q0 -50 -21.5 -87.5t-58.5 -64t-86 -42.5t-103 -21v-154h-98zM404 434v-273q35 4 66 14.5t54 27t36.5 40.5t13.5 55
t-13.5 54.5t-36.5 40.5t-54 27t-66 14zM306 161v273q-36 -4 -67 -14t-54.5 -27t-37 -40.5t-13.5 -54.5t13.5 -55t37 -40.5t54.5 -27t67 -14.5z" />
    <glyph glyph-name="uni0425" unicode="&#x425;" horiz-adv-x="717" 
d="M40 -71l261 371l-243 350h114l190 -289l185 289h112l-239 -350q63 -93 129 -186t130 -185h-113l-204 304l-211 -304h-111z" />
    <glyph glyph-name="uni0426" unicode="&#x426;" horiz-adv-x="668" 
d="M546 650v-646h72v-216h-99v141h-439v721h99v-646h268v646h99z" />
    <glyph glyph-name="uni0427" unicode="&#x427;" horiz-adv-x="594" 
d="M418 -71v274q-35 -25 -77 -41t-77 -16q-40 0 -74 12t-58.5 34.5t-38 55t-13.5 74.5v328h97v-326q0 -28 9 -47.5t24.5 -32t35.5 -18.5t42 -6q32 0 67.5 16.5t62.5 45.5v368h98v-721h-98z" />
    <glyph glyph-name="uni0428" unicode="&#x428;" horiz-adv-x="790" 
d="M87 -71v721h98v-646h160v646h98v-646h162v646h99v-721h-617z" />
    <glyph glyph-name="uni0429" unicode="&#x429;" horiz-adv-x="826" 
d="M704 650v-646h73v-216h-99v141h-598v721h99v-646h166v646h98v-646h162v646h99z" />
    <glyph glyph-name="uni042A" unicode="&#x42a;" horiz-adv-x="735" 
d="M218 -71v650h-204v71h303v-316h103q79 0 132.5 -18t85.5 -47t46 -65t14 -73q0 -49 -21.5 -87t-57.5 -63.5t-83 -38.5t-99 -13h-219zM317 -2h119q40 0 71 10.5t52 29t32 43t11 52.5q0 58 -43 95t-123 37h-119v-267z" />
    <glyph glyph-name="uni042B" unicode="&#x42b;" horiz-adv-x="862" 
d="M186 649v-313h102q79 0 132.5 -18.5t86.5 -47.5t47 -65.5t14 -73.5q0 -49 -21.5 -87t-57.5 -63.5t-83.5 -38.5t-99.5 -13h-219v720h99zM186 1h118q40 0 71 10t52.5 28t32.5 42t11 52q0 58 -43 95t-124 37h-118v-264zM679 -71v721h98v-721h-98z" />
    <glyph glyph-name="uni042C" unicode="&#x42c;" horiz-adv-x="605" 
d="M186 650v-314h102q79 0 132.5 -18.5t86.5 -47.5t47 -65.5t14 -73.5q0 -49 -21.5 -87t-57.5 -63.5t-83.5 -38.5t-99.5 -13h-219v721h99zM186 0h118q40 0 71 10.5t52.5 28.5t32.5 42t11 52q0 58 -43 95t-124 37h-118v-265z" />
    <glyph glyph-name="uni042D" unicode="&#x42d;" horiz-adv-x="730" 
d="M25 1l42 66q38 -28 100.5 -46t140.5 -18q56 0 107 20t91 55.5t66.5 84t32.5 105.5h-528v72h526q-8 53 -33.5 98t-65 78t-90.5 51.5t-109 18.5q-60 0 -118 -15.5t-106 -47.5l-47 64q55 39 120 58t151 19q87 0 160 -29.5t126.5 -80t83.5 -117t30 -139.5q0 -75 -30 -143.5
t-83.5 -120t-126.5 -82t-160 -30.5q-85 0 -157 19t-123 60z" />
    <glyph glyph-name="uni042E" unicode="&#x42e;" horiz-adv-x="858" 
d="M569 -84q-58 0 -106 23t-83 68t-55.5 110.5t-23.5 150.5h-117v-338h-97v733h97v-323h118q5 81 26 144t55.5 106.5t81.5 66.5t104 23q60 0 109 -25.5t84.5 -75t55 -121t19.5 -163.5q0 -91 -19.5 -161.5t-55 -119t-84.5 -73.5t-109 -25zM569 607q-40 0 -72.5 -23.5t-55 -65
t-35 -98.5t-12.5 -125q0 -67 12.5 -123t35 -96.5t55 -63.5t72.5 -23q41 0 73.5 23t55 63.5t34.5 96.5t12 123q0 68 -12 125t-34.5 98.5t-55 65t-73.5 23.5z" />
    <glyph glyph-name="uni042F" unicode="&#x42f;" horiz-adv-x="647" 
d="M471 578h-126q-77 0 -118.5 -34.5t-41.5 -97.5q0 -62 43 -98.5t122 -36.5h121v267zM344 650h225v-721h-98v310h-121l-225 -310h-103l231 320q-81 24 -123.5 76t-42.5 121q0 45 16.5 82.5t49 64.5t80.5 42t111 15z" />
    <glyph glyph-name="uni0430" unicode="&#x430;" horiz-adv-x="549" 
d="M404 -72v45q-22 -16 -47 -26.5t-50 -16.5t-47.5 -8t-40.5 -1q-36 1 -69 13.5t-58.5 34t-41 51.5t-15.5 65q0 33 13 61t35.5 49.5t52 37t61.5 24.5q13 3 31 5t39 3t43.5 1.5t43.5 0.5h40v35q0 35 -29 59.5t-89 24.5q-16 0 -36 -3.5t-40.5 -9.5t-40.5 -13.5t-36 -15.5
l-33 58q16 11 38 21.5t46.5 18.5t50.5 13.5t51 6.5q43 1 81.5 -8t67.5 -28.5t46 -49.5t17 -70v-378h-84zM394 196h-25h-41.5t-42 -1t-37.5 -2t-28 -4q-38 -12 -63.5 -37t-25.5 -65q0 -20 9 -37t24 -29.5t34 -20t39 -7.5q12 0 33.5 2t45.5 7t45.5 15t32.5 26v153z" />
    <glyph glyph-name="uni0431" unicode="&#x431;" horiz-adv-x="625" 
d="M40 223q3 119 30 201.5t70.5 134t99 74.5t115.5 23h34v-78h-31q-32 0 -63.5 -12.5t-58 -34.5t-45 -51t-24.5 -63q32 15 67.5 23.5t80.5 8.5q69 0 120.5 -20t85 -55.5t50.5 -84t17 -105.5t-16.5 -105.5t-50 -84t-85 -55.5t-120.5 -20t-121.5 20t-87.5 55.5t-52.5 84
t-17.5 105.5q0 9 0.5 19t2.5 20zM312 -4q88 0 133 50.5t45 137.5q0 88 -45 138t-133 50q-87 0 -132.5 -51t-45.5 -137q0 -87 45.5 -137.5t132.5 -50.5z" />
    <glyph glyph-name="uni0432" unicode="&#x432;" horiz-adv-x="541" 
d="M87 -71v528h175q95 0 145 -37.5t50 -103.5q0 -30 -19.5 -57t-55.5 -47q54 -16 88 -48.5t34 -80.5q0 -75 -57 -114.5t-162 -39.5h-198zM186 -2h97q55 0 90 21.5t35 65.5q0 21 -10 36t-27 25t-40 14.5t-48 4.5h-97v-167zM186 234h70q19 0 38 4.5t34 14t24.5 25t9.5 36.5
q0 29 -24.5 51.5t-77.5 22.5h-74v-154z" />
    <glyph glyph-name="uni0433" unicode="&#x433;" horiz-adv-x="461" 
d="M447 372h-263v-443h-97v517h360v-74z" />
    <glyph glyph-name="uni0434" unicode="&#x434;" horiz-adv-x="588" 
d="M539 -200h-97v141h-312v-141h-97v212h38q23 0 38 7t31 21q19 20 24 47.5t5 61.5v297h317v-434h53v-212zM389 378h-124v-244q0 -35 -12.5 -68.5t-40.5 -53.5h177v366z" />
    <glyph glyph-name="uni0435" unicode="&#x435;" horiz-adv-x="565" 
d="M503 -24q-42 -30 -93.5 -44t-111.5 -14q-132 0 -196.5 68.5t-64.5 193.5q0 136 65.5 206t183.5 70q59 0 104 -18.5t75 -52t45.5 -81.5t15.5 -106q0 -23 -5 -48h-388q6 -81 49.5 -118.5t115.5 -37.5q40 0 85 9t81 35zM429 222q-3 76 -36.5 116t-108.5 40
q-66 0 -107.5 -39.5t-43.5 -116.5h296z" />
    <glyph glyph-name="uni0436" unicode="&#x436;" horiz-adv-x="667" 
d="M283 446h100v-233q24 7 37 16t20.5 22.5t13 32.5t14.5 47q5 16 11 32.5t14 31.5t18.5 27t24.5 19q14 8 36.5 12.5t63.5 4.5l-1 -74q-56 -5 -75 -40q-8 -13 -15.5 -31.5t-15.5 -41.5q-7 -21 -17.5 -41.5t-20.5 -37.5l174 -263h-92l-146 221q-14 -4 -24 -6t-20 -3v-212
h-100v212q-13 1 -21 2t-22 6l-143 -220h-95l171 260q-13 18 -23.5 41t-17.5 46q-5 14 -13.5 36t-15.5 36q-10 15 -29.5 23.5t-44.5 9.5v75q67 0 94 -15q29 -18 44 -48.5t26 -61.5l12 -36q5 -15 10.5 -27.5t14 -23t21 -19t32.5 -13.5v234z" />
    <glyph glyph-name="uni0437" unicode="&#x437;" horiz-adv-x="408" 
d="M70 29q48 -33 120 -32q51 0 79.5 24.5t28.5 61.5q2 74 -63 97q-18 6 -47 7.5t-49 0.5v66h21t23.5 1t21.5 2t15 3q32 10 44.5 31.5t12.5 49.5q0 41 -25 56t-66 15q-25 0 -50 -6.5t-45 -18.5l-27 62q26 15 58.5 24.5t63.5 9.5q44 0 78.5 -10.5t58.5 -29t36 -43t12 -52.5
q-1 -40 -21 -73t-61 -50q55 -19 79 -57t24 -83q0 -30 -12.5 -58.5t-37.5 -51t-62.5 -36t-86.5 -14.5q-43 -1 -84.5 10.5t-74.5 34.5z" />
    <glyph glyph-name="uni0438" unicode="&#x438;" horiz-adv-x="638" 
d="M80 446h96v-389l284 389h100v-518h-96v376l-280 -376h-104v518z" />
    <glyph glyph-name="uni0439" unicode="&#x439;" horiz-adv-x="638" 
d="M471 646q-1 -32 -14.5 -56.5t-35.5 -41.5t-50.5 -25.5t-59.5 -8.5q-64 0 -104 34.5t-49 96.5h80q17 -67 73 -67q29 0 51.5 17t29.5 51h79zM80 446h96v-389l284 389h100v-518h-96v376l-280 -376h-104v518z" />
    <glyph glyph-name="uni043A" unicode="&#x43a;" horiz-adv-x="547" 
d="M177 446v-237l234 237h111l-238 -243l257 -274h-119l-245 260v-260h-97v517h97z" />
    <glyph glyph-name="uni043B" unicode="&#x43b;" horiz-adv-x="594" 
d="M26 1q40 10 65 24t39 32.5t19 42t5 53.5v293h368v-517h-97v443h-174v-220q0 -51 -13 -87.5t-42 -64.5q-18 -17 -35 -28t-36.5 -19.5t-43.5 -15t-55 -12.5v76z" />
    <glyph glyph-name="uni043C" unicode="&#x43c;" horiz-adv-x="700" 
d="M87 446h80l182 -246l186 246h80v-517h-95v369l-159 -205h-26l-155 204v-368h-93v517z" />
    <glyph glyph-name="uni043D" unicode="&#x43d;" horiz-adv-x="636" 
d="M559 446v-517h-97v231h-285v-231h-97v517h97v-212h285v212h97z" />
    <glyph glyph-name="uni043E" unicode="&#x43e;" horiz-adv-x="625" 
d="M315 456q69 0 120.5 -21t85 -57.5t50.5 -85.5t17 -106t-16.5 -106t-50 -84.5t-85 -56t-120.5 -20.5t-121.5 20.5t-87.5 56t-52.5 84.5t-17.5 106t17.5 106.5t52 85.5t87 57t121.5 21zM312 -4q88 0 133 52.5t45 137.5q0 88 -45 140t-133 52q-43 0 -76.5 -14t-56 -39
t-34 -60.5t-11.5 -78.5q0 -85 45.5 -137.5t132.5 -52.5z" />
    <glyph glyph-name="uni043F" unicode="&#x43f;" horiz-adv-x="636" 
d="M559 446v-517h-97v443h-285v-443h-97v517h479z" />
    <glyph glyph-name="uni0440" unicode="&#x440;" horiz-adv-x="528" 
d="M70 -223v669h205q58 0 103.5 -19t77 -53.5t48 -82t16.5 -105.5q0 -55 -17 -102t-49 -81.5t-78 -54t-104 -19.5h-105v-152h-97zM167 4h105q72 0 112 47.5t40 134.5q0 90 -39 137.5t-112 47.5h-106v-367z" />
    <glyph glyph-name="uni0441" unicode="&#x441;" horiz-adv-x="536" 
d="M517 -33q-17 -14 -40 -23t-47 -15t-48.5 -8.5t-44.5 -2.5q-65 0 -117 19.5t-88 55.5t-55.5 85.5t-19.5 109.5q0 59 19.5 108.5t55.5 85t86 55t112 19.5q45 0 91.5 -10t88.5 -39l-40 -63q-29 17 -59.5 25.5t-80.5 8.5q-42 0 -75 -14.5t-55.5 -40t-34 -60t-11.5 -74.5
q0 -90 45.5 -142.5t135.5 -52.5q52 0 86.5 10.5t60.5 27.5z" />
    <glyph glyph-name="uni0442" unicode="&#x442;" horiz-adv-x="447" 
d="M15 384v63h414v-63h-158v-456h-97v456h-159z" />
    <glyph glyph-name="uni0443" unicode="&#x443;" horiz-adv-x="519" 
d="M70 -223l132 250l-204 419h103l151 -325l165 325h103l-347 -669h-103z" />
    <glyph glyph-name="uni0444" unicode="&#x444;" horiz-adv-x="890" 
d="M494 -223h-99v252q-9 -14 -24.5 -26t-34.5 -21t-40 -14t-40 -5q-53 0 -94.5 21t-70 56t-43.5 79.5t-15 92.5t15 92t43.5 77.5t69.5 54t94 20.5q44 0 83 -19t57 -49v272h99v-272q9 15 25.5 27.5t36 21.5t40.5 14t39 5q53 0 94 -20.5t69.5 -54t43.5 -77.5t15 -92t-15 -92.5
t-43.5 -79.5t-70 -56t-94.5 -21q-39 0 -76 19t-64 48v-253zM262 34q32 0 57.5 15t43 40t26.5 57t9 65t-9 64.5t-26.5 55.5t-43 38.5t-57.5 14.5q-34 0 -58.5 -14.5t-41 -38t-24.5 -54t-8 -63.5t7.5 -65t23.5 -57.5t41 -41.5t60 -16zM629 384q-33 0 -58.5 -15t-43 -39.5
t-27 -55.5t-9.5 -63t9.5 -64t27 -57t43 -40.5t58.5 -15.5q34 0 59 16t40.5 41.5t23 58t7.5 64.5t-8 62.5t-24 54.5t-40.5 38.5t-57.5 14.5z" />
    <glyph glyph-name="uni0445" unicode="&#x445;" horiz-adv-x="520" 
d="M-7 -72l209 262l-194 256h111l139 -191l136 191h110l-189 -257l194 -261h-111l-140 195l-150 -195h-115z" />
    <glyph glyph-name="uni0446" unicode="&#x446;" horiz-adv-x="642" 
d="M493 446v-442h72v-204h-99v129h-386v517h99v-442h215v442h99z" />
    <glyph glyph-name="uni0447" unicode="&#x447;" horiz-adv-x="573" 
d="M398 -71v178q-35 -26 -72.5 -41.5t-72.5 -15.5q-80 0 -126.5 45t-46.5 129v222h97v-220q0 -55 28 -79.5t72 -24.5q32 0 63 17t58 46v261h98v-517h-98z" />
    <glyph glyph-name="uni0448" unicode="&#x448;" horiz-adv-x="726" 
d="M87 -71v517h93v-442h136v442h93v-442h138v442h93v-517h-553z" />
    <glyph glyph-name="uni0449" unicode="&#x449;" horiz-adv-x="763" 
d="M640 446v-431h73v-215h-95v141h-538v505h96v-431h140v431h93v-431h137v431h94z" />
    <glyph glyph-name="uni044A" unicode="&#x44a;" horiz-adv-x="614" 
d="M176 -71v447h-162v70h257v-190h59q71 0 118.5 -14t76 -37t40 -52.5t11.5 -60.5q0 -42 -16 -72.5t-45.5 -51t-71.5 -30t-94 -9.5h-173zM271 -2h74q41 0 67.5 7t41.5 19.5t21 30.5t6 39q0 19 -6 36t-21 30t-41.5 20.5t-67.5 7.5h-74v-190z" />
    <glyph glyph-name="uni044B" unicode="&#x44b;" horiz-adv-x="744" 
d="M87 -71v517h96v-189h59q71 0 117.5 -14.5t74 -37.5t38.5 -52.5t11 -60.5q0 -84 -60 -123.5t-163 -39.5h-173zM183 -2h74q41 0 66.5 7t39.5 19.5t19 30.5t5 39q0 19 -6.5 36t-21.5 30t-40 20.5t-62 7.5h-74v-190zM565 -71v517h93v-517h-93z" />
    <glyph glyph-name="uni044C" unicode="&#x44c;" horiz-adv-x="520" 
d="M87 -71v517h96v-189h59q71 0 117.5 -14.5t74 -37.5t38.5 -52.5t11 -60.5q0 -84 -60 -123.5t-163 -39.5h-173zM183 -2h74q41 0 66.5 7t39.5 19.5t19 30.5t5 39q0 19 -6.5 36t-21.5 30t-40 20.5t-62 7.5h-74v-190z" />
    <glyph glyph-name="uni044D" unicode="&#x44d;" horiz-adv-x="550" 
d="M84 32q26 -17 60 -27.5t86 -10.5q82 0 127 44.5t52 121.5h-328v68h327q-5 33 -19 60.5t-35.5 47.5t-51.5 31t-67 11q-51 0 -81.5 -8.5t-58.5 -25.5l-41 63q42 29 89 39t92 10q61 0 111.5 -19.5t86.5 -55t55.5 -85t19.5 -108.5q0 -60 -19 -109.5t-55 -85.5t-88 -55.5
t-117 -19.5q-21 0 -45 2.5t-49 8.5t-47.5 15t-40.5 23z" />
    <glyph glyph-name="uni044E" unicode="&#x44e;" horiz-adv-x="708" 
d="M87 -71v517h92v-223h83q8 109 60 169.5t149 60.5q103 0 159 -68.5t56 -192.5q0 -129 -51.5 -197t-163.5 -68q-98 0 -148 58t-60 169h-84v-225h-92zM471 -2q61 0 91.5 53t30.5 141q0 41 -9 75.5t-25.5 60t-38.5 39.5t-49 14q-28 0 -49.5 -15t-36.5 -41t-22.5 -60t-7.5 -73
q0 -42 7 -77.5t21.5 -61.5t36 -40.5t51.5 -14.5z" />
    <glyph glyph-name="uni044F" unicode="&#x44f;" horiz-adv-x="513" 
d="M354 372h-63q-56 0 -88.5 -18.5t-32.5 -61.5q0 -44 30 -63t96 -19h58v162zM354 -71v206h-26q-38 0 -70.5 -21t-55.5 -56l-85 -129h-102l103 151q12 19 35.5 39.5t55.5 33.5q-60 16 -96 53.5t-36 86.5q0 68 53 110.5t163 42.5h155v-517h-94z" />
    <glyph glyph-name="uni0451" unicode="&#x451;" horiz-adv-x="552" 
d="M167 520q-26 0 -41.5 16.5t-15.5 36.5q0 19 15.5 35.5t41.5 16.5t41 -16.5t15 -35.5q0 -20 -15 -36.5t-41 -16.5zM394 520q-26 0 -42.5 16.5t-16.5 36.5q0 19 16.5 35.5t42.5 16.5t40.5 -16.5t14.5 -35.5q0 -20 -14.5 -36.5t-40.5 -16.5zM503 -24q-42 -30 -93.5 -44
t-111.5 -14q-132 0 -196.5 68.5t-64.5 193.5q0 136 65.5 206t183.5 70q59 0 104 -18.5t75 -52t45.5 -81.5t15.5 -106q0 -23 -5 -48h-388q6 -81 49.5 -118.5t115.5 -37.5q40 0 85 9t81 35zM429 222q-3 76 -36.5 116t-108.5 40q-66 0 -107.5 -39.5t-43.5 -116.5h296z" />
    <glyph glyph-name="uni2010" unicode="&#x2010;" horiz-adv-x="540" 
d="M67 359h406v-107h-406v107z" />
    <glyph glyph-name="endash" unicode="&#x2013;" horiz-adv-x="540" 
d="M67 359h406v-107h-406v107z" />
    <glyph glyph-name="emdash" unicode="&#x2014;" horiz-adv-x="1000" 
d="M23 359h954v-107h-954v107z" />
    <glyph glyph-name="uni2015" unicode="&#x2015;" horiz-adv-x="1000" 
d="M23 359h954v-107h-954v107z" />
    <glyph glyph-name="uni2016" unicode="&#x2016;" 
d="M410 746v-916h-121v916h121zM610 746v-916h-121v916h121z" />
    <glyph glyph-name="quoteleft" unicode="&#x2018;" horiz-adv-x="300" 
d="M150 472q-40 0 -67 26.5t-27 79.5q0 47 30 95.5t96 86.5l17 -19q-38 -29 -39 -53t32 -41q21 -11 36 -30.5t15 -52.5q0 -19 -7 -36t-19.5 -29.5t-29.5 -19.5t-37 -7z" />
    <glyph glyph-name="quoteright" unicode="&#x2019;" horiz-adv-x="300" 
d="M149 720q40 0 67 -26.5t27 -79.5q0 -47 -30 -95.5t-96 -86.5l-17 19q38 29 39 53t-32 41q-21 11 -36 30.5t-15 52.5q0 19 7 36t19.5 29.5t29.5 19.5t37 7z" />
    <glyph glyph-name="quotedblleft" unicode="&#x201c;" horiz-adv-x="500" 
d="M145 472q-40 0 -67 26.5t-27 79.5q0 47 30 95.5t96 86.5l17 -19q-38 -29 -39 -53t32 -41q21 -11 36 -30.5t15 -52.5q0 -19 -7 -36t-19.5 -29.5t-29.5 -19.5t-37 -7zM355 472q-40 0 -67 26.5t-27 79.5q0 47 30 95.5t96 86.5l17 -19q-38 -29 -39 -53t32 -41
q21 -11 36 -30.5t15 -52.5q0 -19 -7 -36t-19.5 -29.5t-29.5 -19.5t-37 -7z" />
    <glyph glyph-name="quotedblright" unicode="&#x201d;" horiz-adv-x="500" 
d="M354 720q40 0 67 -26.5t27 -79.5q0 -47 -30 -95.5t-96 -86.5l-17 19q38 29 39 53t-32 41q-21 11 -36 30.5t-15 52.5q0 19 7 36t19.5 29.5t29.5 19.5t37 7zM144 720q40 0 67 -26.5t27 -79.5q0 -47 -30 -95.5t-96 -86.5l-17 19q38 29 39 53t-32 41q-21 11 -36 30.5
t-15 52.5q0 19 7 36t19.5 29.5t29.5 19.5t37 7z" />
    <glyph glyph-name="dagger" unicode="&#x2020;" horiz-adv-x="720" 
d="M442 -18q0 -64 -61 -64h-98v505h-155v97h155v188h159v-188h149v-97h-149v-441z" />
    <glyph glyph-name="daggerdbl" unicode="&#x2021;" horiz-adv-x="720" 
d="M442 -18q0 -64 -61 -64h-98v305h-155v97h155v103h-155v97h155v188h159v-188h149v-97h-149v-103h149v-97h-149v-241z" />
    <glyph glyph-name="bullet" unicode="&#x2022;" horiz-adv-x="286" 
d="M50 308q0 19 7 36t19.5 29.5t29.5 19.5t37 7t37 -7t29.5 -19.5t19.5 -29.5t7 -36t-7 -36t-19.5 -29.5t-29.5 -19.5t-37 -7t-37 7t-29.5 19.5t-19.5 29.5t-7 36z" />
    <glyph glyph-name="twodotenleader" unicode="&#x2025;" horiz-adv-x="540" 
d="M42 -22q0 19 7 36t19.5 29.5t29.5 19.5t37 7t37 -7t29.5 -19.5t19.5 -29.5t7 -36t-7 -36t-19.5 -29.5t-29.5 -19.5t-37 -7t-37 7t-29.5 19.5t-19.5 29.5t-7 36zM312 -22q0 19 7 36t19.5 29.5t29.5 19.5t37 7t37 -7t29.5 -19.5t19.5 -29.5t7 -36t-7 -36t-19.5 -29.5
t-29.5 -19.5t-37 -7t-37 7t-29.5 19.5t-19.5 29.5t-7 36z" />
    <glyph glyph-name="ellipsis" unicode="&#x2026;" horiz-adv-x="810" 
d="M42 -22q0 19 7 36t19.5 29.5t29.5 19.5t37 7t37 -7t29.5 -19.5t19.5 -29.5t7 -36t-7 -36t-19.5 -29.5t-29.5 -19.5t-37 -7t-37 7t-29.5 19.5t-19.5 29.5t-7 36zM312 -22q0 19 7 36t19.5 29.5t29.5 19.5t37 7t37 -7t29.5 -19.5t19.5 -29.5t7 -36t-7 -36t-19.5 -29.5
t-29.5 -19.5t-37 -7t-37 7t-29.5 19.5t-19.5 29.5t-7 36zM582 -22q0 19 7 36t19.5 29.5t29.5 19.5t37 7t37 -7t29.5 -19.5t19.5 -29.5t7 -36t-7 -36t-19.5 -29.5t-29.5 -19.5t-37 -7t-37 7t-29.5 19.5t-19.5 29.5t-7 36z" />
    <glyph glyph-name="perthousand" unicode="&#x2030;" horiz-adv-x="1000" 
d="M521 685l-277 -794h-100l278 794h99zM161 678q67 0 108 -48.5t41 -142.5q0 -93 -41 -142t-108 -49t-108.5 49t-41.5 142q0 94 41.5 142.5t108.5 48.5zM161 378q22 0 29.5 27.5t7.5 81.5q0 55 -8 82t-29 27q-38 0 -38 -109q0 -54 8.5 -81.5t29.5 -27.5zM513 280
q67 0 108 -48.5t41 -142.5q0 -93 -41 -142t-108 -49t-108.5 49t-41.5 142q0 94 41.5 142.5t108.5 48.5zM513 -20q22 0 29.5 27.5t7.5 81.5q0 55 -8 82t-29 27q-39 0 -39 -109q0 -54 9 -81.5t30 -27.5zM841 280q66 0 107 -48.5t41 -142.5q0 -93 -41 -142t-107 -49
q-67 0 -109 49t-42 142q0 94 42 142.5t109 48.5zM841 -20q21 0 28.5 27.5t7.5 81.5q0 55 -8 82t-28 27q-21 0 -30 -27t-9 -82q0 -54 8.5 -81.5t30.5 -27.5z" />
    <glyph glyph-name="minute" unicode="&#x2032;" horiz-adv-x="250" 
d="M113 438q-8 40 -19 67t-22 48.5t-18.5 42t-7.5 46.5q0 32 22.5 55t56.5 23t56.5 -23t22.5 -55q0 -26 -7.5 -46.5t-18.5 -42t-22.5 -48.5t-18.5 -67h-24z" />
    <glyph glyph-name="second" unicode="&#x2033;" horiz-adv-x="450" 
d="M118 438q-8 40 -19 67t-22 48.5t-18.5 42t-7.5 46.5q0 32 22.5 55t56.5 23t56.5 -23t22.5 -55q0 -26 -7.5 -46.5t-18.5 -42t-22.5 -48.5t-18.5 -67h-24zM308 438q-8 40 -19 67t-22 48.5t-18.5 42t-7.5 46.5q0 32 22.5 55t56.5 23t56.5 -23t22.5 -55q0 -26 -7.5 -46.5
t-18.5 -42t-22.5 -48.5t-18.5 -67h-24z" />
    <glyph glyph-name="uni203B" unicode="&#x203b;" horiz-adv-x="1000" 
d="M248 686l252 -317l253 317h129l-317 -399l317 -397h-130l-252 316l-251 -316h-130l316 397l-316 399h129zM408 638q0 19 7 36t19.5 29.5t29.5 19.5t37 7t37 -7t29.5 -19.5t19.5 -29.5t7 -36t-7 -36t-19.5 -29.5t-29.5 -19.5t-37 -7t-37 7t-29.5 19.5t-19.5 29.5t-7 36z
M840 382q19 0 36 -7t29.5 -19.5t19.5 -29.5t7 -37t-7 -37t-19.5 -29.5t-29.5 -19.5t-36 -7t-36 7t-29.5 19.5t-19.5 29.5t-7 37t7 37t19.5 29.5t29.5 19.5t36 7zM160 196q-19 0 -36 7t-29.5 19.5t-19.5 29.5t-7 37t7 37t19.5 29.5t29.5 19.5t36 7t36 -7t29.5 -19.5
t19.5 -29.5t7 -37t-7 -37t-19.5 -29.5t-29.5 -19.5t-36 -7zM594 -62q0 -19 -7 -36t-19.5 -29.5t-29.5 -19.5t-37 -7t-37 7t-29.5 19.5t-19.5 29.5t-7 36t7 36t19.5 29.5t29.5 19.5t37 7t37 -7t29.5 -19.5t19.5 -29.5t7 -36z" />
    <glyph glyph-name="uni2074" unicode="&#x2074;" horiz-adv-x="350" 
d="M273 334h-92v79h-165v54l174 245h83v-243h61v-56h-61v-79zM98 469h83v117z" />
    <glyph glyph-name="uni207F" unicode="&#x207f;" horiz-adv-x="350" 
d="M144 605v-22q28 12 62 12q33 0 54.5 -9t34 -23.5t17.5 -32t5 -33.5v-135q0 -34 -36 -34h-54v166q0 23 -10.5 35.5t-36.5 12.5q-9 0 -18.5 -3t-17.5 -6v-171q0 -17 -8 -25.5t-28 -8.5h-53v221q0 13 -22 21z" />
    <glyph glyph-name="uni2081" unicode="&#x2081;" horiz-adv-x="350" 
d="M55 -66h77v235q-11 -7 -28 -12t-34 -7l-11 55q24 7 46.5 16.5t36.5 22.5h85v-310h67v-57h-239v57z" />
    <glyph glyph-name="uni2082" unicode="&#x2082;" horiz-adv-x="350" 
d="M164 -66h153v-57h-283v35q27 25 59.5 57t60 64.5t46 63t18.5 54.5q0 25 -11 38.5t-31 13.5q-27 0 -42.5 -22t-20.5 -58l-81 22q11 55 46 84.5t99 29.5q27 0 51 -7t42 -21t28.5 -36.5t10.5 -52.5q0 -26 -15.5 -55.5t-37.5 -58t-47.5 -53t-44.5 -41.5z" />
    <glyph glyph-name="uni2083" unicode="&#x2083;" horiz-adv-x="350" 
d="M170 -131q-57 0 -93 25t-51 66l81 33q6 -30 24 -49t44 -19q27 0 43.5 16.5t16.5 45.5t-18.5 44.5t-49.5 15.5h-46v56h39q28 0 45 16.5t17 37.5q0 27 -14 38.5t-32 11.5q-20 0 -34.5 -15.5t-22.5 -41.5l-77 30q18 42 56 63t76 21q30 0 55 -8t43.5 -21.5t29 -33t10.5 -41.5
q0 -28 -16 -48.5t-34 -31.5q30 -14 46 -39.5t16 -56.5q0 -23 -10 -44t-29.5 -37t-48.5 -25t-66 -9z" />
    <glyph glyph-name="uni2084" unicode="&#x2084;" horiz-adv-x="350" 
d="M273 -126h-92v79h-165v54l174 245h83v-243h61v-56h-61v-79zM98 9h83v117z" />
    <glyph glyph-name="Euro" unicode="&#x20ac;" 
d="M102 259h87q-1 8 -1 16.5v17.5q0 31 3 61h-89v105h109q36 112 118 169t191 57q55 0 103.5 -17t85 -47t57.5 -70.5t21 -87.5q0 -38 -24 -60.5t-61 -22.5q-56 0 -82 52q12 24 12 52t-12 51t-37 38.5t-63 15.5q-50 0 -88 -33.5t-59 -96.5h135v-105h-155q-3 -30 -3 -61v-17.5
t1 -16.5h157v-105h-142q20 -76 59 -116t90 -40q32 0 56 13t41 35.5t27 52.5t13 63l155 -24q-11 -60 -38 -104t-67 -73.5t-90 -44t-106 -14.5q-57 0 -106 15.5t-88 47t-67 78.5t-43 111h-100v105z" />
    <glyph glyph-name="uni2103" unicode="&#x2103;" 
d="M415 293q0 -71 13 -126t35 -92.5t52 -57t65 -19.5q32 0 56 13t41 35.5t26.5 52.5t12.5 63l156 -24q-11 -60 -38 -104t-67 -73.5t-90 -44t-106 -14.5q-70 0 -128.5 24t-100.5 72.5t-65.5 122t-23.5 172.5q0 97 25 170t69 122.5t105 74.5t133 25q55 0 103.5 -17t85 -47
t57.5 -70.5t21 -87.5q0 -38 -24.5 -60.5t-60.5 -22.5q-56 0 -82 52q11 24 11 52t-12 51t-36.5 38.5t-62.5 15.5q-76 0 -123 -77t-47 -219zM152 739q25 0 47.5 -8.5t39.5 -26t27 -42.5t10 -58t-10 -58.5t-27 -42.5t-39.5 -26t-47.5 -9t-47.5 9t-40 26t-27.5 42.5t-10 58.5
t10 58t27.5 42.5t40 26t47.5 8.5zM152 526q17 0 23.5 19.5t6.5 58.5t-6.5 58t-23.5 19t-24 -19t-7 -58t7 -58.5t24 -19.5z" />
    <glyph glyph-name="uni2109" unicode="&#x2109;" 
d="M182 739q25 0 47.5 -8.5t39.5 -26t27 -42.5t10 -58t-10 -58.5t-27 -42.5t-39.5 -26t-47.5 -9t-47.5 9t-40 26t-27.5 42.5t-10 58.5t10 58t27.5 42.5t40 26t47.5 8.5zM182 526q17 0 23 19.5t6 58.5t-6 58t-23 19q-18 0 -24.5 -19t-6.5 -58t6.5 -58.5t24.5 -19.5zM523 -71
h-159v647q0 14 -5 26.5t-19 18.5l183 60v-30h321v-97h-321v-208h307v-97h-307v-320z" />
    <glyph glyph-name="uni2113" unicode="&#x2113;" horiz-adv-x="450" 
d="M41 -44q26 25 44 45t34 40q-9 29 -15.5 62t-10 64.5t-5 60.5t-1.5 51q0 42 3 90t10.5 95t20 90t31.5 75.5t44.5 52t59.5 19.5q40 0 67.5 -16.5t44.5 -44t24 -64t7 -76.5q0 -49 -13 -110t-34.5 -124.5t-50.5 -125.5t-62 -113q6 -7 9 -9t8 -2q12 0 21.5 7.5t17.5 19
t13.5 26.5t10.5 30l90 -53q-7 -21 -19 -45t-31 -44.5t-45.5 -34t-61.5 -13.5q-45 0 -77 32l-20 -22l-25 -28zM201 174q19 39 35 83.5t27.5 88t18 82t6.5 67.5q0 54 -7 74.5t-21 20.5q-11 0 -20 -17t-16 -44t-12.5 -62t-9 -70.5t-5 -69.5t-1.5 -59q0 -20 1 -44t4 -50z" />
    <glyph glyph-name="uni2116" unicode="&#x2116;" 
d="M168 679l144 -484v379q0 14 -5 26.5t-18 18.5l142 60v-686q0 -64 -59 -64h-60v3l-144 462v-401q0 -64 -58 -64h-61v645q0 14 -5 26.5t-18 18.5zM472 358q0 134 51.5 205.5t149.5 71.5q99 0 150 -71.5t51 -205.5t-51.5 -205t-149.5 -71q-97 0 -149 71t-52 205zM483 36h380
v-107h-380v107zM616 358q0 -41 2 -74t8.5 -56.5t17.5 -36.5t29 -13t29.5 13t18 37t8.5 57t2 73t-2 73.5t-8.5 57.5t-18 37t-29.5 13t-29 -13t-17.5 -36.5t-8.5 -57t-2 -74.5z" />
    <glyph glyph-name="uni2121" unicode="&#x2121;" 
d="M596 99l114 -44q-26 -72 -69 -109.5t-109 -37.5q-48 0 -86.5 19.5t-65.5 55.5t-41 88.5t-14 118.5t15.5 118t42.5 88.5t62.5 56t75.5 19.5q46 0 81.5 -18.5t60.5 -53t38 -83.5t13 -109v-55h-255q3 -69 20 -109.5t53 -40.5q16 0 26.5 7.5t17.5 20t11.5 30t8.5 38.5z
M279 -2q0 -33 -13.5 -48t-43.5 -15h-74v615h-135v95h396v-95h-130v-552zM759 -65v637q0 14 -5 26t-18 18l150 59v-677q0 -33 -14 -48t-43 -15h-70zM588 249q-2 27 -5 51t-9 41t-16 27t-28 10q-27 0 -45 -34.5t-24 -94.5h127z" />
    <glyph glyph-name="trademark" unicode="&#x2122;" horiz-adv-x="675" 
d="M213 369q0 -40 -35 -40h-56v320h-97v63h274v-63h-86v-280zM406 522v-153q0 -40 -35 -40h-47v383h82l80 -217l82 217h82v-343q0 -21 -7.5 -30.5t-26.5 -9.5h-47v196l-61 -150h-43z" />
    <glyph glyph-name="uni2126" unicode="&#x2126;" horiz-adv-x="650" 
d="M449 60v-54h141v-77h-206q-15 0 -20 6.5t-5 20.5v107q0 20 2 27.5t13 12.5q24 11 49 32.5t45.5 52.5t33 71.5t12.5 88.5q0 52 -13.5 97.5t-38.5 79t-60 52.5t-78 19q-42 0 -77 -19t-60 -52.5t-39 -79t-14 -97.5q0 -48 13 -89.5t33.5 -73.5t46 -53t49.5 -29
q10 -3 14.5 -11.5t4.5 -28.5v-107q0 -14 -6 -20.5t-23 -6.5h-201v77h139v54q-29 16 -57.5 42t-51.5 62t-37.5 82t-14.5 102q0 77 21 137.5t58.5 102t89 63.5t112.5 22q62 0 114 -22t89.5 -63.5t58 -102t20.5 -137.5q0 -56 -14.5 -101.5t-37 -81.5t-50.5 -62t-55 -43z" />
    <glyph glyph-name="uni212B" unicode="&#x212b;" horiz-adv-x="646" 
d="M319 797q42 0 72 -25t30 -65q0 -39 -30 -63.5t-72 -24.5q-43 0 -72 24.5t-29 63.5q0 40 29 65t72 25zM319 663q21 0 35.5 11t14.5 33q0 23 -14.5 34t-35.5 11t-35 -11t-14 -34q0 -22 14 -33t35 -11zM466 74h-286l-60 -145h-89l283 656h16l284 -656h-88zM319 416
l-114 -278h234l-113 278h-7z" />
    <glyph glyph-name="uni2153" unicode="&#x2153;" horiz-adv-x="800" 
d="M649 726l-423 -876h-100l424 876h99zM58 397h77v235q-11 -7 -28 -12t-34 -7l-11 55q24 7 46.5 16.5t36.5 22.5h85v-310h67v-57h-239v57zM588 -131q-57 0 -93 25t-51 66l81 33q6 -30 24 -49t44 -19q27 0 43.5 16.5t16.5 45.5t-18.5 44.5t-49.5 15.5h-46v56h39
q28 0 45 16.5t17 37.5q0 27 -14 38.5t-32 11.5q-20 0 -34.5 -15.5t-22.5 -41.5l-77 30q18 42 56 63t76 21q30 0 55 -8t43.5 -21.5t29 -33t10.5 -41.5q0 -28 -16 -48.5t-34 -31.5q30 -14 46 -39.5t16 -56.5q0 -23 -10 -44t-29.5 -37t-48.5 -25t-66 -9z" />
    <glyph glyph-name="uni2154" unicode="&#x2154;" horiz-adv-x="800" 
d="M669 726l-423 -876h-100l424 876h99zM608 -131q-57 0 -93 25t-51 66l81 33q6 -30 24 -49t44 -19q27 0 43.5 16.5t16.5 45.5t-18.5 44.5t-49.5 15.5h-46v56h39q28 0 45 16.5t17 37.5q0 27 -14 38.5t-32 11.5q-20 0 -34.5 -15.5t-22.5 -41.5l-77 30q18 42 56 63t76 21
q30 0 55 -8t43.5 -21.5t29 -33t10.5 -41.5q0 -28 -16 -48.5t-34 -31.5q30 -14 46 -39.5t16 -56.5q0 -23 -10 -44t-29.5 -37t-48.5 -25t-66 -9zM169 394h153v-57h-283v35q27 25 59.5 57t60 64.5t46 63t18.5 54.5q0 25 -11 38.5t-31 13.5q-27 0 -42.5 -22t-20.5 -58l-81 22
q11 55 46 84.5t99 29.5q27 0 51 -7t42 -21t28.5 -36.5t10.5 -52.5q0 -26 -15.5 -55.5t-37.5 -58t-47.5 -53t-44.5 -41.5z" />
    <glyph glyph-name="oneeighth" unicode="&#x215b;" horiz-adv-x="800" 
d="M643 726l-423 -876h-100l424 876h99zM52 397h77v235q-11 -7 -28 -12t-34 -7l-11 55q24 7 46.5 16.5t36.5 22.5h85v-310h67v-57h-239v57zM642 158q0 20 -14 33t-35 13t-35.5 -13t-14.5 -33q0 -19 13.5 -33.5t36.5 -14.5t36 14.5t13 33.5zM657 -26q0 31 -20 45.5t-44 14.5
q-25 0 -44.5 -14.5t-19.5 -45.5q0 -29 16 -46t48 -17q30 0 47 17t17 46zM438 -26q0 37 20 62t47 38q-23 12 -37 35t-14 48q0 27 11.5 46.5t31 32.5t44.5 19.5t52 6.5t52 -6.5t44 -19.5t30.5 -32.5t11.5 -46.5q0 -25 -14 -48t-37 -35q29 -13 48 -37.5t19 -62.5
q0 -57 -42.5 -88.5t-111.5 -31.5t-112 31.5t-43 88.5z" />
    <glyph glyph-name="threeeighths" unicode="&#x215c;" horiz-adv-x="800" 
d="M655 726l-423 -876h-100l424 876h99zM654 158q0 20 -14 33t-35 13t-35.5 -13t-14.5 -33q0 -19 13.5 -33.5t36.5 -14.5t36 14.5t13 33.5zM669 -26q0 31 -20 45.5t-44 14.5q-25 0 -44.5 -14.5t-19.5 -45.5q0 -29 16 -46t48 -17q30 0 47 17t17 46zM450 -26q0 37 20 62t47 38
q-23 12 -37 35t-14 48q0 27 11.5 46.5t31 32.5t44.5 19.5t52 6.5t52 -6.5t44 -19.5t30.5 -32.5t11.5 -46.5q0 -25 -14 -48t-37 -35q29 -13 48 -37.5t19 -62.5q0 -57 -42.5 -88.5t-111.5 -31.5t-112 31.5t-43 88.5zM184 329q-57 0 -93 25t-51 66l81 33q6 -30 24 -49t44 -19
q27 0 43.5 16.5t16.5 45.5t-18.5 44.5t-49.5 15.5h-46v56h39q28 0 45 16.5t17 37.5q0 27 -14 38.5t-32 11.5q-20 0 -34.5 -15.5t-22.5 -41.5l-77 30q18 42 56 63t76 21q30 0 55 -8t43.5 -21.5t29 -33t10.5 -41.5q0 -28 -16 -48.5t-34 -31.5q30 -14 46 -39.5t16 -56.5
q0 -23 -10 -44t-29.5 -37t-48.5 -25t-66 -9z" />
    <glyph glyph-name="fiveeighths" unicode="&#x215d;" horiz-adv-x="800" 
d="M659 726l-423 -876h-100l424 876h99zM658 158q0 20 -14 33t-35 13t-35.5 -13t-14.5 -33q0 -19 13.5 -33.5t36.5 -14.5t36 14.5t13 33.5zM673 -26q0 31 -20 45.5t-44 14.5q-25 0 -44.5 -14.5t-19.5 -45.5q0 -29 16 -46t48 -17q30 0 47 17t17 46zM454 -26q0 37 20 62t47 38
q-23 12 -37 35t-14 48q0 27 11.5 46.5t31 32.5t44.5 19.5t52 6.5t52 -6.5t44 -19.5t30.5 -32.5t11.5 -46.5q0 -25 -14 -48t-37 -35q29 -13 48 -37.5t19 -62.5q0 -57 -42.5 -88.5t-111.5 -31.5t-112 31.5t-43 88.5zM183 320q-44 0 -85 20t-61 66l77 27q8 -24 27.5 -40
t42.5 -16q17 0 29.5 7t21 18t12.5 25t4 29q0 14 -3 28t-10 25.5t-17.5 18.5t-26.5 7q-21 0 -35.5 -15t-19.5 -33l-78 13l13 209h243v-59h-160q-2 -17 -2 -33t-2 -34q17 6 33 7.5t33 -0.5q27 -2 50 -13t39.5 -29t26 -41t9.5 -48q0 -61 -44 -100t-117 -39z" />
    <glyph glyph-name="seveneighths" unicode="&#x215e;" horiz-adv-x="800" 
d="M627 726l-423 -876h-100l424 876h99zM636 158q0 20 -14 33t-35 13t-35.5 -13t-14.5 -33q0 -19 13.5 -33.5t36.5 -14.5t36 14.5t13 33.5zM651 -26q0 31 -20 45.5t-44 14.5q-25 0 -44.5 -14.5t-19.5 -45.5q0 -29 16 -46t48 -17q30 0 47 17t17 46zM432 -26q0 37 20 62t47 38
q-23 12 -37 35t-14 48q0 27 11.5 46.5t31 32.5t44.5 19.5t52 6.5t52 -6.5t44 -19.5t30.5 -32.5t11.5 -46.5q0 -25 -14 -48t-37 -35q29 -13 48 -37.5t19 -62.5q0 -57 -42.5 -88.5t-111.5 -31.5t-112 31.5t-43 88.5zM347 656q-54 -75 -82 -151t-30 -171h-97q3 49 11.5 91.5
t23 81t34.5 73.5t44 71h-137q-9 0 -14 -22l-41 86h288v-59z" />
    <glyph glyph-name="uni2160" unicode="&#x2160;" 
d="M542 -71h-160v647q0 14 -5 26.5t-19 18.5l184 60v-752z" />
    <glyph glyph-name="uni2161" unicode="&#x2161;" 
d="M407 -71h-160v647q0 14 -5 26.5t-19 18.5l184 60v-752zM677 -71h-160v647q0 14 -5 26.5t-19 18.5l184 60v-752z" />
    <glyph glyph-name="uni2162" unicode="&#x2162;" 
d="M308 -71h-160v647q0 14 -5 26.5t-19 18.5l184 60v-752zM776 -71h-160v647q0 14 -5 26.5t-19 18.5l184 60v-752zM542 -71h-160v647q0 14 -5 26.5t-19 18.5l184 60v-752z" />
    <glyph glyph-name="uni2163" unicode="&#x2163;" 
d="M688 651h157l-221 -722h-137l-222 722h158l132 -502zM238 -71h-160v647q0 14 -5 26.5t-19 18.5l184 60v-752z" />
    <glyph glyph-name="uni2164" unicode="&#x2164;" 
d="M618 651h158l-258 -722h-136l-258 722h158l168 -522z" />
    <glyph glyph-name="uni2165" unicode="&#x2165;" 
d="M485 651h158l-222 -722h-137l-221 722h157l133 -502zM836 -71h-159v647q0 14 -5.5 26.5t-19.5 18.5l184 60v-752z" />
    <glyph glyph-name="uni2166" unicode="&#x2166;" 
d="M346 651h148l-158 -722h-137l-159 722h149l78 -489zM661 -71h-142v647q0 14 -5 26.5t-19 18.5l166 60v-752zM859 -71h-142v647q0 14 -5 26.5t-19 18.5l166 60v-752z" />
    <glyph glyph-name="uni2167" unicode="&#x2167;" 
d="M274 651h130l-127 -722h-128l-127 722h131l60 -484zM553 -71h-124v647q0 14 -5 26.5t-19 18.5l148 60v-752zM715 -71h-124v647q0 14 -5 26.5t-19 18.5l148 60v-752zM877 -71h-124v647q0 14 -5 26.5t-19 18.5l148 60v-752z" />
    <glyph glyph-name="uni2168" unicode="&#x2168;" 
d="M660 651h164l-190 -347l207 -375h-165l-130 261l-129 -261h-165l206 375l-190 347h165l113 -234zM242 -71h-159v647q0 14 -5.5 26.5t-19.5 18.5l184 60v-752z" />
    <glyph glyph-name="uni2169" unicode="&#x2169;" 
d="M581 651h165l-208 -347l224 -375h-164l-148 261l-148 -261h-164l224 375l-208 347h165l131 -234z" />
    <glyph glyph-name="uni2170" unicode="&#x2170;" 
d="M539 681v-155h-155v155h155zM539 -71h-155v417q0 14 -5 26.5t-19 18.5l179 60v-522z" />
    <glyph glyph-name="uni2171" unicode="&#x2171;" 
d="M413 -71h-155v417q0 14 -5 26.5t-19 18.5l179 60v-522zM665 -71h-155v417q0 14 -5 26.5t-19 18.5l179 60v-522zM665 681v-155h-155v155h155zM413 681v-155h-155v155h155z" />
    <glyph glyph-name="uni2172" unicode="&#x2172;" 
d="M314 -71h-155v417q0 14 -5 26.5t-19 18.5l179 60v-522zM764 -71h-155v417q0 14 -5 26.5t-19 18.5l179 60v-522zM539 -71h-155v417q0 14 -5 26.5t-19 18.5l179 60v-522zM764 681v-155h-155v155h155zM539 681v-155h-155v155h155zM314 681v-155h-155v155h155z" />
    <glyph glyph-name="uni2173" unicode="&#x2173;" 
d="M549 90l93 365h160l-180 -529h-144l-181 529h161zM276 -71h-155v417q0 14 -5 26.5t-19 18.5l179 60v-522zM276 681v-155h-155v155h155z" />
    <glyph glyph-name="uni2174" unicode="&#x2174;" 
d="M449 90l102 365h160l-189 -529h-144l-190 529h161z" />
    <glyph glyph-name="uni2175" unicode="&#x2175;" 
d="M356 90l93 365h160l-180 -529h-144l-181 529h161zM795 681v-155h-155v155h155zM795 -71h-155v417q0 14 -5 26.5t-19 18.5l179 60v-522z" />
    <glyph glyph-name="uni2176" unicode="&#x2176;" 
d="M274 90l74 365h147l-144 -529h-153l-145 529h148zM847 -71h-137v417q0 14 -5 26.5t-19 18.5l161 60v-522zM653 -71h-127v417q0 14 -5.5 26.5t-19.5 18.5l152 60v-522zM847 681v-155h-137v155h137zM653 681v-155h-127v155h127z" />
    <glyph glyph-name="uni2177" unicode="&#x2177;" 
d="M215 72l66 383h119l-112 -529h-144l-113 529h120zM869 -71h-118v417q0 14 -5.5 26.5t-19.5 18.5l143 60v-522zM707 -71h-118v417q0 14 -5.5 26.5t-19.5 18.5l143 60v-522zM541 -71h-110v417q0 14 -5 26.5t-19 18.5l134 60v-522zM869 681v-155h-118v155h118zM707 681v-155
h-118v155h118zM541 681v-155h-110v155h110z" />
    <glyph glyph-name="uni2178" unicode="&#x2178;" 
d="M269 681v-155h-155v155h155zM630 455h163l-166 -250l182 -276h-163l-104 167l-105 -167h-163l182 276l-165 250h163l88 -142zM114 -71v417q0 14 -5 26.5t-19 18.5l179 60v-522h-155z" />
    <glyph glyph-name="uni2179" unicode="&#x2179;" 
d="M543 455h167l-175 -250l191 -276h-167l-109 167l-109 -167h-167l190 276l-174 250h167l93 -142z" />
    <glyph glyph-name="arrowleft" unicode="&#x2190;" horiz-adv-x="1000" 
d="M922 275h-619l38 -56l49 -69l-64 -26l-248 188l267 205l34 -56l-76 -106h619v-80z" />
    <glyph glyph-name="arrowup" unicode="&#x2191;" horiz-adv-x="1000" 
d="M443 -144v649l-119 -81l-25 55l197 259l205 -264l-56 -34l-88 63v-647h-114z" />
    <glyph glyph-name="arrowright" unicode="&#x2192;" horiz-adv-x="1000" 
d="M78 355h618q-9 12 -17.5 24.5t-17.5 25.5l-40 55l35 57l266 -205l-245 -188l-65 26l85 125h-619v80z" />
    <glyph glyph-name="arrowdown" unicode="&#x2193;" horiz-adv-x="1000" 
d="M557 716v-648l88 63l56 -34l-205 -264l-197 260l25 54l119 -81v650h114z" />
    <glyph glyph-name="arrowboth" unicode="&#x2194;" horiz-adv-x="1000" 
d="M297 355h405q-9 12 -17.5 24.5t-17.5 25.5l-40 55l35 57l266 -205l-246 -188l-64 26l85 125h-406l38 -56l49 -69l-64 -26l-248 188l267 205l34 -57z" />
    <glyph glyph-name="arrowupdn" unicode="&#x2195;" horiz-adv-x="1000" 
d="M498 -196l-200 267l45 41l104 -71v483l-119 -81l-25 56l195 260l203 -265l-56 -36l-88 64v-482l22 17q21 16 47 35t43 31l30 -55z" />
    <glyph glyph-name="uni2196" unicode="&#x2196;" horiz-adv-x="1000" 
d="M795 -59l-477 478q0 -5 -1 -15t-1 -15v-4l-3 -88l-94 -1l-83 359l401 -92l-11 -54l-161 -4l499 -499z" />
    <glyph glyph-name="uni2197" unicode="&#x2197;" horiz-adv-x="1000" 
d="M779 286l-94 21l-4 114l-479 -479l-68 68l499 499q-15 1 -28.5 1.5t-27.5 0.5q-22 1 -52.5 1.5t-51.5 0.5l-2 50l394 92z" />
    <glyph glyph-name="uni2198" unicode="&#x2198;" horiz-adv-x="1000" 
d="M476 54l2 51l159 4l-508 509l69 65l488 -487l4 116l95 20l85 -371z" />
    <glyph glyph-name="uni2199" unicode="&#x2199;" horiz-adv-x="1000" 
d="M360 113q25 -1 46 -1.5t46 -2.5h-1l69 -3l12 -50l-401 -92l86 367l91 -19l6 -112l486 486l69 -63z" />
    <glyph glyph-name="arrowdblright" unicode="&#x21d2;" horiz-adv-x="1000" 
d="M736 271l37 39l-40 41h-657v91h570l-81 81l74 72l285 -286l-283 -285l-76 69l84 85h-573v93h660z" />
    <glyph glyph-name="arrowdblboth" unicode="&#x21d4;" horiz-adv-x="1000" 
d="M651 178h-303l26 -24q13 -12 28 -28t26 -27l-74 -77l-280 288l281 288l73 -76l-80 -80h305q-8 8 -13.5 13t-13.5 13q-14 13 -30 29.5t-27 27.5l80 70l277 -286l-277 -288l-77 79zM261 271h479l41 39l-41 41h-477l-40 -41z" />
    <glyph glyph-name="universal" unicode="&#x2200;" horiz-adv-x="706" 
d="M184 651l51 -160h236l50 160h158l-262 -722h-128l-262 722h157zM353 116l87 278h-175z" />
    <glyph glyph-name="partialdiff" unicode="&#x2202;" horiz-adv-x="582" 
d="M173 281l-142 45q29 72 95.5 110.5t151.5 38.5q55 0 105.5 -19.5t88.5 -56.5t60.5 -90t22.5 -120t-22 -120t-59 -90t-85 -57t-100 -20q-57 0 -105.5 19t-83 54t-54 84.5t-19.5 110.5v56h364q-5 70 -33.5 111.5t-79.5 41.5q-47 0 -72 -28t-33 -70zM389 129h-208
q5 -56 29.5 -93.5t69.5 -37.5t72.5 35.5t36.5 95.5z" />
    <glyph glyph-name="existential" unicode="&#x2203;" horiz-adv-x="581" 
d="M536 34q0 -14 5.5 -26.5t19.5 -18.5l-184 -60v30h-329v97h329v188h-311v97h311v243h-356v97h515v-647z" />
    <glyph glyph-name="gradient" unicode="&#x2207;" horiz-adv-x="1000" 
d="M505 -116l-443 739h876zM159 563l347 -572l334 572h-681z" />
    <glyph glyph-name="element" unicode="&#x2208;" horiz-adv-x="809" 
d="M201 240q13 -53 47 -87.5t96 -34.5h395v-91h-401q-66 0 -116 20.5t-84 56t-51 82t-17 97.5q0 52 18.5 99.5t53 83.5t84 57.5t111.5 21.5h400v-90h-396q-53 0 -92 -34.5t-50 -90.5h540v-90h-538z" />
    <glyph glyph-name="suchthat" unicode="&#x220b;" horiz-adv-x="812" 
d="M71 240v88h541q-9 57 -49 91.5t-94 34.5h-397v91h402q61 0 111 -21.5t84.5 -57.5t53.5 -83.5t19 -99.5q0 -51 -17 -98t-51 -82t-84 -56t-117 -21h-403v92h396q59 0 95.5 32.5t49.5 89.5h-540z" />
    <glyph glyph-name="product" unicode="&#x220f;" horiz-adv-x="767" 
d="M594 529v-565h-133v565h-157v-565h-132v565h-102v87h627v-87h-103z" />
    <glyph glyph-name="summation" unicode="&#x2211;" horiz-adv-x="733" 
d="M70 -61v41l290 289l-105 110v-1l-184 186v62h582v-75h-392l260 -259l-249 -249h391v-104h-593z" />
    <glyph glyph-name="radical" unicode="&#x221a;" horiz-adv-x="920" 
d="M70 213l122 173l149 -276q60 148 119.5 295.5t118.5 294.5h271v-85h-176l-18 -44l-12 -34l-292 -688l-182 324l-37 -56z" />
    <glyph glyph-name="proportional" unicode="&#x221d;" horiz-adv-x="780" 
d="M259 200q16 0 30 9.5t26 23.5t21 29t14 26q-5 10 -14 25.5t-21 30t-26 25t-30 10.5q-14 0 -26 -7.5t-22 -20t-15.5 -29t-5.5 -34.5t5.5 -34t15.5 -28t22 -19t26 -7zM710 173q-29 -29 -66 -45.5t-80 -16.5q-52 0 -89.5 22t-62.5 48q-23 -26 -60 -48t-93 -22
q-39 0 -73.5 13.5t-60 37.5t-40.5 56.5t-15 69.5t15 69.5t40.5 55.5t60 36.5t73.5 13.5q53 0 90.5 -22t62.5 -48q23 26 60.5 48t91.5 22q37 0 70 -11t59 -30l-59 -89q-22 21 -40 33.5t-30 12.5q-16 0 -30 -10.5t-25.5 -25t-19.5 -30t-13 -25.5q5 -11 13.5 -25.5t19.5 -28
t25 -23t30 -9.5q12 0 30 12t40 34z" />
    <glyph glyph-name="infinity" unicode="&#x221e;" horiz-adv-x="825" 
d="M412 393q23 26 60.5 48t91.5 22q40 0 75 -13.5t61 -36.5t40.5 -55.5t14.5 -69.5t-14.5 -69.5t-40.5 -56.5t-61 -37.5t-75 -13.5q-52 0 -89.5 22t-62.5 48q-22 -26 -59.5 -48t-93.5 -22q-39 0 -73.5 13.5t-60 37.5t-40.5 56.5t-15 69.5t15 69.5t40.5 55.5t60 36.5
t73.5 13.5q55 0 92.5 -21.5t60.5 -48.5zM259 200q16 0 30 9.5t26 23.5t21 29t14 26q-6 10 -14.5 25.5t-20.5 30t-26 25t-30 10.5q-14 0 -26 -7.5t-21.5 -20t-15 -29t-5.5 -34.5t5.5 -34t15 -28t21.5 -19t26 -7zM564 379q-15 0 -28.5 -10.5t-25 -25t-20.5 -30t-14 -25.5
q5 -11 13.5 -25.5t19.5 -28t25 -23t30 -9.5q15 0 27.5 7t22.5 19t15.5 27.5t5.5 32.5q0 18 -5.5 34.5t-15.5 29t-22.5 20t-27.5 7.5z" />
    <glyph glyph-name="angle" unicode="&#x2220;" horiz-adv-x="817" 
d="M255 135h492v-89h-611q-35 0 -50.5 11t-15.5 29q0 13 23 38l533 541l84 -73z" />
    <glyph glyph-name="uni2225" unicode="&#x2225;" horiz-adv-x="1000" 
d="M319 712h130v-857h-130v857zM552 712h129v-857h-129v857z" />
    <glyph glyph-name="logicaland" unicode="&#x2227;" horiz-adv-x="763" 
d="M70 45l255 514q6 11 21.5 16.5t32.5 5.5q20 0 36.5 -7t21.5 -19q63 -128 128 -258t128 -258l-107 -46l-206 417q-29 -62 -58.5 -120.5t-60.5 -121.5l-91 -185z" />
    <glyph glyph-name="logicalor" unicode="&#x2228;" horiz-adv-x="763" 
d="M171 614l210 -425l207 417l105 -49l-255 -513q-7 -12 -23.5 -19t-34.5 -7t-34 6.5t-23 19.5l-253 509z" />
    <glyph glyph-name="intersection" unicode="&#x2229;" horiz-adv-x="685" 
d="M70 -23v385q0 56 21 101.5t57.5 78t86.5 50t108 17.5q63 0 113.5 -19t86 -51.5t54 -76t18.5 -91.5v-399h-127v381q0 37 -10 68t-29 54t-46 36t-60 13q-31 0 -58 -12.5t-46.5 -34.5t-30.5 -52.5t-11 -66.5v-381h-127z" />
    <glyph glyph-name="union" unicode="&#x222a;" horiz-adv-x="685" 
d="M198 601v-378q0 -38 11 -68.5t30.5 -53t46 -34.5t57.5 -12q33 0 60.5 13t47 36t30.5 54.5t11 68.5v379h123v-397q0 -48 -18.5 -92t-54 -77t-86 -52.5t-113.5 -19.5q-58 0 -108 18t-86.5 51t-57.5 79t-21 103v382h128z" />
    <glyph glyph-name="integral" unicode="&#x222b;" horiz-adv-x="513" 
d="M287 69q-3 -23 -13.5 -46t-34 -41.5t-64.5 -30t-105 -11.5v92q27 0 43.5 4t26 11t13.5 15t6 16q5 37 11 75t11 76q3 23 7 46t7 46q8 48 14.5 94.5t13.5 91.5q4 24 14.5 48t30.5 43t50 31t74 12h10t12 -1q5 -1 11.5 -1.5t17.5 -0.5v-96q-48 7 -69.5 -8t-24.5 -36z" />
    <glyph glyph-name="uni222C" unicode="&#x222c;" horiz-adv-x="736" 
d="M509 68q-4 -23 -14 -46t-33 -41t-64 -29.5t-106 -11.5v92q27 0 44 4.5t27 11t14 14.5t5 16l63 429q4 25 13.5 49.5t29 43t50.5 30t78 11.5h8t11 -1q5 -1 11.5 -1.5t19.5 -0.5v-96q-48 8 -69.5 -7t-25.5 -37zM288 68q-4 -23 -14 -46t-34 -41t-64.5 -29.5t-105.5 -11.5v92
q27 0 44.5 4.5t27.5 11t14 14.5t5 16l63 429q4 25 14 49.5t29.5 43t50.5 30t78 11.5h9.5t10.5 -1t11.5 -1.5t18.5 -0.5v-96q-50 7 -71 -7.5t-24 -36.5z" />
    <glyph glyph-name="uni222E" unicode="&#x222e;" horiz-adv-x="600" 
d="M347 138l-10 -66q-3 -23 -9.5 -46.5t-26 -43t-58 -32.5t-106.5 -16v83q35 4 46.5 17t14.5 30l6 43l6 41q-26 10 -51 24.5t-44.5 35t-32 46t-12.5 57.5q0 38 16.5 67.5t43 51t59.5 34.5t67 19l6 36q4 27 16.5 53.5t37 47t64.5 32t100 9.5v-88q-38 2 -57.5 -13.5
t-24.5 -46.5q-2 -13 -3.5 -22.5t-3.5 -22.5q25 -10 50 -25t44.5 -34.5t32 -44t12.5 -53.5q0 -38 -17 -67.5t-43.5 -50.5t-59 -35t-63.5 -20zM227 258l8 56l11 73q-18 -7 -35 -28t-17 -50q0 -16 10.5 -29t22.5 -22zM356 235q20 11 35 30t15 45q0 18 -10.5 31.5t-21.5 18.5z
" />
    <glyph glyph-name="therefore" unicode="&#x2234;" horiz-adv-x="800" 
d="M307 498q0 19 7 36t19.5 29.5t29.5 19.5t37 7t37 -7t29.5 -19.5t19.5 -29.5t7 -36t-7 -36t-19.5 -29.5t-29.5 -19.5t-37 -7t-37 7t-29.5 19.5t-19.5 29.5t-7 36zM107 198q0 19 7 36t19.5 29.5t29.5 19.5t37 7t37 -7t29.5 -19.5t19.5 -29.5t7 -36t-7 -36t-19.5 -29.5
t-29.5 -19.5t-37 -7t-37 7t-29.5 19.5t-19.5 29.5t-7 36zM507 198q0 19 7 36t19.5 29.5t29.5 19.5t37 7t37 -7t29.5 -19.5t19.5 -29.5t7 -36t-7 -36t-19.5 -29.5t-29.5 -19.5t-37 -7t-37 7t-29.5 19.5t-19.5 29.5t-7 36z" />
    <glyph glyph-name="uni2235" unicode="&#x2235;" horiz-adv-x="800" 
d="M493 198q0 -19 -7 -36t-19.5 -29.5t-29.5 -19.5t-37 -7t-37 7t-29.5 19.5t-19.5 29.5t-7 36t7 36t19.5 29.5t29.5 19.5t37 7t37 -7t29.5 -19.5t19.5 -29.5t7 -36zM293 498q0 -19 -7 -36t-19.5 -29.5t-29.5 -19.5t-37 -7t-37 7t-29.5 19.5t-19.5 29.5t-7 36t7 36
t19.5 29.5t29.5 19.5t37 7t37 -7t29.5 -19.5t19.5 -29.5t7 -36zM693 498q0 -19 -7 -36t-19.5 -29.5t-29.5 -19.5t-37 -7t-37 7t-29.5 19.5t-19.5 29.5t-7 36t7 36t19.5 29.5t29.5 19.5t37 7t37 -7t29.5 -19.5t19.5 -29.5t7 -36z" />
    <glyph glyph-name="uni2236" unicode="&#x2236;" horiz-adv-x="270" 
d="M42 469q0 19 7 36t19.5 29.5t29.5 19.5t37 7t37 -7t29.5 -19.5t19.5 -29.5t7 -36t-7 -36t-19.5 -29.5t-29.5 -19.5t-37 -7t-37 7t-29.5 19.5t-19.5 29.5t-7 36zM42 148q0 19 7 36t19.5 29.5t29.5 19.5t37 7t37 -7t29.5 -19.5t19.5 -29.5t7 -36t-7 -36t-19.5 -29.5
t-29.5 -19.5t-37 -7t-37 7t-29.5 19.5t-19.5 29.5t-7 36z" />
    <glyph glyph-name="similar" unicode="&#x223c;" horiz-adv-x="600" 
d="M27 294q10 16 26 33.5t37 32.5t47 24.5t55 9.5q37 0 66.5 -12t54.5 -27t48 -27t47 -12q37 0 60 20.5t40 43.5l64 -76q-10 -16 -26 -33.5t-37 -32.5t-47 -24.5t-55 -9.5q-37 0 -66.5 12t-54.5 27t-47.5 27t-46.5 12q-19 0 -34 -6t-27 -15t-21.5 -20.5t-18.5 -22.5z" />
    <glyph glyph-name="uni223D" unicode="&#x223d;" horiz-adv-x="600" 
d="M508 218q-9 11 -18.5 22.5t-21.5 20.5t-27 15t-34 6q-24 0 -46.5 -12t-47.5 -27t-54.5 -27t-66.5 -12q-29 0 -55 9.5t-47 24.5t-37 32.5t-26 33.5l64 76q9 -11 18.5 -22.5t21.5 -20.5t26.5 -15t33.5 -6q24 0 47 12t48 27t54.5 27t66.5 12q29 0 55 -9.5t47 -24.5t37 -32.5
t26 -33.5z" />
    <glyph glyph-name="uni2252" unicode="&#x2252;" horiz-adv-x="600" 
d="M29 444h542v-100h-542v100zM29 269h542v-100h-542v100zM406 64q0 27 18.5 46t46.5 19t46.5 -19t18.5 -46t-18.5 -46t-46.5 -19t-46.5 19t-18.5 46zM64 549q0 27 18.5 46t46.5 19t46.5 -19t18.5 -46t-18.5 -46t-46.5 -19t-46.5 19t-18.5 46z" />
    <glyph glyph-name="notequal" unicode="&#x2260;" horiz-adv-x="600" 
d="M59 259h160l37 95h-197v105h237l46 117h109l-46 -117h136v-105h-176l-37 -95h213v-105h-254l-59 -154h-110l60 154h-119v105z" />
    <glyph glyph-name="equivalence" unicode="&#x2261;" horiz-adv-x="600" 
d="M29 526h542v-90h-542v90zM29 351h542v-90h-542v90zM29 176h542v-90h-542v90z" />
    <glyph glyph-name="lessequal" unicode="&#x2264;" horiz-adv-x="600" 
d="M90 406l459 209v-145l-282 -114l282 -116v-144l-459 209v101zM90 76h459v-117h-459v117z" />
    <glyph glyph-name="greaterequal" unicode="&#x2265;" horiz-adv-x="600" 
d="M509 305l-459 -209v144l282 116l-282 114v145l459 -209v-101zM509 -41h-459v117h459v-117z" />
    <glyph glyph-name="propersubset" unicode="&#x2282;" horiz-adv-x="805" 
d="M732 452h-395q-30 0 -56 -13t-45.5 -35.5t-30.5 -53t-11 -65.5q0 -36 11 -66.5t30.5 -52.5t46 -34.5t57.5 -12.5h396v-89h-411q-48 0 -93.5 18t-81.5 51t-57.5 80t-21.5 106q0 55 19.5 102.5t54.5 82t83 54t105 19.5h400v-91z" />
    <glyph glyph-name="propersuperset" unicode="&#x2283;" horiz-adv-x="805" 
d="M71 543h401q57 0 105.5 -19.5t83.5 -54t54.5 -82t19.5 -102.5q0 -59 -21.5 -106t-57.5 -80t-81.5 -51t-93.5 -18h-411v89h393q32 0 59 12.5t46.5 34.5t30.5 52.5t11 66.5q0 35 -11 65.5t-30 53t-45 35.5t-56 13h-397v91z" />
    <glyph glyph-name="reflexsubset" unicode="&#x2286;" horiz-adv-x="821" 
d="M738 499h-395q-30 0 -56 -10.5t-45 -30t-29.5 -46.5t-10.5 -59q0 -69 38 -107.5t106 -38.5h394v-90h-418q-48 0 -92.5 16t-78.5 46t-54.5 74t-20.5 100q0 53 20 96t55.5 73.5t83 47t102.5 16.5h401v-87zM70 73h681v-87h-681v87z" />
    <glyph glyph-name="reflexsuperset" unicode="&#x2287;" horiz-adv-x="821" 
d="M83 586h401q55 0 102.5 -16.5t82.5 -47t55.5 -73.5t20.5 -96q0 -56 -20.5 -100t-54.5 -74t-78 -46t-92 -16h-421v90h395q69 0 106.5 38.5t37.5 107.5q0 32 -11 59t-29.5 46.5t-44.5 30t-56 10.5h-394v87zM751 -14h-681v87h681v-87z" />
    <glyph glyph-name="uni2299" unicode="&#x2299;" horiz-adv-x="1000" 
d="M500 -47q75 0 141 29t115.5 78.5t78 116t28.5 140.5q0 75 -28.5 141t-78 116t-115.5 79t-141 29t-140.5 -29t-115 -79t-78 -116t-28.5 -141q0 -74 28.5 -140.5t78 -116t115 -78.5t140.5 -29zM500 -106q-86 0 -162 34t-134 92t-91.5 135t-33.5 163q0 87 33.5 164
t91.5 134.5t134 91t162 33.5t162.5 -33.5t134 -91t91 -134.5t33.5 -164q0 -86 -33.5 -163t-91 -135t-134 -92t-162.5 -34zM500 539q46 0 86 -17.5t70 -48t47.5 -71t17.5 -85.5t-17.5 -85.5t-47.5 -71t-70 -48t-86 -17.5q-45 0 -85 17.5t-70 48t-47.5 71t-17.5 85.5
t17.5 85.5t47.5 71t70 48t85 17.5z" />
    <glyph glyph-name="uni22A5" unicode="&#x22a5;" horiz-adv-x="816" 
d="M70 127h275v509h126v-509h275v-89h-676v89z" />
    <glyph glyph-name="uni2312" unicode="&#x2312;" horiz-adv-x="829" 
d="M70 48q11 65 42 123.5t77 102t103.5 69t121.5 25.5q65 0 123 -25.5t104 -69t77 -102t41 -123.5h-128q-8 47 -28.5 88.5t-49 72t-64.5 48t-75 17.5t-74 -17.5t-63.5 -48t-49 -71.5t-29.5 -89h-128z" />
    <glyph glyph-name="uni2460" unicode="&#x2460;" 
d="M449 -164q-88 0 -167 33.5t-138.5 92t-94.5 138.5t-35 173q0 90 34.5 169.5t93.5 139.5t138.5 94.5t168.5 34.5q87 0 166 -33.5t139 -92.5t95.5 -139t35.5 -173q0 -89 -33.5 -168t-92 -139t-138 -95t-172.5 -35zM449 643q-74 0 -141 -30t-117 -80.5t-79.5 -117.5
t-29.5 -142q0 -74 28.5 -141t78 -118t116.5 -81t144 -30q76 0 143 29.5t117.5 79.5t79.5 117.5t29 143.5q0 73 -28.5 140t-78.5 118t-117 81.5t-145 30.5zM301 94h107v359q-14 -13 -38 -21.5t-48 -12.5l-13 68q30 8 59.5 22.5t49.5 31.5h106v-447h92v-68h-315v68z" />
    <glyph glyph-name="uni2461" unicode="&#x2461;" 
d="M428 94h217v-68h-371v40q37 37 80.5 82.5t81 92t62.5 91t25 78.5q0 39 -17 60t-47 21q-38 0 -59.5 -31t-29.5 -82l-98 30q13 72 59 112t129 40q36 0 67.5 -9.5t55.5 -29.5t37.5 -50.5t13.5 -71.5q0 -39 -23 -83t-55.5 -86t-67.5 -78t-60 -58zM449 -164q-88 0 -167 33.5
t-138.5 92t-94.5 138.5t-35 173q0 90 34.5 169.5t93.5 139.5t138.5 94.5t168.5 34.5q87 0 166 -33.5t139 -92.5t95.5 -139t35.5 -173q0 -89 -33.5 -168t-92 -139t-138 -95t-172.5 -35zM449 643q-74 0 -141 -30t-117 -80.5t-79.5 -117.5t-29.5 -142q0 -74 28.5 -141t78 -118
t116.5 -81t144 -30q76 0 143 29.5t117.5 79.5t79.5 117.5t29 143.5q0 73 -28.5 140t-78.5 118t-117 81.5t-145 30.5z" />
    <glyph glyph-name="uni2462" unicode="&#x2462;" 
d="M450 6q-75 0 -122 33.5t-65 87.5l97 43q8 -44 34 -70t61 -26q40 0 64 25.5t24 70.5q0 44 -26.5 68t-71.5 24h-55v69h46q40 0 65 25t25 57q0 42 -21 60t-48 18q-29 0 -49 -22t-29 -59l-95 39q12 28 30.5 48.5t41.5 34.5t48 21t50 7q39 0 72.5 -11t58.5 -30.5t39 -45.5
t14 -57q0 -21 -7.5 -39.5t-19.5 -33.5t-26.5 -25.5t-27.5 -15.5q48 -17 72.5 -54.5t24.5 -82.5q0 -32 -13.5 -60.5t-39.5 -50.5t-64 -35t-87 -13zM449 -164q-88 0 -167 33.5t-138.5 92t-94.5 138.5t-35 173q0 90 34.5 169.5t93.5 139.5t138.5 94.5t168.5 34.5
q87 0 166 -33.5t139 -92.5t95.5 -139t35.5 -173q0 -89 -33.5 -168t-92 -139t-138 -95t-172.5 -35zM449 643q-74 0 -141 -30t-117 -80.5t-79.5 -117.5t-29.5 -142q0 -74 28.5 -141t78 -118t116.5 -81t144 -30q76 0 143 29.5t117.5 79.5t79.5 117.5t29 143.5q0 73 -28.5 140
t-78.5 118t-117 81.5t-145 30.5z" />
    <glyph glyph-name="uni2463" unicode="&#x2463;" 
d="M449 -164q-88 0 -167 33.5t-138.5 92t-94.5 138.5t-35 173q0 90 34.5 169.5t93.5 139.5t138.5 94.5t168.5 34.5q87 0 166 -33.5t139 -92.5t95.5 -139t35.5 -173q0 -89 -33.5 -168t-92 -139t-138 -95t-172.5 -35zM449 643q-74 0 -141 -30t-117 -80.5t-79.5 -117.5
t-29.5 -142q0 -74 28.5 -141t78 -118t116.5 -81t144 -30q76 0 143 29.5t117.5 79.5t79.5 117.5t29 143.5q0 73 -28.5 140t-78.5 118t-117 81.5t-145 30.5zM562 11h-109v112h-224v68l233 343h100v-343h83v-68h-83v-112zM321 191h132v193z" />
    <glyph glyph-name="uni2464" unicode="&#x2464;" 
d="M446 -11q-29 0 -56.5 6.5t-52 20t-44 34t-31.5 49.5l90 34q10 -34 37 -55t57 -21q24 0 42 10t30 26t18 37t6 43q0 21 -4 41.5t-13.5 37t-25 27t-37.5 10.5q-32 0 -52 -20.5t-26 -45.5l-94 16l19 280h308v-69h-209l-8 -111q23 11 47 13.5t47 0.5q36 -2 65.5 -17t50.5 -39
t32.5 -55t11.5 -65q0 -41 -15 -75.5t-42 -59.5t-65.5 -39t-85.5 -14zM449 -164q-88 0 -167 33.5t-138.5 92t-94.5 138.5t-35 173q0 90 34.5 169.5t93.5 139.5t138.5 94.5t168.5 34.5q87 0 166 -33.5t139 -92.5t95.5 -139t35.5 -173q0 -89 -33.5 -168t-92 -139t-138 -95
t-172.5 -35zM449 643q-74 0 -141 -30t-117 -80.5t-79.5 -117.5t-29.5 -142q0 -74 28.5 -141t78 -118t116.5 -81t144 -30q76 0 143 29.5t117.5 79.5t79.5 117.5t29 143.5q0 73 -28.5 140t-78.5 118t-117 81.5t-145 30.5z" />
    <glyph glyph-name="uni2465" unicode="&#x2465;" 
d="M364 327q17 9 42 17t56 8q38 0 71 -11t57.5 -33t38.5 -55t14 -76q0 -36 -12.5 -68t-37 -56t-60.5 -38t-82 -14q-55 0 -93.5 23t-63 58t-35.5 78t-11 83q0 61 11.5 116.5t38 98t70 67.5t107.5 25q45 0 86 -21t64 -63l-69 -49q-16 30 -35 47.5t-48 17.5q-26 0 -45 -12
t-32 -33t-21 -49.5t-11 -60.5zM364 245q0 -29 4 -59.5t14 -56.5t26.5 -42.5t42.5 -16.5q34 0 57 30.5t23 75.5q0 58 -25 81.5t-63 23.5q-17 0 -39 -9t-40 -27zM449 -164q-88 0 -167 33.5t-138.5 92t-94.5 138.5t-35 173q0 90 34.5 169.5t93.5 139.5t138.5 94.5t168.5 34.5
q87 0 166 -33.5t139 -92.5t95.5 -139t35.5 -173q0 -89 -33.5 -168t-92 -139t-138 -95t-172.5 -35zM449 643q-74 0 -141 -30t-117 -80.5t-79.5 -117.5t-29.5 -142q0 -74 28.5 -141t78 -118t116.5 -81t144 -30q76 0 143 29.5t117.5 79.5t79.5 117.5t29 143.5q0 73 -28.5 140
t-78.5 118t-117 81.5t-145 30.5z" />
    <glyph glyph-name="uni2466" unicode="&#x2466;" 
d="M633 513v-79q-53 -99 -85.5 -209.5t-42.5 -238.5h-119q15 125 48 237t81 212h-123v-86h-113v164h354zM449 -164q-88 0 -167 33.5t-138.5 92t-94.5 138.5t-35 173q0 90 34.5 169.5t93.5 139.5t138.5 94.5t168.5 34.5q87 0 166 -33.5t139 -92.5t95.5 -139t35.5 -173
q0 -89 -33.5 -168t-92 -139t-138 -95t-172.5 -35zM449 643q-74 0 -141 -30t-117 -80.5t-79.5 -117.5t-29.5 -142q0 -74 28.5 -141t78 -118t116.5 -81t144 -30q76 0 143 29.5t117.5 79.5t79.5 117.5t29 143.5q0 73 -28.5 140t-78.5 118t-117 81.5t-145 30.5z" />
    <glyph glyph-name="uni2467" unicode="&#x2467;" 
d="M526 411q0 32 -19.5 51t-50.5 19q-30 0 -50 -19t-20 -51q0 -29 18.5 -50t51.5 -21q32 0 51 21t19 50zM545 158q0 44 -27 66t-62 22t-62 -22t-27 -66t23 -69t66 -25t66 25t23 69zM259 158q0 52 29.5 87t68.5 49q-35 14 -56 46t-21 69q0 36 14.5 62.5t39 43.5t56 25.5
t66.5 8.5q34 0 66 -8.5t56.5 -25.5t39 -43.5t14.5 -62.5q0 -37 -21.5 -69t-56.5 -46q40 -14 69.5 -49t29.5 -87q0 -38 -14.5 -68t-40.5 -51t-62.5 -32t-79.5 -11q-44 0 -80 11t-62 32t-40.5 51t-14.5 68zM449 -164q-88 0 -167 33.5t-138.5 92t-94.5 138.5t-35 173
q0 90 34.5 169.5t93.5 139.5t138.5 94.5t168.5 34.5q87 0 166 -33.5t139 -92.5t95.5 -139t35.5 -173q0 -89 -33.5 -168t-92 -139t-138 -95t-172.5 -35zM449 643q-74 0 -141 -30t-117 -80.5t-79.5 -117.5t-29.5 -142q0 -74 28.5 -141t78 -118t116.5 -81t144 -30
q76 0 143 29.5t117.5 79.5t79.5 117.5t29 143.5q0 73 -28.5 140t-78.5 118t-117 81.5t-145 30.5z" />
    <glyph glyph-name="uni2468" unicode="&#x2468;" 
d="M536 239q-15 -18 -43.5 -30t-61.5 -12t-62 11t-51 32.5t-35 53t-13 72.5q0 36 11.5 69t34.5 57.5t57.5 39t81.5 14.5q55 0 92.5 -23t60.5 -58t33 -78t10 -83q0 -58 -11.5 -113.5t-38 -98.5t-70 -69t-106.5 -26q-46 0 -76 12.5t-57 33.5l39 65q19 -17 42 -29.5t53 -12.5
q28 0 48.5 16t34 40.5t20 55.5t7.5 61zM536 332q-1 63 -19.5 104t-61.5 41q-35 0 -54 -32.5t-19 -78.5q0 -51 23.5 -74t55.5 -23q25 0 46 18.5t29 44.5zM449 -164q-88 0 -167 33.5t-138.5 92t-94.5 138.5t-35 173q0 90 34.5 169.5t93.5 139.5t138.5 94.5t168.5 34.5
q87 0 166 -33.5t139 -92.5t95.5 -139t35.5 -173q0 -89 -33.5 -168t-92 -139t-138 -95t-172.5 -35zM449 643q-74 0 -141 -30t-117 -80.5t-79.5 -117.5t-29.5 -142q0 -74 28.5 -141t78 -118t116.5 -81t144 -30q76 0 143 29.5t117.5 79.5t79.5 117.5t29 143.5q0 73 -28.5 140
t-78.5 118t-117 81.5t-145 30.5z" />
    <glyph glyph-name="uni2469" unicode="&#x2469;" 
d="M449 -164q-88 0 -167 33.5t-138.5 92t-94.5 138.5t-35 173q0 90 34.5 169.5t93.5 139.5t138.5 94.5t168.5 34.5q87 0 166 -33.5t139 -92.5t95.5 -139t35.5 -173q0 -89 -33.5 -168t-92 -139t-138 -95t-172.5 -35zM449 643q-74 0 -141 -30t-117 -80.5t-79.5 -117.5
t-29.5 -142q0 -66 22 -126t63 -110v48h90v359q-12 -13 -34 -22t-43 -13l-13 69q28 8 54 22t45 32h97v-447h77v-69h-254q50 -51 117.5 -82t145.5 -31q76 0 143 29.5t117.5 79.5t79.5 117.5t29 143.5q0 73 -28.5 140t-78.5 118t-117 81.5t-145 30.5zM597 0q-45 0 -77.5 22
t-53 59.5t-30 88t-9.5 106.5q0 57 9.5 107t30.5 87.5t53 59t77 21.5t77.5 -22t53 -59.5t30.5 -87.5t10 -106t-9.5 -106t-30.5 -88t-53.5 -60t-77.5 -22zM597 475q-22 0 -35.5 -20t-20.5 -50t-9 -65t-2 -64q0 -26 2 -60.5t9 -65.5t20.5 -52.5t35.5 -21.5t35.5 20.5t21 50.5
t10 65t2.5 64q0 27 -2.5 61.5t-10 65t-21 51.5t-35.5 21z" />
    <glyph glyph-name="uni246A" unicode="&#x246a;" 
d="M449 -164q-88 0 -167 33.5t-138.5 92t-94.5 138.5t-35 173q0 90 34.5 169.5t93.5 139.5t138.5 94.5t168.5 34.5q87 0 166 -33.5t139 -92.5t95.5 -139t35.5 -173q0 -89 -33.5 -168t-92 -139t-138 -95t-172.5 -35zM484 83h79v359q-14 -13 -37.5 -22t-46.5 -12l-14 68
q31 8 60 22t49 32h105v-447h83v-4q26 42 41 91t15 103q0 73 -28.5 140t-78.5 118t-117 81.5t-145 30.5q-74 0 -141 -30t-117 -80.5t-79.5 -117.5t-29.5 -142q0 -70 25 -133.5t70 -113.5v57h97v359q-14 -13 -38 -22t-48 -12l-13 68q30 8 59 22t49 32h107v-447h72v-69h-274
q50 -51 116.5 -81t144.5 -30t145 30t118 81h-228v69z" />
    <glyph glyph-name="uni246B" unicode="&#x246b;" 
d="M449 -164q-88 0 -167 33.5t-138.5 92t-94.5 138.5t-35 173q0 90 34.5 169.5t93.5 139.5t138.5 94.5t168.5 34.5q87 0 166 -33.5t139 -92.5t95.5 -139t35.5 -173q0 -89 -33.5 -168t-92 -139t-138 -95t-172.5 -35zM581 84h167v-27q33 46 51.5 100.5t18.5 115.5
q0 73 -28.5 140t-78.5 118t-117 81.5t-145 30.5q-74 0 -141 -30t-117 -80.5t-79.5 -117.5t-29.5 -142q0 -63 20.5 -121t57.5 -106v38h91v359q-13 -13 -35.5 -22t-45.5 -13l-13 69q29 8 56.5 22t46.5 32h101v-447h62v-69h-236q50 -51 117 -81.5t145 -30.5t145.5 30.5
t118.5 81.5h-278v41q35 37 70 82.5t63.5 92t46 91t17.5 78.5q0 38 -12.5 59.5t-35.5 21.5q-30 0 -40.5 -31t-17.5 -82l-93 29q12 72 47.5 112t104.5 40q29 0 56.5 -9.5t49 -29t34.5 -50t13 -71.5q0 -39 -16 -83.5t-39.5 -86.5t-51 -77.5t-50.5 -57.5z" />
    <glyph glyph-name="uni246C" unicode="&#x246c;" 
d="M449 -164q-88 0 -167 33.5t-138.5 92t-94.5 138.5t-35 173q0 90 34.5 169.5t93.5 139.5t138.5 94.5t168.5 34.5q87 0 166 -33.5t139 -92.5t95.5 -139t35.5 -173q0 -89 -33.5 -168t-92 -139t-138 -95t-172.5 -35zM449 643q-74 0 -141 -30t-117 -80.5t-79.5 -117.5
t-29.5 -142q0 -63 20.5 -120.5t56.5 -105.5v37h89v361q-13 -14 -35 -22.5t-44 -13.5l-12 70q28 8 54.5 22t45.5 32h99v-449h62v-69h-231q50 -51 117 -81.5t145 -30.5q76 0 143 29.5t117.5 79.5t79.5 117.5t29 143.5q0 73 -28.5 140t-78.5 118t-117 81.5t-145 30.5zM576 -5
q-65 0 -106.5 34t-58.5 88l91 44q8 -45 26 -71t51 -26q37 0 54 26t17 71q0 43 -19.5 67.5t-61.5 24.5h-39v68h31q38 0 55.5 25t17.5 58q0 42 -14 60.5t-40 18.5q-27 0 -39.5 -22.5t-21.5 -59.5l-86 40q10 28 27 48.5t37 34t41.5 20.5t42.5 7q34 0 63 -10t50 -28.5
t32.5 -45.5t11.5 -60q0 -21 -7 -39.5t-17.5 -33.5t-24 -25.5t-25.5 -15.5q44 -17 66.5 -54.5t22.5 -82.5q0 -32 -11.5 -61.5t-33.5 -51.5t-55.5 -35t-76.5 -13z" />
    <glyph glyph-name="uni246D" unicode="&#x246d;" 
d="M449 -164q-88 0 -167 33.5t-138.5 92t-94.5 138.5t-35 173q0 90 34.5 169.5t93.5 139.5t138.5 94.5t168.5 34.5q87 0 166 -33.5t139 -92.5t95.5 -139t35.5 -173q0 -89 -33.5 -168t-92 -139t-138 -95t-172.5 -35zM449 643q-74 0 -141 -30t-117 -80.5t-79.5 -117.5
t-29.5 -142q0 -65 21.5 -124t60.5 -107v43h90v358q-13 -13 -35.5 -22t-44.5 -13l-13 69q29 8 56 22t46 32h99v-446h61v-68h-238q50 -52 118 -83t146 -31q76 0 143 29.5t117.5 79.5t79.5 117.5t29 143.5q0 73 -28.5 140t-78.5 118t-117 81.5t-145 30.5zM688 14h-104v111h-180
v68l189 342h95v-342h63v-68h-63v-111zM491 193h93v175z" />
    <glyph glyph-name="uni246E" unicode="&#x246e;" 
d="M449 -164q-88 0 -167 33.5t-138.5 92t-94.5 138.5t-35 173q0 90 34.5 169.5t93.5 139.5t138.5 94.5t168.5 34.5q87 0 166 -33.5t139 -92.5t95.5 -139t35.5 -173q0 -89 -33.5 -168t-92 -139t-138 -95t-172.5 -35zM715 528v-64h-166l-6 -113q21 11 36.5 13.5t37.5 1.5
q29 -1 53 -14.5t41.5 -37t27 -55.5t9.5 -70q0 -41 -13 -75.5t-36.5 -60t-56 -39.5t-70.5 -14q-54 0 -92.5 26t-61.5 84l85 35q10 -34 28 -55.5t41 -21.5q18 0 31.5 10t22.5 26t13 37t4 44q0 21 -2.5 41.5t-9 37t-17.5 27t-27 10.5q-24 0 -39 -20.5t-21 -44.5l-88 16l17 280
h255q-51 51 -117.5 81t-144.5 30q-74 0 -141 -30t-117 -80.5t-79.5 -117.5t-29.5 -142q0 -63 20.5 -120.5t56.5 -105.5v36h90v361q-13 -13 -35 -22t-45 -13l-12 69q28 8 55 22t46 32h100v-449h61v-69h-231q50 -51 116.5 -81t144.5 -30q76 0 143 29.5t117.5 79.5t79.5 117.5
t29 143.5q0 73 -27.5 138.5t-75.5 116.5z" />
    <glyph glyph-name="uni2474" unicode="&#x2474;" 
d="M249 -124h-63q-30 17 -60.5 51t-55 84t-40.5 116t-16 147q0 80 16 146t40.5 116t55 84t60.5 51h63q-33 -38 -54.5 -88t-34 -104t-17.5 -107.5t-5 -97.5q0 -50 5 -104t17.5 -107t34 -101.5t54.5 -85.5zM650 671h63q30 -17 60.5 -51t55 -84t40.5 -116t16 -146
q0 -81 -16 -147t-40.5 -116t-55 -84t-60.5 -51h-63q33 37 54.5 85.5t34 101.5t17.5 107t5 104q0 44 -5 97.5t-17.5 107.5t-34 104t-54.5 88zM301 94h107v359q-14 -13 -38 -21.5t-48 -12.5l-13 68q30 8 59.5 22.5t49.5 31.5h106v-447h92v-68h-315v68z" />
    <glyph glyph-name="uni2475" unicode="&#x2475;" 
d="M428 94h217v-68h-371v40q37 37 80.5 82.5t81 92t62.5 91t25 78.5q0 39 -17 60t-47 21q-38 0 -59.5 -31t-29.5 -82l-98 30q13 72 59 112t129 40q36 0 67.5 -9.5t55.5 -29.5t37.5 -50.5t13.5 -71.5q0 -39 -23 -83t-55.5 -86t-67.5 -78t-60 -58zM249 -124h-63
q-30 17 -60.5 51t-55 84t-40.5 116t-16 147q0 80 16 146t40.5 116t55 84t60.5 51h63q-33 -38 -54.5 -88t-34 -104t-17.5 -107.5t-5 -97.5q0 -50 5 -104t17.5 -107t34 -101.5t54.5 -85.5zM650 671h63q30 -17 60.5 -51t55 -84t40.5 -116t16 -146q0 -81 -16 -147t-40.5 -116
t-55 -84t-60.5 -51h-63q33 37 54.5 85.5t34 101.5t17.5 107t5 104q0 44 -5 97.5t-17.5 107.5t-34 104t-54.5 88z" />
    <glyph glyph-name="uni2476" unicode="&#x2476;" 
d="M450 6q-75 0 -122 33.5t-65 87.5l97 43q8 -44 34 -70t61 -26q40 0 64 25.5t24 70.5q0 44 -26.5 68t-71.5 24h-55v69h46q40 0 65 25t25 57q0 42 -21 60t-48 18q-29 0 -49 -22t-29 -59l-95 39q12 28 30.5 48.5t41.5 34.5t48 21t50 7q39 0 72.5 -11t58.5 -30.5t39 -45.5
t14 -57q0 -21 -7.5 -39.5t-19.5 -33.5t-26.5 -25.5t-27.5 -15.5q48 -17 72.5 -54.5t24.5 -82.5q0 -32 -13.5 -60.5t-39.5 -50.5t-64 -35t-87 -13zM249 -124h-63q-30 17 -60.5 51t-55 84t-40.5 116t-16 147q0 80 16 146t40.5 116t55 84t60.5 51h63q-33 -38 -54.5 -88
t-34 -104t-17.5 -107.5t-5 -97.5q0 -50 5 -104t17.5 -107t34 -101.5t54.5 -85.5zM650 671h63q30 -17 60.5 -51t55 -84t40.5 -116t16 -146q0 -81 -16 -147t-40.5 -116t-55 -84t-60.5 -51h-63q33 37 54.5 85.5t34 101.5t17.5 107t5 104q0 44 -5 97.5t-17.5 107.5t-34 104
t-54.5 88z" />
    <glyph glyph-name="uni2477" unicode="&#x2477;" 
d="M562 11h-109v112h-224v68l233 343h100v-343h83v-68h-83v-112zM249 -124h-63q-30 17 -60.5 51t-55 84t-40.5 116t-16 147q0 80 16 146t40.5 116t55 84t60.5 51h63q-33 -38 -54.5 -88t-34 -104t-17.5 -107.5t-5 -97.5q0 -50 5 -104t17.5 -107t34 -101.5t54.5 -85.5z
M650 671h63q30 -17 60.5 -51t55 -84t40.5 -116t16 -146q0 -81 -16 -147t-40.5 -116t-55 -84t-60.5 -51h-63q33 37 54.5 85.5t34 101.5t17.5 107t5 104q0 44 -5 97.5t-17.5 107.5t-34 104t-54.5 88zM321 191h132v193z" />
    <glyph glyph-name="uni2478" unicode="&#x2478;" 
d="M446 -11q-29 0 -56.5 6.5t-52 20t-44 34t-31.5 49.5l90 34q10 -34 37 -55t57 -21q24 0 42 10t30 26t18 37t6 43q0 21 -4 41.5t-13.5 37t-25 27t-37.5 10.5q-32 0 -52 -20.5t-26 -45.5l-94 16l19 280h308v-69h-209l-8 -111q23 11 47 13.5t47 0.5q36 -2 65.5 -17t50.5 -39
t32.5 -55t11.5 -65q0 -41 -15 -75.5t-42 -59.5t-65.5 -39t-85.5 -14zM249 -124h-63q-30 17 -60.5 51t-55 84t-40.5 116t-16 147q0 80 16 146t40.5 116t55 84t60.5 51h63q-33 -38 -54.5 -88t-34 -104t-17.5 -107.5t-5 -97.5q0 -50 5 -104t17.5 -107t34 -101.5t54.5 -85.5z
M650 671h63q30 -17 60.5 -51t55 -84t40.5 -116t16 -146q0 -81 -16 -147t-40.5 -116t-55 -84t-60.5 -51h-63q33 37 54.5 85.5t34 101.5t17.5 107t5 104q0 44 -5 97.5t-17.5 107.5t-34 104t-54.5 88z" />
    <glyph glyph-name="uni2479" unicode="&#x2479;" 
d="M364 327q17 9 42 17t56 8q38 0 71 -11t57.5 -33t38.5 -55t14 -76q0 -36 -12.5 -68t-37 -56t-60.5 -38t-82 -14q-55 0 -93.5 23t-63 58t-35.5 78t-11 83q0 61 11.5 116.5t38 98t70 67.5t107.5 25q45 0 86 -21t64 -63l-69 -49q-16 30 -35 47.5t-48 17.5q-26 0 -45 -12
t-32 -33t-21 -49.5t-11 -60.5zM364 245q0 -29 4 -59.5t14 -56.5t26.5 -42.5t42.5 -16.5q34 0 57 30.5t23 75.5q0 58 -25 81.5t-63 23.5q-17 0 -39 -9t-40 -27zM249 -124h-63q-30 17 -60.5 51t-55 84t-40.5 116t-16 147q0 80 16 146t40.5 116t55 84t60.5 51h63
q-33 -38 -54.5 -88t-34 -104t-17.5 -107.5t-5 -97.5q0 -50 5 -104t17.5 -107t34 -101.5t54.5 -85.5zM650 671h63q30 -17 60.5 -51t55 -84t40.5 -116t16 -146q0 -81 -16 -147t-40.5 -116t-55 -84t-60.5 -51h-63q33 37 54.5 85.5t34 101.5t17.5 107t5 104q0 44 -5 97.5
t-17.5 107.5t-34 104t-54.5 88z" />
    <glyph glyph-name="uni247A" unicode="&#x247a;" 
d="M249 -124h-63q-30 17 -60.5 51t-55 84t-40.5 116t-16 147q0 80 16 146t40.5 116t55 84t60.5 51h63q-33 -38 -54.5 -88t-34 -104t-17.5 -107.5t-5 -97.5q0 -50 5 -104t17.5 -107t34 -101.5t54.5 -85.5zM650 671h63q30 -17 60.5 -51t55 -84t40.5 -116t16 -146
q0 -81 -16 -147t-40.5 -116t-55 -84t-60.5 -51h-63q33 37 54.5 85.5t34 101.5t17.5 107t5 104q0 44 -5 97.5t-17.5 107.5t-34 104t-54.5 88zM630 513v-79q-53 -99 -85.5 -209.5t-42.5 -238.5h-119q15 125 48 237t81 212h-123v-86h-113v164h354z" />
    <glyph glyph-name="uni247B" unicode="&#x247b;" 
d="M526 411q0 32 -19.5 51t-50.5 19q-30 0 -50 -19t-20 -51q0 -29 18.5 -50t51.5 -21q32 0 51 21t19 50zM545 158q0 44 -27 66t-62 22t-62 -22t-27 -66t23 -69t66 -25t66 25t23 69zM259 158q0 52 29.5 87t68.5 49q-35 14 -56 46t-21 69q0 36 14.5 62.5t39 43.5t56 25.5
t66.5 8.5q34 0 66 -8.5t56.5 -25.5t39 -43.5t14.5 -62.5q0 -37 -21.5 -69t-56.5 -46q40 -14 69.5 -49t29.5 -87q0 -38 -14.5 -68t-40.5 -51t-62.5 -32t-79.5 -11q-44 0 -80 11t-62 32t-40.5 51t-14.5 68zM249 -124h-63q-30 17 -60.5 51t-55 84t-40.5 116t-16 147
q0 80 16 146t40.5 116t55 84t60.5 51h63q-33 -38 -54.5 -88t-34 -104t-17.5 -107.5t-5 -97.5q0 -50 5 -104t17.5 -107t34 -101.5t54.5 -85.5zM650 671h63q30 -17 60.5 -51t55 -84t40.5 -116t16 -146q0 -81 -16 -147t-40.5 -116t-55 -84t-60.5 -51h-63q33 37 54.5 85.5
t34 101.5t17.5 107t5 104q0 44 -5 97.5t-17.5 107.5t-34 104t-54.5 88z" />
    <glyph glyph-name="uni247C" unicode="&#x247c;" 
d="M536 239q-15 -18 -43.5 -30t-61.5 -12t-62 11t-51 32.5t-35 53t-13 72.5q0 36 11.5 69t34.5 57.5t57.5 39t81.5 14.5q55 0 92.5 -23t60.5 -58t33 -78t10 -83q0 -58 -11.5 -113.5t-38 -98.5t-70 -69t-106.5 -26q-46 0 -76 12.5t-57 33.5l39 65q19 -17 42 -29.5t53 -12.5
q28 0 48.5 16t34 40.5t20 55.5t7.5 61zM536 332q-1 63 -19.5 104t-61.5 41q-35 0 -54 -32.5t-19 -78.5q0 -51 23.5 -74t55.5 -23q25 0 46 18.5t29 44.5zM249 -124h-63q-30 17 -60.5 51t-55 84t-40.5 116t-16 147q0 80 16 146t40.5 116t55 84t60.5 51h63q-33 -38 -54.5 -88
t-34 -104t-17.5 -107.5t-5 -97.5q0 -50 5 -104t17.5 -107t34 -101.5t54.5 -85.5zM650 671h63q30 -17 60.5 -51t55 -84t40.5 -116t16 -146q0 -81 -16 -147t-40.5 -116t-55 -84t-60.5 -51h-63q33 37 54.5 85.5t34 101.5t17.5 107t5 104q0 44 -5 97.5t-17.5 107.5t-34 104
t-54.5 88z" />
    <glyph glyph-name="uni247D" unicode="&#x247d;" 
d="M578 -1q-43 0 -73.5 22t-50 60t-28.5 88t-9 107t9 107t28.5 87.5t50 59.5t73.5 22t73.5 -22t50 -59.5t29 -87.5t9.5 -107q0 -56 -9 -106.5t-28.5 -88.5t-50.5 -60t-74 -22zM236 -124h-50q-30 17 -60.5 51t-55 84t-40.5 116t-16 147q0 80 16 146t40.5 116t55 84t60.5 51
h50q-33 -38 -55 -88t-34.5 -104t-17.5 -107.5t-5 -97.5q0 -50 5 -104t17.5 -107t34.5 -101.5t55 -85.5zM663 671h50q30 -17 60.5 -51t55 -84t40.5 -116t16 -146q0 -81 -16 -147t-40.5 -116t-55 -84t-60.5 -51h-50q33 37 55 85.5t34.5 101.5t17.5 107t5 104q0 44 -5 97.5
t-17.5 107.5t-34.5 104t-55 88zM170 84h86v361q-12 -14 -33 -22.5t-41 -13.5l-12 70q26 8 51 22t43 32h91v-449h74v-69h-259v69zM578 476q-21 0 -33.5 -20.5t-19.5 -50.5t-9 -65t-2 -64q0 -26 2 -60.5t9 -66t19.5 -53t33.5 -21.5t34 20.5t19.5 51t9 65.5t2.5 64
q0 27 -2.5 62t-9 65.5t-19.5 51.5t-34 21z" />
    <glyph glyph-name="uni247E" unicode="&#x247e;" 
d="M453 81h90v359q-14 -13 -37.5 -22t-47.5 -12l-13 68q30 8 58.5 22t48.5 32h103v-447h75v-69h-277v69zM170 81h99v359q-14 -13 -37.5 -22t-46.5 -12l-13 68q29 8 57.5 22t48.5 32h104v-447h55v-69h-267v69zM236 -124h-50q-30 17 -60.5 51t-55 84t-40.5 116t-16 147
q0 80 16 146t40.5 116t55 84t60.5 51h50q-33 -38 -55 -88t-34.5 -104t-17.5 -107.5t-5 -97.5q0 -50 5 -104t17.5 -107t34.5 -101.5t55 -85.5zM663 671h50q30 -17 60.5 -51t55 -84t40.5 -116t16 -146q0 -81 -16 -147t-40.5 -116t-55 -84t-60.5 -51h-50q33 37 55 85.5
t34.5 101.5t17.5 107t5 104q0 44 -5 97.5t-17.5 107.5t-34.5 104t-55 88z" />
    <glyph glyph-name="uni247F" unicode="&#x247f;" 
d="M575 84h158v-69h-297v41q33 37 66.5 82.5t60.5 92t43.5 91t16.5 78.5q0 38 -12 59.5t-35 21.5q-29 0 -42.5 -31t-20.5 -82l-88 29q11 72 49 112t103 40q28 0 54.5 -9.5t47 -29t33 -50t12.5 -71.5q0 -39 -15 -83.5t-37.5 -86.5t-48.5 -77.5t-48 -57.5zM236 -124h-50
q-30 17 -60.5 51t-55 84t-40.5 116t-16 147q0 80 16 146t40.5 116t55 84t60.5 51h50q-33 -38 -55 -88t-34.5 -104t-17.5 -107.5t-5 -97.5q0 -50 5 -104t17.5 -107t34.5 -101.5t55 -85.5zM663 671h50q30 -17 60.5 -51t55 -84t40.5 -116t16 -146q0 -81 -16 -147t-40.5 -116
t-55 -84t-60.5 -51h-50q33 37 55 85.5t34.5 101.5t17.5 107t5 104q0 44 -5 97.5t-17.5 107.5t-34.5 104t-55 88zM175 84h87v359q-12 -13 -34 -22t-44 -13l-11 69q28 8 54 22t43 32h95v-447h60v-69h-250v69z" />
    <glyph glyph-name="uni2480" unicode="&#x2480;" 
d="M571 -4q-62 0 -101.5 34t-56.5 88l87 43q7 -44 24.5 -70t49.5 -26q35 0 52 25.5t17 70.5q0 43 -19.5 67.5t-59.5 24.5h-37v68h29q37 0 53.5 25t16.5 58q0 42 -13.5 60t-36.5 18q-26 0 -38.5 -22.5t-20.5 -58.5l-83 39q10 28 26 48.5t35 34t40 20.5t41 7q66 0 108.5 -38.5
t42.5 -104.5q0 -21 -6.5 -39.5t-17 -33.5t-23 -25.5t-24.5 -15.5q42 -17 64 -54.5t22 -82.5q0 -32 -11 -61t-32.5 -51t-53.5 -35t-74 -13zM236 -124h-50q-30 17 -60.5 51t-55 84t-40.5 116t-16 147q0 80 16 146t40.5 116t55 84t60.5 51h50q-33 -38 -55 -88t-34.5 -104
t-17.5 -107.5t-5 -97.5q0 -50 5 -104t17.5 -107t34.5 -101.5t55 -85.5zM663 671h50q30 -17 60.5 -51t55 -84t40.5 -116t16 -146q0 -81 -16 -147t-40.5 -116t-55 -84t-60.5 -51h-50q33 37 55 85.5t34.5 101.5t17.5 107t5 104q0 44 -5 97.5t-17.5 107.5t-34.5 104t-55 88z
M171 85h85v359q-12 -13 -33.5 -22t-42.5 -13l-12 69q27 8 53 22t44 32h95v-447h59v-69h-248v69z" />
    <glyph glyph-name="uni2481" unicode="&#x2481;" 
d="M676 14h-98v111h-171v68l180 342h89v-342h61v-68h-61v-111zM236 -124h-50q-30 17 -60.5 51t-55 84t-40.5 116t-16 147q0 80 16 146t40.5 116t55 84t60.5 51h50q-33 -38 -55 -88t-34.5 -104t-17.5 -107.5t-5 -97.5q0 -50 5 -104t17.5 -107t34.5 -101.5t55 -85.5zM663 671
h50q30 -17 60.5 -51t55 -84t40.5 -116t16 -146q0 -81 -16 -147t-40.5 -116t-55 -84t-60.5 -51h-50q33 37 55 85.5t34.5 101.5t17.5 107t5 104q0 44 -5 97.5t-17.5 107.5t-34.5 104t-55 88zM178 85h86v358q-13 -13 -34 -22t-43 -13l-12 69q27 8 53 22t44 32h94v-446h59v-68
h-247v68zM490 193h88v174z" />
    <glyph glyph-name="uni2482" unicode="&#x2482;" 
d="M567 1q-51 0 -88 26t-60 84l81 34q10 -33 27 -54.5t40 -21.5q18 0 30.5 10t21 26t12.5 37t4 43q0 21 -2.5 41.5t-8.5 37t-16.5 27t-26.5 10.5q-23 0 -37.5 -20.5t-19.5 -44.5l-84 16l16 279h247v-68h-158l-7 -112q20 11 35.5 13.5t36.5 1.5q28 -1 51 -14.5t39.5 -37
t25.5 -55.5t9 -70q0 -41 -12.5 -75t-35 -59.5t-53.5 -39.5t-67 -14zM236 -124h-50q-30 17 -60.5 51t-55 84t-40.5 116t-16 147q0 80 16 146t40.5 116t55 84t60.5 51h50q-33 -38 -55 -88t-34.5 -104t-17.5 -107.5t-5 -97.5q0 -50 5 -104t17.5 -107t34.5 -101.5t55 -85.5z
M663 671h50q30 -17 60.5 -51t55 -84t40.5 -116t16 -146q0 -81 -16 -147t-40.5 -116t-55 -84t-60.5 -51h-50q33 37 55 85.5t34.5 101.5t17.5 107t5 104q0 44 -5 97.5t-17.5 107.5t-34.5 104t-55 88zM172 84h86v359q-13 -13 -34 -22t-43 -13l-12 69q27 8 53 22t44 32h96v-447
h58v-69h-248v69z" />
    <glyph glyph-name="uni249C" unicode="&#x249c;" 
d="M249 -124h-63q-30 17 -60.5 51t-55 84t-40.5 116t-16 147q0 80 16 146t40.5 116t55 84t60.5 51h63q-33 -38 -54.5 -88t-34 -104t-17.5 -107.5t-5 -97.5q0 -50 5 -104t17.5 -107t34 -101.5t54.5 -85.5zM650 671h63q30 -17 60.5 -51t55 -84t40.5 -116t16 -146
q0 -81 -16 -147t-40.5 -116t-55 -84t-60.5 -51h-63q33 37 54.5 85.5t34 101.5t17.5 107t5 104q0 44 -5 97.5t-17.5 107.5t-34 104t-54.5 88zM373 191q0 -26 18 -37t45 -11q23 0 45.5 7t41.5 17v106q-15 -2 -32.5 -4t-34.5 -7q-32 -6 -57.5 -24t-25.5 -47zM650 79h-127v25
q-26 -14 -61 -25t-76 -11q-65 0 -104.5 31.5t-39.5 95.5q0 30 16.5 53.5t42 40t57.5 26.5t62 14q23 2 51 3.5t51 2.5q-4 48 -23 70t-50 22q-35 0 -61.5 -18.5t-49.5 -47.5l-76 56q29 41 77 62.5t108 21.5q42 0 79 -10t64 -31.5t43 -55t16 -81.5z" />
    <glyph glyph-name="uni249D" unicode="&#x249d;" 
d="M501 0q-27 0 -54 7t-50 21v-18h-117v500q0 11 -4.5 21t-15.5 14l146 47v-201q20 14 44.5 22.5t51.5 8.5q43 0 76.5 -16t56 -44.5t34.5 -68t12 -87.5q0 -45 -12.5 -83t-36 -65.5t-56.5 -42.5t-75 -15zM249 -124h-63q-30 17 -60.5 51t-55 84t-40.5 116t-16 147q0 80 16 146
t40.5 116t55 84t60.5 51h63q-33 -38 -54.5 -88t-34 -104t-17.5 -107.5t-5 -97.5q0 -50 5 -104t17.5 -107t34 -101.5t54.5 -85.5zM650 671h63q30 -17 60.5 -51t55 -84t40.5 -116t16 -146q0 -81 -16 -147t-40.5 -116t-55 -84t-60.5 -51h-63q33 37 54.5 85.5t34 101.5t17.5 107
t5 104q0 44 -5 97.5t-17.5 107.5t-34 104t-54.5 88zM556 202q0 42 -8 69.5t-21 44.5t-28.5 24t-30.5 7q-19 0 -34.5 -6t-27.5 -14v-240q13 -5 27.5 -8t29.5 -3q18 0 35 7t29.5 22.5t20.5 39.5t8 57z" />
    <glyph glyph-name="uni249E" unicode="&#x249e;" 
d="M463 498q40 0 74.5 -10t60 -28t40 -44t14.5 -58q0 -30 -18.5 -47t-48.5 -17q-23 0 -39 11.5t-26 27.5q7 18 6.5 34t-8 29t-21.5 20.5t-34 7.5q-45 0 -68.5 -42t-23.5 -106q0 -31 6 -58t17.5 -46.5t28.5 -31t40 -11.5q19 0 32.5 9t23 23.5t14.5 31.5t7 34l120 -27
q-6 -30 -21 -56t-39 -45.5t-58 -31t-79 -11.5t-85.5 15t-71.5 43.5t-49 69.5t-18 92q0 52 18 93t49 69.5t71.5 44t85.5 15.5zM249 -124h-63q-30 17 -60.5 51t-55 84t-40.5 116t-16 147q0 80 16 146t40.5 116t55 84t60.5 51h63q-33 -38 -54.5 -88t-34 -104t-17.5 -107.5
t-5 -97.5q0 -50 5 -104t17.5 -107t34 -101.5t54.5 -85.5zM650 671h63q30 -17 60.5 -51t55 -84t40.5 -116t16 -146q0 -81 -16 -147t-40.5 -116t-55 -84t-60.5 -51h-63q33 37 54.5 85.5t34 101.5t17.5 107t5 104q0 44 -5 97.5t-17.5 107.5t-34 104t-54.5 88z" />
    <glyph glyph-name="uni249F" unicode="&#x249f;" 
d="M249 -124h-63q-30 17 -60.5 51t-55 84t-40.5 116t-16 147q0 80 16 146t40.5 116t55 84t60.5 51h63q-33 -38 -54.5 -88t-34 -104t-17.5 -107.5t-5 -97.5q0 -50 5 -104t17.5 -107t34 -101.5t54.5 -85.5zM650 671h63q30 -17 60.5 -51t55 -84t40.5 -116t16 -146
q0 -81 -16 -147t-40.5 -116t-55 -84t-60.5 -51h-63q33 37 54.5 85.5t34 101.5t17.5 107t5 104q0 44 -5 97.5t-17.5 107.5t-34 104t-54.5 88zM346 226q0 -41 8 -69t20.5 -45.5t28.5 -25t31 -7.5q26 0 46.5 10.5t34.5 23.5v221q-14 10 -35 17t-42 7q-36 0 -64 -32.5t-28 -99.5
zM641 15h-126v34q-22 -19 -52 -32.5t-63 -13.5q-44 0 -77.5 16.5t-56.5 45.5t-35 69.5t-12 88.5q0 45 13 83.5t36.5 66t57 43.5t74.5 16q30 0 60 -9t55 -24v115q0 11 -4.5 20.5t-15.5 14.5l146 47v-581z" />
    <glyph glyph-name="uni24A0" unicode="&#x24a0;" 
d="M546 206l115 -34q-23 -57 -77 -86.5t-123 -29.5q-45 0 -86 15t-72 43.5t-49.5 69.5t-18.5 92q0 52 18 93t48 70t69.5 44.5t81.5 15.5q46 0 85.5 -15t67.5 -42t44 -65t16 -85v-43h-298q5 -54 28.5 -86.5t65.5 -32.5q38 0 58 22t27 54zM249 -124h-63q-30 17 -60.5 51
t-55 84t-40.5 116t-16 147q0 80 16 146t40.5 116t55 84t60.5 51h63q-33 -38 -54.5 -88t-34 -104t-17.5 -107.5t-5 -97.5q0 -50 5 -104t17.5 -107t34 -101.5t54.5 -85.5zM650 671h63q30 -17 60.5 -51t55 -84t40.5 -116t16 -146q0 -81 -16 -147t-40.5 -116t-55 -84t-60.5 -51
h-63q33 37 54.5 85.5t34 101.5t17.5 107t5 104q0 44 -5 97.5t-17.5 107.5t-34 104t-54.5 88zM539 324q-4 42 -24 71.5t-56 29.5q-38 0 -60 -27t-30 -74h170z" />
    <glyph glyph-name="uni24A1" unicode="&#x24a1;" 
d="M249 -124h-63q-30 17 -60.5 51t-55 84t-40.5 116t-16 147q0 80 16 146t40.5 116t55 84t60.5 51h63q-33 -38 -54.5 -88t-34 -104t-17.5 -107.5t-5 -97.5q0 -50 5 -104t17.5 -107t34 -101.5t54.5 -85.5zM650 671h63q30 -17 60.5 -51t55 -84t40.5 -116t16 -146
q0 -81 -16 -147t-40.5 -116t-55 -84t-60.5 -51h-63q33 37 54.5 85.5t34 101.5t17.5 107t5 104q0 44 -5 97.5t-17.5 107.5t-34 104t-54.5 88zM283 386h67v15q0 80 35 125t116 45q26 0 49.5 -6t41 -18t28 -30t10.5 -41t-13.5 -38.5t-36.5 -15.5q-18 0 -29.5 7.5t-19.5 20.5
q6 6 7.5 14t-1.5 15.5t-10 13t-17 5.5q-15 0 -25 -12t-10 -32v-68h97v-74h-97v-331h-125v331h-67v74z" />
    <glyph glyph-name="uni24A2" unicode="&#x24a2;" 
d="M581 524q-13 0 -25 -9q26 -17 42 -43t16 -63q0 -32 -15.5 -58t-42 -44t-62 -27.5t-76.5 -9.5q-12 0 -24.5 -0.5t-23 -2t-17 -4.5t-6.5 -8q0 -13 22 -20t55.5 -12.5t72.5 -12t72.5 -18t55.5 -31t22 -50.5q0 -36 -19.5 -61t-50 -40.5t-69 -23t-75.5 -7.5q-34 0 -71 7
t-67.5 21t-50 35.5t-19.5 51.5q0 18 6 33.5t15.5 27.5t21 20.5t21.5 14.5q-25 12 -37.5 24t-12.5 32t19.5 35t48.5 22q-32 14 -53.5 41.5t-21.5 64.5q0 38 17 65t44.5 44t62 24.5t68.5 7.5q49 0 97 -17q22 25 49 38.5t51 13.5q23 0 38 -14.5t15 -35.5q0 -23 -11 -35t-31 -12
q-25 0 -36 16q4 10 -0.5 15t-14.5 5zM249 -124h-63q-30 17 -60.5 51t-55 84t-40.5 116t-16 147q0 80 16 146t40.5 116t55 84t60.5 51h63q-33 -38 -54.5 -88t-34 -104t-17.5 -107.5t-5 -97.5q0 -50 5 -104t17.5 -107t34 -101.5t54.5 -85.5zM650 671h63q30 -17 60.5 -51
t55 -84t40.5 -116t16 -146q0 -81 -16 -147t-40.5 -116t-55 -84t-60.5 -51h-63q33 37 54.5 85.5t34 101.5t17.5 107t5 104q0 44 -5 97.5t-17.5 107.5t-34 104t-54.5 88zM375 171q-11 -8 -20 -27.5t-9 -36.5q0 -15 9 -26t24 -18t33.5 -10.5t36.5 -3.5q32 0 54.5 14t22.5 43
q0 18 -18.5 29.5t-43.5 18.5t-50.5 10.5t-38.5 6.5zM424 341q28 0 48 18t20 50q0 34 -20 51.5t-48 17.5q-29 0 -49 -17t-20 -52q0 -32 20 -50t49 -18z" />
    <glyph glyph-name="uni24A3" unicode="&#x24a3;" 
d="M249 -124h-63q-30 17 -60.5 51t-55 84t-40.5 116t-16 147q0 80 16 146t40.5 116t55 84t60.5 51h63q-33 -38 -54.5 -88t-34 -104t-17.5 -107.5t-5 -97.5q0 -50 5 -104t17.5 -107t34 -101.5t54.5 -85.5zM650 671h63q30 -17 60.5 -51t55 -84t40.5 -116t16 -146
q0 -81 -16 -147t-40.5 -116t-55 -84t-60.5 -51h-63q33 37 54.5 85.5t34 101.5t17.5 107t5 104q0 44 -5 97.5t-17.5 107.5t-34 104t-54.5 88zM659 9h-125v264q0 38 -17 59.5t-58 21.5q-17 0 -32 -2.5t-28 -7.5v-335h-127v499q0 11 -4 20.5t-15 14.5l146 46v-176
q23 10 46.5 13t51.5 3q51 0 83 -14t49.5 -36.5t23.5 -49.5t6 -52v-268z" />
    <glyph glyph-name="uni24A4" unicode="&#x24a4;" 
d="M513 569v-120h-127v120h127zM249 -124h-63q-30 17 -60.5 51t-55 84t-40.5 116t-16 147q0 80 16 146t40.5 116t55 84t60.5 51h63q-33 -38 -54.5 -88t-34 -104t-17.5 -107.5t-5 -97.5q0 -50 5 -104t17.5 -107t34 -101.5t54.5 -85.5zM650 671h63q30 -17 60.5 -51t55 -84
t40.5 -116t16 -146q0 -81 -16 -147t-40.5 -116t-55 -84t-60.5 -51h-63q33 37 54.5 85.5t34 101.5t17.5 107t5 104q0 44 -5 97.5t-17.5 107.5t-34 104t-54.5 88zM513 -12h-127v322q0 11 -4 21t-15 15l146 45v-403z" />
    <glyph glyph-name="uni24A5" unicode="&#x24a5;" 
d="M555 630v-120h-126v120h126zM555 162q0 -55 -12.5 -101t-41.5 -80.5t-76 -56.5t-117 -29v16q40 15 64 37t36.5 54t16.5 75.5t4 100.5v193q0 11 -4 21t-15 15l145 45v-290zM249 -124h-63q-30 17 -60.5 51t-55 84t-40.5 116t-16 147q0 80 16 146t40.5 116t55 84t60.5 51h63
q-33 -38 -54.5 -88t-34 -104t-17.5 -107.5t-5 -97.5q0 -50 5 -104t17.5 -107t34 -101.5t54.5 -85.5zM650 671h63q30 -17 60.5 -51t55 -84t40.5 -116t16 -146q0 -81 -16 -147t-40.5 -116t-55 -84t-60.5 -51h-63q33 37 54.5 85.5t34 101.5t17.5 107t5 104q0 44 -5 97.5
t-17.5 107.5t-34 104t-54.5 88z" />
    <glyph glyph-name="uni24A6" unicode="&#x24a6;" 
d="M249 -124h-63q-30 17 -60.5 51t-55 84t-40.5 116t-16 147q0 80 16 146t40.5 116t55 84t60.5 51h63q-33 -38 -54.5 -88t-34 -104t-17.5 -107.5t-5 -97.5q0 -50 5 -104t17.5 -107t34 -101.5t54.5 -85.5zM650 671h63q30 -17 60.5 -51t55 -84t40.5 -116t16 -146
q0 -81 -16 -147t-40.5 -116t-55 -84t-60.5 -51h-63q33 37 54.5 85.5t34 101.5t17.5 107t5 104q0 44 -5 97.5t-17.5 107.5t-34 104t-54.5 88zM395 5h-126v498q0 12 -4 22t-16 15l146 45v-309l121 135h141l-158 -162l188 -244h-145l-116 169l-31 -32v-137z" />
    <glyph glyph-name="uni24A7" unicode="&#x24a7;" 
d="M249 -124h-63q-30 17 -60.5 51t-55 84t-40.5 116t-16 147q0 80 16 146t40.5 116t55 84t60.5 51h63q-33 -38 -54.5 -88t-34 -104t-17.5 -107.5t-5 -97.5q0 -50 5 -104t17.5 -107t34 -101.5t54.5 -85.5zM650 671h63q30 -17 60.5 -51t55 -84t40.5 -116t16 -146
q0 -81 -16 -147t-40.5 -116t-55 -84t-60.5 -51h-63q33 37 54.5 85.5t34 101.5t17.5 107t5 104q0 44 -5 97.5t-17.5 107.5t-34 104t-54.5 88zM516 -12h-125v498q0 12 -4.5 21.5t-15.5 14.5l145 46v-580z" />
    <glyph glyph-name="uni24A8" unicode="&#x24a8;" 
d="M249 -124h-63q-30 17 -60.5 51t-55 84t-40.5 116t-16 147q0 80 16 146t40.5 116t55 84t60.5 51h63q-33 -38 -54.5 -88t-34 -104t-17.5 -107.5t-5 -97.5q0 -50 5 -104t17.5 -107t34 -101.5t54.5 -85.5zM650 671h63q30 -17 60.5 -51t55 -84t40.5 -116t16 -146
q0 -81 -16 -147t-40.5 -116t-55 -84t-60.5 -51h-63q33 37 54.5 85.5t34 101.5t17.5 107t5 104q0 44 -5 97.5t-17.5 107.5t-34 104t-54.5 88zM713 74h-112v258q0 39 -12 60.5t-39 21.5q-12 0 -21 -4t-19 -10q11 -33 11 -62v-264h-112v258q0 39 -11 60.5t-40 21.5
q-13 0 -22 -4t-18 -9v-327h-110v346q0 11 -4 19.5t-14 13.5l128 47v-33q33 20 74 20q31 0 52 -10.5t37 -27.5q26 22 54 30t56 8q36 0 60 -14t37.5 -35.5t19 -48t5.5 -51.5v-264z" />
    <glyph glyph-name="uni24A9" unicode="&#x24a9;" 
d="M249 -124h-63q-30 17 -60.5 51t-55 84t-40.5 116t-16 147q0 80 16 146t40.5 116t55 84t60.5 51h63q-33 -38 -54.5 -88t-34 -104t-17.5 -107.5t-5 -97.5q0 -50 5 -104t17.5 -107t34 -101.5t54.5 -85.5zM650 671h63q30 -17 60.5 -51t55 -84t40.5 -116t16 -146
q0 -81 -16 -147t-40.5 -116t-55 -84t-60.5 -51h-63q33 37 54.5 85.5t34 101.5t17.5 107t5 104q0 44 -5 97.5t-17.5 107.5t-34 104t-54.5 88zM391 504v-35q23 11 47.5 17t51.5 6q48 0 79.5 -14t50 -36t25.5 -49t7 -52v-267h-126v261q0 40 -16.5 61t-57.5 21q-17 0 -32 -5
t-29 -11v-327h-126v350q0 11 -4 20t-15 14z" />
    <glyph glyph-name="uni24AA" unicode="&#x24aa;" 
d="M357 278q0 -31 6 -58t17.5 -46.5t29 -30.5t40.5 -11t40.5 11.5t29.5 31t18 46.5t6 57q0 31 -6.5 58.5t-18.5 47.5t-29.5 31.5t-39.5 11.5q-23 0 -40 -11.5t-29 -31.5t-18 -47t-6 -59zM225 278q0 52 18 93t49 70t72 44.5t86 15.5t86 -15.5t72 -44.5t49 -70t18 -93
q0 -51 -18 -92t-49 -69.5t-72 -43.5t-86 -15t-86 15t-72 43.5t-49 69.5t-18 92zM249 -124h-63q-30 17 -60.5 51t-55 84t-40.5 116t-16 147q0 80 16 146t40.5 116t55 84t60.5 51h63q-33 -38 -54.5 -88t-34 -104t-17.5 -107.5t-5 -97.5q0 -50 5 -104t17.5 -107t34 -101.5
t54.5 -85.5zM650 671h63q30 -17 60.5 -51t55 -84t40.5 -116t16 -146q0 -81 -16 -147t-40.5 -116t-55 -84t-60.5 -51h-63q33 37 54.5 85.5t34 101.5t17.5 107t5 104q0 44 -5 97.5t-17.5 107.5t-34 104t-54.5 88z" />
    <glyph glyph-name="uni24AB" unicode="&#x24ab;" 
d="M249 -124h-63q-30 17 -60.5 51t-55 84t-40.5 116t-16 147q0 80 16 146t40.5 116t55 84t60.5 51h63q-33 -38 -54.5 -88t-34 -104t-17.5 -107.5t-5 -97.5q0 -50 5 -104t17.5 -107t34 -101.5t54.5 -85.5zM650 671h63q30 -17 60.5 -51t55 -84t40.5 -116t16 -146
q0 -81 -16 -147t-40.5 -116t-55 -84t-60.5 -51h-63q33 37 54.5 85.5t34 101.5t17.5 107t5 104q0 44 -5 97.5t-17.5 107.5t-34 104t-54.5 88zM563 342q0 67 -28.5 98.5t-64.5 31.5q-22 0 -42.5 -7t-34.5 -16v-222q14 -13 34.5 -23t47.5 -10q15 0 30.5 7.5t28.5 25t21 45.5
t8 70zM393 -44h-127v522q0 11 -4 20t-15 14l146 47v-46q25 16 54.5 24.5t60.5 8.5q41 0 74 -15.5t56.5 -43t36.5 -66t13 -83.5q0 -48 -11.5 -88t-34.5 -69.5t-56.5 -46t-77.5 -16.5q-33 0 -63.5 13t-51.5 32v-207z" />
    <glyph glyph-name="uni24AC" unicode="&#x24ac;" 
d="M249 -124h-63q-30 17 -60.5 51t-55 84t-40.5 116t-16 147q0 80 16 146t40.5 116t55 84t60.5 51h63q-33 -38 -54.5 -88t-34 -104t-17.5 -107.5t-5 -97.5q0 -50 5 -104t17.5 -107t34 -101.5t54.5 -85.5zM650 671h63q30 -17 60.5 -51t55 -84t40.5 -116t16 -146
q0 -81 -16 -147t-40.5 -116t-55 -84t-60.5 -51h-63q33 37 54.5 85.5t34 101.5t17.5 107t5 104q0 44 -5 97.5t-17.5 107.5t-34 104t-54.5 88zM337 325q0 -34 8 -58.5t21 -40.5t30 -24t35 -8q21 0 42 6.5t35 14.5v222q-14 13 -34.5 24t-46.5 11q-16 0 -32 -7.5t-29 -25
t-21 -45.5t-8 -69zM634 -44h-126v196q-25 -17 -55.5 -25.5t-59.5 -8.5q-41 0 -74.5 15.5t-57 43.5t-36.5 66.5t-13 84.5q0 48 12 88t34.5 69t56 45t77.5 16q29 0 55 -9t46 -23l141 45v-603z" />
    <glyph glyph-name="uni24AD" unicode="&#x24ad;" 
d="M249 -124h-63q-30 17 -60.5 51t-55 84t-40.5 116t-16 147q0 80 16 146t40.5 116t55 84t60.5 51h63q-33 -38 -54.5 -88t-34 -104t-17.5 -107.5t-5 -97.5q0 -50 5 -104t17.5 -107t34 -101.5t54.5 -85.5zM650 671h63q30 -17 60.5 -51t55 -84t40.5 -116t16 -146
q0 -81 -16 -147t-40.5 -116t-55 -84t-60.5 -51h-63q33 37 54.5 85.5t34 101.5t17.5 107t5 104q0 44 -5 97.5t-17.5 107.5t-34 104t-54.5 88zM453 502v-64q28 24 58.5 38t56.5 14q34 0 54.5 -16.5t20.5 -45.5q0 -26 -16 -45t-45 -19q-38 0 -59 18q5 11 0 18t-15 7
q-11 0 -26 -6.5t-29 -18.5v-310h-126v349q0 11 -4.5 20t-15.5 14z" />
    <glyph glyph-name="uni24AE" unicode="&#x24ae;" 
d="M634 398q0 -28 -19 -40t-44 -12q-45 0 -63 29q5 7 5.5 15t-4 15.5t-16 12.5t-30.5 5q-24 0 -40.5 -12.5t-16.5 -30.5q0 -23 28.5 -40.5t73.5 -35.5q31 -12 57.5 -23.5t45.5 -25.5t30 -32t11 -43q0 -26 -13.5 -48.5t-39 -39t-62.5 -26.5t-83 -10q-86 0 -135 29t-70 76
l107 38q14 -35 40.5 -52.5t58.5 -17.5t50.5 12.5t18.5 34.5t-22 34t-70 32q-33 14 -61 27.5t-48.5 29t-32.5 35t-12 46.5q0 50 48.5 83.5t134.5 33.5q39 0 71 -8.5t54.5 -22.5t35 -31.5t12.5 -36.5zM249 -124h-63q-30 17 -60.5 51t-55 84t-40.5 116t-16 147q0 80 16 146
t40.5 116t55 84t60.5 51h63q-33 -38 -54.5 -88t-34 -104t-17.5 -107.5t-5 -97.5q0 -50 5 -104t17.5 -107t34 -101.5t54.5 -85.5zM650 671h63q30 -17 60.5 -51t55 -84t40.5 -116t16 -146q0 -81 -16 -147t-40.5 -116t-55 -84t-60.5 -51h-63q33 37 54.5 85.5t34 101.5t17.5 107
t5 104q0 44 -5 97.5t-17.5 107.5t-34 104t-54.5 88z" />
    <glyph glyph-name="uni24AF" unicode="&#x24af;" 
d="M297 411h67v71q0 11 -4.5 20.5t-15.5 14.5l146 46v-152h88v-75h-88v-229q0 -29 8 -39t28 -10q14 0 26 5t21 10l16 -62q-24 -16 -48 -20.5t-48 -4.5q-70 0 -99.5 32.5t-29.5 112.5v205h-67v75zM249 -124h-63q-30 17 -60.5 51t-55 84t-40.5 116t-16 147q0 80 16 146
t40.5 116t55 84t60.5 51h63q-33 -38 -54.5 -88t-34 -104t-17.5 -107.5t-5 -97.5q0 -50 5 -104t17.5 -107t34 -101.5t54.5 -85.5zM650 671h63q30 -17 60.5 -51t55 -84t40.5 -116t16 -146q0 -81 -16 -147t-40.5 -116t-55 -84t-60.5 -51h-63q33 37 54.5 85.5t34 101.5t17.5 107
t5 104q0 44 -5 97.5t-17.5 107.5t-34 104t-54.5 88z" />
    <glyph glyph-name="uni24B0" unicode="&#x24b0;" 
d="M249 -124h-63q-30 17 -60.5 51t-55 84t-40.5 116t-16 147q0 80 16 146t40.5 116t55 84t60.5 51h63q-33 -38 -54.5 -88t-34 -104t-17.5 -107.5t-5 -97.5q0 -50 5 -104t17.5 -107t34 -101.5t54.5 -85.5zM650 671h63q30 -17 60.5 -51t55 -84t40.5 -116t16 -146
q0 -81 -16 -147t-40.5 -116t-55 -84t-60.5 -51h-63q33 37 54.5 85.5t34 101.5t17.5 107t5 104q0 44 -5 97.5t-17.5 107.5t-34 104t-54.5 88zM645 493v-429h-125v24q-21 -17 -48.5 -26.5t-57.5 -9.5q-44 0 -73.5 14.5t-48 37t-26.5 49.5t-8 52v203q0 11 -4 20t-15 14l146 46
v-279q0 -38 16 -59.5t46 -21.5q24 0 41.5 9t31.5 20v255q0 11 -4 20.5t-16 13.5z" />
    <glyph glyph-name="uni24B1" unicode="&#x24b1;" 
d="M454 184l83 281h131l-154 -407h-116l-155 407h130zM249 -124h-63q-30 17 -60.5 51t-55 84t-40.5 116t-16 147q0 80 16 146t40.5 116t55 84t60.5 51h63q-33 -38 -54.5 -88t-34 -104t-17.5 -107.5t-5 -97.5q0 -50 5 -104t17.5 -107t34 -101.5t54.5 -85.5zM650 671h63
q30 -17 60.5 -51t55 -84t40.5 -116t16 -146q0 -81 -16 -147t-40.5 -116t-55 -84t-60.5 -51h-63q33 37 54.5 85.5t34 101.5t17.5 107t5 104q0 44 -5 97.5t-17.5 107.5t-34 104t-54.5 88z" />
    <glyph glyph-name="uni24B2" unicode="&#x24b2;" 
d="M611 452h113l-108 -407h-109l-59 236l-57 -236h-110l-107 407h112l53 -273l59 249h101l58 -249zM249 -124h-63q-30 17 -60.5 51t-55 84t-40.5 116t-16 147q0 80 16 146t40.5 116t55 84t60.5 51h63q-33 -38 -54.5 -88t-34 -104t-17.5 -107.5t-5 -97.5q0 -50 5 -104
t17.5 -107t34 -101.5t54.5 -85.5zM650 671h63q30 -17 60.5 -51t55 -84t40.5 -116t16 -146q0 -81 -16 -147t-40.5 -116t-55 -84t-60.5 -51h-63q33 37 54.5 85.5t34 101.5t17.5 107t5 104q0 44 -5 97.5t-17.5 107.5t-34 104t-54.5 88z" />
    <glyph glyph-name="uni24B3" unicode="&#x24b3;" 
d="M527 481h136l-142 -193l155 -213h-135l-89 128l-89 -128h-135l154 213l-141 193h136l75 -110zM249 -124h-63q-30 17 -60.5 51t-55 84t-40.5 116t-16 147q0 80 16 146t40.5 116t55 84t60.5 51h63q-33 -38 -54.5 -88t-34 -104t-17.5 -107.5t-5 -97.5q0 -50 5 -104
t17.5 -107t34 -101.5t54.5 -85.5zM650 671h63q30 -17 60.5 -51t55 -84t40.5 -116t16 -146q0 -81 -16 -147t-40.5 -116t-55 -84t-60.5 -51h-63q33 37 54.5 85.5t34 101.5t17.5 107t5 104q0 44 -5 97.5t-17.5 107.5t-34 104t-54.5 88z" />
    <glyph glyph-name="uni24B4" unicode="&#x24b4;" 
d="M249 -124h-63q-30 17 -60.5 51t-55 84t-40.5 116t-16 147q0 80 16 146t40.5 116t55 84t60.5 51h63q-33 -38 -54.5 -88t-34 -104t-17.5 -107.5t-5 -97.5q0 -50 5 -104t17.5 -107t34 -101.5t54.5 -85.5zM650 671h63q30 -17 60.5 -51t55 -84t40.5 -116t16 -146
q0 -81 -16 -147t-40.5 -116t-55 -84t-60.5 -51h-63q33 37 54.5 85.5t34 101.5t17.5 107t5 104q0 44 -5 97.5t-17.5 107.5t-34 104t-54.5 88zM492 66q-19 -49 -53 -81t-81 -32q-23 0 -44 5.5t-44 21.5l16 59q9 -5 20.5 -9.5t25.5 -4.5q15 0 27.5 9.5t22.5 26t18 38t15 44.5
l-157 384h127l80 -260l79 260h126z" />
    <glyph glyph-name="uni24B5" unicode="&#x24b5;" 
d="M249 -124h-63q-30 17 -60.5 51t-55 84t-40.5 116t-16 147q0 80 16 146t40.5 116t55 84t60.5 51h63q-33 -38 -54.5 -88t-34 -104t-17.5 -107.5t-5 -97.5q0 -50 5 -104t17.5 -107t34 -101.5t54.5 -85.5zM650 671h63q30 -17 60.5 -51t55 -84t40.5 -116t16 -146
q0 -81 -16 -147t-40.5 -116t-55 -84t-60.5 -51h-63q33 37 54.5 85.5t34 101.5t17.5 107t5 104q0 44 -5 97.5t-17.5 107.5t-34 104t-54.5 88zM642 75h-374v74l215 257h-198v75h343v-75l-214 -257h228v-74z" />
    <glyph glyph-name="uni24D0" unicode="&#x24d0;" 
d="M449 -164q-88 0 -167 33.5t-138.5 92t-94.5 138.5t-35 173q0 90 34.5 169.5t93.5 139.5t138.5 94.5t168.5 34.5q87 0 166 -33.5t139 -92.5t95.5 -139t35.5 -173q0 -89 -33.5 -168t-92 -139t-138 -95t-172.5 -35zM449 643q-74 0 -141 -30t-117 -80.5t-79.5 -117.5
t-29.5 -142q0 -74 28.5 -141t78 -118t116.5 -81t144 -30q76 0 143 29.5t117.5 79.5t79.5 117.5t29 143.5q0 73 -28.5 140t-78.5 118t-117 81.5t-145 30.5zM377 191q0 -26 18 -37t45 -11q23 0 45.5 7t41.5 17v106q-15 -2 -32.5 -4t-34.5 -7q-32 -6 -57.5 -24t-25.5 -47z
M654 79h-127v25q-26 -14 -61 -25t-76 -11q-65 0 -104.5 31.5t-39.5 95.5q0 30 16.5 53.5t42 40t57.5 26.5t62 14q23 2 51 3.5t51 2.5q-4 48 -23 70t-50 22q-35 0 -61.5 -18.5t-49.5 -47.5l-76 56q29 41 77 62.5t108 21.5q42 0 79 -10t64 -31.5t43 -55t16 -81.5z" />
    <glyph glyph-name="uni24D1" unicode="&#x24d1;" 
d="M449 -164q-88 0 -167 33.5t-138.5 92t-94.5 138.5t-35 173q0 90 34.5 169.5t93.5 139.5t138.5 94.5t168.5 34.5q87 0 166 -33.5t139 -92.5t95.5 -139t35.5 -173q0 -89 -33.5 -168t-92 -139t-138 -95t-172.5 -35zM449 643q-74 0 -141 -30t-117 -80.5t-79.5 -117.5
t-29.5 -142q0 -74 28.5 -141t78 -118t116.5 -81t144 -30q76 0 143 29.5t117.5 79.5t79.5 117.5t29 143.5q0 73 -28.5 140t-78.5 118t-117 81.5t-145 30.5zM506 -6q-27 0 -54 7t-50 21v-18h-117v500q0 11 -4.5 21t-15.5 14l146 47v-201q20 14 44.5 22.5t51.5 8.5
q43 0 76.5 -16t56 -44.5t34.5 -68t12 -87.5q0 -45 -12.5 -83t-36 -65.5t-56.5 -42.5t-75 -15zM561 196q0 42 -8 69.5t-21 44.5t-28.5 24t-30.5 7q-19 0 -34.5 -6t-27.5 -14v-240q13 -5 27.5 -8t29.5 -3q18 0 35 7t29.5 22.5t20.5 39.5t8 57z" />
    <glyph glyph-name="uni24D2" unicode="&#x24d2;" 
d="M461 484q39 0 73.5 -10t60 -28t40 -43.5t14.5 -57.5q0 -30 -18.5 -47.5t-48.5 -17.5q-23 0 -39 11.5t-26 28.5q7 18 6.5 34t-8 28.5t-21.5 20t-33 7.5q-46 0 -69.5 -41.5t-23.5 -105.5q0 -31 6 -58t17.5 -46.5t29 -31t40.5 -11.5q18 0 31.5 9t23 23.5t14.5 31.5t7 34
l120 -27q-6 -30 -21 -56.5t-39 -46t-57.5 -30.5t-78.5 -11t-86 15t-71.5 43.5t-48.5 69.5t-18 92q0 52 18 93t48.5 69.5t71.5 43.5t86 15zM449 -164q-88 0 -167 33.5t-138.5 92t-94.5 138.5t-35 173q0 90 34.5 169.5t93.5 139.5t138.5 94.5t168.5 34.5q87 0 166 -33.5
t139 -92.5t95.5 -139t35.5 -173q0 -89 -33.5 -168t-92 -139t-138 -95t-172.5 -35zM449 643q-74 0 -141 -30t-117 -80.5t-79.5 -117.5t-29.5 -142q0 -74 28.5 -141t78 -118t116.5 -81t144 -30q76 0 143 29.5t117.5 79.5t79.5 117.5t29 143.5q0 73 -28.5 140t-78.5 118
t-117 81.5t-145 30.5z" />
    <glyph glyph-name="uni24D3" unicode="&#x24d3;" 
d="M449 -164q-88 0 -167 33.5t-138.5 92t-94.5 138.5t-35 173q0 90 34.5 169.5t93.5 139.5t138.5 94.5t168.5 34.5q87 0 166 -33.5t139 -92.5t95.5 -139t35.5 -173q0 -89 -33.5 -168t-92 -139t-138 -95t-172.5 -35zM449 643q-74 0 -141 -30t-117 -80.5t-79.5 -117.5
t-29.5 -142q0 -74 28.5 -141t78 -118t116.5 -81t144 -30q76 0 143 29.5t117.5 79.5t79.5 117.5t29 143.5q0 73 -28.5 140t-78.5 118t-117 81.5t-145 30.5zM636 5h-126v34q-22 -19 -52 -32.5t-63 -13.5q-59 0 -99 32t-60 79.5t-20.5 103t19.5 103t60 79.5t100 32q30 0 60 -9
t55 -24v115q0 11 -4.5 20.5t-15.5 14.5l146 47v-581zM341 216q0 -41 8 -69t20.5 -45.5t28.5 -25t31 -7.5q26 0 46.5 10.5t34.5 23.5v221q-14 10 -35 17t-42 7q-36 0 -64 -32.5t-28 -99.5z" />
    <glyph glyph-name="uni24D4" unicode="&#x24d4;" 
d="M449 -164q-88 0 -167 33.5t-138.5 92t-94.5 138.5t-35 173q0 90 34.5 169.5t93.5 139.5t138.5 94.5t168.5 34.5q87 0 166 -33.5t139 -92.5t95.5 -139t35.5 -173q0 -89 -33.5 -168t-92 -139t-138 -95t-172.5 -35zM449 643q-74 0 -141 -30t-117 -80.5t-79.5 -117.5
t-29.5 -142q0 -74 28.5 -141t78 -118t116.5 -81t144 -30q76 0 143 29.5t117.5 79.5t79.5 117.5t29 143.5q0 73 -28.5 140t-78.5 118t-117 81.5t-145 30.5zM546 199l115 -34q-23 -57 -77 -86.5t-123 -29.5q-45 0 -86 15.5t-72 44t-49.5 69.5t-18.5 92q0 52 18 93t48 69.5
t69.5 44t81.5 15.5q46 0 85.5 -15t67.5 -42t44 -65t16 -85v-43h-298q5 -54 28.5 -86.5t65.5 -32.5q38 0 58 22t27 54zM539 317q-4 42 -24 71.5t-56 29.5q-38 0 -60 -27t-30 -74h170z" />
    <glyph glyph-name="uni24D5" unicode="&#x24d5;" 
d="M449 -164q-88 0 -167 33.5t-138.5 92t-94.5 138.5t-35 173q0 90 34.5 169.5t93.5 139.5t138.5 94.5t168.5 34.5q87 0 166 -33.5t139 -92.5t95.5 -139t35.5 -173q0 -89 -33.5 -168t-92 -139t-138 -95t-172.5 -35zM449 643q-74 0 -141 -30t-117 -80.5t-79.5 -117.5
t-29.5 -142q0 -74 28.5 -141t78 -118t116.5 -81t144 -30q76 0 143 29.5t117.5 79.5t79.5 117.5t29 143.5q0 73 -28.5 140t-78.5 118t-117 81.5t-145 30.5zM279 377h67v15q0 80 35 125t116 45q26 0 49.5 -6t41 -18t28 -30t10.5 -41t-13.5 -38.5t-36.5 -15.5q-18 0 -29.5 7.5
t-19.5 20.5q6 6 7.5 14t-1.5 15.5t-10 13t-17 5.5q-15 0 -25 -12t-10 -32v-68h97v-74h-97v-331h-125v331h-67v74z" />
    <glyph glyph-name="uni24D6" unicode="&#x24d6;" 
d="M449 -164q-88 0 -167 33.5t-138.5 92t-94.5 138.5t-35 173q0 90 34.5 169.5t93.5 139.5t138.5 94.5t168.5 34.5q87 0 166 -33.5t139 -92.5t95.5 -139t35.5 -173q0 -89 -33.5 -168t-92 -139t-138 -95t-172.5 -35zM449 643q-74 0 -141 -30t-117 -80.5t-79.5 -117.5
t-29.5 -142q0 -74 28.5 -141t78 -118t116.5 -81t144 -30q76 0 143 29.5t117.5 79.5t79.5 117.5t29 143.5q0 73 -28.5 140t-78.5 118t-117 81.5t-145 30.5zM597 507q-11 0 -26 -10q26 -17 42.5 -42.5t16.5 -62.5q0 -32 -16 -57.5t-43.5 -43t-64.5 -27t-79 -9.5
q-13 0 -26 -0.5t-23.5 -2.5t-17.5 -5t-7 -9q0 -13 23 -19.5t58 -12t75 -11.5t75 -17.5t58 -31t23 -50.5q0 -35 -20 -60t-52.5 -41t-72 -23t-78.5 -7q-36 0 -74 7t-69.5 21t-52 35.5t-20.5 50.5q0 18 6.5 33.5t16 27.5t21.5 20.5t23 13.5q-27 12 -39.5 24.5t-12.5 31.5
q0 20 20.5 34.5t49.5 22.5q-33 14 -55 41t-22 64q0 38 17.5 64.5t46 43.5t64.5 24.5t72 7.5q52 0 100 -17q22 24 50 38t54 14q24 0 39.5 -14.5t15.5 -34.5q0 -23 -11.5 -35t-31.5 -12q-27 0 -39 16q5 9 0 14.5t-14 5.5zM382 156q-11 -10 -20.5 -29t-9.5 -35q0 -15 9.5 -25.5
t25 -17.5t34.5 -10.5t38 -3.5q32 0 56 13.5t24 42.5q0 18 -19 29.5t-45 18.5t-52.5 10.5t-40.5 6.5zM434 325q29 0 49 17.5t20 49.5q0 34 -20 51.5t-49 17.5q-32 0 -52.5 -17t-20.5 -52q0 -32 20.5 -49.5t52.5 -17.5z" />
    <glyph glyph-name="uni24D7" unicode="&#x24d7;" 
d="M449 -164q-88 0 -167 33.5t-138.5 92t-94.5 138.5t-35 173q0 90 34.5 169.5t93.5 139.5t138.5 94.5t168.5 34.5q87 0 166 -33.5t139 -92.5t95.5 -139t35.5 -173q0 -89 -33.5 -168t-92 -139t-138 -95t-172.5 -35zM449 643q-74 0 -141 -30t-117 -80.5t-79.5 -117.5
t-29.5 -142q0 -74 28.5 -141t78 -118t116.5 -81t144 -30q76 0 143 29.5t117.5 79.5t79.5 117.5t29 143.5q0 73 -28.5 140t-78.5 118t-117 81.5t-145 30.5zM660 0h-125v264q0 38 -17 59.5t-58 21.5q-17 0 -32 -2.5t-28 -7.5v-335h-127v499q0 11 -4 20.5t-15 14.5l146 46v-176
q23 10 46.5 13t51.5 3q51 0 83 -14t49.5 -36.5t23.5 -49.5t6 -52v-268z" />
    <glyph glyph-name="uni24D8" unicode="&#x24d8;" 
d="M514 558v-120h-127v120h127zM449 -164q-88 0 -167 33.5t-138.5 92t-94.5 138.5t-35 173q0 90 34.5 169.5t93.5 139.5t138.5 94.5t168.5 34.5q87 0 166 -33.5t139 -92.5t95.5 -139t35.5 -173q0 -89 -33.5 -168t-92 -139t-138 -95t-172.5 -35zM449 643q-74 0 -141 -30
t-117 -80.5t-79.5 -117.5t-29.5 -142q0 -74 28.5 -141t78 -118t116.5 -81t144 -30q76 0 143 29.5t117.5 79.5t79.5 117.5t29 143.5q0 73 -28.5 140t-78.5 118t-117 81.5t-145 30.5zM514 -24h-127v322q0 11 -4 21t-15 15l146 46v-404z" />
    <glyph glyph-name="uni24D9" unicode="&#x24d9;" 
d="M449 -164q-87 0 -160 30h-2v1q-59 24 -109 64t-86.5 92.5t-57 115.5t-20.5 134q0 90 34.5 169.5t93.5 139.5t138.5 94.5t168.5 34.5q87 0 166 -33.5t139 -92.5t95.5 -139t35.5 -173q0 -89 -33.5 -168t-92 -139t-138 -95t-172.5 -35zM449 643q-74 0 -141 -30t-117 -80.5
t-79.5 -117.5t-29.5 -142q0 -62 20 -118.5t55 -104t84 -82t108 -51.5q38 34 49 89.5t11 142.5v150q0 11 -4 20.5t-15 14.5l145 46v-246q0 -78 -25.5 -136t-87.5 -93q7 -1 13.5 -1.5t13.5 -0.5q76 0 143 29.5t117.5 79.5t79.5 117.5t29 143.5q0 73 -28.5 140t-78.5 118
t-117 81.5t-145 30.5zM535 558v-120h-126v120h126z" />
    <glyph glyph-name="uni24DA" unicode="&#x24da;" 
d="M449 -164q-88 0 -167 33.5t-138.5 92t-94.5 138.5t-35 173q0 90 34.5 169.5t93.5 139.5t138.5 94.5t168.5 34.5q87 0 166 -33.5t139 -92.5t95.5 -139t35.5 -173q0 -89 -33.5 -168t-92 -139t-138 -95t-172.5 -35zM449 643q-74 0 -141 -30t-117 -80.5t-79.5 -117.5
t-29.5 -142q0 -74 28.5 -141t78 -118t116.5 -81t144 -30q76 0 143 29.5t117.5 79.5t79.5 117.5t29 143.5q0 73 -28.5 140t-78.5 118t-117 81.5t-145 30.5zM269 -1v499q0 11 -4 21t-16 15l146 45v-308l121 135h141l-158 -163l188 -244h-145l-116 169l-31 -32v-137h-126z" />
    <glyph glyph-name="uni24DB" unicode="&#x24db;" 
d="M387 -20v499q0 11 -4.5 20.5t-15.5 14.5l145 46v-580h-125zM449 -164q-88 0 -167 33.5t-138.5 92t-94.5 138.5t-35 173q0 90 34.5 169.5t93.5 139.5t138.5 94.5t168.5 34.5q87 0 166 -33.5t139 -92.5t95.5 -139t35.5 -173q0 -89 -33.5 -168t-92 -139t-138 -95t-172.5 -35
zM449 643q-74 0 -141 -30t-117 -80.5t-79.5 -117.5t-29.5 -142q0 -74 28.5 -141t78 -118t116.5 -81t144 -30q76 0 143 29.5t117.5 79.5t79.5 117.5t29 143.5q0 73 -28.5 140t-78.5 118t-117 81.5t-145 30.5z" />
    <glyph glyph-name="uni24DC" unicode="&#x24dc;" 
d="M449 -164q-88 0 -167 33.5t-138.5 92t-94.5 138.5t-35 173q0 90 34.5 169.5t93.5 139.5t138.5 94.5t168.5 34.5q87 0 166 -33.5t139 -92.5t95.5 -139t35.5 -173q0 -89 -33.5 -168t-92 -139t-138 -95t-172.5 -35zM449 643q-74 0 -141 -30t-117 -80.5t-79.5 -117.5
t-29.5 -142q0 -74 28.5 -141t78 -118t116.5 -81t144 -30q76 0 143 29.5t117.5 79.5t79.5 117.5t29 143.5q0 73 -28.5 140t-78.5 118t-117 81.5t-145 30.5zM744 66h-124v261q0 39 -15 60.5t-44 21.5q-27 0 -45 -12q12 -32 12 -65v-266h-123v261q0 39 -13.5 60.5t-46.5 21.5
q-24 0 -44 -11v-332h-122v349q0 11 -4.5 20.5t-16.5 13.5l143 47v-31q19 10 40 14.5t41 4.5q34 0 59 -10.5t42 -27.5q29 21 60.5 29.5t61.5 8.5q41 0 68 -14t42.5 -36.5t22 -49.5t6.5 -52v-266z" />
    <glyph glyph-name="uni24DD" unicode="&#x24dd;" 
d="M449 -164q-88 0 -167 33.5t-138.5 92t-94.5 138.5t-35 173q0 90 34.5 169.5t93.5 139.5t138.5 94.5t168.5 34.5q87 0 166 -33.5t139 -92.5t95.5 -139t35.5 -173q0 -89 -33.5 -168t-92 -139t-138 -95t-172.5 -35zM449 643q-74 0 -141 -30t-117 -80.5t-79.5 -117.5
t-29.5 -142q0 -74 28.5 -141t78 -118t116.5 -81t144 -30q76 0 143 29.5t117.5 79.5t79.5 117.5t29 143.5q0 73 -28.5 140t-78.5 118t-117 81.5t-145 30.5zM391 495v-35q23 11 47.5 17t51.5 6q48 0 79.5 -14t50 -36t25.5 -49t7 -52v-267h-126v261q0 39 -16.5 60.5t-57.5 21.5
q-17 0 -32 -5t-29 -12v-326h-126v349q0 11 -4 20.5t-15 13.5z" />
    <glyph glyph-name="uni24DE" unicode="&#x24de;" 
d="M359 272q0 -63 23.5 -105t69.5 -42q23 0 40.5 11.5t29.5 31.5t18 46.5t6 57.5t-6.5 58t-18.5 47t-29.5 31.5t-39.5 11.5q-46 0 -69.5 -42.5t-23.5 -105.5zM227 272q0 51 18 92.5t49 70t72 44t86 15.5t86 -15.5t71.5 -44t49 -70t18.5 -92.5t-18.5 -92t-49 -69.5t-71.5 -44
t-86 -15.5t-86 15.5t-72 44t-49 69.5t-18 92zM449 -164q-88 0 -167 33.5t-138.5 92t-94.5 138.5t-35 173q0 90 34.5 169.5t93.5 139.5t138.5 94.5t168.5 34.5q87 0 166 -33.5t139 -92.5t95.5 -139t35.5 -173q0 -89 -33.5 -168t-92 -139t-138 -95t-172.5 -35zM449 643
q-74 0 -141 -30t-117 -80.5t-79.5 -117.5t-29.5 -142q0 -74 28.5 -141t78 -118t116.5 -81t144 -30q76 0 143 29.5t117.5 79.5t79.5 117.5t29 143.5q0 73 -28.5 140t-78.5 118t-117 81.5t-145 30.5z" />
    <glyph glyph-name="uni24DF" unicode="&#x24df;" 
d="M449 -164q-88 0 -167 33.5t-138.5 92t-94.5 138.5t-35 173q0 90 34.5 169.5t93.5 139.5t138.5 94.5t168.5 34.5q87 0 166 -33.5t139 -92.5t95.5 -139t35.5 -173q0 -89 -33.5 -168t-92 -139t-138 -95t-172.5 -35zM449 643q-74 0 -141 -30t-117 -80.5t-79.5 -117.5
t-29.5 -142q0 -49 13 -95.5t36.5 -87.5t56.5 -75t74 -59v474q0 11 -4 20.5t-15 14.5l146 46v-46q24 16 54 25t61 9q41 0 74 -15.5t56.5 -43.5t36.5 -66t13 -83q0 -48 -12 -88.5t-34.5 -70t-56.5 -46t-77 -16.5q-33 0 -63.5 13t-51.5 33v-207q30 -6 60 -6q76 0 143 29.5
t117.5 79.5t79.5 117.5t29 143.5q0 73 -28.5 140t-78.5 118t-117 81.5t-145 30.5zM559 294q0 67 -28.5 99t-65.5 32q-22 0 -42 -7.5t-34 -15.5v-222q14 -14 34.5 -24t47.5 -10q15 0 30.5 7.5t28 25t21 45.5t8.5 70z" />
    <glyph glyph-name="uni24E0" unicode="&#x24e0;" 
d="M449 -164q-88 0 -167 33.5t-138.5 92t-94.5 138.5t-35 173q0 90 34.5 169.5t93.5 139.5t138.5 94.5t168.5 34.5q87 0 166 -33.5t139 -92.5t95.5 -139t35.5 -173q0 -89 -33.5 -168t-92 -139t-138 -95t-172.5 -35zM449 643q-74 0 -141 -30t-117 -80.5t-79.5 -117.5
t-29.5 -142q0 -74 28.5 -141t78 -118t116.5 -81t144 -30q36 0 68 7v194q-25 -16 -55.5 -25t-59.5 -9q-41 0 -74.5 16t-57 44t-36.5 66.5t-13 83.5q0 48 12 88t34.5 69.5t56 45.5t77.5 16q29 0 55 -9.5t46 -23.5l141 45v-553q79 50 127 132.5t48 182.5q0 73 -28.5 140
t-78.5 118t-117 81.5t-145 30.5zM346 277q0 -34 8 -58.5t21 -40.5t30 -24t35 -8q21 0 42 6.5t35 14.5v222q-14 14 -34.5 25t-46.5 11q-16 0 -32 -7.5t-29 -25t-21 -45.5t-8 -70z" />
    <glyph glyph-name="uni24E1" unicode="&#x24e1;" 
d="M449 -164q-88 0 -167 33.5t-138.5 92t-94.5 138.5t-35 173q0 90 34.5 169.5t93.5 139.5t138.5 94.5t168.5 34.5q87 0 166 -33.5t139 -92.5t95.5 -139t35.5 -173q0 -89 -33.5 -168t-92 -139t-138 -95t-172.5 -35zM449 643q-74 0 -141 -30t-117 -80.5t-79.5 -117.5
t-29.5 -142q0 -74 28.5 -141t78 -118t116.5 -81t144 -30q76 0 143 29.5t117.5 79.5t79.5 117.5t29 143.5q0 73 -28.5 140t-78.5 118t-117 81.5t-145 30.5zM449 477v-64q28 25 58.5 38.5t56.5 13.5q34 0 54.5 -16t20.5 -45q0 -26 -15.5 -45.5t-44.5 -19.5q-38 0 -60 18
q5 11 0 18t-14 7q-11 0 -26.5 -6.5t-29.5 -18.5v-310h-126v349q0 11 -4.5 20.5t-15.5 13.5z" />
    <glyph glyph-name="uni24E2" unicode="&#x24e2;" 
d="M634 388q0 -28 -19 -40.5t-44 -12.5q-44 0 -63 30q5 7 5.5 15t-4 15t-16 12t-30.5 5q-24 0 -40.5 -12.5t-16.5 -29.5q0 -24 28.5 -41.5t73.5 -34.5q31 -12 57.5 -24t45.5 -26t30 -31.5t11 -42.5q0 -26 -13.5 -48.5t-39 -39t-62.5 -26.5t-83 -10q-86 0 -135 29t-70 76
l107 37q14 -35 40.5 -52t58.5 -17t50.5 12.5t18.5 33.5q0 12 -5.5 20t-16.5 15t-28.5 14t-41.5 18q-33 14 -61 27.5t-48.5 29t-32.5 35t-12 46.5q0 50 48.5 83t134.5 33q39 0 71 -8.5t54.5 -22t35 -31t12.5 -36.5zM449 -164q-88 0 -167 33.5t-138.5 92t-94.5 138.5t-35 173
q0 90 34.5 169.5t93.5 139.5t138.5 94.5t168.5 34.5q87 0 166 -33.5t139 -92.5t95.5 -139t35.5 -173q0 -89 -33.5 -168t-92 -139t-138 -95t-172.5 -35zM449 643q-74 0 -141 -30t-117 -80.5t-79.5 -117.5t-29.5 -142q0 -74 28.5 -141t78 -118t116.5 -81t144 -30
q76 0 143 29.5t117.5 79.5t79.5 117.5t29 143.5q0 73 -28.5 140t-78.5 118t-117 81.5t-145 30.5z" />
    <glyph glyph-name="uni24E3" unicode="&#x24e3;" 
d="M449 -164q-88 0 -167 33.5t-138.5 92t-94.5 138.5t-35 173q0 90 34.5 169.5t93.5 139.5t138.5 94.5t168.5 34.5q87 0 166 -33.5t139 -92.5t95.5 -139t35.5 -173q0 -89 -33.5 -168t-92 -139t-138 -95t-172.5 -35zM449 643q-74 0 -141 -30t-117 -80.5t-79.5 -117.5
t-29.5 -142q0 -74 28.5 -141t78 -118t116.5 -81t144 -30q76 0 143 29.5t117.5 79.5t79.5 117.5t29 143.5q0 73 -28.5 140t-78.5 118t-117 81.5t-145 30.5zM293 415h67v70q0 11 -4.5 21t-15.5 15l146 46v-152h88v-75h-88v-229q0 -29 8 -39t28 -10q14 0 26 4.5t22 10.5l16 -62
q-25 -17 -49 -21t-47 -4q-70 0 -100 32.5t-30 112.5v205h-67v75z" />
    <glyph glyph-name="uni24E4" unicode="&#x24e4;" 
d="M449 -164q-88 0 -167 33.5t-138.5 92t-94.5 138.5t-35 173q0 90 34.5 169.5t93.5 139.5t138.5 94.5t168.5 34.5q87 0 166 -33.5t139 -92.5t95.5 -139t35.5 -173q0 -89 -33.5 -168t-92 -139t-138 -95t-172.5 -35zM449 643q-74 0 -141 -30t-117 -80.5t-79.5 -117.5
t-29.5 -142q0 -74 28.5 -141t78 -118t116.5 -81t144 -30q76 0 143 29.5t117.5 79.5t79.5 117.5t29 143.5q0 73 -28.5 140t-78.5 118t-117 81.5t-145 30.5zM640 476v-429h-125v24q-21 -17 -48.5 -26.5t-57.5 -9.5q-44 0 -74 14.5t-48 37t-26 49.5t-8 52v202q0 12 -4 21
t-15 14l146 46v-279q0 -38 15.5 -59.5t46.5 -21.5q23 0 41 8.5t32 20.5v255q0 11 -4.5 20.5t-15.5 13.5z" />
    <glyph glyph-name="uni24E5" unicode="&#x24e5;" 
d="M454 161l83 281h131l-154 -408h-116l-155 408h130zM449 -164q-88 0 -167 33.5t-138.5 92t-94.5 138.5t-35 173q0 90 34.5 169.5t93.5 139.5t138.5 94.5t168.5 34.5q87 0 166 -33.5t139 -92.5t95.5 -139t35.5 -173q0 -89 -33.5 -168t-92 -139t-138 -95t-172.5 -35z
M449 643q-74 0 -141 -30t-117 -80.5t-79.5 -117.5t-29.5 -142q0 -74 28.5 -141t78 -118t116.5 -81t144 -30q76 0 143 29.5t117.5 79.5t79.5 117.5t29 143.5q0 73 -28.5 140t-78.5 118t-117 81.5t-145 30.5z" />
    <glyph glyph-name="uni24E6" unicode="&#x24e6;" 
d="M625 446h124l-118 -408h-120l-64 237l-63 -237h-120l-117 408h123l58 -274l64 250h110l64 -250zM449 -164q-88 0 -167 33.5t-138.5 92t-94.5 138.5t-35 173q0 90 34.5 169.5t93.5 139.5t138.5 94.5t168.5 34.5q87 0 166 -33.5t139 -92.5t95.5 -139t35.5 -173
q0 -89 -33.5 -168t-92 -139t-138 -95t-172.5 -35zM449 643q-74 0 -141 -30t-117 -80.5t-79.5 -117.5t-29.5 -142q0 -74 28.5 -141t78 -118t116.5 -81t144 -30q76 0 143 29.5t117.5 79.5t79.5 117.5t29 143.5q0 73 -28.5 140t-78.5 118t-117 81.5t-145 30.5z" />
    <glyph glyph-name="uni24E7" unicode="&#x24e7;" 
d="M531 467h136l-142 -192l154 -213h-135l-89 128l-89 -128h-135l154 213l-140 192h136l74 -109zM449 -164q-88 0 -167 33.5t-138.5 92t-94.5 138.5t-35 173q0 90 34.5 169.5t93.5 139.5t138.5 94.5t168.5 34.5q87 0 166 -33.5t139 -92.5t95.5 -139t35.5 -173
q0 -89 -33.5 -168t-92 -139t-138 -95t-172.5 -35zM449 643q-74 0 -141 -30t-117 -80.5t-79.5 -117.5t-29.5 -142q0 -74 28.5 -141t78 -118t116.5 -81t144 -30q76 0 143 29.5t117.5 79.5t79.5 117.5t29 143.5q0 73 -28.5 140t-78.5 118t-117 81.5t-145 30.5z" />
    <glyph glyph-name="uni24E8" unicode="&#x24e8;" 
d="M449 -164q-88 0 -167 33.5t-138.5 92t-94.5 138.5t-35 173q0 90 34.5 169.5t93.5 139.5t138.5 94.5t168.5 34.5q87 0 166 -33.5t139 -92.5t95.5 -139t35.5 -173q0 -89 -33.5 -168t-92 -139t-138 -95t-172.5 -35zM449 643q-74 0 -141 -30t-117 -80.5t-79.5 -117.5
t-29.5 -142q0 -74 28.5 -141t78 -118t116.5 -81t144 -30q76 0 143 29.5t117.5 79.5t79.5 117.5t29 143.5q0 73 -28.5 140t-78.5 118t-117 81.5t-145 30.5zM492 66q-19 -49 -53 -81t-81 -32q-23 0 -44 5.5t-44 21.5l16 59q9 -5 20.5 -9.5t25.5 -4.5q15 0 27.5 9.5t22.5 26
t18 38t15 44.5l-157 384h127l80 -260l79 260h126z" />
    <glyph glyph-name="uni24E9" unicode="&#x24e9;" 
d="M642 65h-374v74l215 256h-198v75h343v-75l-214 -256h228v-74zM449 -164q-88 0 -167 33.5t-138.5 92t-94.5 138.5t-35 173q0 90 34.5 169.5t93.5 139.5t138.5 94.5t168.5 34.5q87 0 166 -33.5t139 -92.5t95.5 -139t35.5 -173q0 -89 -33.5 -168t-92 -139t-138 -95
t-172.5 -35zM449 643q-74 0 -141 -30t-117 -80.5t-79.5 -117.5t-29.5 -142q0 -74 28.5 -141t78 -118t116.5 -81t144 -30q76 0 143 29.5t117.5 79.5t79.5 117.5t29 143.5q0 73 -28.5 140t-78.5 118t-117 81.5t-145 30.5z" />
    <glyph glyph-name="uni2500" unicode="&#x2500;" horiz-adv-x="1000" 
d="M0 314h1000v-38h-1000v38z" />
    <glyph glyph-name="uni2501" unicode="&#x2501;" horiz-adv-x="1000" 
d="M0 334h1000v-77h-1000v77z" />
    <glyph glyph-name="uni2502" unicode="&#x2502;" horiz-adv-x="1000" 
d="M479 812h41v-1035h-41v1035z" />
    <glyph glyph-name="uni2503" unicode="&#x2503;" horiz-adv-x="1000" 
d="M458 812h84v-1035h-84v1035z" />
    <glyph glyph-name="uni250C" unicode="&#x250c;" horiz-adv-x="1000" 
d="M520 276v-499h-41v537h521v-38h-480z" />
    <glyph glyph-name="uni250D" unicode="&#x250d;" horiz-adv-x="1000" 
d="M1000 334v-77h-480v-480h-41v557h521z" />
    <glyph glyph-name="uni250E" unicode="&#x250e;" horiz-adv-x="1000" 
d="M1000 314v-38h-459v-499h-84v537h543z" />
    <glyph glyph-name="uni250F" unicode="&#x250f;" horiz-adv-x="1000" 
d="M1000 334v-77h-459v-480h-84v557h543z" />
    <glyph glyph-name="uni2510" unicode="&#x2510;" horiz-adv-x="1000" 
d="M479 276h-479v38h520v-537h-41v499z" />
    <glyph glyph-name="uni2511" unicode="&#x2511;" horiz-adv-x="1000" 
d="M520 334v-557h-41v480h-479v77h520z" />
    <glyph glyph-name="uni2512" unicode="&#x2512;" horiz-adv-x="1000" 
d="M541 314v-537h-84v499h-457v38h541z" />
    <glyph glyph-name="uni2513" unicode="&#x2513;" horiz-adv-x="1000" 
d="M541 334v-557h-84v480h-457v77h541z" />
    <glyph glyph-name="uni2514" unicode="&#x2514;" horiz-adv-x="1000" 
d="M479 276v536h41v-498h480v-38h-521z" />
    <glyph glyph-name="uni2515" unicode="&#x2515;" horiz-adv-x="1000" 
d="M479 812h41v-478h480v-77h-521v555z" />
    <glyph glyph-name="uni2516" unicode="&#x2516;" horiz-adv-x="1000" 
d="M457 812h84v-498h459v-38h-543v536z" />
    <glyph glyph-name="uni2517" unicode="&#x2517;" horiz-adv-x="1000" 
d="M457 812h84v-478h459v-77h-543v555z" />
    <glyph glyph-name="uni2518" unicode="&#x2518;" horiz-adv-x="1000" 
d="M0 276v38h479v498h41v-536h-520z" />
    <glyph glyph-name="uni2519" unicode="&#x2519;" horiz-adv-x="1000" 
d="M479 812h41v-555h-520v77h479v478z" />
    <glyph glyph-name="uni251A" unicode="&#x251a;" horiz-adv-x="1000" 
d="M457 812h84v-536h-541v38h457v498z" />
    <glyph glyph-name="uni251B" unicode="&#x251b;" horiz-adv-x="1000" 
d="M457 812h84v-555h-541v77h457v478z" />
    <glyph glyph-name="uni251C" unicode="&#x251c;" horiz-adv-x="1000" 
d="M479 812h41v-498h480v-38h-480v-499h-41v1035z" />
    <glyph glyph-name="uni251D" unicode="&#x251d;" horiz-adv-x="1000" 
d="M479 812h41v-478h480v-77h-480v-480h-41v1035z" />
    <glyph glyph-name="uni251E" unicode="&#x251e;" horiz-adv-x="1000" 
d="M541 314h459v-38h-480v-499h-41v516h-22v519h84v-498z" />
    <glyph glyph-name="uni251F" unicode="&#x251f;" horiz-adv-x="1000" 
d="M520 314h480v-38h-459v-499h-84v518h22v517h41v-498z" />
    <glyph glyph-name="uni2520" unicode="&#x2520;" horiz-adv-x="1000" 
d="M457 812h84v-498h459v-38h-459v-499h-84v1035z" />
    <glyph glyph-name="uni2521" unicode="&#x2521;" horiz-adv-x="1000" 
d="M541 334h459v-77h-480v-480h-41v517h-22v518h84v-478z" />
    <glyph glyph-name="uni2522" unicode="&#x2522;" horiz-adv-x="1000" 
d="M520 334h480v-77h-459v-480h-84v517h22v518h41v-478z" />
    <glyph glyph-name="uni2523" unicode="&#x2523;" horiz-adv-x="1000" 
d="M457 812h84v-478h459v-77h-459v-480h-84v1035z" />
    <glyph glyph-name="uni2524" unicode="&#x2524;" horiz-adv-x="1000" 
d="M479 276h-479v38h479v498h41v-1035h-41v499z" />
    <glyph glyph-name="uni2525" unicode="&#x2525;" horiz-adv-x="1000" 
d="M479 812h41v-1035h-41v480h-479v77h479v478z" />
    <glyph glyph-name="uni2526" unicode="&#x2526;" horiz-adv-x="1000" 
d="M479 276h-479v38h457v498h84v-517h-21v-518h-41v499z" />
    <glyph glyph-name="uni2527" unicode="&#x2527;" horiz-adv-x="1000" 
d="M457 276h-457v38h479v498h41v-517h21v-518h-84v499z" />
    <glyph glyph-name="uni2528" unicode="&#x2528;" horiz-adv-x="1000" 
d="M457 812h84v-1035h-84v499h-457v38h457v498z" />
    <glyph glyph-name="uni2529" unicode="&#x2529;" horiz-adv-x="1000" 
d="M479 257h-479v77h457v478h84v-518h-21v-517h-41v480z" />
    <glyph glyph-name="uni252A" unicode="&#x252a;" horiz-adv-x="1000" 
d="M457 257h-457v77h479v478h41v-518h21v-517h-84v480z" />
    <glyph glyph-name="uni252B" unicode="&#x252b;" horiz-adv-x="1000" 
d="M457 812h84v-1035h-84v480h-457v77h457v478z" />
    <glyph glyph-name="uni252C" unicode="&#x252c;" horiz-adv-x="1000" 
d="M479 276h-479v38h1000v-38h-480v-499h-41v499z" />
    <glyph glyph-name="uni252D" unicode="&#x252d;" horiz-adv-x="1000" 
d="M520 276v-499h-41v480h-479v77h499v-20h501v-38h-480z" />
    <glyph glyph-name="uni252E" unicode="&#x252e;" horiz-adv-x="1000" 
d="M520 257v-480h-41v499h-479v38h499v20h501v-77h-480z" />
    <glyph glyph-name="uni252F" unicode="&#x252f;" horiz-adv-x="1000" 
d="M1000 334v-77h-480v-480h-41v480h-479v77h1000z" />
    <glyph glyph-name="uni2530" unicode="&#x2530;" horiz-adv-x="1000" 
d="M1000 314v-38h-459v-499h-84v499h-457v38h1000z" />
    <glyph glyph-name="uni2531" unicode="&#x2531;" horiz-adv-x="1000" 
d="M541 276v-500h-84v481h-457v77h499v-20h501v-38h-459z" />
    <glyph glyph-name="uni2532" unicode="&#x2532;" horiz-adv-x="1000" 
d="M457 276h-457v38h499v20h501v-77h-459v-480h-84v499z" />
    <glyph glyph-name="uni2533" unicode="&#x2533;" horiz-adv-x="1000" 
d="M1000 334v-77h-459v-480h-84v480h-457v77h1000z" />
    <glyph glyph-name="uni2534" unicode="&#x2534;" horiz-adv-x="1000" 
d="M0 276v38h479v498h41v-498h480v-38h-1000z" />
    <glyph glyph-name="uni2535" unicode="&#x2535;" horiz-adv-x="1000" 
d="M479 334v478h41v-498h480v-38h-501v-19h-499v77h479z" />
    <glyph glyph-name="uni2536" unicode="&#x2536;" horiz-adv-x="1000" 
d="M520 334h480v-77h-501v19h-499v38h479v498h41v-478z" />
    <glyph glyph-name="uni2537" unicode="&#x2537;" horiz-adv-x="1000" 
d="M479 812h41v-478h480v-77h-1000v77h479v478z" />
    <glyph glyph-name="uni2538" unicode="&#x2538;" horiz-adv-x="1000" 
d="M457 812h84v-498h459v-38h-1000v38h457v498z" />
    <glyph glyph-name="uni2539" unicode="&#x2539;" horiz-adv-x="1000" 
d="M457 334v478h84v-498h459v-38h-501v-19h-499v77h457z" />
    <glyph glyph-name="uni253A" unicode="&#x253a;" horiz-adv-x="1000" 
d="M541 334h459v-77h-501v19h-499v38h457v498h84v-478z" />
    <glyph glyph-name="uni253B" unicode="&#x253b;" horiz-adv-x="1000" 
d="M457 812h84v-478h459v-77h-1000v77h457v478z" />
    <glyph glyph-name="uni253C" unicode="&#x253c;" horiz-adv-x="1000" 
d="M479 276h-479v38h479v498h41v-498h480v-38h-480v-499h-41v499z" />
    <glyph glyph-name="uni253D" unicode="&#x253d;" horiz-adv-x="1000" 
d="M479 257h-479v77h479v478h41v-498h480v-38h-480v-499h-41v480z" />
    <glyph glyph-name="uni253E" unicode="&#x253e;" horiz-adv-x="1000" 
d="M479 276h-479v38h479v498h41v-478h480v-77h-480v-480h-41v499z" />
    <glyph glyph-name="uni253F" unicode="&#x253f;" horiz-adv-x="1000" 
d="M479 812h41v-478h480v-77h-480v-480h-41v480h-479v77h479v478z" />
    <glyph glyph-name="uni2540" unicode="&#x2540;" horiz-adv-x="1000" 
d="M479 276h-479v38h457v498h84v-498h459v-38h-480v-499h-41v499z" />
    <glyph glyph-name="uni2541" unicode="&#x2541;" horiz-adv-x="1000" 
d="M479 314v498h41v-498h480v-38h-459v-499h-84v499h-457v38h479z" />
    <glyph glyph-name="uni2542" unicode="&#x2542;" horiz-adv-x="1000" 
d="M457 812h84v-498h459v-38h-459v-499h-84v499h-457v38h457v498z" />
    <glyph glyph-name="uni2543" unicode="&#x2543;" horiz-adv-x="1000" 
d="M520 276v-499h-41v480h-479v77h457v478h84v-498h459v-38h-480z" />
    <glyph glyph-name="uni2544" unicode="&#x2544;" horiz-adv-x="1000" 
d="M479 276h-479v38h457v498h84v-478h459v-77h-480v-480h-41v499z" />
    <glyph glyph-name="uni2545" unicode="&#x2545;" horiz-adv-x="1000" 
d="M520 314h480v-38h-459v-499h-84v480h-457v77h479v478h41v-498z" />
    <glyph glyph-name="uni2546" unicode="&#x2546;" horiz-adv-x="1000" 
d="M479 314v498h41v-478h480v-77h-459v-480h-84v499h-457v38h479z" />
    <glyph glyph-name="uni2547" unicode="&#x2547;" horiz-adv-x="1000" 
d="M479 257h-479v77h457v478h84v-478h459v-77h-480v-480h-41v480z" />
    <glyph glyph-name="uni2548" unicode="&#x2548;" horiz-adv-x="1000" 
d="M479 334v478h41v-478h480v-77h-459v-480h-84v480h-457v77h479z" />
    <glyph glyph-name="uni2549" unicode="&#x2549;" horiz-adv-x="1000" 
d="M541 276v-499h-84v480h-457v77h457v478h84v-498h459v-38h-459z" />
    <glyph glyph-name="uni254A" unicode="&#x254a;" horiz-adv-x="1000" 
d="M457 276h-457v38h457v498h84v-478h459v-77h-459v-480h-84v499z" />
    <glyph glyph-name="uni254B" unicode="&#x254b;" horiz-adv-x="1000" 
d="M457 812h84v-478h459v-77h-459v-480h-84v480h-457v77h457v478z" />
    <glyph glyph-name="shade" unicode="&#x2592;" horiz-adv-x="1000" 
d="M460 18h80v-81h-80v81zM758 18v-81h-79v81h79zM570 -63v81h81v-81h-81zM243 -63v81h78v-81h-78zM132 -63v81h80v-81h-80zM351 -63v81h79v-81h-79zM868 18v-81h-81v81h81zM460 126h80v-79h-80v79zM758 126v-79h-79v79h79zM570 47v79h81v-79h-81zM243 47v79h78v-79h-78z
M132 47v79h80v-79h-80zM351 47v79h79v-79h-79zM868 126v-79h-81v79h81zM460 234h80v-79h-80v79zM758 234v-79h-79v79h79zM570 155v79h81v-79h-81zM243 155v79h78v-79h-78zM132 155v79h80v-79h-80zM351 155v79h79v-79h-79zM868 234v-79h-81v79h81zM460 345h80v-83h-80v83z
M758 345v-83h-79v83h79zM570 262v83h81v-83h-81zM243 262v83h78v-83h-78zM132 262v83h80v-83h-80zM351 262v83h79v-83h-79zM868 345v-83h-81v83h81zM460 452h80v-79h-80v79zM758 452v-79h-79v79h79zM570 373v79h81v-79h-81zM243 373v79h78v-79h-78zM132 373v79h80v-79h-80z
M351 373v79h79v-79h-79zM868 452v-79h-81v79h81zM460 560h80v-79h-80v79zM758 560v-79h-79v79h79zM570 481v79h81v-79h-81zM243 481v79h78v-79h-78zM132 481v79h80v-79h-80zM351 481v79h79v-79h-79zM868 560v-79h-81v79h81zM460 670h80v-81h-80v81zM758 670v-81h-79v81h79z
M570 589v81h81v-81h-81zM243 589v81h78v-81h-78zM132 589v81h80v-81h-80zM351 589v81h79v-81h-79zM868 670v-81h-81v81h81z" />
    <glyph glyph-name="filledbox" unicode="&#x25a0;" horiz-adv-x="1000" 
d="M868 -63h-736v733h736v-733z" />
    <glyph glyph-name="uni25A1" unicode="&#x25a1;" horiz-adv-x="1000" 
d="M132 670h736v-733h-736v733zM812 614h-626v-621h626v621z" />
    <glyph glyph-name="uni25A3" unicode="&#x25a3;" horiz-adv-x="1000" 
d="M312 491h376v-375h-376v375zM132 670h736v-733h-736v733zM812 614h-626v-621h626v621z" />
    <glyph glyph-name="uni25A4" unicode="&#x25a4;" horiz-adv-x="1000" 
d="M868 -63h-736v733h736v-733zM823 32h-646v-51h646v51zM823 132h-646v-51h646v51zM823 231h-646v-52h646v52zM823 330h-646v-53h646v53zM823 428h-646v-52h646v52zM823 526h-646v-51h646v51zM823 626h-646v-51h646v51z" />
    <glyph glyph-name="uni25A5" unicode="&#x25a5;" horiz-adv-x="1000" 
d="M868 -63h-736v733h736v-733zM229 -18v644h-51v-644h51zM329 -18v644h-51v-644h51zM428 -18v644h-52v-644h52zM527 -18v644h-53v-644h53zM625 -18v644h-52v-644h52zM723 -18v644h-51v-644h51zM823 -18v644h-51v-644h51z" />
    <glyph glyph-name="uni25A6" unicode="&#x25a6;" horiz-adv-x="1000" 
d="M868 670v-733h-736v733h736zM229 33h-51v-51h51v51zM229 132h-51v-51h51v51zM229 231h-51v-52h51v52zM229 329h-51v-52h51v52zM229 427h-51v-52h51v52zM229 525h-51v-51h51v51zM229 624h-51v-51h51v51zM329 33h-51v-51h51v51zM329 132h-51v-51h51v51zM329 231h-51v-52h51
v52zM329 329h-51v-52h51v52zM329 427h-51v-52h51v52zM329 525h-51v-51h51v51zM329 624h-51v-51h51v51zM428 33h-52v-51h52v51zM428 132h-52v-51h52v51zM428 231h-52v-52h52v52zM428 329h-52v-52h52v52zM428 427h-52v-52h52v52zM428 525h-52v-51h52v51zM428 624h-52v-51h52
v51zM527 33h-53v-51h53v51zM527 132h-53v-51h53v51zM527 231h-53v-52h53v52zM527 329h-53v-52h53v52zM527 427h-53v-52h53v52zM527 525h-53v-51h53v51zM527 624h-53v-51h53v51zM625 33h-52v-51h52v51zM625 132h-52v-51h52v51zM625 231h-52v-52h52v52zM625 329h-52v-52h52v52
zM625 427h-52v-52h52v52zM625 525h-52v-51h52v51zM625 624h-52v-51h52v51zM723 33h-51v-51h51v51zM723 132h-51v-51h51v51zM723 231h-51v-52h51v52zM723 329h-51v-52h51v52zM723 427h-51v-52h51v52zM723 525h-51v-51h51v51zM723 624h-51v-51h51v51zM823 33h-51v-51h51v51z
M823 132h-51v-51h51v51zM823 231h-51v-52h51v52zM823 329h-51v-52h51v52zM823 427h-51v-52h51v52zM823 525h-51v-51h51v51zM823 624h-51v-51h51v51z" />
    <glyph glyph-name="uni25A7" unicode="&#x25a7;" horiz-adv-x="1000" 
d="M822 -17l-2 -2h3v71l-575 574h-69zM177 487l506 -506h66l-572 572v-66zM322 626l501 -501v72l-429 429h-72zM177 344l363 -363h65l-428 428v-65zM468 626l355 -355v71l-284 284h-71zM177 200l219 -219h68l-287 287v-68zM613 626l210 -210v68l-142 142h-68zM250 -19h72
l-145 145v-72zM823 626h-66l66 -66v66zM132 670h736v-733h-736v733z" />
    <glyph glyph-name="uni25A8" unicode="&#x25a8;" horiz-adv-x="1000" 
d="M821 626h-69l-575 -574v-71h3l-2 2zM823 553l-572 -572h66l506 506v66zM606 626l-429 -429v-72l501 501h-72zM823 409l-428 -428h65l363 363v65zM461 626l-284 -284v-71l355 355h-71zM823 268l-287 -287h68l219 219v68zM319 626l-142 -142v-68l210 210h-68zM823 54v72
l-145 -145h72zM177 560l66 66h-66v-66zM868 -63h-736v733h736v-733z" />
    <glyph glyph-name="uni25A9" unicode="&#x25a9;" horiz-adv-x="1000" 
d="M868 -63h-736v733h736v-733zM273 357l-53 -55l53 -53l55 53zM507 125l-54 -55l54 -53l53 54zM738 357l-53 -55l54 -52l53 52zM505 589q-14 -14 -26.5 -26t-26.5 -26l54 -55l52 54zM433 201l-56 -56l46 -47l53 54zM347 116l-53 -55l22 -22t23 -24l55 54zM339 589l-45 -45
q14 -14 26.5 -27.5t26.5 -27.5l47 47zM737 192l-47 -47q14 -14 26.5 -27t26.5 -27q13 13 23 24.5t24 23.5zM264 512l-45 -44q14 -14 26.5 -27.5t26.5 -27.5q13 12 24 22t23 24zM668 589q-14 -14 -26.5 -26t-26.5 -26l47 -47q13 13 26 25.5t27 26.5zM656 274
q-11 -11 -22.5 -23.5t-23.5 -23.5l54 -53l46 46zM272 192l-54 -54q11 -11 23 -22t23 -24l54 53zM578 199l-44 -47l54 -53l45 46zM422 506q-13 -12 -22.5 -23t-22.5 -23l54 -54l45 45zM587 506q-14 -14 -26.5 -26t-26.5 -27l44 -47l54 54zM356 274l-55 -54q11 -11 23 -22
t23 -24q15 15 27 28t26 27zM661 116l-46 -46l53 -53l46 46zM744 512l-52 -52l44 -48l54 55zM664 431l-54 -54l46 -44l52 51zM346 430l-44 -46l52 -52l46 44zM430 350l-47 -48l47 -47l44 47zM581 350l-47 -48l45 -47l46 47zM506 424l-47 -47l45 -44l45 44zM505 272l-46 -46
l46 -45l44 45zM190 166l54 55q-14 14 -26.5 27t-26.5 27l-10 -10v-92zM817 166l9 8v91l-10 10q-14 -14 -26 -27t-27 -27zM244 386l-54 54q-2 -2 -4 -3.5t-5 -3.5v-91l9 -9zM526 -19h105l10 9l-26.5 26.5l-26.5 26.5zM528 625l30.5 -30.5l30.5 -30.5q14 14 25.5 26t26.5 26
l-10 9h-103zM423 564l52 54l-3.5 3.5l-3.5 3.5h-93l-7 -7zM766 384l52 -52l8 7v94l-6 5zM423 40l-53 -53l5 -6h94l6 6zM686 -19h109q-16 15 -27.5 27.5t-26.5 28.5zM686 625l55 -56q15 16 26 28t28 28h-109zM181 101v-93l55 56l-45 47zM826 101l-10 10q-12 -13 -22 -24
t-23 -23l55 -56v93zM181 504q1 -1 3.5 -4t5.5 -5l46 47l-55 54v-92zM826 505v91l-55 -54l46 -47zM305 -19l7 7l-47 48l-27 -27l-28 -28h95zM304 625h-93l54 -55l47 48z" />
    <glyph glyph-name="triagup" unicode="&#x25b2;" horiz-adv-x="1000" 
d="M62 -23l441 740l435 -740h-876z" />
    <glyph glyph-name="uni25B3" unicode="&#x25b3;" horiz-adv-x="1000" 
d="M938 -33h-876l443 740zM840 27l-334 572l-347 -572h681z" />
    <glyph glyph-name="uni25B6" unicode="&#x25b6;" horiz-adv-x="1000" 
d="M119 -111v876l761 -443z" />
    <glyph glyph-name="uni25B7" unicode="&#x25b7;" horiz-adv-x="1000" 
d="M119 -111v876l761 -443zM174 -6l591 327l-591 340v-667z" />
    <glyph glyph-name="triagdn" unicode="&#x25bc;" horiz-adv-x="1000" 
d="M938 623l-435 -739l-441 739h876z" />
    <glyph glyph-name="uni25BD" unicode="&#x25bd;" horiz-adv-x="1000" 
d="M505 -116l-443 739h876zM159 563l347 -572l334 572h-681z" />
    <glyph glyph-name="uni25C0" unicode="&#x25c0;" horiz-adv-x="1000" 
d="M119 322l761 443v-876z" />
    <glyph glyph-name="uni25C1" unicode="&#x25c1;" horiz-adv-x="1000" 
d="M119 322l761 443v-876zM825 661l-591 -340l591 -327v667z" />
    <glyph glyph-name="uni25C6" unicode="&#x25c6;" horiz-adv-x="1000" 
d="M510 -159l-473 465l473 467l452 -466z" />
    <glyph glyph-name="uni25C7" unicode="&#x25c7;" horiz-adv-x="1000" 
d="M879 307l-371 383l-389 -384l389 -382zM510 -159l-473 465l473 467l452 -466z" />
    <glyph glyph-name="uni25C8" unicode="&#x25c8;" horiz-adv-x="1000" 
d="M499 553l250 -248l-250 -249l-249 249zM879 307l-371 383l-389 -384l389 -382zM510 -159l-473 465l473 467l452 -466z" />
    <glyph glyph-name="uni25C9" unicode="&#x25c9;" horiz-adv-x="1000" 
d="M500 -47q75 0 141 29t115.5 78.5t78 116t28.5 140.5q0 75 -28.5 141t-78 116t-115.5 79t-141 29t-140.5 -29t-115 -79t-78 -116t-28.5 -141q0 -74 28.5 -140.5t78 -116t115 -78.5t140.5 -29zM500 -106q-86 0 -162 34t-134 92t-91.5 135t-33.5 163q0 87 33.5 164
t91.5 134.5t134 91t162 33.5t162.5 -33.5t134 -91t91 -134.5t33.5 -164q0 -86 -33.5 -163t-91 -135t-134 -92t-162.5 -34zM500 539q46 0 86 -17.5t70 -48t47.5 -71t17.5 -85.5t-17.5 -85.5t-47.5 -71t-70 -48t-86 -17.5q-45 0 -85 17.5t-70 48t-47.5 71t-17.5 85.5
t17.5 85.5t47.5 71t70 48t85 17.5z" />
    <glyph glyph-name="circle" unicode="&#x25cb;" horiz-adv-x="1000" 
d="M500 -47q75 0 141 29t115.5 78.5t78 116t28.5 140.5q0 75 -28.5 141t-78 116t-115.5 79t-141 29t-140.5 -29t-115 -79t-78 -116t-28.5 -141q0 -74 28.5 -140.5t78 -116t115 -78.5t140.5 -29zM500 -106q-86 0 -162 34t-134 92t-91.5 135t-33.5 163q0 87 33.5 164
t91.5 134.5t134 91t162 33.5t162.5 -33.5t134 -91t91 -134.5t33.5 -164q0 -86 -33.5 -163t-91 -135t-134 -92t-162.5 -34z" />
    <glyph glyph-name="uni25CE" unicode="&#x25ce;" horiz-adv-x="1000" 
d="M500 -47q75 0 141 29t115.5 78.5t78 116t28.5 140.5q0 75 -28.5 141t-78 116t-115.5 79t-141 29t-140.5 -29t-115 -79t-78 -116t-28.5 -141q0 -74 28.5 -140.5t78 -116t115 -78.5t140.5 -29zM500 -106q-86 0 -162 34t-134 92t-91.5 135t-33.5 163q0 87 33.5 164
t91.5 134.5t134 91t162 33.5t162.5 -33.5t134 -91t91 -134.5t33.5 -164q0 -86 -33.5 -163t-91 -135t-134 -92t-162.5 -34zM500 539q46 0 86 -17.5t70 -48t47.5 -71t17.5 -85.5t-17.5 -85.5t-47.5 -71t-70 -48t-86 -17.5q-45 0 -85 17.5t-70 48t-47.5 71t-17.5 85.5
t17.5 85.5t47.5 71t70 48t85 17.5zM500 149q34 0 64.5 13.5t53.5 36t36 53t13 65.5q0 34 -13 65t-36 53.5t-53.5 36t-64.5 13.5q-35 0 -65 -13.5t-53 -36t-36 -53.5t-13 -65q0 -35 13 -65.5t36 -53t53 -36t65 -13.5z" />
    <glyph glyph-name="uni25CF" unicode="&#x25cf;" horiz-adv-x="1000" 
d="M500 -106q-86 0 -162 34t-134 92t-91.5 135t-33.5 163q0 87 33.5 164t91.5 134.5t134 91t162 33.5t162.5 -33.5t134 -91t91 -134.5t33.5 -164q0 -86 -33.5 -163t-91 -135t-134 -92t-162.5 -34z" />
    <glyph glyph-name="uni25D0" unicode="&#x25d0;" horiz-adv-x="1000" 
d="M500 -47q75 0 141 29t115.5 78.5t78 116t28.5 140.5q0 75 -28.5 141t-78 116t-115.5 79t-141 29v-729zM500 -106q-86 0 -162 34t-134 92t-91.5 135t-33.5 163q0 87 33.5 164t91.5 134.5t134 91t162 33.5t162.5 -33.5t134 -91t91 -134.5t33.5 -164q0 -86 -33.5 -163
t-91 -135t-134 -92t-162.5 -34z" />
    <glyph glyph-name="uni25D1" unicode="&#x25d1;" horiz-adv-x="1000" 
d="M500 682q-75 0 -141 -29t-115.5 -79t-78 -116t-28.5 -141q0 -74 28.5 -140.5t78 -116t115.5 -78.5t141 -29v729zM500 741q85 0 161.5 -33.5t134.5 -91t91.5 -134.5t33.5 -164q0 -86 -33.5 -163t-91.5 -135t-134.5 -92t-161.5 -34q-86 0 -162.5 34t-134 92t-91 135
t-33.5 163q0 87 33.5 164t91 134.5t134 91t162.5 33.5z" />
    <glyph glyph-name="uni2605" unicode="&#x2605;" horiz-adv-x="1000" 
d="M600 447h327l-264 -191l100 -311l-263 192q-67 -48 -132.5 -95.5t-131.5 -96.5l99 313l-262 189h326l100 310z" />
    <glyph glyph-name="uni2606" unicode="&#x2606;" horiz-adv-x="1000" 
d="M600 447h327l-264 -191l100 -311l-263 192q-67 -48 -132.5 -95.5t-131.5 -96.5l99 313l-262 189h326l100 310zM443 396h-205l170 -106l-79 -216l171 142l169 -140l-80 214l170 106h-204l-56 196z" />
    <glyph glyph-name="uni260E" unicode="&#x260e;" horiz-adv-x="1000" 
d="M786 385q-26 0 -42.5 10.5t-20.5 36.5q29 -9 52.5 -12.5t60.5 -5.5h23.5t26 1t24 2.5t18.5 3.5q0 -27 -17.5 -33t-43.5 -6zM134 382q-26 0 -44 6t-18 33q15 -5 43 -6.5t50 -0.5q36 2 60.5 5.5t51.5 12.5q-3 -26 -19.5 -36.5t-42.5 -10.5zM221 32h-12t-6 3q0 1 -2 12
t-4 24.5t-3.5 26.5t-1.5 20l78 226q4 12 9.5 19.5t12 13.5t14 12t17.5 16t16 16.5t9.5 12.5t4.5 13.5t1 19.5v53q-13 -3 -25.5 -9.5t-22.5 -15.5t-16.5 -20t-7.5 -23q-16 -4 -28.5 -7t-25 -5t-26 -3.5t-31.5 -1.5h-24.5t-27 0.5t-25.5 2t-19 3.5q4 34 9 58t17 41.5t32.5 30
t55.5 23.5q75 20 156.5 30t155.5 10q77 0 157 -10t155 -30q34 -11 54.5 -23.5t32 -30t17 -41.5t9.5 -58q-8 -2 -19.5 -3.5t-25 -2t-27 -0.5h-24.5q-35 1 -57 5t-54 12q-2 24 -23.5 43.5t-49.5 24.5v-53q0 -12 1.5 -19.5t5 -13.5t10 -12.5t15.5 -16.5q10 -10 17.5 -16t14 -12
t12 -13.5t10.5 -19.5l77 -226q0 -7 -1.5 -20t-3.5 -26.5t-4 -24.5t-2 -12q0 -3 -6.5 -3h-11.5h-559zM370 284q0 -26 9.5 -50.5t26.5 -43t40.5 -29.5t50.5 -11q28 0 52 10t42 28t28 42.5t10 52.5q0 26 -10 49.5t-27.5 41t-40.5 28t-50 10.5t-50.5 -9.5t-41.5 -27t-28.5 -41
t-10.5 -50.5zM396 526l14 -75l90 5l89 -4l14 75q-20 2 -46.5 5.5t-56.5 2.5q-30 0 -57 -3.5t-47 -5.5z" />
    <glyph glyph-name="uni260F" unicode="&#x260f;" horiz-adv-x="1000" 
d="M218 32h-12t-6 4q0 1 -2 11t-4 23t-3.5 26t-1.5 20l78 228q10 25 23 36t31 26q11 9 17 15t9 12.5t4 14.5t1 20v53q-35 -8 -51 -25t-21 -43q-4 -22 -9.5 -35.5t-13.5 -20.5t-19 -9t-25 -2l-82 -4q-14 0 -26 1t-20.5 7t-12 18t-0.5 33q4 34 11.5 59t20.5 43t33 30.5
t49 20.5q73 20 156.5 31t157.5 11q78 0 159.5 -11t154.5 -31q29 -8 49 -20.5t33 -30.5t20.5 -43t11.5 -59q3 -21 -0.5 -33t-12.5 -18t-21 -7t-25 -1l-82 4q-14 0 -25 2t-19 9t-13.5 20.5t-9.5 35.5q-5 26 -21 43t-53 25v-53q0 -12 1 -20t4.5 -14.5t10 -12.5t17.5 -15
q18 -15 31 -26t23 -36l78 -228q0 -7 -1.5 -20t-3.5 -26t-4 -23t-2 -11q0 -4 -6.5 -4h-11.5h-564zM233 577q-29 -8 -51 -17.5t-37.5 -22t-25 -30.5t-13.5 -44q-5 -35 0.5 -46t31.5 -9l66 2q11 0 18.5 2.5t13 9.5t9.5 18.5t7 31.5t15.5 34t29.5 23.5t38 15.5t42 9
q28 5 59.5 7.5t63.5 2.5t63.5 -2.5t58.5 -7.5q21 -3 42 -9t38.5 -15.5t29.5 -23.5t16 -34q3 -20 7 -31.5t9.5 -18.5t13 -9.5t18.5 -2.5l66 -2q26 -2 31.5 9t0.5 46q-5 26 -14 44t-24.5 30.5t-37.5 22t-51 17.5q-61 16 -132.5 23t-134.5 7t-134.5 -7t-132.5 -23zM226 64h548
l7 45l-72 212q-6 18 -13 29t-15 18.5t-16.5 13.5t-18.5 12q-20 15 -25 34t-5 45v56q-3 0 -6.5 0.5t-6.5 0.5l-14 -72q-1 0 -9.5 1t-21.5 1.5t-28.5 1.5t-30.5 1t-31 -1t-29 -2t-21.5 -2t-9.5 -1l-11 74l-13 -2v-56q0 -26 -5.5 -45t-26.5 -34q-9 -6 -17.5 -12t-16 -13.5
t-14.5 -18.5t-13 -29l-72 -212zM565 485l9 50q-7 1 -30 3t-45 2q-25 0 -46.5 -2t-28.5 -3l9 -50q11 2 30.5 2.5t35.5 0.5t35.5 -0.5t30.5 -2.5zM630 283q0 -29 -10.5 -53.5t-28.5 -42.5t-42.5 -28t-51.5 -10q-28 0 -51.5 11t-41 30t-27 43t-9.5 51q0 28 10.5 51.5t28.5 40.5
t42 26.5t51 9.5t50.5 -10.5t41.5 -28t28 -41t10 -49.5zM396 284q0 -21 8 -40t21.5 -33.5t32 -23.5t39.5 -9q22 0 41 8t33 22t22 33t8 42q0 20 -8 38t-21.5 32t-32 22.5t-39.5 8.5t-40 -7.5t-33 -21t-22.5 -32t-8.5 -39.5z" />
    <glyph glyph-name="uni261C" unicode="&#x261c;" horiz-adv-x="1000" 
d="M230 361q-12 0 -33.5 0.5t-42.5 5t-36 14t-13 29.5q1 16 17 24.5t36.5 12t40 4.5t27.5 1q13 1 43 1.5t69 1t82.5 1t83.5 0.5h52.5t60.5 -4.5t65.5 -16.5t67.5 -37q3 -3 10.5 -4l15 -2t13.5 -1h7v32h100v-240h-101v21q-2 0 -10 0.5t-9 -0.5q-5 -1 -16.5 -7.5t-31.5 -15
t-49 -17t-69 -13.5q-19 -2 -50.5 -3t-62.5 -0.5t-53.5 1.5t-23.5 2q-20 0 -36.5 7.5t-21.5 27.5q-4 13 0 19.5t6 8.5q-2 0 -8.5 3.5t-14.5 14.5q-11 20 -6 32.5t6 13.5l-5 1t-10 5t-9.5 10.5t-4.5 18.5q0 20 20 29.5t43 13.5q-11 0 -27.5 0.5t-36.5 1t-42 1.5t-43 2z
M507 432q-10 -6 -24.5 -9t-26.5 -14q-11 -8 -17.5 -22.5t-20.5 -28.5q1 -2 4 -2q2 0 6.5 0.5t12.5 4.5q9 3 15.5 9.5l12.5 12.5t11.5 9.5t11.5 1.5q7 -2 5 -8t-2 -7q1 0 12.5 -2t16.5 -1q15 5 31 11.5t17 -1.5q0 -8 -3 -17q-2 -5 -4 -11q2 -2 19 -16.5t49 -23.5
q19 -7 36 -9.5t29.5 -4.5t20 -4.5t7.5 -8.5q0 -5 -9.5 -7t-24 -1.5t-30.5 3t-29 6.5q-25 8 -43 19.5t-30 22t-18.5 18.5t-6.5 9q-1 0 -7 -2.5t-11 -2.5q-18 0 -26 3t-9 3l-8 -7q6 -2 14.5 -4t16.5 -5t14.5 -8t8.5 -12q5 -17 2 -26t-8 -14q1 0 11.5 -5.5t14.5 -19.5
q4 -15 -3.5 -22.5l-8.5 -8.5l4.5 -1t10 -4t10 -9t5.5 -16q1 -17 -3.5 -21t-9.5 -9h12.5t16.5 1q42 3 76 12t58.5 19t38.5 18t16 9h25v140h-26t-24 5q-5 1 -9.5 4t-10 6.5t-13.5 9t-20 12.5q-28 15 -79.5 23t-106.5 3zM228 428q-49 -2 -71 -5t-23 -14q-1 -14 18.5 -18.5
t75.5 -5.5q30 -1 61 -2.5t56.5 -2.5t42 -1.5t18.5 -0.5q0 1 5 10t13 21q7 6 15.5 12.5t14.5 10.5h-40.5t-59 -0.5t-66 -1.5t-60.5 -2zM852 402h-32v-197h32v197zM397 334q-8 2 -24 -1.5t-25 -10.5q-8 -5 -1.5 -15t20.5 -11q0 -1 50 -1h53.5t29.5 2q9 8 5.5 19t-23.5 14
q-14 3 -28.5 4t-27 1t-20.5 -0.5t-9 -0.5zM486 272h-98q-7 0 -12.5 -3.5t-7.5 -8.5t0 -11t10 -11q3 -2 19 -2.5t33 -0.5h31.5h14.5q4 0 11.5 1t14.5 3t13 5t7 8q2 11 -11.5 15.5t-24.5 4.5zM514 212h-48l-62 -1q-6 0 -9.5 -4.5t-4 -10.5t2 -11.5t7.5 -6.5q8 -2 25 -3.5
t34.5 -1.5h30.5t14 1q4 0 10 1t11.5 4t9 8t2.5 12t-10 10t-13 3z" />
    <glyph glyph-name="uni261E" unicode="&#x261e;" horiz-adv-x="1000" 
d="M684 313q0 -12 -4.5 -18.5t-9.5 -10.5t-10 -5l-5 -1q1 -1 6 -13.5t-6 -32.5q-10 -11 -16.5 -14.5t-10.5 -3.5q3 -2 8 -8.5t2 -19.5q-5 -20 -21.5 -27.5t-36.5 -7.5q-1 -1 -23.5 -2t-53.5 -1.5t-62.5 0.5t-50.5 3q-40 5 -69 13.5t-49 17t-32 15t-16 7.5q-1 1 -9 0.5
t-10 -0.5v-21h-101v240h100v-32h7t13.5 1l15 2t10.5 4q34 25 67.5 37t65.5 16.5t60.5 4.5h52.5q40 0 83.5 -0.5t82.5 -1t69 -1t43 -1.5q8 0 27.5 -1t39.5 -4.5t36 -12t18 -24.5q2 -20 -13 -29.5t-36 -14t-42.5 -5t-33.5 -0.5q-21 -1 -43 -2t-42 -1.5t-36.5 -1t-27.5 -0.5
q23 -4 43 -13.5t20 -29.5zM254 374q-14 -5 -24 -5h-26v-140h25q2 -1 16 -9t38.5 -18t58.5 -19t76 -12q11 -1 16.5 -1h12.5q-5 5 -9.5 9t-3.5 21q1 10 5.5 16t10 9t10 4l4.5 1l-8.5 8.5t-3.5 22.5q4 14 14.5 19.5t11.5 5.5q-5 5 -8 14t2 26q2 7 8.5 12t14.5 8t16.5 5t14.5 4
l-8 7q-1 0 -9 -3t-26 -3q-5 0 -11 2.5t-7 2.5q0 -1 -6.5 -9t-18.5 -18.5t-30 -22t-43 -19.5q-13 -4 -29 -6.5t-30.5 -3t-24 1.5t-9.5 7q0 6 7.5 8.5t20 4.5t29.5 4.5t36 9.5q32 9 49 23.5t19 16.5q-2 6 -4 11t-3 9.5t0 7.5q1 8 17 1.5t31 -11.5q5 -1 16.5 1t12.5 2q0 1 -2 7
t5 8q6 2 11.5 -1.5t11.5 -9.5l12.5 -12.5t15.5 -9.5q7 -4 12 -4.5t7 -0.5q3 0 4 2q-14 14 -20.5 28.5t-17.5 22.5q-12 11 -26.5 14t-24.5 9q-55 5 -106.5 -3t-79.5 -23q-25 -14 -34 -21.5t-19 -10.5zM576 409q8 -12 13 -21t5 -10q1 0 18 0.5t42.5 1.5t56.5 2.5t61 2.5
q55 1 75 5.5t19 18.5q-1 11 -23 14t-71 5q-27 1 -60.5 2t-66 1.5t-59.5 0.5h-40q6 -4 14.5 -10.5t15.5 -12.5zM148 205h32v197h-32v-197zM500 297q5 -2 29.5 -2h53.5q50 0 50 1q14 1 20.5 11t-1.5 15q-9 7 -25 10.5t-24 1.5q-1 0 -9 0.5t-20.5 0.5t-27.5 -1t-28 -4
q-20 -3 -23.5 -14t5.5 -19zM524 235h14.5h31.5t33 0.5t19 2.5q8 5 10 11t0 11t-7.5 8.5t-12.5 3.5h-98q-11 0 -24.5 -4.5t-11.5 -15.5q1 -5 7 -8t13 -5t14.5 -3t11.5 -1zM496 174q1 -1 14 -1h30.5t34.5 1.5t25 3.5q5 1 7.5 6.5t2 11.5t-4 10.5t-9.5 4.5l-62 1h-48
q-4 0 -13 -3t-10 -10q-2 -7 2 -12t9.5 -8t11.5 -4t10 -1z" />
    <glyph glyph-name="female" unicode="&#x2640;" horiz-adv-x="1000" 
d="M500 632q-39 0 -72 -11.5t-58 -35t-39 -58.5t-14 -82q0 -39 13.5 -71.5t37.5 -56.5t57.5 -37.5t74.5 -13.5q40 0 73.5 13t57.5 37t37 57t13 72t-12 73.5t-35.5 59.5t-57 39.5t-76.5 14.5zM297 71v60h165v71q-48 9 -89 31t-70.5 54t-46.5 73.5t-17 88.5q0 57 19.5 102.5
t54.5 78t83 50t104 17.5t104 -18.5t83 -51.5t54.5 -78.5t19.5 -99.5q0 -44 -15 -84.5t-43.5 -73.5t-69.5 -56t-92 -32v-72h161v-60h-161v-175h-79v175h-165z" />
    <glyph glyph-name="male" unicode="&#x2642;" horiz-adv-x="1000" 
d="M853 579v-228h-59v121l-176 -167q50 -67 50 -151q0 -50 -18 -95t-52 -79t-82 -54.5t-109 -20.5q-58 0 -106 18.5t-82.5 51.5t-53.5 79t-19 100q0 57 19.5 102.5t54.5 78t83 50t104 17.5q46 0 82.5 -11t74.5 -37l175 165h-122v60h236zM407 337q-39 0 -72 -11.5t-58 -35
t-39 -58.5t-14 -82q0 -39 13.5 -71.5t37.5 -56.5t57.5 -37.5t74.5 -13.5q40 0 73.5 13t57.5 37t37 57t13 72t-12 73.5t-35.5 59.5t-57 39.5t-76.5 14.5z" />
    <glyph glyph-name="spade" unicode="&#x2660;" horiz-adv-x="1000" 
d="M374 -87q17 54 28 97t18 88q-23 -17 -55.5 -27.5t-59.5 -10.5q-34 0 -60 14t-43.5 37t-26.5 53t-9 62q0 43 12.5 81t33.5 74t49 70.5t60 70.5q32 37 58 67t47.5 56.5t39.5 51.5t34 52q16 -26 34.5 -52t40.5 -53t47.5 -57t55.5 -65q31 -36 59.5 -70.5t49.5 -70.5t33.5 -74
t12.5 -81q0 -32 -9 -62t-26.5 -53t-43.5 -37t-60 -14q-31 0 -61 11.5t-54 27.5q5 -42 16.5 -87t29.5 -99h-251z" />
    <glyph glyph-name="uni2661" unicode="&#x2661;" horiz-adv-x="1000" 
d="M816 470q0 69 -36 100.5t-99 31.5q-30 0 -57.5 -15t-51.5 -40.5t-42.5 -59t-29.5 -71.5q-11 37 -30 71t-43 60t-52 41t-57 15q-61 0 -97 -32t-36 -101q0 -39 18.5 -81t47.5 -84.5t65 -86t71 -85t65 -81t48 -74.5q16 35 45.5 74.5t64.5 80.5t72 84t66.5 85.5t48.5 85
t19 82.5zM588 20q-29 -34 -51.5 -74t-36.5 -83q-14 44 -36 82t-53 75l-141 166q-26 30 -52.5 65t-48 73t-34.5 79t-13 84q0 38 14 71t38 57t57 37.5t71 13.5q65 0 118.5 -33t79.5 -100q28 66 81 99.5t116 33.5q38 0 70.5 -13.5t56.5 -36.5t38 -55.5t15 -69.5q0 -44 -13 -85
t-34.5 -79.5t-48 -74t-52.5 -66.5z" />
    <glyph glyph-name="club" unicode="&#x2663;" horiz-adv-x="1000" 
d="M377 -82q9 25 16.5 47t13 45.5t9.5 49.5t6 59l-34 -35q-48 -48 -120 -48q-37 0 -67 13.5t-51 37.5t-32.5 56.5t-11.5 69.5q0 33 11 64t32 54.5t51 38t67 14.5q31 0 67 -9t74 -23q-14 13 -31 36.5t-31.5 50.5t-24 54t-9.5 48q0 37 15.5 66.5t41.5 49t59.5 30t70.5 10.5
q40 0 74.5 -11t60 -31.5t40 -49t14.5 -64.5q0 -26 -8.5 -52t-22 -51t-29 -46.5t-30.5 -36.5q36 11 68.5 20t64.5 9q39 0 69.5 -14.5t51.5 -38t31.5 -54.5t10.5 -64q0 -37 -11.5 -69.5t-33 -56.5t-52 -37.5t-67.5 -13.5t-65.5 12t-52.5 36l-35 35q4 -30 8 -55.5t9.5 -49
t12 -47t15.5 -49.5h-245z" />
    <glyph glyph-name="uni2664" unicode="&#x2664;" horiz-adv-x="1000" 
d="M556 -43q-7 26 -11.5 46.5t-7.5 38.5t-4 35t-1 35q0 26 4 36.5t20 10.5q6 0 14.5 -4t19.5 -10q24 -14 48.5 -24.5t55.5 -10.5q24 0 39.5 12t24 30t12 39t3.5 40q0 35 -11.5 68.5t-30.5 65.5t-43.5 63t-50.5 61q-37 43 -72.5 88.5t-65.5 88.5q-31 -45 -67 -91t-71 -87
q-25 -30 -49.5 -61t-43.5 -63t-30.5 -65.5t-11.5 -67.5q0 -19 3 -40t12 -39t24.5 -30t39.5 -12q25 0 49 9.5t53 26.5q21 13 36 13q16 0 20 -10.5t4 -36.5q0 -18 -1 -34t-4 -33.5t-8 -38.5t-12 -49h114zM374 -87q17 54 28 97t18 88q-23 -17 -55.5 -27.5t-59.5 -10.5
q-34 0 -60 14t-43.5 37t-26.5 53t-9 62q0 43 12.5 81t33.5 74t49 70.5t60 70.5q32 37 58 67t47.5 56.5t39.5 51.5t34 52q16 -26 34.5 -52t40.5 -53t47.5 -57t55.5 -65q31 -36 59.5 -70.5t49.5 -70.5t33.5 -74t12.5 -81q0 -32 -9 -62t-26.5 -53t-43.5 -37t-60 -14
q-31 0 -61 11.5t-54 27.5q5 -42 16.5 -87t29.5 -99h-251z" />
    <glyph glyph-name="heart" unicode="&#x2665;" horiz-adv-x="1000" 
d="M588 20q-29 -34 -51.5 -74t-36.5 -83q-14 44 -36 82t-53 75l-141 166q-26 30 -52.5 65t-48 73t-34.5 79t-13 84q0 38 14 71t38 57t57 37.5t71 13.5q65 0 118.5 -33t79.5 -100q28 66 81 99.5t116 33.5q38 0 70.5 -13.5t56.5 -36.5t38 -55.5t15 -69.5q0 -44 -13 -85
t-34.5 -79.5t-48 -74t-52.5 -66.5z" />
    <glyph glyph-name="uni2667" unicode="&#x2667;" horiz-adv-x="1000" 
d="M571 -49q-12 43 -22 88t-12 87q-1 16 3 26t12 12q9 2 21 -0.5t26 -13.5q15 -13 31 -26t32.5 -23.5t33 -17t33.5 -6.5q28 0 49.5 11.5t36 30.5t21.5 43.5t7 50.5t-7.5 50t-22 43t-35.5 30t-48 11q-38 0 -71.5 -11t-65.5 -22q-16 -5 -32 1.5t-16 27.5q0 5 1.5 12t6.5 15
l24 33q23 30 41.5 63.5t18.5 74.5q0 28 -10.5 50t-29 37.5t-44 24t-54.5 8.5q-24 0 -48 -6.5t-43.5 -21t-32 -37.5t-12.5 -55q0 -21 6.5 -44t18 -45t26 -42t30.5 -36q7 -7 9.5 -14.5t2.5 -15.5q0 -15 -9.5 -25t-23.5 -10q-11 0 -24 6q-20 10 -36 16.5t-31 10t-30.5 4.5
t-33.5 1q-25 0 -45.5 -11t-35 -30t-22.5 -43t-8 -50t7 -50.5t21 -43.5t35 -30.5t49 -11.5q36 0 69.5 22t62.5 51q12 12 24 14.5t21 0.5q10 -4 14 -15.5t2 -26.5q-4 -38 -10 -80t-23 -92h142zM377 -82q9 25 16.5 47t13 45.5t9.5 49.5t6 59l-34 -35q-48 -48 -120 -48
q-37 0 -67 13.5t-51 37.5t-32.5 56.5t-11.5 69.5q0 33 11 64t32 54.5t51 38t67 14.5q31 0 67 -9t74 -23q-14 13 -31 36.5t-31.5 50.5t-24 54t-9.5 48q0 37 15.5 66.5t41.5 49t59.5 30t70.5 10.5q40 0 74.5 -11t60 -31.5t40 -49t14.5 -64.5q0 -26 -8.5 -52t-22 -51t-29 -46.5
t-30.5 -36.5q36 11 68.5 20t64.5 9q39 0 69.5 -14.5t51.5 -38t31.5 -54.5t10.5 -64q0 -37 -11.5 -69.5t-33 -56.5t-52 -37.5t-67.5 -13.5t-65.5 12t-52.5 36l-35 35q4 -30 8 -55.5t9.5 -49t12 -47t15.5 -49.5h-245z" />
    </font>
</defs>
</svg>
